<svg id="Group_22" data-name="Group 22" xmlns="http://www.w3.org/2000/svg" width="243.677" height="25.738" viewBox="0 0 243.677 25.738">
  <rect id="Rectangle_8" data-name="Rectangle 8" width="4.72" height="4.714" transform="translate(0 10.763)" fill="#d7001a"/>
  <g id="Group_3" data-name="Group 3" transform="translate(9.392 0)">
    <path id="Path_14" data-name="Path 14" d="M92,18.574h.643v1.833H93.1V18.574h.667v-.358H92Z" transform="translate(-35.364 -16.407)" fill="#fff"/>
    <path id="Path_15" data-name="Path 15" d="M65.008,27.79l-.024-.714-.047-.714-.072-.666-.095-.667-.1-.619-.118-.619-.143-.6-.167-.572-.167-.524-.19-.523-.238-.5-.238-.477-.262-.428-.262-.429-.309-.4-.334-.38-.334-.333-.381-.333-.4-.31-.429-.261-.452-.262-.478-.215-.5-.214-.524-.167-.549-.144-.6-.118-.6-.1-.644-.071-.691-.024-.692-.025-.691.025-.667.024-.644.071-.62.1-.6.118-.548.144-.524.167-.5.214-.477.215-.453.262-.429.261-.381.31-.38.333-.358.333-.334.38-.287.4-.286.429-.262.428-.238.477-.215.5-.215.523-.167.524-.167.572-.12.6-.118.619-.119.619-.072.667-.071.666-.072.714-.024.714-.025.738v1.524l.025.762.024.714.072.69.071.667.072.643.119.62.118.6.12.594.167.548.167.524.215.5.215.476.238.453.262.428.286.4.287.381.334.357.358.333.38.31.381.285.429.263.453.238.477.213.5.191.524.167.548.143.6.095.62.1.644.07.667.025.691.024.692-.024.691-.025.644-.07.6-.1.6-.095.549-.143.524-.167.5-.191.478-.213.452-.238.429-.263.4-.285.381-.31.334-.333.334-.357.309-.381.262-.4.262-.428.238-.453.238-.476.19-.5.167-.524.167-.548.143-.594.118-.6.1-.62.095-.643.072-.667.047-.69.024-.714.024-.762.024-.763-.024-.762Zm-5.053,2.476-.024.881-.072.834-.1.785-.071.357-.072.334-.071.333-.1.309-.119.309-.1.262-.119.286-.143.238-.143.238-.167.215-.167.214-.19.19-.191.167-.215.143-.214.143-.239.118-.261.119-.263.1-.286.1L56.332,37l-.31.047-.334.025-.358.024h-.714l-.358-.024-.333-.025L53.615,37l-.31-.071-.287-.1-.262-.1-.238-.119-.239-.118-.238-.143-.215-.143-.191-.167-.19-.19-.167-.214-.167-.215-.143-.238-.119-.238-.119-.286-.119-.262-.119-.309-.072-.309-.095-.333-.072-.334-.047-.357-.12-.785-.071-.834-.024-.881-.024-.976.024-.952.024-.929.071-.833.12-.786.047-.38.072-.358.095-.357.072-.309.119-.309.119-.309.119-.286.119-.262.143-.238.167-.238.167-.238.19-.19.191-.19.215-.167.238-.167.239-.142.238-.12.262-.095.287-.1.31-.071.309-.072.333-.024.358-.024.357-.024.358.024.358.024.334.024.31.072.309.071.286.1.263.095.261.12.239.142.214.167.215.167.191.19.19.19.167.238.167.238.143.238.143.262.119.286.1.309.119.309.1.309.071.357.072.358.071.38.1.786.072.833.024.929.024.952Z" transform="translate(-28.086 -16.124)" fill="#fff"/>
    <path id="Path_16" data-name="Path 16" d="M87.058,32.886l-.047-.334-.048-.333-.071-.285-.072-.31-.095-.261-.1-.287-.118-.261-.143-.238-.143-.238-.167-.238-.167-.214-.191-.215-.214-.19-.215-.191-.238-.214-.262-.167-.263-.191-.309-.167-.286-.167-.334-.167-.692-.333-.786-.31-.859-.333-.953-.309-.714-.215-.669-.215-.6-.214-.524-.215-.453-.167-.429-.19-.358-.191-.309-.19L76,25.147l-.215-.19-.191-.191-.119-.214-.1-.214-.072-.238-.047-.261v-.572l.047-.287.072-.238L75.5,22.5l.119-.214.167-.191.19-.19.238-.143.262-.143.286-.119.31-.119.358-.071.381-.071.4-.048.453-.024h1.049l.333.024h.334l.381.025.358.024.4.046.382.025.4.024.381.047.406.025.381.047.381.024.358.047.334.025.309.024.309.047.263.024.238.024.191.024.286.025.1.024.4-4.4-.143-.024-.382-.072-.261-.047-.31-.047-.358-.072-.4-.071-.4-.072-.453-.072-.477-.071-.477-.072-.5-.07-.5-.048-.5-.072-.5-.047-.478-.047-.476-.024-.452-.025h-1.1l-.644.048-.62.071-.6.1-.572.118-.548.143-.524.167-.525.191-.476.214-.429.238-.429.286-.381.286-.381.309-.334.357-.31.358-.262.38-.262.429-.215.429-.19.476-.144.476-.118.5-.073.547-.071.548v.953l.025.38.024.358.047.357.048.333.071.333.1.309.1.286.119.309.118.263.144.285.143.262.167.238.19.261.214.215.215.238.238.214.239.214.261.215.287.19.309.19.31.191.333.167.358.19.739.333.835.31.905.309,1,.309.619.167.572.191.5.167.453.19.406.167.358.167.309.19.262.167.238.19.19.19.143.214.12.214.071.215.072.238.024.261.024.287-.024.333-.047.309-.072.286-.1.261-.118.238-.144.215-.19.19-.215.167-.238.143-.286.119-.31.1-.358.1L79.812,37l-.429.047-.43.025h-.882l-.4-.025-.429-.024L76.785,37l-.476-.025-.453-.046-.477-.025-.453-.047-.452-.048-.429-.047-.429-.047-.381-.047-.381-.025-.31-.047-.309-.024-.238-.047-.358-.048h-.12l-.5,4.381.12.024.38.072L71.8,41l.309.071.358.072.406.071.429.072.429.072.476.071.478.072.5.071.5.071.5.048.5.047.477.047.476.048h.429l.429.024.476-.024h.453l.453-.048.452-.047.429-.071.406-.072.4-.095.4-.12.381-.118.381-.143.358-.143.358-.167.333-.19.31-.19.31-.215L84.723,40l.286-.238.263-.261.238-.286.238-.286.215-.286.191-.309.19-.333.167-.358.143-.357.143-.357.1-.4.095-.4.072-.4.048-.452.024-.429.024-.477L87.13,33.6Z" transform="translate(-32.022 -16.124)" fill="#fff"/>
    <path id="Path_17" data-name="Path 17" d="M95.468,19.716l-.406-1.5h-.667v2.191h.429V18.668l.429,1.738h.429l.452-1.738v1.738h.4V18.216h-.667Z" transform="translate(-35.735 -16.407)" fill="#fff"/>
    <path id="Path_18" data-name="Path 18" d="M25.01,26.964h4.862V21.607H40.646V16.893H25.01Z" transform="translate(-25.01 -16.202)" fill="#fff"/>
    <path id="Path_19" data-name="Path 19" d="M29.872,34.382H25.01v9.833H40.646V39.5H29.872Z" transform="translate(-25.01 -18.906)" fill="#fff"/>
    <rect id="Rectangle_9" data-name="Rectangle 9" width="8.605" height="4.714" transform="translate(4.862 10.762)" fill="#fff"/>
    <path id="Path_20" data-name="Path 20" d="M248.565,26.79l-.047-.69-.047-.692-.1-.643-.072-.643-.119-.6-.095-.6-.144-.572-.166-.548-.167-.5-.19-.5-.238-.476-.215-.452-.262-.428-.286-.4-.309-.358-.31-.357-.358-.333-.381-.287-.4-.285-.429-.262-.452-.215-.5-.215-.5-.167-.549-.143-.572-.118-.6-.1-.644-.071-.667-.047-.691-.025-.715.025-.667.047-.62.071-.619.1-.572.118-.549.143-.5.191-.478.19-.452.238-.43.238-.4.285-.381.309-.358.334-.334.358-.31.38-.261.4-.263.429-.238.429-.214.475-.191.5-.19.524-.144.548-.143.547-.119.6-.1.6-.095.643-.072.643-.071.667-.048.69-.024.714-.024.738v1.381l.024.594v.572l.048.572.024.572.047.524.047.523.072.524.071.5.072.476.1.453.119.451.119.453.119.4.143.4.143.4.167.357.191.381.191.333.215.334.214.309.238.309.238.262.262.285.287.238.309.238.309.215.334.213.358.191.358.167.4.143.406.143.4.119.452.119.454.095.5.072.5.047.524.047.549.025h1.12l.549-.025.524-.047.5-.047.477-.072.477-.071.429-.119.429-.095.4-.144.382-.143.381-.167.333-.167.334-.214.334-.215.286-.214.286-.238.262-.262.262-.285.239-.287.214-.309.215-.309.19-.334.191-.358.167-.38.143-.38.144-.4.143-.429.1-.429.119-.451.095-.477.072-.476.071-.5.072-.523.048-.548.047-.549.047-.571.025-.6.024-.6V28.243l-.024-.738Zm-1.311,1.524v1.833l-.024.548-.023.523-.025.524-.024.5-.048.5-.047.476-.119.881-.167.834-.072.4-.119.38-.119.358-.119.357-.119.333-.167.333-.143.286-.191.31-.167.261-.215.262-.215.262-.215.214-.238.238-.263.19-.261.19-.287.167-.309.167-.334.142-.333.144-.358.118-.358.1-.381.1-.406.072-.429.071-.452.047-.477.024-.477.025h-1.025l-.477-.025-.477-.047-.429-.048-.429-.071-.406-.071-.4-.1L235.551,40l-.358-.119-.334-.142-.333-.144-.286-.167-.287-.19-.286-.191-.238-.213-.262-.238-.215-.238-.215-.261-.19-.263-.191-.285-.167-.287-.167-.333-.144-.309-.142-.358-.12-.334-.119-.381-.095-.38-.1-.381-.167-.833-.118-.881-.048-.477-.047-.476-.025-.475-.024-.5-.024-.524-.024-.523v-2.19l.024-.523.024-.524.024-.5.048-.5.024-.476.072-.452.119-.9.167-.857.095-.381.1-.4.118-.357.12-.381.143-.333.143-.334.167-.333.191-.285.167-.31.215-.261.215-.263.214-.261.262-.238.239-.214L234,18.6l.286-.19.286-.167.334-.167.334-.143.357-.143.358-.119.382-.1.4-.071.429-.071.43-.072.477-.025.477-.024.5-.024.6.024.6.024.549.073.524.095.5.1.476.143.452.167.406.19.406.19.357.238.358.261.334.263.287.309.286.31.262.333.238.381.215.381.19.4.191.429.167.452.143.476.119.476.119.524.1.524.1.547.071.572.048.594.047.619.047.62.024.643Z" transform="translate(-56.614 -16.076)" fill="#fff"/>
    <path id="Path_21" data-name="Path 21" d="M271.912,34.446l-.025.548-.047.524-.047.5-.1.451-.119.429-.143.429-.191.358-.19.357-.215.333-.262.287-.262.285-.287.238-.334.238-.333.215L269,39.8l-.382.167-.4.143-.429.119-.452.1-.478.095-.5.048-.5.047-.549.024h-1.072l-.478-.024-.5-.047-.452-.072-.453-.071-.4-.1-.406-.119-.4-.143-.358-.167-.358-.191-.309-.19-.31-.238-.286-.262-.262-.261-.238-.31-.215-.333-.191-.333-.167-.381-.143-.4-.119-.429-.072-.476-.072-.476-.046-.524-.024-.548V16.47h-1.288V34.446l.024.643.047.62.072.594.118.548.144.524.167.5.19.452.238.4.238.4.286.357.31.333.334.286.357.286.382.238.429.238.429.19.453.167.5.143.5.118.524.1.548.07.572.072.6.025h1.288l.62-.025.62-.072.572-.07.572-.1.524-.118.5-.143.5-.167.454-.214.429-.215.4-.238.358-.286.358-.309.31-.333.286-.358.262-.38.238-.429.19-.452.167-.476.143-.524.119-.548.071-.594.048-.62.024-.643V16.47h-1.287Z" transform="translate(-60.82 -16.137)" fill="#fff"/>
    <path id="Path_22" data-name="Path 22" d="M218.119,30.827l.429-.119.429-.142.382-.167.381-.167.333-.191.334-.214.287-.238.286-.263.238-.261.238-.286.215-.309.215-.309.167-.334.143-.357.142-.381.12-.38.095-.38.1-.429.071-.429.047-.451.048-.453.024-.475v-.477l-.024-.619-.024-.572-.072-.548-.1-.524-.119-.5-.143-.476-.167-.429-.191-.4-.215-.381-.238-.357-.263-.333-.309-.309-.309-.287-.358-.238-.381-.238-.406-.19-.406-.167-.452-.167-.477-.119-.5-.095-.549-.1-.548-.046-.572-.048h-9.582V41.446h1.287V31.089h8.533l5.578,10.356h1.453l-5.625-10.523ZM217,29.78l-.358.047-.4.024-.4.024h-8.1V17.684h8.2l.476.024.478.048.429.072.429.095.382.1.381.143.333.143.334.167.309.167.263.214.261.238.239.261.215.263.215.285.167.334.143.333.143.358.1.38.095.429.072.429.047.452.048.476v.524l-.025.69-.047.667-.1.619-.118.6-.1.287-.1.285-.1.262-.119.238-.118.262-.144.215-.167.238-.167.213-.167.191-.215.19-.19.167-.238.167-.238.143-.262.143-.263.142-.285.12-.311.095-.309.1-.358.071Z" transform="translate(-53.054 -16.137)" fill="#fff"/>
    <path id="Path_23" data-name="Path 23" d="M299.085,23.375l-.024-.619-.072-.572-.071-.548-.12-.523-.118-.477-.167-.451-.19-.429-.191-.4-.238-.38-.263-.357-.286-.309-.31-.309-.358-.262-.358-.238-.4-.214-.4-.19-.453-.167-.5-.143-.5-.118-.548-.072-.572-.071-.6-.048h-9.749V41.446h1.288V32.279H291.7l.643-.025.6-.047.572-.072.548-.119.5-.143.5-.167.453-.215.4-.214.4-.262.358-.285.358-.31.31-.357.286-.358.263-.4.238-.4.191-.452.19-.476.167-.5.118-.523.12-.548.071-.572.072-.572.024-.619.025-.643Zm-1.359,1.143-.024.523-.047.5-.072.476-.071.453-.1.451-.142.429-.144.4-.167.381-.167.357-.215.333-.238.309-.262.31-.262.261-.31.262-.309.215-.358.214-.358.167-.4.142-.43.119-.453.1-.477.071-.5.047-.524.025h-7.818V17.684h8.342l.5.048.477.047.453.071.43.1.4.119.358.143.358.143.309.191.31.19.262.238.262.238.238.286.215.286.167.333.167.333.144.357.142.381.1.4.071.429.072.476.047.477.024.5.024.523Z" transform="translate(-64.825 -16.137)" fill="#fff"/>
    <path id="Path_24" data-name="Path 24" d="M181.689,29V27.957l.024-.5.024-.5.024-.5.025-.477.048-.476.024-.452.119-.881.167-.833.095-.4.1-.381.119-.38.119-.358.119-.357.143-.333L183,20.79l.167-.309.19-.286.191-.286.191-.285.238-.238.215-.262.261-.214.263-.215.286-.214.286-.191.31-.167.334-.143.333-.143.358-.119L187,17.6l.406-.1.4-.071.454-.048.452-.048.477-.024.477-.024.5.024h.524l.5.048.524.024.549.048.524.071.5.047.524.072.476.071.478.072.452.071.406.072.381.047.358.071.309.048.263.047.358.072.118.023.119-1.238-.119-.024-.333-.071-.263-.048-.286-.047-.31-.072-.38-.047-.406-.071-.429-.071-.452-.072-.5-.048-.5-.071-.524-.047-.548-.072-.549-.047-.572-.024-.548-.024-.572-.024-.572-.025-.548.025-.549.024-.5.047-.5.071-.477.072-.453.118-.453.119-.4.119-.406.167-.381.167-.358.19-.334.215-.333.214-.31.238-.286.262-.286.262-.263.286-.238.309-.238.309-.215.334-.191.357-.191.357-.167.358-.167.4-.143.4-.144.4-.119.429-.118.452-.1.452-.1.452-.072.476-.071.5-.047.5-.072.523-.024.523-.048.524-.024.547-.024.572v1.881l.024.714.024.691.048.667.071.666.072.643.071.594.12.62.118.571.143.547.143.524.191.523.191.477.214.476.239.429.238.428.287.4.286.381.334.333.333.333.381.31.406.285.4.238.453.238.453.19.5.191.548.143.549.118.572.1.619.071.644.048h1.12l.452-.025.5-.024.5-.047.525-.047.524-.048.525-.047.5-.071.524-.072.476-.048.478-.07.452-.073.406-.07.381-.048.333-.047.286-.048.406-.071.143-.024V29h-6.65v1.214h5.363v9.547l-.167.024-.358.072-.238.024-.263.048-.309.047-.334.047-.358.048-.381.047-.4.071-.406.048-.429.047-.429.047-.43.048-.428.024-.43.047-.406.025h-1.406l-.572-.048-.547-.072-.5-.071-.5-.119-.452-.119-.43-.167-.429-.19-.38-.214-.358-.215L184.573,39l-.309-.263-.286-.309-.287-.31-.238-.333-.239-.381-.214-.38-.191-.4-.167-.4-.167-.453-.143-.451-.118-.477-.12-.524-.095-.5-.072-.547-.071-.548-.048-.6-.048-.571-.047-.62-.024-.619V29Z" transform="translate(-49.018 -16.076)" fill="#fff"/>
    <path id="Path_25" data-name="Path 25" d="M149.231,32.552l-.048-.333-.071-.285-.1-.31-.095-.261-.1-.287-.118-.261-.143-.238-.143-.238-.167-.238-.167-.214-.191-.215-.19-.19-.238-.191-.239-.214-.238-.167-.287-.191-.286-.167-.309-.19-.31-.143-.715-.333-.786-.31-.859-.333-.928-.309-.739-.215-.644-.215-.6-.214-.524-.215-.477-.167-.4-.19-.358-.191-.309-.19-.262-.19-.214-.19-.167-.191-.143-.214-.1-.214L137.5,24.1l-.023-.261-.025-.287.025-.285.047-.287.072-.238.1-.238.144-.214L138,22.1l.19-.19.214-.143.263-.143.286-.119.334-.119.334-.071.4-.071.4-.048.454-.024h1.048l.309.024h.358l.358.025.381.024.381.046.406.025.38.024.406.047.381.025.4.047.358.024.358.047.334.025.333.024.287.047.286.024.215.024.215.024.286.025.095.024.382-4.4-.119-.024-.381-.072-.286-.047-.31-.047-.358-.072-.381-.071-.429-.072-.454-.072-.452-.071-.5-.072-.5-.07L144.2,16.6l-.5-.072-.5-.047-.5-.047-.453-.024-.452-.025h-1.1l-.644.048-.643.071-.6.1-.572.118-.548.143-.525.167-.5.191-.477.214-.453.238-.4.286-.4.286-.358.309-.334.333-.31.381-.286.38-.238.429-.215.429-.19.476-.144.476-.118.5-.1.547-.047.548-.025.571v.381l.025.38.024.358.047.357.072.333.072.333.071.309.1.286.119.309.118.263.144.285.167.262.167.238.19.261.191.215.214.238.238.214.238.214.286.215.287.19.286.19.309.191.334.167.358.19.763.333.835.31.905.309.977.309.62.167.572.191.524.167.453.19.406.167.358.167.309.19.262.167.215.19.19.19.143.214.12.214.095.215.048.238.047.261v.62l-.047.309-.072.286-.1.261-.118.238-.167.215-.191.19-.215.167-.238.143-.286.119-.31.1-.334.1-.381.071-.4.047-.453.025h-.858l-.43-.025-.429-.024L138.981,37l-.452-.025-.477-.046-.453-.025-.476-.047-.453-.048-.429-.047-.406-.047-.405-.047-.358-.025-.334-.047-.286-.047-.262-.024-.358-.048-.119-.024-.5,4.4.144.024.381.072L134,41l.334.071.333.072.406.071.429.072.452.072.453.071.5.072.5.071.5.071.5.048.478.047.5.047.452.048h.453l.429.024.452-.024h.477l.453-.048.429-.047.429-.071.429-.072.4-.095.406-.12.381-.118.381-.143.358-.143.334-.167.333-.19.334-.19.31-.215.286-.215.287-.238.262-.261.262-.286.214-.286.215-.286.215-.309.167-.333.167-.358.167-.357.119-.357.119-.4.071-.4.072-.4.048-.452.047-.429V33.6l-.072-.714Z" transform="translate(-41.635 -16.124)" fill="#fff"/>
    <path id="Path_26" data-name="Path 26" d="M172.7,16.893h-5.673l-4,10.19-3.218.358V16.893H154.9V41.512h4.911V32.2l3.29-.357,4.076,9.667h5.673l-5.411-12.381Z" transform="translate(-45.087 -16.202)" fill="#fff"/>
    <rect id="Rectangle_10" data-name="Rectangle 10" width="4.935" height="24.619" transform="translate(83.927 0.69)" fill="#fff"/>
    <path id="Path_27" data-name="Path 27" d="M118.044,23.678l-.072-.643-.1-.6-.143-.572-.143-.547-.191-.5-.215-.477-.261-.428-.263-.4-.309-.381-.334-.333-.381-.31-.406-.285-.428-.263-.454-.213-.5-.215-.524-.167-.548-.144-.572-.118-.62-.072-.644-.071-.691-.047H100.118V41.512h4.911V33.559h4.719l2.86,7.953H118l-3.456-9.429.263-.167.261-.19.263-.19.238-.191.238-.214.238-.215.191-.214.214-.238.191-.238.19-.262.167-.262.167-.286.143-.286.143-.309.118-.309.1-.333.118-.333.072-.358.1-.357L118,26.75l.048-.4.047-.4v-.429l.024-.451-.024-.714Zm-4.982,1.452v.548l-.024.238-.047.262-.048.238-.072.238-.071.215-.072.214-.095.215-.12.19-.118.167-.119.167-.167.167-.144.143-.167.143-.19.119-.214.119-.191.095-.238.072-.238.072-.262.047-.262.047-.286.024h-4.887V21.56h4.5l.429.024.4.047.381.071.334.1.31.119.309.143.262.19.238.215.191.238.19.261.143.286.12.333.095.334.072.38.047.4Z" transform="translate(-36.619 -16.202)" fill="#fff"/>
  </g>
</svg>
