<svg id="Group_7" data-name="Group 7" xmlns="http://www.w3.org/2000/svg" width="267" height="28.201" viewBox="0 0 267 28.201">
  <rect id="Rectangle_8" data-name="Rectangle 8" width="4.973" height="4.966" transform="translate(0 11.895)" fill="#d7001a"/>
  <g id="Group_3" data-name="Group 3" transform="translate(9.894)">
    <path id="Path_14" data-name="Path 14" d="M92,18.593h.678v1.931h.477V18.593h.7v-.377H92Z" transform="translate(-29.829 -16.31)" fill="#2a3b46"/>
    <path id="Path_15" data-name="Path 15" d="M66.083,28.886l-.025-.783-.05-.783-.076-.73-.1-.731-.1-.678-.125-.678-.151-.652-.176-.626-.176-.575-.2-.574-.251-.548L64.4,21l-.276-.469-.276-.471-.326-.444-.352-.417-.352-.365-.4-.365-.427-.34-.452-.286-.477-.287-.5-.235-.527-.234-.552-.183L58.9,16.75l-.627-.13-.628-.1-.679-.078-.728-.026-.729-.027-.728.027-.7.026-.679.078-.653.1-.628.13-.577.158-.552.183-.527.234-.5.235-.477.287-.452.286-.4.34-.4.365-.377.365-.352.417-.3.444-.3.471L46.622,21l-.251.523-.226.548-.226.574-.175.575-.175.626-.126.652-.125.678-.126.678-.076.731-.075.73-.076.783-.025.783-.026.809v1.671l.026.835.025.783.076.756.075.731.076.7.126.679.125.652.126.651.175.6.175.575.226.548.226.522.251.5.276.469.3.444.3.418.352.391.377.365.4.34.4.312.452.288.477.261.5.234.527.209.552.183.577.157.628.1.653.106.679.077.7.027.728.026.729-.026.728-.027.679-.077.628-.106.627-.1.578-.157.552-.183.527-.209.5-.234.477-.261.452-.288.427-.312.4-.34.352-.365.352-.391.326-.418.276-.444L64.4,39.9l.251-.5.251-.522.2-.548.176-.575.176-.6.151-.651.125-.652.1-.679.1-.7.076-.731.05-.756.025-.783.025-.835.025-.836-.025-.835ZM60.76,31.6l-.025.966-.076.914-.1.861-.075.391-.076.366-.075.365-.1.339-.126.339-.1.287-.126.313L59.73,37l-.151.261L59.4,37.5l-.176.234-.2.209-.2.183-.226.157-.225.157-.252.13-.275.131-.277.1-.3.1-.326.078-.327.052-.352.027-.377.026h-.753l-.378-.026-.351-.027-.326-.052-.327-.078-.3-.1-.276-.1-.25-.131-.252-.13-.25-.157-.226-.157-.2-.183-.2-.209L51.62,37.5l-.176-.235L51.293,37l-.126-.26-.126-.313-.126-.287-.126-.339-.076-.339-.1-.365-.076-.366-.05-.391-.126-.861-.075-.914-.025-.966-.025-1.07.025-1.043.025-1.018.075-.913.126-.862.05-.417.076-.392.1-.391.076-.339.126-.339.126-.339.126-.313.126-.287.151-.261.176-.26.175-.261.2-.209.2-.209.226-.183.25-.183.252-.156.25-.132.276-.1.3-.1.327-.078.326-.079.351-.026.378-.026.376-.026.377.026.377.026.352.026.327.079.326.078.3.1.277.1.275.132.252.156.225.183.226.183.2.209.2.209.176.261.175.26.151.261.151.287.126.313.1.339.126.339.1.339.075.391.076.392.075.417.1.862.076.913.025,1.018.025,1.043Z" transform="translate(-27.186 -16.11)" fill="#2a3b46"/>
    <path id="Path_16" data-name="Path 16" d="M87.951,34.472l-.05-.366-.051-.365-.075-.312-.076-.34-.1-.286-.1-.314-.125-.286-.151-.261-.151-.261-.176-.26-.175-.234-.2-.235-.225-.208-.226-.209-.251-.234-.276-.183-.277-.209-.326-.183-.3-.183-.352-.183-.729-.365-.828-.34-.9-.365-1-.338-.753-.235-.7-.235-.627-.234-.552-.235-.477-.183-.452-.208-.378-.209-.326-.208-.25-.209-.226-.208-.2-.209-.126-.234-.1-.234-.076-.261-.05-.286v-.626l.05-.314.076-.26.126-.261.126-.234.176-.209.2-.208.251-.157.276-.157L77.1,22l.327-.131.377-.078.4-.078.427-.053.477-.026h1.105l.351.026h.352l.4.027.377.026.427.051.4.027.426.026.4.052.428.027.4.052.4.026.377.052.352.027.326.026.326.052.277.026.251.026.2.026.3.027.1.026.427-4.828-.151-.026-.4-.079-.275-.052-.327-.052-.377-.079-.427-.078-.427-.079-.477-.079-.5-.078-.5-.079-.527-.077-.527-.053-.527-.079-.527-.052-.5-.052-.5-.026-.477-.027H78.912l-.679.053-.653.078-.628.1-.6.13-.577.157-.552.183-.553.209-.5.234-.452.261-.452.313-.4.313-.4.339-.352.391-.327.392-.276.417-.276.47L71,20.9l-.2.522-.151.522-.125.549-.077.6-.075.6v1.044l.026.417.025.392.05.391.051.365.075.365.1.339.1.313.126.339.125.288.151.312.151.287.176.261.2.286.225.235.226.261.251.234.252.234.275.235.3.208.326.209.327.209.351.183.377.208.778.365.88.34.954.339,1.055.338.652.183.6.209.527.183.477.209.428.183.377.183.326.208.276.183.251.209.2.209.15.234.127.234.075.235.076.261.025.286.026.314-.026.365-.05.339-.076.313-.1.286-.125.261-.151.235-.2.208-.226.183-.251.157-.3.131-.327.1-.377.1-.377.078-.452.052-.453.027h-.929l-.427-.027-.452-.026-.478-.026-.5-.027-.477-.051-.5-.027-.477-.052-.477-.053-.452-.052-.452-.052-.4-.052-.4-.027-.327-.052-.326-.026-.251-.052-.377-.053h-.127l-.527,4.8.126.026.4.079.3.052.326.078.377.079.427.078.452.079.452.079.5.078.5.079.526.078.527.078.527.053.528.052.5.052.5.053h.452l.452.026.5-.026h.477l.477-.053.476-.052.452-.078.428-.079.427-.1.427-.132.4-.13.4-.157.377-.157.377-.183.351-.208.327-.209.327-.235.326-.235.3-.261.277-.286.251-.313.25-.313.226-.313.2-.339.2-.365.176-.392.151-.391.15-.391.1-.444.1-.444.076-.444.051-.5.025-.47.025-.523-.025-.834Z" transform="translate(-28.156 -16.11)" fill="#2a3b46"/>
    <path id="Path_17" data-name="Path 17" d="M95.525,19.8l-.428-1.58h-.7v2.308h.452V18.693l.452,1.831h.452l.477-1.831v1.831h.427V18.216h-.7Z" transform="translate(-29.997 -16.31)" fill="#2a3b46"/>
    <path id="Path_18" data-name="Path 18" d="M25.01,27.5h5.122V21.859H41.482V16.893H25.01Z" transform="translate(-25.01 -16.165)" fill="#2a3b46"/>
    <path id="Path_19" data-name="Path 19" d="M30.132,34.382H25.01V44.741H41.482V39.774H30.132Z" transform="translate(-25.01 -16.991)" fill="#2a3b46"/>
    <rect id="Rectangle_9" data-name="Rectangle 9" width="9.065" height="4.966" transform="translate(5.122 11.894)" fill="#2a3b46"/>
    <path id="Path_20" data-name="Path 20" d="M249.587,27.818l-.05-.756-.05-.758-.1-.7-.076-.7-.126-.652-.1-.652-.152-.626-.175-.6-.176-.548-.2-.548-.251-.522-.226-.5-.276-.469-.3-.444L247,18.946l-.327-.391-.377-.365-.4-.314-.427-.312-.452-.287-.476-.235-.528-.235-.527-.183-.578-.157-.6-.13-.628-.1L241,16.155l-.7-.052-.728-.027-.754.027-.7.052-.654.078-.652.1-.6.13-.578.157-.526.209-.5.208-.477.261-.452.261-.427.312-.4.339-.377.366-.352.392-.327.417-.275.443-.277.47-.251.471-.225.521-.2.548-.2.574-.151.6-.151.6-.126.652-.1.652-.1.705-.076.7-.075.731-.051.756-.025.783-.025.809v1.514l.025.651V32.2l.051.626.025.626.05.574.05.574.076.574.075.548.076.522.1.5.126.495.126.5.126.444.15.443.151.444.175.391.2.418.2.365.226.366.225.339.251.339.251.287.276.312.3.261.326.261.326.235.352.233.377.209.377.183.427.157.428.157.427.131.477.131.478.1.527.079.526.052.552.052.578.027h1.18l.578-.027.552-.052.527-.052.5-.079.5-.078.452-.131.452-.1.427-.158.4-.157.4-.183.351-.183.352-.234.352-.235.3-.234.3-.261.276-.287.276-.312.252-.314.225-.339.226-.338.2-.366.2-.392.176-.417.15-.417.152-.444.15-.47.1-.471.126-.495.1-.523.076-.522.075-.548.076-.574.051-.6.05-.6.05-.625.026-.652.025-.652V29.409l-.025-.809Zm-1.381,1.67V31.5l-.025.6-.024.574-.026.574-.025.548-.051.548-.05.522-.126.965-.175.914-.076.444-.126.417-.126.392-.126.391-.126.365-.175.365-.151.313-.2.34-.175.286-.226.287-.226.287-.226.234-.25.261-.277.208-.275.208-.3.183-.326.183-.352.156-.351.158-.377.13-.377.1-.4.1-.427.079-.452.078-.477.052-.5.026-.5.027h-1.079l-.5-.027-.5-.052-.452-.053-.452-.078-.428-.078-.427-.1-.377-.131-.377-.131-.352-.156-.351-.158-.3-.183-.3-.208-.3-.209-.251-.233-.276-.261-.226-.261-.226-.286-.2-.288-.2-.312-.175-.314-.176-.365-.151-.338-.15-.392-.126-.366-.126-.418-.1-.417-.1-.418-.176-.913-.125-.965-.051-.523-.05-.522-.026-.521-.025-.548-.025-.574-.025-.574v-2.4l.025-.574.025-.574.025-.548.051-.548.025-.522.076-.5.126-.991.175-.939.1-.418.1-.444.125-.391.126-.418.151-.365.151-.366.175-.365.2-.312.176-.34.226-.286.226-.288.225-.286.276-.261.252-.234.3-.235.3-.208.3-.183.352-.183.352-.157.376-.157.377-.131.4-.1.427-.078.452-.078.452-.079.5-.027.5-.026.527-.026.628.026.627.026.578.08.552.1.528.1.5.157.476.183.428.208.428.208.376.261.377.286.352.288.3.338.3.34.276.365.251.418.226.418.2.443.2.47.175.5.15.522.126.522.126.574.1.574.1.6.075.627.051.651.05.678.05.679.025.7Z" transform="translate(-39.102 -16.076)" fill="#2a3b46"/>
    <path id="Path_21" data-name="Path 21" d="M272.727,36.18l-.026.6-.05.575-.05.549-.1.5-.126.47-.151.47-.2.392-.2.391-.226.365-.276.314-.276.312-.3.261-.352.26-.351.235-.377.183-.4.183-.426.157-.452.131-.477.1-.5.1-.527.053-.526.052-.578.026h-1.129l-.5-.026-.527-.052-.476-.079-.477-.078-.427-.1-.427-.131-.427-.157L261,42.054l-.377-.21-.326-.209-.327-.26-.3-.287-.276-.286-.251-.34-.226-.365-.2-.365-.176-.418-.15-.444-.126-.47-.076-.522-.076-.522-.049-.575-.025-.6V16.47h-1.356V36.18l.025.705.05.679.076.652.125.6.151.575.176.548.2.5.251.444.251.444.3.391.327.365.352.313.376.313.4.261.452.261.452.209.477.183.528.157.527.13.552.106.577.077.6.079.627.027H265.9l.653-.027.653-.079.6-.077.6-.106.552-.13.527-.157.526-.183.478-.235.452-.235.427-.261.377-.313.377-.339.327-.365.3-.392.276-.417.251-.47.2-.5.176-.522.151-.575.126-.6.075-.652.051-.679.025-.705V16.47h-1.356Z" transform="translate(-40.055 -16.119)" fill="#2a3b46"/>
    <path id="Path_22" data-name="Path 22" d="M218.744,32.22l.452-.131.452-.156.4-.184.4-.183.351-.21.352-.235.3-.261.3-.288.251-.287.25-.313.226-.339.226-.339.176-.366.151-.391.15-.418.126-.417.1-.417.1-.47.075-.471.05-.5.051-.5.025-.521v-.523l-.025-.679L223.665,23l-.076-.6-.1-.575-.126-.548-.15-.522-.175-.47-.2-.444-.226-.418-.25-.391-.277-.365-.326-.339-.326-.314-.377-.261-.4-.262-.427-.209L219.8,17.1l-.477-.183-.5-.131-.527-.1-.578-.106-.577-.051-.6-.053H206.439v27.4h1.356V32.507h8.99l5.877,11.361h1.531l-5.926-11.544Zm-1.181-1.149-.377.052-.427.026-.427.026h-8.538V17.8h8.639l.5.026.5.053.452.079.452.1.4.1.4.157.351.157.352.183.326.183.277.235.275.262.252.287.226.288.226.313.175.366.151.365.151.392.1.417.1.47.076.47.05.5.051.522v.575l-.026.757-.05.732-.1.679-.125.653-.1.314-.1.313-.1.288-.126.261-.125.287-.151.236-.176.262-.175.234-.175.21-.226.209-.2.183-.251.184-.251.157-.276.157-.277.156-.3.132-.328.1-.326.1-.377.078Z" transform="translate(-37.591 -16.119)" fill="#2a3b46"/>
    <path id="Path_23" data-name="Path 23" d="M299.968,24.044l-.025-.679-.076-.627-.075-.6-.127-.574-.125-.523-.176-.5-.2-.471-.2-.444-.25-.417-.277-.391-.3-.339-.327-.339-.377-.288-.377-.262-.427-.235-.427-.209-.477-.184-.527-.157-.527-.13-.577-.079-.6-.078-.628-.053h-10.27v27.4h1.357V33.813h8.236l.678-.027.628-.051.6-.079.577-.131.527-.157.527-.183.477-.236.427-.235.427-.288.377-.313.377-.34.327-.391.3-.392.277-.444.25-.443.2-.5.2-.522.176-.549.125-.574.127-.6.075-.627.076-.627.025-.679.026-.706ZM298.537,25.3l-.025.574-.05.549-.076.522-.075.5-.1.5-.15.47-.151.444-.175.418-.176.391-.226.365-.251.339-.276.34-.276.287-.327.287-.326.236-.378.235-.377.184-.426.156-.452.131-.477.1-.5.078-.527.052-.552.027h-8.236V17.8h8.788l.527.053.5.052.477.078.452.1.426.131.377.157.378.157.326.21.327.209.276.261.276.262.251.313.226.313.176.365.175.365.151.391.15.418.1.444.075.47.076.522.05.523.025.548.025.574Z" transform="translate(-42.888 -16.119)" fill="#2a3b46"/>
    <path id="Path_24" data-name="Path 24" d="M181.762,30.244V29.1l.025-.548.025-.548.025-.548.026-.523.051-.522.025-.5.126-.965.175-.913.1-.444.1-.418.126-.417.126-.392.126-.391.15-.365.176-.366.175-.339.2-.313.2-.313.2-.312.251-.261.226-.287.275-.234.277-.235.3-.234.3-.209.327-.183.352-.157.351-.157.377-.131.4-.13.428-.1.426-.078.478-.053.477-.053.5-.026.5-.026.527.026h.552l.528.053.552.026.578.053.552.078.527.052.552.079.5.078.5.079.477.078.428.079.4.052.377.078.326.053.277.052.377.079.125.025.126-1.356-.126-.026-.351-.078-.277-.053-.3-.052-.327-.079-.4-.052-.428-.078-.452-.078-.477-.079-.527-.053-.528-.078-.552-.052-.577-.079-.578-.052-.6-.026-.577-.026-.6-.026-.6-.027-.577.027-.578.026-.527.052-.527.078-.5.079-.477.13-.477.131-.426.131-.428.183-.4.183-.377.209-.352.235-.351.234-.327.26-.3.287-.3.287-.277.313-.251.339-.25.339-.226.366-.2.391-.2.391-.176.392-.175.444-.151.444-.151.443-.126.47-.125.5-.1.5-.1.5-.076.522-.075.548-.05.549-.076.573-.025.574-.051.574-.025.6-.025.626v2.061l.025.783.025.757.051.731.075.73.076.705.075.651.126.679.125.626.15.6.15.574.2.574.2.523.225.522.252.47.25.469.3.444.3.418.352.365.351.365.4.34.428.312.427.261.477.261.477.208.527.209.577.157.578.13.6.1.652.078.679.053h1.18l.476-.027.527-.026.527-.052.553-.052.552-.053.553-.052.527-.078.552-.079.5-.053.5-.077.477-.08.427-.077.4-.053.351-.052.3-.053.428-.078.15-.026V30.244h-7.006v1.331h5.65V42.038l-.175.026-.377.079-.25.026-.277.053-.326.052-.352.052-.377.053-.4.052-.427.078-.427.053-.452.052-.452.052-.453.053-.451.026-.452.052-.427.027h-1.481l-.6-.053-.576-.079-.528-.078-.527-.131-.477-.131-.452-.183-.452-.208-.4-.234-.378-.235L184.8,41.2l-.326-.288-.3-.338-.3-.34-.25-.365-.252-.418-.225-.417-.2-.443-.175-.444-.176-.5-.151-.495-.125-.523-.126-.574-.1-.548-.076-.6-.075-.6-.051-.653-.051-.625-.05-.679-.025-.678V30.244Z" transform="translate(-35.77 -16.076)" fill="#2a3b46"/>
    <path id="Path_25" data-name="Path 25" d="M150.123,34.106l-.051-.365L150,33.429l-.1-.34-.1-.286-.1-.314-.125-.286-.151-.261-.151-.261-.176-.26-.175-.234-.2-.235-.2-.208-.251-.209-.252-.234-.25-.183-.3-.209-.3-.183-.326-.209-.327-.157-.753-.365-.828-.34-.9-.365-.978-.338-.778-.235-.679-.235-.628-.234-.552-.235-.5-.183-.427-.208-.378-.209-.326-.208-.276-.209-.225-.208-.176-.209-.15-.234-.1-.234-.076-.261-.024-.286-.026-.314.026-.312.049-.314.076-.26.1-.261.151-.234.175-.209.2-.208.225-.157.277-.157.3-.131.352-.131.352-.078.427-.078.427-.053.478-.026h1.1l.326.026h.377l.377.027.4.026.4.051.428.027.4.026.428.052.4.027.427.052.377.026.377.052.352.027.351.026.3.052.3.026.226.026.226.026.3.027.1.026.4-4.828L149.6,17.4l-.4-.079-.3-.052-.327-.052-.377-.079-.4-.078-.452-.079-.478-.079-.476-.078-.527-.079-.527-.077-.5-.053-.527-.079-.527-.052-.527-.052-.477-.026-.477-.027h-1.155l-.679.053-.678.078-.628.1-.6.13-.577.157-.553.183-.526.209-.5.234-.477.261-.427.313-.427.313-.377.339-.352.365-.327.418-.3.417-.251.47-.226.471-.2.522-.151.522-.125.549-.1.6-.05.6-.026.626v.418l.026.417.025.392.05.391.076.365.076.365.075.339.1.313.126.339.125.288.151.312.176.287.176.261.2.286.2.235.225.261.251.234.251.234.3.235.3.208.3.209.326.209.352.183.377.208.8.365.88.34.954.339,1.03.338.653.183.6.209.552.183.477.209.428.183.377.183.326.208.276.183.226.209.2.209.151.234.126.234.1.235.051.261.05.286v.679l-.05.339-.076.313-.1.286-.125.261-.176.235-.2.208-.226.183-.251.157-.3.131-.327.1-.352.1-.4.078-.427.052-.477.027h-.9l-.452-.027-.451-.026-.477-.026-.477-.027-.5-.051-.477-.027-.5-.052-.477-.053-.452-.052-.427-.052-.427-.052-.377-.027-.352-.052-.3-.052-.276-.026-.377-.053-.126-.026-.528,4.828.151.026.4.079.276.052.352.078.351.079.428.078.452.079.477.079.477.078.527.079.527.078.527.078.526.053.5.052.527.052.477.053h.477l.452.026.477-.026h.5l.477-.053.452-.052.452-.078.452-.079.426-.1.427-.132.4-.13.4-.157.377-.157.352-.183.351-.208.352-.209.327-.235.3-.235.3-.261.276-.286.276-.313.225-.313.226-.313.226-.339.175-.365.176-.392.175-.391.126-.391.126-.444.075-.444.076-.444.051-.5.05-.47V35.255l-.076-.783Z" transform="translate(-32.47 -16.11)" fill="#2a3b46"/>
    <path id="Path_26" data-name="Path 26" d="M173.657,16.893h-5.976l-4.218,11.185-3.39.393V16.893H154.9V43.915h5.174V33.7l3.466-.392,4.294,10.61h5.976l-5.7-13.59Z" transform="translate(-33.991 -16.165)" fill="#2a3b46"/>
    <rect id="Rectangle_10" data-name="Rectangle 10" width="5.199" height="27.022" transform="translate(92.181 0.727)" fill="#2a3b46"/>
    <path id="Path_27" data-name="Path 27" d="M119,24.341l-.076-.705-.1-.654-.151-.627-.151-.6-.2-.548-.226-.523-.275-.47-.277-.445-.326-.419-.352-.366-.4-.341-.428-.313-.451-.289-.478-.234-.527-.236-.552-.183-.577-.158-.6-.13-.653-.079-.679-.078-.728-.052H100.118V43.915h5.174V35.186h4.972l3.013,8.729h5.675l-3.641-10.35.277-.183.275-.209.277-.209.25-.21.251-.235.251-.236.2-.235.225-.262.2-.261.2-.288.176-.288.176-.314.151-.314.15-.34.125-.34.1-.366.125-.366.076-.393.1-.392.05-.419.051-.444.05-.444v-.47l.025-.5-.025-.784Zm-5.249,1.593v.6l-.025.262-.05.288-.051.261-.076.262-.075.236-.076.235-.1.236-.126.209-.125.183-.126.183-.175.183-.151.157-.176.157-.2.131-.225.131-.2.1-.251.079-.251.079-.276.052-.276.052-.3.026h-5.148V22.015h4.745l.452.026.427.052.4.078.352.1.327.131.326.157.276.209.251.236.2.262.2.287.151.314.126.366.1.367.076.418.05.444Z" transform="translate(-30.202 -16.165)" fill="#2a3b46"/>
  </g>
</svg>
