<?xml version="1.0" encoding="iso-8859-1"?>
<!-- Generator: Adobe Illustrator 19.0.0, SVG Export Plug-In . SVG Version: 6.00 Build 0)  -->
<svg version="1.1" id="Capa_1" xmlns="http://www.w3.org/2000/svg" xmlns:xlink="http://www.w3.org/1999/xlink" x="0px" y="0px"
	 viewBox="0 0 480.096 480.096" style="enable-background:new 0 0 480.096 480.096;" xml:space="preserve">
<g>
	<g>
		<path d="M414.776,296h-8v-40h-16v40h-14.32c-13.255,0-24,10.745-24,24c0,0.802,0.04,1.603,0.12,2.4l4.8,48
			c1.2,12.28,11.542,21.634,23.88,21.6h9.52v32c0,4.418-3.582,8-8,8s-8-3.582-8-8v-16h-16v16c0,13.255,10.745,24,24,24
			s24-10.745,24-24v-32h16v88h16V320C438.776,306.745,428.031,296,414.776,296z M422.776,376h-41.52c-4.109,0-7.549-3.112-7.96-7.2
			l-4.8-48c-0.442-4.396,2.764-8.318,7.16-8.76c0.266-0.027,0.533-0.04,0.8-0.04h38.32c4.418,0,8,3.582,8,8V376z"/>
	</g>
</g>
<g>
	<g>
		<path d="M345.32,72.408l-5.056,15.2c12.693,4.263,22.657,14.227,26.92,26.92l15.2-5.056
			C376.515,91.995,362.797,78.277,345.32,72.408z"/>
	</g>
</g>
<g>
	<g>
		<rect x="390.776" width="16" height="40"/>
	</g>
</g>
<g>
	<g>
		<path d="M452.264,72.392c-17.487,5.868-31.212,19.593-37.08,37.08l15.2,5.056c4.262-12.703,14.233-22.674,26.936-26.936
			L452.264,72.392z"/>
	</g>
</g>
<g>
	<g>
		<path d="M345.32,24.408l-5.056,15.2c12.693,4.263,22.657,14.227,26.92,26.92l15.2-5.056
			C376.515,43.995,362.797,30.277,345.32,24.408z"/>
	</g>
</g>
<g>
	<g>
		<path d="M452.248,24.392c-17.477,5.869-31.195,19.587-37.064,37.064l15.2,5.056c4.263-12.693,14.227-22.657,26.92-26.92
			L452.248,24.392z"/>
	</g>
</g>
<g>
	<g>
		<path d="M345.32,120.408l-5.056,15.2c12.693,4.263,22.657,14.227,26.92,26.92l15.2-5.056
			C376.515,139.995,362.797,126.277,345.32,120.408z"/>
	</g>
</g>
<g>
	<g>
		<rect x="390.776" y="64" width="16" height="40"/>
	</g>
</g>
<g>
	<g>
		<path d="M452.264,120.392c-17.487,5.868-31.212,19.593-37.08,37.08l15.2,5.056c4.262-12.703,14.233-22.674,26.936-26.936
			L452.264,120.392z"/>
	</g>
</g>
<g>
	<g>
		<path d="M345.32,168.408l-5.056,15.2c12.693,4.263,22.657,14.227,26.92,26.92l15.2-5.056
			C376.515,187.995,362.797,174.277,345.32,168.408z"/>
	</g>
</g>
<g>
	<g>
		<rect x="390.776" y="128" width="16" height="40"/>
	</g>
</g>
<g>
	<g>
		<path d="M452.264,168.392c-17.487,5.868-31.212,19.593-37.08,37.08l15.2,5.056c4.262-12.703,14.233-22.674,26.936-26.936
			L452.264,168.392z"/>
	</g>
</g>
<g>
	<g>
		<path d="M345.32,216.408l-5.056,15.2c12.693,4.263,22.657,14.227,26.92,26.92l15.2-5.056
			C376.515,235.995,362.797,222.277,345.32,216.408z"/>
	</g>
</g>
<g>
	<g>
		<rect x="390.776" y="192" width="16" height="40"/>
	</g>
</g>
<g>
	<g>
		<path d="M452.264,216.392c-17.487,5.868-31.212,19.593-37.08,37.08l15.2,5.056c4.262-12.703,14.233-22.674,26.936-26.936
			L452.264,216.392z"/>
	</g>
</g>
<g>
	<g>
		<path d="M302.88,119.24c-0.518-65.929-54.069-119.123-120-119.2h-0.8C115.866,0.551,62.552,54.545,62.88,120.76l0.088,72.76
			c0.199,33.654,21.938,63.395,53.944,73.8l4.96-15.2c-25.458-8.273-42.749-31.928-42.904-58.696l-0.088-72.752
			C78.574,63.258,124.803,16.432,182.216,16h0.664c57.137,0.064,103.548,46.161,104,103.296l0.08,72.752
			c0.197,26.78-16.792,50.672-42.152,59.28l5.168,15.152c31.864-10.817,53.215-40.83,52.984-74.48L302.88,119.24z"/>
	</g>
</g>
<g>
	<g>
		<path d="M286.776,280h-29.248l-0.216-0.16l-0.136,0.16h-18.4c-8.837,0-16-7.163-16-16v-19.048
			c24.947-15.132,40.129-42.239,40-71.416v-32c0.012-4.189-3.208-7.678-7.384-8c-44.841-3.511-87.223-21.904-120.416-52.256
			L124.8,71.944c-1.823-1.658-4.303-2.394-6.736-2c-2.432,0.409-4.54,1.918-5.712,4.088c-6.28,11.67-9.57,24.715-9.576,37.968v64
			c-0.047,28.581,15.216,54.998,40,69.232V264c0,8.837-7.163,16-16,16h-48c-30.913,0.035-55.965,25.087-56,56v144h16v-88h26.44
			c-5.773,23.107-0.901,47.585,13.28,66.72V480h0.28v0.096l8-0.096h7.72v-0.088h0.28l-0.264-22.48L116.296,400h132.96l21.784,57.424
			l-0.264,22.48h0.28V480h7.72l8,0.096V480h0.28v-21.28c14.19-19.131,19.077-43.607,13.32-66.72h26.4v88h16V336
			C342.741,305.087,317.689,280.035,286.776,280z M102.776,390.536l-17.952,47.312c-9.125-19.609-7.663-42.51,3.88-60.8l5.848-9.208
			l-13.512-8.576l-5.848,9.216c-1.468,2.438-2.803,4.954-4,7.536H38.776V336c0.026-22.08,17.92-39.974,40-40h24V390.536z
			 M118.919,180.255c-0.095-1.416-0.143-2.836-0.143-4.255v-64c0.004-7.046,1.166-14.043,3.44-20.712l1.944,1.784
			c33.964,31.055,76.886,50.563,122.616,55.728v24.712c0.605,34.362-25.483,63.333-59.72,66.32
			C151.789,242.196,121.283,215.522,118.919,180.255z M158.776,264v-11.696c7.742,2.441,15.81,3.687,23.928,3.696
			c1.781,0,3.576-0.056,5.384-0.168c6.357-0.443,12.634-1.674,18.688-3.664V264c0,17.673,14.327,32,32,32h3.648
			c-33.251,28.264-82.085,28.264-115.336,0C144.639,295.829,158.777,281.552,158.776,264z M246.776,384h-128v-74.256
			c18.283,14.945,41.115,23.21,64.728,23.432h1.352c22.288,0.045,43.999-7.085,61.92-20.336V384z M326.776,376h-32.408
			c-1.197-2.582-2.532-5.098-4-7.536l-5.848-9.216l-13.512,8.576l5.848,9.216c11.546,18.289,13.008,41.192,3.88,60.8l-17.96-47.304
			V298.32c0.672-0.752,1.312-1.544,1.96-2.32h22.04c22.08,0.026,39.974,17.92,40,40V376z"/>
	</g>
</g>
<g>
	<g>
		<polygon points="367.616,460.424 357.736,480 375.664,480 381.936,467.576 		"/>
	</g>
</g>
<g>
</g>
<g>
</g>
<g>
</g>
<g>
</g>
<g>
</g>
<g>
</g>
<g>
</g>
<g>
</g>
<g>
</g>
<g>
</g>
<g>
</g>
<g>
</g>
<g>
</g>
<g>
</g>
<g>
</g>
</svg>
