<?xml version="1.0" encoding="utf-8"?>
<!-- Generator: Adobe Illustrator 24.0.3, SVG Export Plug-In . SVG Version: 6.00 Build 0)  -->
<svg version="1.1" id="Layer_1" xmlns="http://www.w3.org/2000/svg" xmlns:xlink="http://www.w3.org/1999/xlink" x="0px" y="0px"
	 viewBox="0 0 841.9 595.3" style="enable-background:new 0 0 841.9 595.3;" xml:space="preserve">
<style type="text/css">
	.st0{fill:#FFFFFF;}
	.st1{fill:#00A6E2;}
</style>
<g>
	<g>
		<path class="st0" d="M398.3,264.3h40.2l-2.5,14.3h-25l-2.5,14.1h22.2l-2.6,14.3H406l-4.2,24h-15.2L398.3,264.3z"/>
		<path class="st0" d="M493.4,324.6c-4.8,4.5-13,7.4-21.8,7.4c-18.9,0-33.8-10.8-33.8-31.4c0-17.8,11.6-37.5,40.3-37.5
			c8.6,0,16.9,2.4,21.1,6.4l-7.8,11.6c-3.2-2.2-8.4-3.7-14.6-3.7c-14.8,0-22.5,10.5-22.5,22c0,11.4,6.5,18.4,18.2,18.4
			c5.1,0,10.7-1.6,15.1-4.8L493.4,324.6z"/>
		<path class="st0" d="M555.2,324.6c-4.8,4.5-13,7.4-21.8,7.4c-18.9,0-33.8-10.8-33.8-31.4c0-17.8,11.6-37.5,40.3-37.5
			c8.6,0,16.9,2.4,21.1,6.4l-7.8,11.6c-3.2-2.2-8.4-3.7-14.6-3.7c-14.8,0-22.5,10.5-22.5,22c0,11.4,6.5,18.4,18.2,18.4
			c5.1,0,10.7-1.6,15.1-4.8L555.2,324.6z"/>
	</g>
	<polygon class="st1" points="319.2,279.2 384.2,279.2 386.9,264.3 321.9,264.3 	"/>
	<polygon class="st1" points="314.7,305 379.6,305 382.3,290.1 317.4,290.1 	"/>
	<polygon class="st1" points="310.1,330.8 353.1,330.8 355.8,315.9 312.8,315.9 	"/>
	<path class="st0" d="M293.6,329.4l11.3-63.6c0-0.8,0.6-1.4,1.4-1.4h5.9c0.8,0,1.4,0.6,1.4,1.4l-11.3,63.6c0,0.8-0.6,1.4-1.4,1.4
		H295C294.2,330.9,293.6,330.2,293.6,329.4z"/>
	<path class="st0" d="M288.7,312.3l5.2-29.7c0-0.4,0.3-0.6,0.8-0.6h3.1c0.4,0,0.8,0.3,0.8,0.6l-5.2,29.7c0,0.4-0.3,0.6-0.8,0.6h-3.1
		C289,313,288.7,312.7,288.7,312.3z"/>
	<path class="st0" d="M281.1,300.6H294v-6.2h-8.8C282.7,294.4,282.1,296.8,281.1,300.6L281.1,300.6z"/>
</g>
</svg>
