<?xml version="1.0" encoding="utf-8"?>
<!-- Generator: Adobe Illustrator 24.1.0, SVG Export Plug-In . SVG Version: 6.00 Build 0)  -->
<svg version="1.1" id="Layer_1" xmlns="http://www.w3.org/2000/svg" xmlns:xlink="http://www.w3.org/1999/xlink" x="0px" y="0px"
	 viewBox="0 0 175.5 66" style="enable-background:new 0 0 175.5 66;" xml:space="preserve">
<style type="text/css">
	.st0{fill:#FFFFFF;}
</style>
<g>
	<g>
		<path class="st0" d="M30.6,7.5l14.2,21.2c0.5,0.7,0.5,1.6,0.1,2.4c-0.4,0.6-0.7,1.6-1.5,1.8c-0.4,0.1-0.8,0-1.2-0.1
			c-4.2-1.1-7.9-3.8-10.4-7.5l-5-7.5c-2.1-3.1-2-7.2,0.2-10.3C28,6.3,29.8,6.3,30.6,7.5z"/>
		<path class="st0" d="M21.8,14.7l11.1,16.6c0.4,0.6,0.3,1.3-0.1,2c-1,1.5-1.5,2.2-3.4,1.6c-3-1-6-2.8-7.8-5.5l-3.9-5.9
			c-1.6-2.4-1.3-5.9,0.9-8.6C19.5,13.8,21.1,13.7,21.8,14.7z"/>
		<path class="st0" d="M66.2,15.1C63.3,4.3,52.4-2,41.8,0.9c-3,0.8-5.6,2.3-7.8,4.3l2.5,4.5c1.8-1.8,4-3.2,6.6-3.9
			c8-2.2,16.2,2.6,18.3,10.7c2.2,8-2.4,16.3-10.3,18.6l0.2,2.6l0.3,2.4c0.2,0,0.3-0.1,0.6-0.1C62.8,37.1,69,26,66.2,15.1z"/>
		<path class="st0" d="M6.3,60.5c8,7.6,20.6,7.2,28.1-1c2.1-2.3,3.6-5,4.5-7.8l-4.5-2.5c-0.6,2.5-1.8,4.9-3.6,6.9
			c-5.6,6.1-15.1,6.5-21.1,0.7c-6-5.7-6.3-15.2-0.9-21.3l-1.6-2.1l-1.5-1.9c-0.1,0.1-0.3,0.2-0.4,0.4C-2.2,40.1-1.7,52.9,6.3,60.5z"
			/>
		<ellipse transform="matrix(0.8556 -0.5176 0.5176 0.8556 -12.7287 11.2391)" class="st0" cx="13.8" cy="28.4" rx="4.4" ry="5.3"/>
		<path class="st0" d="M49.8,45.9c0,0-2.8-5.6-3-9.3l0-0.5c0-0.5-0.3-0.9-0.7-1.1l0,0c-0.5-0.2-1.1-0.1-1.5,0.3l0,0
			c-2.3,2.4-3.4,5.7-3.2,9l0,0c0,0.7,0.5,2.1,0.5,2.1c0,1.4,0.3,2.3,0,4.2c-0.1,0.8,1.3,3.1,3.4,2.1C47.3,51.6,49.5,49.7,49.8,45.9z
			"/>
	</g>
	<g>
		<path class="st0" d="M80.2,21.3c0.4-2,1.6-3,3.5-3h17.4c1.9,0,2.7,1.2,2.3,3.2l-0.4,2.2c-0.4,2-1.6,2.8-3.5,2.8h-11L87,34.6h8.6
			c1.9,0,2.7,1.2,2.3,3.2l-0.4,2.2c-0.4,2-1.5,2.8-3.4,2.8h-8.6l-2.2,11.4c-0.4,2-1.6,3-3.5,3h-3.4c-1.9,0-2.7-1-2.3-3L80.2,21.3z"
			/>
		<path class="st0" d="M126.4,17.7c5.8,0,10.1,2.1,11.9,3.7c1.5,1.3,1.5,2.7,0.4,4.2l-1.7,2.2c-1.4,1.8-2.9,1.2-4,0.6
			c-1.6-0.9-3.7-2-6.9-2c-8.3,0-13,7.4-13,13.6c0,4.8,2.9,9.1,8.8,9.1c3.6,0,6.1-1.6,8.2-2.8c1.5-0.9,3-1.1,4,1l1,2.2
			c0.8,1.8,0.5,3-0.9,4c-2,1.6-7.2,4.1-13.4,4.1c-10.4,0-17.3-7.1-17.3-17.4C103.3,28.1,113.5,17.7,126.4,17.7z"/>
		<path class="st0" d="M162.4,17.7c5.8,0,10.1,2.1,11.9,3.7c1.5,1.3,1.5,2.7,0.4,4.2l-1.7,2.2c-1.4,1.8-2.9,1.2-4,0.6
			c-1.6-0.9-3.7-2-6.9-2c-8.3,0-13,7.4-13,13.6c0,4.8,2.9,9.1,8.8,9.1c3.6,0,6.1-1.6,8.2-2.8c1.5-0.9,3-1.1,4,1l1,2.2
			c0.8,1.8,0.5,3-0.9,4c-2,1.6-7.2,4.1-13.4,4.1c-10.4,0-17.3-7.1-17.3-17.4C139.3,28.1,149.4,17.7,162.4,17.7z"/>
	</g>
</g>
</svg>
