<?xml version="1.0" encoding="utf-8"?>
<!-- Generator: Adobe Illustrator 16.0.0, SVG Export Plug-In . SVG Version: 6.00 Build 0)  -->
<!DOCTYPE svg PUBLIC "-//W3C//DTD SVG 1.1//EN" "http://www.w3.org/Graphics/SVG/1.1/DTD/svg11.dtd">
<svg version="1.1" id="Layer_1" xmlns="http://www.w3.org/2000/svg" xmlns:xlink="http://www.w3.org/1999/xlink" x="0px" y="0px"
	 width="80px" height="26px" viewBox="0 -0.096 80 26" enable-background="new 0 -0.096 80 26" xml:space="preserve">
<g>
	<g>
		<path fill="#FFFFFF" d="M0,24.177V1.192C0,0.397,0.397,0,1.193,0h1.105C3.07,0,3.456,0.398,3.456,1.196v7.395
			c0,0.27-0.008,0.534-0.026,0.792C3.412,9.641,3.397,9.834,3.386,9.964L3.351,10.14h0.07c0.047-0.094,0.114-0.218,0.202-0.372
			c0.087-0.153,0.301-0.422,0.64-0.807c0.339-0.384,0.716-0.727,1.131-1.028C5.81,7.632,6.372,7.36,7.08,7.118
			c0.707-0.242,1.465-0.363,2.272-0.363c2.392,0,4.314,0.879,5.768,2.637c1.453,1.758,2.18,4.049,2.18,6.874
			c0,2.871-0.771,5.181-2.312,6.927c-1.542,1.745-3.514,2.617-5.917,2.617c-0.795,0-1.542-0.12-2.237-0.359
			c-0.696-0.24-1.255-0.529-1.676-0.868c-0.42-0.339-0.783-0.676-1.087-1.008c-0.304-0.334-0.521-0.624-0.649-0.869l-0.175-0.352
			h-0.07c0.07,0.282,0.105,0.638,0.105,1.071v0.911c0,0.328-0.105,0.582-0.316,0.763c-0.21,0.182-0.503,0.272-0.877,0.272H1.193
			C0.397,25.37,0,24.972,0,24.177z M3.386,16.299c0,1.144,0.181,2.196,0.544,3.158c0.362,0.963,0.941,1.759,1.737,2.39
			c0.795,0.63,1.737,0.944,2.825,0.944c1.509,0,2.766-0.577,3.772-1.732c1.006-1.155,1.509-2.73,1.509-4.725
			c0-1.948-0.477-3.517-1.43-4.707c-0.954-1.19-2.19-1.785-3.711-1.785c-1.485,0-2.731,0.545-3.737,1.636
			C3.889,12.569,3.386,14.177,3.386,16.299z"/>
		<path fill="#FFFFFF" d="M19.756,20.404c0-0.783,0.137-1.491,0.413-2.123c0.274-0.631,0.631-1.16,1.07-1.587
			s0.977-0.799,1.614-1.115c0.637-0.314,1.269-0.561,1.895-0.736c0.626-0.175,1.316-0.318,2.071-0.43s1.421-0.182,2-0.211
			s1.178-0.043,1.799-0.043h0.93v-0.475c0-2.655-1.323-3.982-3.968-3.982c-1.399,0-2.774,0.386-4.127,1.158
			c-0.235,0.105-0.453,0.158-0.652,0.158c-0.388,0-0.711-0.199-0.97-0.596l-0.283-0.509c-0.141-0.269-0.211-0.514-0.211-0.737
			c0-0.375,0.199-0.667,0.597-0.877c1.79-1.029,3.754-1.544,5.895-1.544c2.27,0,4.029,0.614,5.281,1.842
			c1.252,1.229,1.878,2.989,1.878,5.281v10.299c0,0.795-0.392,1.193-1.174,1.193h-0.881c-0.783,0-1.174-0.398-1.174-1.193v-1.07
			c0-0.199,0.008-0.392,0.026-0.578c0.017-0.188,0.038-0.328,0.061-0.422l0.035-0.123h-0.086c-0.047,0.105-0.117,0.243-0.211,0.412
			c-0.094,0.17-0.31,0.475-0.649,0.913s-0.717,0.827-1.132,1.167c-0.415,0.339-0.974,0.646-1.675,0.921
			c-0.702,0.274-1.451,0.412-2.246,0.412c-1.685,0-3.126-0.49-4.325-1.475C20.355,23.352,19.756,22.043,19.756,20.404z
			 M23.283,20.144c0,0.788,0.301,1.473,0.903,2.055c0.602,0.582,1.43,0.873,2.483,0.873c0.971,0,1.842-0.3,2.614-0.899
			c0.772-0.6,1.348-1.337,1.729-2.214c0.38-0.876,0.57-1.778,0.57-2.707v-0.794h-0.93C25.739,16.457,23.283,17.686,23.283,20.144z"
			/>
		<path fill="#FFFFFF" d="M38.847,22.242l0.369-0.511c0.234-0.306,0.479-0.476,0.737-0.512c0.257-0.034,0.561,0.054,0.912,0.266
			c1.488,0.987,2.976,1.48,4.464,1.48c0.921,0,1.664-0.214,2.231-0.644c0.564-0.429,0.847-1.02,0.847-1.772
			c0-0.482-0.172-0.905-0.516-1.27c-0.344-0.365-0.79-0.673-1.339-0.926c-0.546-0.253-1.154-0.497-1.817-0.732
			c-0.665-0.235-1.337-0.505-2.014-0.812c-0.678-0.306-1.293-0.655-1.846-1.049c-0.553-0.395-1.004-0.914-1.351-1.561
			c-0.348-0.647-0.521-1.388-0.521-2.223c0-1.654,0.631-2.938,1.894-3.852s2.833-1.372,4.712-1.372c1.896,0,3.584,0.468,5.068,1.404
			c0.317,0.152,0.51,0.374,0.573,0.667c0.065,0.292,0.002,0.596-0.187,0.912l-0.321,0.544c-0.202,0.386-0.493,0.58-0.874,0.58
			c-0.213,0-0.456-0.066-0.73-0.199c-1.182-0.71-2.418-1.065-3.705-1.065c-0.896,0-1.63,0.197-2.194,0.591
			c-0.567,0.394-0.85,0.967-0.85,1.719c0,0.494,0.172,0.927,0.516,1.297s0.79,0.68,1.339,0.926c0.549,0.247,1.154,0.485,1.819,0.715
			c0.666,0.229,1.335,0.496,2.009,0.803c0.673,0.305,1.287,0.651,1.842,1.039c0.557,0.39,1.01,0.906,1.357,1.553
			c0.348,0.647,0.524,1.388,0.524,2.223c0,1.549-0.608,2.827-1.82,3.836c-1.214,1.007-2.796,1.511-4.751,1.511
			c-2.331,0-4.376-0.652-6.131-1.958c-0.351-0.231-0.526-0.503-0.526-0.815C38.566,22.789,38.66,22.524,38.847,22.242z"/>
		<path fill="#FFFFFF" d="M54.425,16.281c0-2.854,0.855-5.155,2.564-6.903c1.708-1.749,3.875-2.624,6.499-2.624
			c2.465,0,4.383,0.796,5.757,2.386c1.373,1.591,2.059,3.685,2.059,6.281c0,0.327-0.114,0.611-0.342,0.851
			c-0.229,0.24-0.518,0.36-0.867,0.36H57.952c0.106,1.906,0.759,3.409,1.961,4.51c1.199,1.099,2.645,1.648,4.331,1.648
			c1.615,0,3.066-0.48,4.354-1.439c0.269-0.128,0.506-0.192,0.717-0.192c0.372,0,0.669,0.192,0.891,0.579l0.312,0.544
			c0.187,0.304,0.25,0.6,0.193,0.886c-0.06,0.287-0.24,0.518-0.545,0.693c-1.834,1.298-3.877,1.947-6.133,1.947
			c-1.867,0-3.535-0.418-5.005-1.254s-2.605-1.978-3.404-3.422C54.824,19.688,54.425,18.07,54.425,16.281z M58.093,14.334h9.754
			c-0.047-1.543-0.483-2.737-1.308-3.579c-0.827-0.842-1.867-1.264-3.12-1.264c-1.359,0-2.525,0.43-3.498,1.29
			C58.948,11.641,58.339,12.825,58.093,14.334z"/>
	</g>
	<circle fill="#C3D31C" cx="77.144" cy="22.724" r="2.821"/>
</g>
</svg>
