<?xml version="1.0" encoding="utf-8"?>
<!-- Generator: Adobe Illustrator 24.1.0, SVG Export Plug-In . SVG Version: 6.00 Build 0)  -->
<svg version="1.1" id="Capa_1" xmlns="http://www.w3.org/2000/svg" xmlns:xlink="http://www.w3.org/1999/xlink" x="0px" y="0px"
	 viewBox="0 0 480 480" style="enable-background:new 0 0 480 480;" xml:space="preserve">
<g>
	<g>
		<path d="M416,336h-12.5c-8.8,0-17.5,2.1-25.3,6c-11.4,5.7-24.9,5.7-36.3,0c-4.6-2.2-9.4-3.9-14.4-4.8L343,216h17c4.4,0,8-3.6,8-8
			v-32c0-4.4-3.6-8-8-8h-32v-24c0-2.1-0.8-4.2-2.3-5.7L288,100.7V75.8l12.1-9.7l20.7,41.4l14.3-7.2l-22.3-44.5l9.9-7.9H352
			c4.4,0,8-3.6,8-8V8c0-4.4-3.6-8-8-8h-80c-39.7,0-72,32.3-72,72c0,4.4,3.6,8,8,8h16v20.7l-21.7,21.7c-1.5,1.5-2.3,3.5-2.3,5.7v40
			h-16v-64c0-1-0.2-2-0.6-2.9c-0.1-0.3-0.3-0.6-0.5-0.9c-0.2-0.4-0.4-0.8-0.7-1.2L152,61.2V8c0-4.4-3.6-8-8-8H96c-4.4,0-8,3.6-8,8
			v53.2L57.8,99c-0.3,0.4-0.5,0.8-0.7,1.2c-0.2,0.3-0.3,0.6-0.5,0.9C56.2,102,56,103,56,104v64H24c-4.4,0-8,3.6-8,8v32
			c0,4.4,3.6,8,8,8h17l31.1,241c0.5,4,3.9,7,7.9,7h188.3c9.1,10.2,22.1,16,35.7,16h12.5c8.8,0,17.5-2.1,25.3-6
			c11.4-5.7,24.9-5.7,36.3,0c7.9,3.9,16.5,6,25.3,6H416c26.5,0,48-21.5,48-48v-48C464,357.5,442.5,336,416,336z M328,16h16v16h-16
			V16z M352,184v16H240v-16H352z M216.6,64c4-27.5,27.6-48,55.4-48h40v20.2L277.2,64H216.6z M272,80v16h-32V80H272z M216,131.3
			l19.3-19.3h41.4l35.3,35.3V168h-96V131.3z M208,184h16v56c0,3,1.7,5.8,4.4,7.2l48,24c2.3,1.2,4.1,3.2,4.9,5.7
			c0.8,2.7,0.5,5.6-0.8,8c-2.3,4.6-7.9,6.5-12.5,4.2c0,0,0,0,0,0l-32.5-16.2c-4-1.9-8.8-0.3-10.7,3.7c-0.5,1.1-0.8,2.3-0.8,3.5v80
			c0,8.8-7.2,16-16,16v-72h-16v72h-16v-72h-16v72h-16v-72h-16v72c-8.8,0-16-7.2-16-16V184H208z M104,16h32v40h-32V16z M99.8,72h40.3
			l19.2,24H80.6L99.8,72z M72,112h96v56H72V112z M32,200v-16h64v16H32z M256,384v48c0,5.5,1,10.9,2.8,16H87L57.1,216H96v144
			c0,17.7,14.3,32,32,32h80c17.7,0,32-14.3,32-32v-67.1l20.9,10.4c12.6,6.2,27.9,1,34.1-11.6c0-0.1,0.1-0.1,0.1-0.2
			c3.1-6.1,3.6-13.3,1.5-19.8c-2.1-6.5-6.8-11.9-13-15L240,235.1V216h86.9l-15.5,120H304C277.5,336,256,357.5,256,384z M448,432
			c0,17.7-14.3,32-32,32h-12.5c-6.3,0-12.5-1.5-18.2-4.3c-16-7.9-34.7-7.9-50.6,0c-5.6,2.8-11.9,4.3-18.2,4.3H304
			c-17.7,0-32-14.3-32-32v-12.3c8.8,7.9,20.2,12.3,32,12.3h12.5c8.8,0,17.5-2.1,25.3-6c11.4-5.7,24.9-5.7,36.3,0
			c7.9,3.9,16.5,6,25.3,6H416c11.8,0,23.2-4.4,32-12.3V432z M416,416h-12.5c-6.3,0-12.5-1.5-18.2-4.3c-16-7.9-34.7-7.9-50.6,0
			c-5.6,2.8-11.9,4.3-18.2,4.3H304c-17.7,0-32-14.3-32-32s14.3-32,32-32h12.5c6.3,0,12.5,1.5,18.2,4.3c16,7.9,34.7,7.9,50.6,0
			c5.6-2.8,11.9-4.3,18.2-4.3H416c17.7,0,32,14.3,32,32S433.7,416,416,416z"/>
	</g>
</g>
<g>
	<g>
		<rect x="408" y="368" width="16" height="16"/>
	</g>
</g>
<g>
	<g>
		<rect x="328" y="368" width="16" height="16"/>
	</g>
</g>
<g>
	<g>
		<rect x="296" y="376" width="16" height="16"/>
	</g>
</g>
<g>
	<g>
		<rect x="376" y="376" width="16" height="16"/>
	</g>
</g>
</svg>
