<?xml version="1.0" encoding="utf-8"?>
<!-- Generator: Adobe Illustrator 24.1.0, SVG Export Plug-In . SVG Version: 6.00 Build 0)  -->
<svg version="1.1" id="Capa_1" xmlns="http://www.w3.org/2000/svg" xmlns:xlink="http://www.w3.org/1999/xlink" x="0px" y="0px"
	 viewBox="0 0 58 58" style="enable-background:new 0 0 58 58;" xml:space="preserve">
<path d="M28.9,0.1C12.9,0.1,0,13,0,29s12.9,28.9,28.9,28.9S57.8,45,57.8,29S44.9,0.1,28.9,0.1z M28.9,42.6
	c-7.5,0-13.6-6.1-13.6-13.6s6.1-13.6,13.6-13.6S42.5,21.5,42.5,29S36.4,42.6,28.9,42.6z M44,25.2l11-2.7c0.5,2.1,0.8,4.3,0.8,6.5
	c0,2.1-0.3,4.2-0.7,6.1l-11-2.7c0.2-1.1,0.4-2.2,0.4-3.4C44.5,27.7,44.3,26.4,44,25.2z M54.5,20.5l-11,2.8c-1.6-4.1-4.8-7.3-8.9-8.8
	l2.8-11C45.4,6.1,51.8,12.5,54.5,20.5z M35.3,2.9l-2.7,11c-1.2-0.3-2.4-0.5-3.7-0.5c-1.2,0-2.4,0.2-3.5,0.4l-2.7-11
	c2-0.5,4.1-0.7,6.3-0.7C31.1,2.1,33.3,2.4,35.3,2.9z M20.7,3.4l2.8,11c-4.2,1.6-7.5,4.8-9.1,9l-11-2.8C6,12.4,12.5,6,20.7,3.4z
	 M2.8,22.5l11,2.7c-0.3,1.2-0.5,2.4-0.5,3.7c0,1.2,0.2,2.4,0.4,3.6l-11,2.7C2.3,33.3,2,31.2,2,29C2,26.8,2.3,24.6,2.8,22.5z
	 M3.3,37.3l11-2.8c1.6,4.2,5,7.6,9.2,9.1l-2.8,11C12.5,52,6,45.5,3.3,37.3z M22.7,55.2l2.7-11c1.1,0.3,2.3,0.4,3.4,0.4
	c1.3,0,2.6-0.2,3.9-0.5l2.7,11c-2.1,0.5-4.3,0.8-6.6,0.8C26.8,55.9,24.7,55.7,22.7,55.2z M37.5,54.5l-2.8-11c4.1-1.6,7.4-5,8.9-9.2
	l11,2.8C52,45.3,45.6,51.8,37.5,54.5z"/>
</svg>
