<?xml version="1.0" encoding="utf-8"?>
<!-- Generator: Adobe Illustrator 24.1.0, SVG Export Plug-In . SVG Version: 6.00 Build 0)  -->
<svg version="1.1" id="Layer_1" xmlns="http://www.w3.org/2000/svg" xmlns:xlink="http://www.w3.org/1999/xlink" x="0px" y="0px"
	 viewBox="0 0 470 470" style="enable-background:new 0 0 470 470;" xml:space="preserve">
<g>
	<path d="M429.6,418.4l-62.2-150.2c-1.6-3.8-6-5.6-9.8-4.1s-5.6,6-4.1,9.8l56.3,135.8l-51.3-14.9c-3.4-1-7,0.5-8.7,3.6L324,445.2
		l-60.4-145.7c69.7-13.4,122.4-74.9,122.4-148.4C386.1,67.8,318.3,0,235,0S83.9,67.8,83.9,151.1c0,33.8,11.1,65,29.9,90.1
		L40.4,418.4c-1.1,2.7-0.6,5.7,1.3,7.9c1.9,2.1,4.9,3,7.7,2.2l60.5-17.5l30.4,55.2c1.3,2.4,3.8,3.9,6.6,3.9c0.1,0,0.3,0,0.4,0
		c2.9-0.2,5.4-2,6.5-4.6L212,325c1.6-3.8-0.2-8.2-4.1-9.8c-3.8-1.6-8.2,0.2-9.8,4.1L146,445.2l-25.8-46.8c-1.7-3.1-5.3-4.6-8.7-3.6
		l-51.3,14.9l64.4-155.5c27.6,29.5,66.9,48,110.4,48c4.5,0,8.9-0.2,13.3-0.6l67.8,163.7c1.1,2.7,3.6,4.5,6.5,4.6c0.1,0,0.3,0,0.4,0
		c2.7,0,5.2-1.5,6.6-3.9l30.4-55.2l60.5,17.5c2.8,0.8,5.8-0.1,7.7-2.2S430.7,421,429.6,418.4L429.6,418.4z M98.9,151.1
		C98.9,76.1,159.9,15,235,15s136.1,61.1,136.1,136.1S310.1,287.2,235,287.2S98.9,226.2,98.9,151.1L98.9,151.1z"/>
</g>
<g>
	<path d="M234.5,262.9c-61.7,0-111.8-50.2-111.8-111.8S172.8,39.3,234.5,39.3c61.7,0,111.8,50.2,111.8,111.8
		S296.2,262.9,234.5,262.9z M234.5,54.3c-53.4,0-96.8,43.4-96.8,96.8s43.4,96.8,96.8,96.8s96.8-43.4,96.8-96.8
		S287.9,54.3,234.5,54.3z"/>
</g>
</svg>
