<?xml version="1.0" encoding="utf-8"?>
<!-- Generator: Adobe Illustrator 28.0.0, SVG Export Plug-In . SVG Version: 6.00 Build 0)  -->
<svg version="1.1" id="Layer_1" xmlns="http://www.w3.org/2000/svg" xmlns:xlink="http://www.w3.org/1999/xlink" x="0px" y="0px"
	 viewBox="0 0 595.3 427.1" style="enable-background:new 0 0 595.3 427.1;" xml:space="preserve">
<style type="text/css">
	.st0{fill:#231F20;}
	.st1{fill:#D7001A;}
	.st2{fill:#FFFFFF;}
</style>
<g>
	<g>
		<path class="st0" d="M571,123.6h24.3v-69c-5.2,5.5-12.1,17.7-18.4,41.5C574.7,104.5,572.7,113.8,571,123.6z"/>
		<path class="st0" d="M522.2,98.8c-5.3,7.7-10.1,16-14.2,24.8h45.2c1.9-11.5,4.2-22.2,6.8-32.1c3.8-14.5,8.2-26.3,13.1-35.4
			C554.1,63.4,536.6,77.9,522.2,98.8z"/>
		<path class="st1" d="M500.8,141.2c-7.5,21.2-11.9,44.7-12.8,69.1l57.9,0c0.3-24.2,1.9-47.6,4.6-69.1H500.8z"/>
		<path class="st0" d="M563.5,210.3h31.8v-69.1h-27C565.5,162.5,563.8,185.9,563.5,210.3z"/>
		<path class="st0" d="M488,227.8c0.8,24.4,5.2,47.9,12.8,69.1h49.8c-2.7-21.5-4.3-44.9-4.6-69.1H488z"/>
		<path class="st0" d="M568.3,296.9h27v-69.1h-31.8C563.8,252.2,565.5,275.6,568.3,296.9z"/>
		<path class="st0" d="M470.2,350.5c-35.1-35.1-54.5-81.8-54.5-131.5c0-49.7,19.3-96.4,54.5-131.5c33.1-33.1,76.4-52.1,122.8-54.3
			C586.7,14,568.5,0,547.1,0h-499C21.6,0,0,21.6,0,48.1V379c0,26.6,21.6,48.1,48.1,48.1h499c17.2,0,32.3-9.1,40.8-22.6
			C543.4,401.3,502,382.4,470.2,350.5z"/>
		<path class="st0" d="M573,382c-4.9-9.1-9.2-20.9-13.1-35.4c-2.6-9.8-4.9-20.6-6.8-32.1H508c4.1,8.8,8.9,17.1,14.2,24.8
			C536.6,360.1,554.1,374.7,573,382z"/>
		<path class="st0" d="M595.1,383.3c0.1-1.4,0.2-2.9,0.2-4.3v-64.5H571c1.7,9.8,3.7,19.1,6,27.6
			C583.1,365.5,589.9,377.7,595.1,383.3z"/>
		<path class="st0" d="M522.4,367.5c-5.1-5.5-10-11.6-14.6-18.3c-7.4-10.6-13.7-22.3-19-34.8H463
			C478.2,336.5,498.6,354.8,522.4,367.5z"/>
		<path class="st0" d="M463,123.6h25.8c5.3-12.5,11.6-24.2,19-34.8c4.6-6.6,9.5-12.7,14.6-18.3C498.6,83.3,478.2,101.5,463,123.6z"
			/>
		<path class="st0" d="M452.4,296.9l29.8,0c-7-21.5-11-44.9-11.8-69.1h-37C434.8,252.6,441.5,276.1,452.4,296.9z"/>
		<path class="st0" d="M433.5,210.3h37c0.8-24.2,4.8-47.6,11.8-69.1h-29.8C441.5,162,434.8,185.4,433.5,210.3z"/>
	</g>
	<g>
		<path class="st2" d="M85.3,211.3V210c0-13.5,8.8-23.1,22.6-23.1c11.5,0,18.8,6.8,20.2,16.1h-11c-1.1-4.4-4.2-7.2-9.4-7.2
			c-7.3,0-11.2,5.7-11.2,14.1v1.3c0,8.5,4.1,14.1,11.6,14.1c7.3,0,10.7-4.3,11-9.4h-12.1v-8.1h21.2v25.7h-7.9l-0.9-5.8
			c-2.3,3.9-7.2,6.6-13.3,6.6C93.3,234.4,85.3,224.8,85.3,211.3z"/>
		<path class="st2" d="M144.4,185.8v47.7h-10.3v-47.7H144.4z"/>
		<path class="st2" d="M149.4,217.2v-0.6c0-10.1,7-17.2,17.5-17.2c10.6,0,17.5,7.1,17.5,17.2v0.6c0,10.1-6.9,17.2-17.5,17.2
			C156.4,234.4,149.4,227.3,149.4,217.2z M173.9,217.2v-0.6c0-6.1-2.1-9.3-7-9.3c-4.8,0-7,3.2-7,9.3v0.6c0,6.1,2.2,9.3,7,9.3
			C171.8,226.5,173.9,223.3,173.9,217.2z"/>
		<path class="st2" d="M199.3,228.2l-0.3,5.4h-9.6v-47.7h10.4v18.8c1.9-3,5.3-5.2,10.1-5.2c9,0,14.3,7.4,14.3,17.2v0.6
			c0,9.9-5.5,17.2-14.6,17.2C204.1,234.4,200.7,231.3,199.3,228.2z M213.6,217.2v-0.6c0-6.2-2.3-9.4-7.1-9.4s-7.1,3.2-7.1,9.4v0.6
			c0,6.1,2.3,9.4,7.1,9.4S213.6,223.3,213.6,217.2z"/>
		<path class="st2" d="M227.4,224.3c0-5.7,3.7-9.2,10.1-9.9l11.6-1.5v-2.1c0-2.4-1.6-3.9-5-3.9c-3.4,0-5.3,1.4-5.5,3.9h-9.8
			c0.4-7.1,6.4-11.2,15.5-11.2c9.2,0,14.8,4.4,14.8,11.3v22.8h-9.7l-0.3-5c-2,3.6-5.7,5.8-10.8,5.8
			C231.9,234.4,227.4,230.1,227.4,224.3z M249.1,221.4V219l-7.9,1c-2.6,0.3-3.8,1.5-3.8,3.5c0,2.2,1.6,3.5,4.6,3.5
			C245.9,227.1,249.1,224.8,249.1,221.4z"/>
		<path class="st2" d="M275.3,185.8v47.7H265v-47.7H275.3z"/>
		<path class="st2" d="M86.6,291.2v-45.8h20.1c9.7,0,17,5.2,17,14.8v0.6c0,9.7-7.2,14.8-17,14.8h-9.3v15.5H86.6z M97.3,266.9h8.2
			c4.1,0,7-1.8,7-6v-0.6c0-4.2-2.8-6-7-6h-8.2V266.9z"/>
		<path class="st2" d="M128,291.2v-33.3h9.9l0.2,6.5c1.5-3.9,4.7-7.1,9.7-7.1c0.7,0,1.5,0.1,2.1,0.2v9.9c-0.7-0.1-1.7-0.1-2.7-0.1
			c-6,0-8.8,3-8.8,8.4v15.5H128z"/>
		<path class="st2" d="M152,274.9v-0.6c0-10.1,7-17.2,17.5-17.2c10.6,0,17.5,7.1,17.5,17.2v0.6c0,10.1-6.9,17.2-17.5,17.2
			C159,292.1,152,285,152,274.9z M176.5,274.9v-0.6c0-6.1-2.1-9.3-7-9.3c-4.8,0-7,3.2-7,9.3v0.6c0,6.1,2.2,9.3,7,9.3
			C174.4,284.2,176.5,281,176.5,274.9z"/>
		<path class="st2" d="M199.3,291.2l-12.1-33.3h10.9l7,23l7.1-23h10.4l-12,33.3H199.3z"/>
		<path class="st2" d="M236.6,253.9h-10.7v-10.4h10.7V253.9z M236.5,257.9v33.3h-10.3v-33.3H236.5z"/>
		<path class="st2" d="M241.4,274.9v-0.6c0-9.7,5.3-17.2,14.3-17.2c4.8,0,8.2,2.3,10.1,5.2v-18.8h10.4v47.7h-9.6l-0.3-5.4
			c-1.4,3.1-4.8,6.2-10.2,6.2C247,292.1,241.4,284.8,241.4,274.9z M266.1,274.9v-0.6c0-6.2-2.3-9.4-7.1-9.4c-4.8,0-7.1,3.2-7.1,9.4
			v0.6c0,6.1,2.3,9.4,7.1,9.4C263.7,284.3,266.1,281,266.1,274.9z"/>
		<path class="st2" d="M281.1,274.9v-0.6c0-10.3,6.9-17.2,17.6-17.2c11.6,0,17.4,8.1,16.7,19.9h-24.1c0.5,5.1,2.8,7.5,7.3,7.5
			c3.7,0,5.7-1.8,6.4-3.9h10.1c-1.6,7-7.6,11.5-16.5,11.5C287.8,292.1,281.1,285.3,281.1,274.9z M305,270.9
			c-0.3-3.8-2.3-6.3-6.4-6.3s-6.4,1.9-7.1,6.3H305z"/>
		<path class="st2" d="M320.5,291.2v-33.3h9.9l0.2,6.5c1.5-3.9,4.7-7.1,9.7-7.1c0.7,0,1.5,0.1,2.1,0.2v9.9c-0.7-0.1-1.7-0.1-2.7-0.1
			c-6,0-8.8,3-8.8,8.4v15.5H320.5z"/>
		<path class="st2" d="M86.6,349v-45.8h12.7l17.3,30.4v-30.4h10.3V349h-12.1L97,317.4V349H86.6z"/>
		<path class="st2" d="M132,332.6v-0.6c0-10.3,6.9-17.2,17.6-17.2c11.6,0,17.4,8.1,16.7,19.9h-24.1c0.5,5.1,2.8,7.5,7.3,7.5
			c3.7,0,5.7-1.8,6.4-3.9h10.1c-1.6,7-7.6,11.5-16.5,11.5C138.7,349.8,132,343,132,332.6z M156,328.6c-0.3-3.8-2.3-6.3-6.4-6.3
			c-4.1,0-6.4,1.9-7.1,6.3H156z"/>
		<path class="st2" d="M174,338.9V323H168v-7.4h6.1V305h10.3v10.6h8.4v7.4h-8.4v15.2c0,2.6,1.3,3.7,4.5,3.7c1.5,0,2.8-0.3,4-0.6v7.7
			c-1.7,0.5-4.3,0.8-6.5,0.8C177.9,349.8,174,346,174,338.9z"/>
		<path class="st2" d="M204.7,349l-9.7-33.3h10.4l5.5,22.6l5.4-22.6h10.1l5.4,22.7l5.6-22.7h10.1l-9.8,33.3h-10.8l-5.7-22.1
			l-5.6,22.1H204.7z"/>
		<path class="st2" d="M247.7,332.6v-0.6c0-10.1,7-17.2,17.5-17.2c10.6,0,17.5,7.1,17.5,17.2v0.6c0,10.1-6.9,17.2-17.5,17.2
			C254.7,349.8,247.7,342.7,247.7,332.6z M272.2,332.6v-0.6c0-6.1-2.1-9.3-7-9.3c-4.8,0-7,3.2-7,9.3v0.6c0,6.1,2.2,9.3,7,9.3
			C270.1,341.9,272.2,338.7,272.2,332.6z"/>
		<path class="st2" d="M287.7,349v-33.3h9.9l0.2,6.5c1.5-3.9,4.7-7.1,9.7-7.1c0.7,0,1.5,0.1,2.1,0.2v9.9c-0.7-0.1-1.7-0.1-2.7-0.1
			c-6,0-8.8,3-8.8,8.4V349H287.7z"/>
		<path class="st2" d="M324.4,337.7V349h-10.3v-47.7h10.3v25.9l11.1-11.5h11.6l-12.7,13l13.2,20.4h-11.3l-9-14.1L324.4,337.7z"/>
	</g>
	<g>
		<g>
			<g id="Group_115">
				<path id="Path_278" class="st2" d="M207.1,82.2h1.4v4h1v-4h1.4v-0.8h-3.8C207.1,81.4,207.1,82.2,207.1,82.2z M164.2,102.9v-1.6
					l-0.2-1.4l-0.2-1.4l-0.2-1.4l-0.2-1.4l-0.2-1.4l-0.4-1.2l-0.2-1.4l-0.4-1.2l-0.4-1.2l-0.6-1l-0.6-1l-0.6-1l-0.6-1l-0.6-0.8
					l-0.6-0.8l-0.8-0.8l-0.8-0.8l-0.8-0.4l-1-0.6l-1-0.6l-1-0.4l-1-0.4l-1.2-0.4l-1.2-0.4l-1.4-0.2l-1.2-0.2l-1.4-0.2h-1.6h-1.6
					h-1.6h-1.4H138l-1.4,0.2l-1.2,0.2l-1.2,0.4l-1.2,0.4l-1,0.4l-1,0.4l-1,0.6l-1,0.6l-0.8,0.6l-0.8,0.8l-1,0.8l-0.8,0.8l-0.6,0.8
					l-0.6,1l-0.4,1l-0.6,1l-0.4,1l-0.4,1.2l-0.4,1.2l-0.4,1.2l-0.2,1.2l-0.2,1.4l-0.2,1.4l-0.2,1.4l-0.2,1.4l-0.2,1.6v1.6v1.6v3.4
					v1.6v1.6l0.2,1.6l0.2,1.4l0.2,1.4l0.2,1.4l0.2,1.2l0.2,1.2l0.4,1.2l0.4,1.2l0.4,1l0.4,1l0.6,1l0.6,1l0.6,0.8l0.6,0.8l0.8,0.8
					l0.8,0.8l0.8,0.6l0.8,0.6l1,0.6l1,0.6l1,0.4l1,0.4l1.2,0.4l1.2,0.4l1.2,0.2l1.4,0.2l1.4,0.2h1.4h1.6h1.6h1.6l1.4-0.2l1.2-0.2
					l1.2-0.2l1.2-0.4l1.2-0.4l1-0.4l1-0.4l1-0.6l1-0.6l0.8-0.6l0.8-0.6l0.8-0.8l0.8-0.8l0.6-0.8l0.6-0.8l0.6-1l0.6-1l0.6-1l0.4-1
					l0.4-1.2l0.4-1.2l0.4-1.2l0.2-1.2l0.2-1.4l0.2-1.4l0.2-1.4l0.2-1.6v-1.6v-1.6v-1.6v-1.6L164.2,102.9z M153.2,108.3v2l-0.2,1.8
					l-0.2,1.8l-0.2,0.8l-0.2,0.8l-0.2,0.8l-0.2,0.4l-0.2,0.6l-0.2,0.6l-0.2,0.6l-0.4,0.6l-0.2,0.6l-0.4,0.4l-0.4,0.4l-0.4,0.4
					l-0.4,0.4l-0.4,0.4l-0.4,0.4l-0.6,0.2l-0.6,0.2l-0.6,0.2l-0.6,0.2l-0.6,0.2l-0.6,0.2H144h-0.8h-1.6h-0.8H140l-0.6-0.2l-0.6-0.2
					l-0.8-0.2l-0.6-0.2l-0.6-0.2l-0.6-0.2l-0.2-0.4l-0.4-0.4l-0.4-0.4l-0.4-0.4l-0.4-0.4l-0.4-0.4l-0.4-0.6l-0.2-0.6l-0.2-0.6
					l-0.2-0.6l-0.2-0.6l-0.2-0.6l-0.2-0.8l-0.4-0.8v-0.6l-0.2-1.8l-0.2-1.8v-2v-2.2v-2v-2l0.2-1.8l0.2-1.8v-0.8l0.2-0.8l0.2-0.8
					l0.2-0.6l0.2-0.6l0.2-0.6l0.2-0.6l0.2-0.6l0.6-0.6l0.4-0.6l0.4-0.6l0.4-0.4l0.4-0.4l0.4-0.2l0.6-0.4l0.4-0.2l0.6-0.2l0.4-0.4
					l0.6-0.2l0.6-0.2h0.8h0.8h0.8h0.8h0.8h0.8h0.8l0.6,0.2h0.6l0.6,0.2l0.6,0.2l0.6,0.4l0.6,0.4l0.4,0.4l0.4,0.4l0.4,0.4l0.4,0.2
					l0.4,0.6l0.4,0.6l0.4,0.6l0.4,0.6l0.2,0.6l0.2,0.6v0.4l0.2,0.6l0.2,0.8l0.2,0.8l0.2,0.8l0.2,1.8l0.2,1.8v2v2L153.2,108.3z
					 M203.7,114.1l-0.2-0.8l-0.2-0.8l-0.2-0.6l-0.2-0.6l-0.2-0.6l-0.2-0.6l-0.2-0.6l-0.4-0.6l-0.4-0.6l-0.4-0.6l-0.4-0.4l-0.4-0.4
					l-0.4-0.4l-0.4-0.4l-0.2-0.4l-0.6-0.4l-0.6-0.4l-0.6-0.4l-0.6-0.4l-0.8-0.2l-1.6-0.8l-1.8-0.6l-1.6-0.8l-2-0.6l-1.6-0.4
					l-1.4-0.4l-1.4-0.6l-1.2-0.4l-1-0.4l-1-0.4l-0.8-0.4l-0.6-0.4l-0.6-0.4l-0.4-0.4l-0.4-0.4l-0.2-0.4l-0.2-0.4l-0.2-0.8v-0.6v-1.2
					v-0.6l0.2-0.6l0.2-0.6l0.2-0.4l0.4-0.4l0.4-0.4l0.6-0.2l0.6-0.4l0.6-0.2l0.6-0.2l0.8-0.2l0.8-0.2l0.8-0.2h1h2.2h0.8h0.8h0.8h0.8
					l0.8,0.2h0.8h0.8l0.8,0.2h0.8l0.8,0.2h0.8l0.8,0.2h0.8h0.6l0.6,0.2l1,0.2h0.6h0.4h0.6h0.2l0.8-9.6h-0.4l-0.8-0.2l-0.6-0.2h-0.4
					h-0.8l-0.8-0.2l-0.8-0.2l-1-0.2l-1-0.2l-1-0.2l-1-0.2l-1-0.2l-1-0.2l-1-0.2l-1-0.2h-1h-1h-2.4l-1.4,0.2l-1.4,0.2l-1.2,0.2
					l-1.2,0.2l-1.2,0.4l-1.2,0.4l-1.2,0.4l-1,0.4l-1,0.6l-1,0.6l-0.8,0.6l-0.8,0.6l-1.4,1.2l-0.6,0.8l-0.6,0.8l-0.6,1l-0.4,1l-0.4,1
					l-0.4,1l-0.2,1l-0.2,1.2l-0.2,1.2v2v0.8v0.8l0.2,0.8l0.2,0.8l0.2,0.8l0.2,0.6l0.2,0.6l0.2,0.6l0.2,0.6l0.4,0.6l0.4,0.6l0.4,0.6
					l0.4,0.6l0.4,0.4l0.4,0.6l0.6,0.4l0.6,0.4l0.6,0.4l0.6,0.4l0.6,0.4l0.6,0.4l0.8,0.4l0.8,0.4l1.6,0.8l1.8,0.6l2,0.6l2.2,0.6
					l1.4,0.4l1.2,0.4l1,0.4l1,0.4l0.8,0.4l0.8,0.4l0.6,0.4l0.6,0.4l0.6,0.4l0.4,0.4l0.4,0.4l0.2,0.4l0.2,0.4l0.2,0.6v0.6v0.6v0.8
					l-0.2,0.6l-0.2,0.6l-0.2,0.6l-0.2,0.6l-0.4,0.6l-0.4,0.4l-0.4,0.4l-0.6,0.4l-0.6,0.2l-0.6,0.2l-0.8,0.2l-0.8,0.2l-1,0.2h-1h-2
					h-0.8h-1h-1h-1l-1-0.2h-1h-1l-1-0.2l-1-0.2l-1-0.2l-0.8-0.2h-0.8l-0.4-0.2h-0.6l-0.6-0.2H170h-0.2l-1,9.6h0.2l0.8,0.2l0.6,0.2
					l0.6,0.2l0.8,0.2l0.8,0.2l1,0.2l1,0.2l1,0.2l1,0.2l1,0.2l1,0.2l1,0.2l1,0.2l1,0.2l1,0.2h1.4h1h1h1l1-0.2l1-0.2l1-0.2l0.8-0.2
					l0.8-0.2l0.8-0.2l0.8-0.2l0.8-0.4l0.8-0.4l0.8-0.4l0.8-0.4l0.6-0.4l0.6-0.4l0.6-0.4l0.6-0.6l0.6-0.6l0.6-0.6l0.6-0.6l0.4-0.6
					l0.4-0.6l0.4-0.8l0.4-0.8l0.4-0.8l0.4-0.8l0.2-0.8l0.2-0.8l0.2-0.8l0.2-1v-1v-1v-1.6L203.7,114.1z M213.9,84.6l-0.8-3.2h-1.4
					v4.8h1v-3.8l1,3.8h1l1-3.8v3.8h0.8v-4.8h-1.4L213.9,84.6z M83.7,100.9h10.6V89.3h23.4V79h-34V100.9z M94.3,111.3H83.7v21.4h34
					v-10.2H94.3V111.3z M94.3,111.3h18.8v-10.2H94.3C94.3,101.1,94.3,111.3,94.3,111.3z M318.2,113.3l-0.2-0.8l-0.2-0.6l-0.2-0.6
					l-0.2-0.6l-0.2-0.6l-0.2-0.6l-0.4-0.6l-0.4-0.6l-0.4-0.6l-0.4-0.4l-0.4-0.4l-0.4-0.4l-0.6-0.4l-0.6-0.4l-0.6-0.4l-0.6-0.4
					l-0.6-0.4l-0.6-0.4l-0.6-0.4l-1.6-0.8l-1.8-0.6l-1.8-0.8l-2-0.6l-1.6-0.4l-1.4-0.4l-1.2-0.4l-1.2-0.4l-1-0.4l-0.8-0.4l-0.8-0.4
					l-0.6-0.4l-0.4-0.4l-0.4-0.4l-0.4-0.4l-0.4-0.4l-0.2-0.4l-0.2-0.6v-0.6v-0.6v-0.6l0.2-0.6l0.2-0.6l0.2-0.6l0.4-0.4l0.4-0.4
					l0.4-0.4l0.4-0.4l0.6-0.4l0.6-0.2l0.8-0.2l0.8-0.2l0.8-0.2l0.8-0.2h1h2.2h0.6h0.8h0.8h0.8l0.8,0.2h0.8h0.8l0.8,0.2h0.8l0.8,0.2
					h0.8l0.8,0.2h0.8h0.8l0.6,0.2h0.6h0.4h0.4h0.6h0.2l0.8-9.6h-0.2l-0.8-0.2l-0.6-0.2l-0.6-0.2l-0.6,0.4l-0.8-0.2l-1-0.2l-1-0.2
					l-1-0.2l-1-0.2h-1.2l-1-0.2h-1l-1-0.2l-1-0.2h-1h-1h-2.4l-1.6,0.2l-1.4,0.2l-1.2,0.2l-1.4,0.2l-1.2,0.4l-1.2,0.4l-1,0.4l-1,0.4
					l-1,0.6l-0.8,0.6l-0.8,0.6l-1,0.6l-0.8,0.8l-0.6,0.8l-0.6,0.8l-0.6,1l-0.4,1l-0.4,1l-0.4,1l-0.2,1l-0.2,1.2l-0.2,1.2v1.2v0.8
					v0.8v0.8l0.2,0.8l0.2,0.8l0.2,0.8l0.2,0.6l0.2,0.6l0.2,0.6l0.2,0.6l0.4,0.6l0.4,0.6l0.4,0.6l0.4,0.6l0.4,0.4l0.4,0.6l0.6,0.4
					l0.6,0.4l0.6,0.4l0.6,0.4l0.6,0.4l0.6,0.4l0.8,0.4l0.8,0.4l1.6,0.8l1.8,0.6l2,0.6l2.2,0.6l1.4,0.4l1.2,0.4l1.2,0.4l1,0.4
					l0.8,0.4l0.8,0.4l0.6,0.4l0.6,0.4l0.4,0.4l0.4,0.4l0.4,0.4l0.2,0.4l0.2,0.4l0.2,0.6l0.2,0.6v1.4l-0.2,0.6l-0.2,0.6l-0.2,0.6
					l-0.2,0.6l-0.4,0.4l-0.4,0.4l-0.4,0.4l-0.6,0.4l-0.6,0.2l-0.6,0.2l-0.8,0.2l-0.8,0.2l-0.8,0.2h-1H299h-1h-1h-1h-1l-1-0.2h-1
					l-1-0.2l-1-0.2l-1-0.2l-0.8-0.2l-0.8-0.2h-0.8l-0.8-0.2l-0.6-0.2h-0.6l-0.8-0.2h-0.2l-1,9.6h0.4l0.8,0.2l0.6,0.2l0.8,0.2
					l0.8,0.2l0.8,0.2l1,0.2l1,0.2l1,0.2l1,0.2l1,0.2l1,0.2l1,0.2l1,0.2l1,0.2l1,0.2h1h1h1h1l1-0.2l1-0.2l1-0.2l1-0.2l0.8-0.2
					l0.8-0.2l0.8-0.2l0.8-0.4l0.8-0.4l0.8-0.4l0.8-0.4l0.8-0.4l0.6-0.4l0.6-0.4l0.6-0.6l0.6-0.6l0.6-0.6l0.4-0.6l0.4-0.6l0.4-0.6
					l0.4-0.8l0.4-0.8l0.4-0.8l0.2-0.8l0.2-0.8l0.2-0.8l0.2-0.8l0.2-1l0.2-1v-2.8l-0.2-1.6L318.2,113.3z M361.9,79h-12.4l-8.8,22.2
					l-7,0.8V79H323v53.7h10.6v-20.4l7.2-0.8l8.8,21h12.4l-11.6-26.8L361.9,79z M266.6,132.7h10.8V79h-10.8V132.7z M261.2,93.9
					l-0.2-1.4l-0.2-1.2l-0.4-1.2l-0.2-1.4l-0.4-1l-0.4-1l-0.6-1l-0.6-1l-0.6-0.8l-0.8-0.8l-0.8-0.6l-0.8-0.6l-1-0.6l-1-0.4l-1-0.4
					l-1.2-0.4l-1.2-0.4l-1.2-0.2l-1.4-0.2l-1.4-0.2h-1.6h-22v53.7h10.6v-17.4h10.2l6.2,17.4H261l-7.6-20.6l0.8-0.4l0.6-0.4l0.6-0.4
					l0.6-0.4l0.6-0.4l0.6-0.4l0.4-0.4l0.4-0.6l0.4-0.6l0.4-0.6l0.4-0.6l0.4-0.6l0.4-0.6l0.4-0.6l0.2-0.6l0.2-0.8l0.2-0.8l0.2-0.8
					l0.2-0.8l0.2-0.8l0.2-0.8l0.2-0.8v-1v-1v-1.6L261.2,93.9z M250.3,96.9v1.2v0.6l-0.2,0.6v0.6l-0.2,0.6l-0.2,0.4l-0.2,0.4
					l-0.2,0.4l-0.2,0.4l-0.2,0.4l-0.2,0.4l-0.4,0.4l-0.4,0.4l-0.4,0.4l-0.4,0.2l-0.4,0.2l-0.4,0.2l-0.6,0.2l-0.6,0.2l-0.6,0.2
					l-0.4-0.2h-0.6h-10.6v-16h9.8h1l0.8,0.2l0.8,0.2l0.6,0.2l0.6,0.2l0.6,0.4l0.6,0.4l0.6,0.4l0.6,0.6l0.4,0.6l0.4,0.6l0.2,0.8
					l0.2,0.6v0.8l0.2,0.8V96.9z"/>
			</g>
		</g>
		<rect id="Rectangle_8" x="63.9" y="100.9" class="st1" width="10.2" height="10.2"/>
	</g>
</g>
</svg>
