<?xml version="1.0" encoding="utf-8"?>
<!-- Generator: Adobe Illustrator 28.1.0, SVG Export Plug-In . SVG Version: 6.00 Build 0)  -->
<svg version="1.1" id="Layer_1" xmlns="http://www.w3.org/2000/svg" xmlns:xlink="http://www.w3.org/1999/xlink" x="0px" y="0px"
	 viewBox="0 0 89.7 87.3" style="enable-background:new 0 0 89.7 87.3;" xml:space="preserve">
<style type="text/css">
	.st0{fill:#D7001A;}
	.st1{fill:#2A3B46;}
</style>
<g>
	<path class="st0" d="M29.7,55.9L16.7,67l1.7,1.9l13-11.2C30.8,57.1,30.2,56.5,29.7,55.9z"/>
	<path class="st0" d="M61.6,30.1l5.5-4.8l-1.7-1.9l-5.5,4.8C60.5,28.8,61.1,29.4,61.6,30.1z"/>
	<path class="st0" d="M70.7,66.5l-10-10c-0.6,0.6-1.2,1.2-1.8,1.8l10,10L70.7,66.5z"/>
	<path class="st0" d="M31.8,27.5l-8.1-8.1l-1.8,1.8l8.1,8.1C30.5,28.7,31.2,28.1,31.8,27.5z"/>
	<path class="st0" d="M44.2,63.3v5.3h2.6v-5.3c-0.4,0-0.8,0.1-1.3,0.1C45.1,63.3,44.7,63.3,44.2,63.3z"/>
	<path class="st0" d="M46.8,22.3V11.7h-2.6v10.6c0.4,0,0.8-0.1,1.3-0.1C45.9,22.3,46.4,22.3,46.8,22.3z"/>
	<path class="st0" d="M25,41.8h-3.6v2.6H25c0-0.5-0.1-1-0.1-1.6C25,42.5,25,42.1,25,41.8z"/>
	<path class="st0" d="M73.3,41.8H66c0,0.3,0.1,0.7,0.1,1c0,0.5,0,1-0.1,1.6h7.3V41.8z"/>
	<path class="st1" d="M72.3,28.5c-5.2,0-9.5-4.2-9.5-9.5s4.2-9.5,9.5-9.5s9.5,4.2,9.5,9.5S77.5,28.5,72.3,28.5z M72.3,12.1
		c-3.8,0-6.9,3.1-6.9,6.9s3.1,6.9,6.9,6.9c3.8,0,6.9-3.1,6.9-6.9S76.1,12.1,72.3,12.1z"/>
	<path class="st1" d="M19.1,23.7c-3.9,0-7.1-3.2-7.1-7.1s3.2-7.1,7.1-7.1c3.9,0,7.1,3.2,7.1,7.1S23,23.7,19.1,23.7z M19.1,12.1
		c-2.5,0-4.6,2-4.6,4.6s2,4.6,4.6,4.6s4.6-2,4.6-4.6S21.6,12.1,19.1,12.1z"/>
	<path class="st1" d="M45.5,79.9c-3.7,0-6.7-3-6.7-6.7c0-3.7,3-6.7,6.7-6.7s6.7,3,6.7,6.7C52.2,76.9,49.2,79.9,45.5,79.9z M45.5,69
		c-2.3,0-4.2,1.9-4.2,4.2c0,2.3,1.9,4.2,4.2,4.2c2.3,0,4.2-1.9,4.2-4.2C49.7,70.9,47.8,69,45.5,69z"/>
	<path class="st0" d="M10.6,84.7C4.8,84.7,0,79.9,0,74.1c0-5.9,4.8-10.6,10.6-10.6s10.6,4.8,10.6,10.6
		C21.2,79.9,16.5,84.7,10.6,84.7z M10.6,66c-4.4,0-8.1,3.6-8.1,8.1s3.6,8.1,8.1,8.1s8.1-3.6,8.1-8.1S15.1,66,10.6,66z"/>
	<path class="st1" d="M14.4,50.2c-3.9,0-7.1-3.2-7.1-7.1c0-3.9,3.2-7.1,7.1-7.1c3.9,0,7.1,3.2,7.1,7.1C21.6,47,18.4,50.2,14.4,50.2z
		 M14.4,38.5c-2.5,0-4.6,2-4.6,4.6c0,2.5,2,4.6,4.6,4.6s4.6-2,4.6-4.6C19,40.6,17,38.5,14.4,38.5z"/>
	<path class="st0" d="M80.6,52.2c-5,0-9.1-4.1-9.1-9.1s4.1-9.1,9.1-9.1c5,0,9.1,4.1,9.1,9.1S85.6,52.2,80.6,52.2z M80.6,36.6
		c-3.6,0-6.5,2.9-6.5,6.5c0,3.6,2.9,6.5,6.5,6.5s6.5-2.9,6.5-6.5C87.1,39.5,84.2,36.6,80.6,36.6z"/>
	<path class="st0" d="M45.5,13.5c-3.7,0-6.7-3-6.7-6.7s3-6.7,6.7-6.7s6.7,3,6.7,6.7S49.2,13.5,45.5,13.5z M45.5,2.6
		c-2.3,0-4.2,1.9-4.2,4.2c0,2.3,1.9,4.2,4.2,4.2c2.3,0,4.2-1.9,4.2-4.2C49.7,4.4,47.8,2.6,45.5,2.6z"/>
	<path class="st1" d="M76.8,87.3c-6.7,0-12.2-5.5-12.2-12.2S70.1,63,76.8,63S89,68.4,89,75.1S83.5,87.3,76.8,87.3z M76.8,65.5
		c-5.3,0-9.6,4.3-9.6,9.6s4.3,9.6,9.6,9.6c5.3,0,9.6-4.3,9.6-9.6S82.1,65.5,76.8,65.5z"/>
	<g>
		<path class="st1" d="M40.8,43.3c1.5,0.7,3.1,1.1,4.7,1.1s3.2-0.4,4.7-1.1c2.5,0.8,5.9,2.9,6.6,7.7C53,51.7,49.2,52,45.5,52
			c-3.7,0-7.5-0.3-11.3-0.9C34.9,46.2,38.3,44.1,40.8,43.3 M50,40.9c-1.3,0.8-2.8,1.2-4.5,1.2c-1.6,0-3.2-0.4-4.5-1.2
			c-5.3,1.4-9.2,5.4-9.2,12c4.5,0.9,9.1,1.3,13.6,1.3s9.1-0.4,13.6-1.3C59.1,46.3,55.3,42.3,50,40.9L50,40.9z"/>
	</g>
	<g>
		<path class="st1" d="M45.5,28.5c2.6,0,4.8,2.1,4.8,4.8s-2.1,4.8-4.8,4.8s-4.8-2.1-4.8-4.8S42.9,28.5,45.5,28.5 M45.5,26.3
			c-3.9,0-7,3.1-7,7s3.1,7,7,7s7-3.1,7-7S49.4,26.3,45.5,26.3L45.5,26.3z"/>
	</g>
</g>
</svg>
