<?xml version="1.0" encoding="utf-8"?>
<!-- Generator: Adobe Illustrator 28.3.0, SVG Export Plug-In . SVG Version: 6.00 Build 0)  -->
<svg version="1.1" id="Layer_1" xmlns="http://www.w3.org/2000/svg" xmlns:xlink="http://www.w3.org/1999/xlink" x="0px" y="0px"
	 viewBox="0 0 100.9 90.2" style="enable-background:new 0 0 100.9 90.2;" xml:space="preserve">
<style type="text/css">
	.st0{fill:#FFFFFF;}
	.st1{fill:#2A3B46;}
	.st2{fill:#D7001A;}
</style>
<g>
	<g>
		<line class="st0" x1="79.3" y1="7.5" x2="69.4" y2="7.5"/>
		<rect x="69.4" y="6.2" class="st1" width="9.9" height="2.7"/>
	</g>
	<path class="st1" d="M46,55.8h13.7v-13c0,0,0,0,0,0H46L46,55.8C46,55.8,46,55.8,46,55.8z M48.7,45.4h8.4v7.7h-8.4V45.4z"/>
	<path class="st1" d="M100.3,66.5c-0.1-0.2-0.3-0.5-0.4-0.7c-0.9-1.3-2.2-2-3.6-2.3c-1.5-0.3-3.1-0.1-4.6,0.4l-18,6.5
		c0.1-0.3,0.2-0.6,0.2-0.8c0.2-1.1,0.2-2.2,0-3.3c-0.3-1.1-0.8-2.1-1.6-3c-1.5-1.6-3.9-2.6-7.3-2.1c-15.8,2.3-21.3-1.1-26.5-4.2
		c-4.2-2.5-8.2-5-16.5-4.8v-1.5v-2.6h-2.6h-17H0v2.6V86v2.6h2.6h17h2.6V86V85L36,90c0.8,0.3,5.9,0.3,11.8,0.3
		c8.3-0.1,18.2-0.3,18.6-0.6l31.5-16c0.3-0.1,0.5-0.3,0.7-0.4c1.1-0.8,1.8-1.9,2.1-3.1C101.1,69,100.9,67.7,100.3,66.5z M19.5,86
		h-17V50.9h17V86z M98.2,69.6c-0.1,0.6-0.5,1.2-1.1,1.6c-0.1,0.1-0.2,0.2-0.4,0.2l-31.5,16c-0.2,0.1-9.4,0.2-17.4,0.3
		c-5.6,0-10.4,0-10.9-0.1l-14.9-5.4v-27c7.5-0.2,11.2,2,15.1,4.4c5.6,3.4,11.5,7,28.3,4.6c2.4-0.3,4,0.2,5,1.2
		c0.5,0.5,0.8,1.1,0.9,1.8c0.2,0.7,0.2,1.4,0,2.1c-0.3,1.4-1.2,2.7-2.6,3.2l-4.9,1.8l-19.4,1.1l0.1,2.7L64,76.8c0.1,0,0.2,0,0.3,0
		c0.1,0,0.2-0.1,0.4-0.1l4.9-1.8l0,0c0,0,0,0,0,0l23-8.4c1.1-0.4,2.2-0.5,3.2-0.3c0.8,0.2,1.5,0.5,1.9,1.2c0.1,0.1,0.2,0.2,0.2,0.4
		C98.2,68.3,98.3,69,98.2,69.6z"/>
	<g>
		<path class="st1" d="M83.1,43.3C85.7,44,87,45,87,47.1v0.2c0,2.1-1.5,3.6-3.9,3.8v1.3h-1.2v-1.3c-2.6-0.2-4.1-1.6-4.2-4.3H80
			c0.1,1.7,0.8,2.4,1.8,2.6V45l-0.1,0c-2.8-0.7-3.7-1.8-3.7-3.7V41c0-2.1,1.5-3.5,3.8-3.7v-1.3h1.2v1.3c2.1,0.2,3.5,1.5,3.7,3.9
			h-2.4c-0.1-1.2-0.5-1.9-1.3-2.2V43.3z M80.4,41.1c0,0.9,0.3,1.4,1.4,1.8v-4c-0.9,0.2-1.4,0.8-1.4,1.9V41.1z M84.5,47.2
			c0-0.9-0.3-1.4-1.4-1.9v4.1c0.9-0.2,1.4-0.8,1.4-2V47.2z"/>
	</g>
	<path class="st2" d="M84,31.3C84,31.3,84,31.3,84,31.3L84,31.3l0-3.2c0,0,0-0.1,0-0.1c0,0,0-0.1,0-0.1L79.8,0H69.3l-3.9,26.7H56
		v-4.9h2.4v-2.7H45.6v2.7h2.3v4.9h-9.9v-4.9h2.4v-2.7H27.5v2.7h2.3v4.9h-8.1v18.9h0.4h2.3v-8.7h47.1c-1.6,2.2-2.6,5-2.6,7.9
		c0,7,5.3,12.8,12.2,13.5h0.2v6.5l2.7-1v-5.6h0c6.8-0.7,12.2-6.5,12.2-13.5C96.1,37.8,90.8,32,84,31.3z M70.6,9.5L71,6.8l0.6-4.1
		h5.9l0.6,4.1l0.4,2.7l2.5,17.3h-13L70.6,9.5z M53.3,21.8v4.9h-2.7v-4.9H53.3z M35.3,21.8v4.9h-2.7v-4.9H35.3z M24.4,34.3v-4.9h6.9
		h5.2h12.8h5.2h26.7v1.9H81c0,0,0,0,0,0c-2.7,0.3-5.1,1.4-7.1,3H24.4z M82.5,55.8c-6,0-11-4.9-11-11c0-6,4.9-11,11-11
		c6,0,11,4.9,11,11C93.4,50.9,88.5,55.8,82.5,55.8z"/>
	<path class="st2" d="M30.9,50.6v-5.2h8.4v7.7H37c1,0.6,2,1.2,2.9,1.7c0.5,0.3,1,0.6,1.5,0.9H42v-13H28.2v7.3
		C29.2,50.2,30.1,50.4,30.9,50.6z"/>
</g>
</svg>
