<?xml version="1.0" encoding="utf-8"?>
<!-- Generator: Adobe Illustrator 27.5.0, SVG Export Plug-In . SVG Version: 6.00 Build 0)  -->
<svg version="1.1" id="Layer_1" xmlns="http://www.w3.org/2000/svg" xmlns:xlink="http://www.w3.org/1999/xlink" x="0px" y="0px"
	 viewBox="0 0 32.1 21.4" style="enable-background:new 0 0 32.1 21.4;" xml:space="preserve">
<style type="text/css">
	.st0{fill:#FFFFFF;}
</style>
<g>
	<path class="st0" d="M31.9,0.2C31.8,0.1,31.6,0,31.4,0H0.6C0.4,0,0.3,0.1,0.2,0.2C0.1,0.3,0,0.4,0,0.6l0.1,20.3
		c0,0.2,0,0.3,0.1,0.4c0.1,0.1,0.2,0.2,0.4,0.2h30.9c0.1,0,0.2-0.1,0.4-0.2C32,21.1,32,21,32,20.8l0.1-20.3C32,0.4,32,0.3,31.9,0.2z
		 M30.9,1.1l0,3.6c-0.1,0-0.2,0-0.3,0.1l-14.4,6.5l-15.2-7l0-3.3H30.9z M1.1,20.3l0-14.8l15,6.9c0,0,0.1,0,0.1,0c0,0,0.1,0,0.1,0
		c0,0,0,0,0,0c0,0,0,0,0,0c0.1,0,0.1,0,0.1,0c0,0,0.1,0,0.2,0L31,5.8l0,14.5H1.1z"/>
	<path class="st0" d="M16.3,12.4C16.3,12.4,16.3,12.4,16.3,12.4C16.3,12.4,16.3,12.4,16.3,12.4C16.3,12.4,16.3,12.4,16.3,12.4
		C16.3,12.4,16.3,12.4,16.3,12.4L16.3,12.4z"/>
</g>
</svg>
