<?xml version="1.0" encoding="utf-8"?>
<!-- Generator: Adobe Illustrator 28.3.0, SVG Export Plug-In . SVG Version: 6.00 Build 0)  -->
<svg version="1.1" id="Layer_1" xmlns="http://www.w3.org/2000/svg" xmlns:xlink="http://www.w3.org/1999/xlink" x="0px" y="0px"
	 viewBox="0 0 595.3 421.9" style="enable-background:new 0 0 595.3 421.9;" xml:space="preserve">
<style type="text/css">
	.st0{fill:#2A3B46;}
	.st1{fill:#FFFFFF;}
	.st2{fill:#E11F24;}
</style>
<g>
	<g>
		<path class="st0" d="M556.3,421.9c-172.5,0-345,0-517.5,0c-1.5-0.3-3.1-0.6-4.6-0.9C13.6,417.3,0,399.3,0,380.3
			C0.1,267.2,0,154.2,0.1,41.1c0-2.8,0.3-5.6,0.8-8.3C5.1,12.4,23.4,0,40.7,0c171.2,0.1,342.4,0,513.6,0.1c2.7,0,5.4,0.2,8,0.8
			c13.5,3.1,23.2,11,29.1,23.6c0.2,0.4,0.3,0.9,0.4,1.3c-49.1,2-91.4,19.5-126.1,54.2c-34.6,34.6-52.9,76.8-54.3,125.7
			c-1.3,46,12.6,87.2,42,122.6c35.8,43.2,82.4,65.2,138.4,67.9c-0.1,0.3-0.2,0.7-0.4,1c-6.4,13.4-16.9,21.4-31.5,24
			C558.7,421.3,557.5,421.6,556.3,421.9z M176.8,323.5c0,1,0,1.7,0,2.3c0,3.8,0,7.6,0,11.3c0,1.4,0.1,2.8,0.4,4.2
			c0.6,2.8,2,5,4.6,6.2c4.2,1.9,8.5,1.6,12.8,0.4c0.4-2.3,0.2-6.6-0.2-7.8c-1.2,0.1-2.4,0.2-3.6,0.2c-1.8-0.1-2.8-1-3.2-2.7
			c-0.1-0.5-0.1-1.1-0.1-1.6c0-3.7,0-7.3,0-11c0-0.5,0.1-0.9,0.2-1.4c2.5-0.3,5,0.1,7.6-0.3c0-2.4,0-4.7,0-6.9c0.1,0,0.2,0,0.3,0
			c3.7,10.6,7.3,21.1,11,31.7c3.7,0,7.3,0,11,0c2.2-6.6,4-13.2,6.5-19.6c2.1,6.5,4.2,13.1,6.2,19.6c3.8,0,7.3,0,11,0
			c3.8-10.9,7.6-21.7,11.3-32.7c-3.9,0-7.6,0-11.3,0c-1.9,6.7-3.7,13.3-5.5,19.9c-0.1,0-0.2,0-0.3,0c-2-6.6-3.9-13.3-5.8-19.9
			c-3.8,0-7.3,0-11,0c-2,6.7-3.7,13.4-5.9,19.9c-0.3-0.6-0.5-1.2-0.7-1.7c-1.5-5.5-3-10.9-4.5-16.4c-0.5-1.9-0.5-1.9-2.4-1.9
			c-5.1,0-10.2,0-15.3,0c-0.7,0-1.4-0.1-2.3-0.1c0-2.9,0-5.6,0-8.4c-3.7-0.1-7.1-0.1-10.8,0c0,3,0,5.7,0,8.6c-1.8,0-3.3,0-4.9,0
			c-0.4,2.1-0.4,6.8,0.1,8.3C173.4,323.5,175,323.5,176.8,323.5z M86.5,301.4c0,15.7,0,31.1,0,46.6c3.7,0.1,7.2,0.1,10.8,0
			c0-5.2,0-10.1,0-15c0-4.9,0-9.8,0-15.1c0.5,0.8,0.9,1.3,1.2,1.9c5.5,8.9,11,17.8,16.5,26.8c0.6,1,1.3,1.6,2.6,1.5
			c3.2-0.1,6.3,0,9.5,0c0.5,0,1.1-0.1,1.6-0.1c0.4-2.2,0.3-45.1-0.1-46.4c-2.8-0.3-9.4-0.2-10.7,0.2c0,9.7,0,19.5,0,29.7
			c-0.6-1-1-1.6-1.4-2.2c-5.4-8.8-10.9-17.6-16.3-26.5c-0.6-1-1.3-1.5-2.5-1.4c-2.4,0.1-4.9,0-7.3,0
			C89.2,301.4,87.9,301.4,86.5,301.4z M127.6,184.9c-1.7-1.7-3.6-2.9-5.6-3.7c-6.3-2.7-12.8-3.4-19.5-1.7
			c-7.2,1.8-12.7,5.8-15.9,12.6c-1.9,3.9-2.5,8.1-2.4,12.4c0.3,10.1,6.5,18.6,16.2,21.7c9,2.9,17.8,1.7,26.4-1.9
			c1-0.4,1.1-1.1,1.1-2c0-7.3,0-14.5,0-21.8c0-0.5-0.1-0.9-0.1-1.4c-2.7-0.4-17.8-0.3-19.1,0.2c0,2.9,0,5.8,0,8.9c3,0,5.8,0,8.7,0
			c0,2.9,0,5.6,0,8.2c-2.7,1.1-5.5,1.4-8.3,1.2c-5.6-0.5-9.7-3.1-11.6-8.5c-1.3-3.7-1.4-7.4-0.2-11.1c1.6-4.6,4.6-7.7,9.4-8.8
			c4.7-1.1,9.1-0.2,12.8,3c0.3,0.3,0.6,0.5,1,0.8C122.8,190.3,125.1,187.7,127.6,184.9z M268.9,237.5c-0.2,6.7,0.1,13.3-0.1,20
			c-1.2-0.8-2-1.6-3-2.2c-1.1-0.6-2.2-1.1-3.4-1.4c-6.6-1.7-13.4,1.1-16.7,7.2c-3.5,6.4-3.4,13,0.1,19.4c3.6,6.6,10.6,8.8,17.2,7.1
			c2.2-0.6,4.1-1.6,5.6-3.3c0.3-0.3,0.6-0.5,1.2-1c0,1.5,0,2.6,0,3.8c3.4,0,6.6,0,9.8,0c0-16.6,0-33.1,0-49.6
			C276.1,237.5,272.6,237.5,268.9,237.5z M195.8,226.3c1.9,0.4,8.5,0.4,9.9-0.1c0.1-1.1,0.1-2.2,0.2-3.4c0.3,0.2,0.4,0.3,0.5,0.3
			c4.6,5.6,15.2,5.9,21-0.1c6.2-6.5,6.5-18.2,0.7-25.1c-5.3-6.4-15.2-6.8-20.5-1.9c-0.2,0.2-0.5,0.3-1,0.6c0-2.4,0-4.6,0-6.8
			c0-2.2,0-4.4,0-6.6c0-2.2,0.1-4.3-0.1-6.4c-3.6-0.3-9.5-0.2-10.7,0.2C195.8,193.4,195.8,209.9,195.8,226.3z M86.5,240.8
			c-0.4,3.9-0.2,45.1,0.2,46.4c3.6,0,7.3,0,11.1,0c0-2.1,0-4,0-5.9c0-1.9,0-3.8,0-5.7c0-1.9-0.1-3.8,0.1-5.8c2.1,0,3.9,0,5.7,0
			c2.9,0,5.8-0.4,8.6-1.4c6.1-2.1,9.2-6.3,9.6-12.6c0.3-6.3-2.4-11-7.9-13.4c-2.4-1-5-1.6-7.6-1.7c-6.2-0.1-12.4-0.1-18.7-0.1
			C87.3,240.6,86.9,240.7,86.5,240.8z M333.4,348c0-1.8,0-3.5,0-5.1c0-1.7,0-3.4,0-5.1c0-1.6-0.2-3.2,0.2-5c0.5,0.7,0.9,1.2,1.2,1.7
			c2.8,4.1,5.7,8.2,8.4,12.4c0.6,0.8,1.2,1.2,2.2,1.2c3.5-0.1,7.1,0,10.6,0c0.4,0,0.8-0.1,1.5-0.2c-4.5-6.1-8.7-12-13.1-17.9
			c4.2-4.9,8.3-9.7,12.5-14.7c-0.8-0.1-1.3-0.2-1.8-0.2c-3.3,0-6.6,0-9.9,0c-1.2,0-1.9,0.4-2.6,1.3c-2.7,3.5-5.5,7-8.3,10.5
			c-0.3,0.3-0.6,0.6-1.2,1.2c0-5.3,0-10.1,0-15c0-4.9,0-9.8,0-14.9c-3.8-0.1-7.3-0.1-10.9,0c-0.4,3.2-0.3,48.4,0.2,49.7
			C326.2,348,329.6,348,333.4,348z M183.4,270.7c0-7.4-4-13.5-10.8-16c-3.1-1.2-6.4-1.5-9.7-1.2c-6.9,0.6-15.5,5.4-16,16.5
			c-0.4,7.6,3.9,14.3,11,17.1c3.4,1.3,7,1.6,10.6,1.1C177.4,286.7,183.4,279.7,183.4,270.7z M272.7,314c-1.6,0.2-3.3,0.3-4.9,0.6
			c-6.8,1.7-11.5,5.7-13,12.6c-1.6,7.2,0.3,13.6,6.4,18.2c3.5,2.7,7.6,3.7,12,3.6c9.2-0.3,17.2-6.5,17.7-16.9
			c0.3-7.3-3.6-13.7-10.3-16.6C278.1,314.6,275.4,314.1,272.7,314z M169.5,334.7c0.3-2.9,0.2-5.5-0.4-8c-1.4-6-4.9-10.1-10.9-11.9
			c-2.3-0.7-4.7-0.7-7.1-0.6c-7.5,0.5-13.7,5.7-15.3,13c-0.4,2.1-0.6,4.3-0.4,6.3c0.7,7.1,4.4,12,11.1,14.4c2.9,1,5.9,1.3,9,1
			c4.4-0.4,8.3-1.9,11.4-5.2c0.5-0.5,0.9-1.1,1.5-1.8c-2.6-1.7-5.1-3.2-7.5-4.8c-0.5,0.5-1,1-1.4,1.3c-3.1,2.7-8.4,2.7-11.4,0
			c-1.1-1-2-2.1-1.9-3.9C153.9,334.7,161.7,334.7,169.5,334.7z M319.9,273.8c0.5-2.1,0.4-5.3-0.3-8.1c-1.5-5.8-4.9-9.9-10.7-11.6
			c-3-0.9-6-1-9-0.4c-8.6,1.7-14,8.4-13.9,17.4c0,8.1,4.6,14.3,12.2,16.5c2.4,0.7,4.9,1,7.4,0.8c4.6-0.3,8.8-1.8,12.1-5.3
			c0.5-0.5,0.9-1.1,1.4-1.8c-2.6-1.7-5.1-3.2-7.6-4.8c-1.5,1.7-3.2,2.9-5.3,3.2c-3.2,0.5-6.1-0.2-8.3-2.7c-0.7-0.8-1.4-1.8-1.1-3.2
			C304.5,273.8,312.2,273.8,319.9,273.8z M243,203.8c2-1,3.8-2,5.7-2.6c1.9-0.7,4-0.6,5.9,0.2c1.9,0.8,2.8,2.4,2.4,4.4
			c-0.6,0-1.2,0.1-1.8,0.1c-2,0.1-4,0.2-6,0.4c-3.1,0.4-6.1,1.2-8.8,2.9c-6,3.7-5.2,12.6,0,15.9c4.8,3.1,12.9,3,16.7-1.4
			c0-0.1,0.2,0,0.4,0c0.1,0.9,0.1,1.7,0.2,2.7c3.4,0,6.5,0,9.8,0c0.1-0.5,0.1-0.8,0.1-1.2c0-5.5,0.1-11,0-16.4
			c0-2.9-0.4-5.7-1.4-8.4c-1.2-3.3-3.4-5.6-6.7-6.7c-1.7-0.5-3.4-0.9-5.2-1c-5.5-0.4-10.5,0.9-15,4.2c-0.5,0.4-1,0.8-1.6,1.4
			C239.6,200.2,241.4,202.1,243,203.8z M185.2,254.5c4.4,11.1,8.6,21.9,12.9,32.8c3.6,0,7-0.1,10.4,0c1.1,0,1.6-0.5,2-1.4
			c3.9-10,7.9-20.1,11.8-30.1c0.1-0.4,0.2-0.8,0.3-1.3c-0.7,0-1.2-0.1-1.8-0.1c-2.6,0-5.2,0-7.9,0c-1.8,0-1.8,0-2.4,1.7
			c-1.9,5.7-3.7,11.5-5.6,17.2c-0.2,0.6-0.4,1.2-0.8,2.2c-2.4-7.3-4.6-14.2-6.9-21.1C193.3,254.5,189.4,254.5,185.2,254.5z
			 M285.9,176.9c-2.8-0.3-9.6-0.2-10.9,0.1c0,16.4,0,32.9,0,49.4c3.7,0,7.2,0,10.9,0C285.9,209.8,285.9,193.4,285.9,176.9z
			 M136,176.8c-0.4,3.2-0.3,48.4,0.2,49.6c3.5,0,7,0,10.6,0c0-16.6,0-33.1,0-49.6C143.1,176.8,139.6,176.8,136,176.8z M297.1,315.3
			c-0.4,2-0.3,31.2,0,32.6c3.5,0,7,0,10.7,0c0-0.8,0-1.4,0-2.1c0-4.9,0-9.8,0-14.6c0.1-4.3,3.2-7.3,7.5-7.4c0.9,0,1.8,0,2.7,0
			c0.4-1.4,0.7-8,0.4-9.4c-1.3-0.4-2.8-0.4-4.1,0c-1.3,0.4-2.6,1-3.8,1.7c-1.1,0.7-1.9,1.8-3.2,3c0-1.5,0-2.7,0-4
			C303.9,315.3,300.5,315.3,297.1,315.3z M347.9,253.8c-2.3-0.5-4.3-0.3-6.2,0.5c-2,0.8-3.4,2.4-4.9,4.3c-0.1-1.6-0.2-2.8-0.3-4
			c-3.5,0-6.9,0-10.2,0c-0.4,2.2-0.3,31.4,0.1,32.7c3.1,0.3,9.2,0.2,10.7-0.3c0-0.6,0-1.3,0-1.9c0-4.8,0-9.6,0-14.4
			c0-4.6,3.1-7.5,7.7-7.5c0.8,0,1.7,0,2.7,0C347.6,260,347.8,256.9,347.9,253.8z M124.6,254.5c-0.4,2.9-0.2,31.3,0.1,32.6
			c2.4,0.3,9.2,0.2,10.6-0.2c0-0.6,0-1.3,0-1.9c0-4.4,0-8.8,0-13.1c0-0.8,0-1.6,0.1-2.4c0.6-3.9,3.3-6.3,7.2-6.4c1,0,1.9,0,3,0
			c0.1-3.1,0.6-6.2,0.3-9.4c-4.8-0.8-8.2,0.9-11,4.9c-0.1-1.6-0.2-2.8-0.2-4.2C131.3,254.5,128,254.5,124.6,254.5z M226.3,287.1
			c2.3,0.4,9.6,0.3,10.8-0.1c0-10.7,0-21.5,0-32.2c-1.6-0.4-9.2-0.4-10.8,0C226.3,265.4,226.3,276.2,226.3,287.1z M231.6,250
			c3.6,0.1,6.3-2.5,6.4-5.9c0-3.4-2.7-6-6.2-6.1c-3.5,0-6.3,2.6-6.3,6C225.4,247.3,228.2,250,231.6,250z"/>
		<path class="st0" d="M488.2,178.5c-2.6,21.7-2.6,43.1,0,64.5c18.1,3.8,36.2,6.3,54.6,7.9c-0.3-6.9-0.6-13.5-0.8-20.1
			c-0.2-6.6-0.3-13.3-0.3-19.9c0-6.7,0.1-13.4,0.3-20.1c0.2-6.6,0.5-13.2,0.8-20C524.3,172.3,506.3,174.7,488.2,178.5z M595,252.9
			c0.4-2.6,0.3-83.2-0.1-84.5c-4.3-0.5-36.8,0.7-39.2,1.5c-1.7,27.2-1.7,54.5,0,81.7C560.4,252.5,591.3,253.5,595,252.9z
			 M490.3,256.4c0.1,0.8,0.2,1.5,0.3,2.1c2.8,14.8,6.8,29.2,12.3,43.1c0.6,1.5,1.4,2.3,2.9,2.9c14,5.6,28.5,9.6,43.3,12.4
			c0.6,0.1,1.3,0.1,2,0.2c-3.5-17.8-5.7-35.6-7.3-53.5C525.8,262.1,508.1,259.9,490.3,256.4z M535.5,371.5c-0.2-0.2-0.4-0.4-0.7-0.6
			c-5.8-5.1-11.2-10.7-16.1-16.7c-9.7-11.9-17.5-25.1-23.8-39.1c-0.6-1.3-1.4-2-2.6-2.6c-5.2-2.6-10.5-5.1-15.6-7.9
			c-15.1-8.5-28.7-18.9-40.2-32c-0.2-0.2-0.3-0.6-0.4-0.8c-0.1,0.1-0.3,0.3-0.4,0.4c8.1,21,19.8,39.8,35.2,56.3
			C489.1,347.8,510.6,362.3,535.5,371.5z M535.5,49.9c-15.3,5.5-29.3,13.3-42.3,23.1c-13,9.8-24.5,21.3-34.3,34.3
			c-9.1,12.1-22.6,36.9-23,42.2c0.3-0.3,0.5-0.5,0.7-0.7c4.5-5.2,9.5-10,14.8-14.4c12.5-10.5,26.4-18.8,41.2-25.5
			c1.1-0.5,1.7-1.1,2.2-2.2c3-6.7,6.3-13.2,10.1-19.5c7-11.7,15.2-22.6,25-32.1C531.8,53.4,533.7,51.7,535.5,49.9z M595,155.5
			c0.4-2,0.3-53.8-0.1-55.2c-0.7,0-1.4,0-2.1,0c-8.7,0.2-17.4,0.7-26.1,1.7c-2.1,0.3-2.2,0.2-2.6,2.3c-1.3,7.2-2.7,14.4-3.8,21.6
			c-1.4,9.6-2.4,19.3-3.5,29c-0.1,0.6,0,1.3,0,1.9C569.7,156.3,582.3,155.9,595,155.5z M556.7,264.8c1.6,18.4,4,36.5,7.9,54.5
			c10.3,1.2,20.3,2,30.5,1.8c0.1-0.5,0.1-0.7,0.1-1c0-17.7,0-35.5,0-53.2c0-0.2-0.1-0.5-0.1-0.7c0-0.1-0.1-0.1-0.1-0.1
			c0,0-0.1-0.1-0.1-0.1C582.3,265.6,569.7,265.2,556.7,264.8z M475.1,181.8c-0.5,0-0.6,0-0.7,0c-10.9,2.9-21.6,6.3-31.8,11.3
			c-4.4,2.2-8.7,4.7-12.4,8c-1.9,1.6-3.5,3.4-4.7,5.6c-1.5,2.7-1.6,5.5,0,8.2c1.1,1.7,2.4,3.4,3.9,4.8c3.7,3.6,8.1,6.2,12.7,8.5
			c9.2,4.6,18.9,7.9,28.7,10.6c1.3,0.4,2.7,0.7,4.3,1.1C473.1,220.4,473.1,201.2,475.1,181.8z M476.9,168.1
			c2.3-14.4,5.7-28.4,10.3-42.1c-0.3,0-0.5,0-0.6,0c-0.8,0.4-1.6,0.8-2.4,1.3c-13.8,7.7-26.4,17-37.1,28.8
			c-7.4,8.3-13.5,17.5-17.6,27.8c-0.3,0.7-0.5,1.4-0.9,2.5C443.8,177.2,460.1,172.3,476.9,168.1z M487.3,295.9
			c-4.8-14-8.1-28.1-10.4-42.4c-16.7-4.2-33.1-9.1-48.2-18.3c0.4,1.1,0.7,1.8,0.9,2.5c4.8,12.1,12.1,22.5,21.2,31.7
			c10.3,10.5,22.2,18.9,35.1,25.8C486.2,295.4,486.6,295.5,487.3,295.9z M511.6,320.2c0.4,0.9,0.7,1.4,1,1.9c2.2,3.7,4.2,7.4,6.6,11
			c7.6,11.7,16.5,22.3,27.5,31.1c7.1,5.7,14.9,10.4,23.4,13.7c0.6,0.2,1.2,0.8,2.1,0.4c-9-14.8-13.8-31.1-18-47.7
			C539.6,328.4,525.7,325,511.6,320.2z M572.4,42.7c-0.7,0.2-0.9,0.3-1.1,0.4c-0.5,0.2-1,0.4-1.5,0.6c-10.3,4.1-19.4,10.1-27.6,17.5
			c-12.4,11.2-22.1,24.5-30,39.1c-0.1,0.2-0.2,0.5-0.4,1c14-4.8,28-8.1,42.3-10.4C558.3,74.2,563.2,57.9,572.4,42.7z M567.8,332.6
			c0,0.3,0,0.4,0,0.5c2.9,10.8,6.3,21.5,11.2,31.6c2,4.1,4.3,8,7.2,11.6c1.6,1.9,3.3,3.7,5.4,5.1c1,0.6,2,1.3,3.3,1.4
			c0.5-4.4,0.3-47.4-0.1-48.6C585.9,333.6,576.9,333.1,567.8,332.6z M595.1,38.4c-1.4,0.7-2.4,1.2-3.4,1.7c-2.2,1.4-4,3.2-5.6,5.2
			c-3,3.7-5.3,7.7-7.4,12c-4.7,9.7-8,20-10.8,30.4c-0.1,0.4-0.1,0.8-0.2,1.1c9.1-0.5,18.2-1,27.3-1.5
			C595.1,71.2,595.1,55,595.1,38.4z"/>
		<path class="st0" d="M98.2,260.3c0-3.5,0-6.9,0-10.5c3.1-0.1,6.1-0.4,9.1,0.4c2.1,0.6,3.3,2.1,3.4,4.2c0.2,2.2-0.8,4-2.7,5
			c-0.8,0.4-1.7,0.8-2.6,0.8C103.1,260.4,100.8,260.3,98.2,260.3z"/>
		<path class="st0" d="M153.7,321.6c-3.8,0-7,2.5-7.2,5.9h13.3C159.7,323.9,157.4,321.6,153.7,321.6z"/>
		<path class="st0" d="M310.4,266.8c-4.5,0-8.9,0-13.4,0c0.1-0.5,0-0.9,0.2-1.4c1.4-4.2,7.3-6.1,10.9-3.5
			C309.7,263.1,310.4,264.7,310.4,266.8z"/>
		<path class="st0" d="M257.6,212.2c0.7,3.6-1,6.4-4.3,7.3c-1.4,0.4-2.9,0.4-4.3-0.1c-1.2-0.4-2.2-1.1-2.3-2.5
			c-0.2-1.5,0.4-2.6,1.7-3.4c1.6-0.9,3.3-1.2,5.1-1.3C254.9,212.1,256.2,212.2,257.6,212.2z"/>
		<g>
			<polygon class="st1" points="361.3,83.4 365,83.4 365,93.8 367.6,93.8 367.6,83.4 371.3,83.4 371.3,81.3 361.3,81.3 			"/>
			<path class="st1" d="M163.1,106.9l-0.1-1.6l-0.1-1.5l-0.1-1.5l-0.2-1.4l-0.2-1.4l-0.2-1.3l-0.3-1.3l-0.3-1.3l-0.4-1.2l-0.4-1.1
				l-0.4-1.1l-0.5-1.1l-0.5-1l-0.6-0.9l-0.6-0.9l-0.7-0.9l-0.7-0.8l-0.7-0.7l-0.8-0.7l-0.9-0.7L154,84l-1-0.6l-1-0.5l-1.1-0.5
				l-1.1-0.4l-1.2-0.3l-1.3-0.3l-1.3-0.2l-1.4-0.2l-1.5-0.1l-1.5-0.1l-1.5,0.1l-1.4,0.1l-1.4,0.2l-1.3,0.2l-1.3,0.3l-1.2,0.3
				l-1.1,0.4l-1.1,0.5l-1,0.5l-1,0.6l-0.9,0.6l-0.8,0.7l-0.8,0.7l-0.8,0.7l-0.7,0.8l-0.6,0.9l-0.6,0.9l-0.6,0.9l-0.5,1l-0.5,1.1
				l-0.5,1.1l-0.4,1.1l-0.4,1.2l-0.3,1.3l-0.3,1.3l-0.3,1.3l-0.2,1.4l-0.2,1.4l-0.2,1.5l-0.1,1.5l-0.1,1.6v1.6v1.6l0.1,1.6l0.1,1.5
				l0.2,1.5l0.2,1.4l0.2,1.4l0.3,1.3l0.3,1.3l0.3,1.3l0.4,1.2l0.4,1.1l0.5,1.1l0.5,1l0.5,1l0.6,0.9l0.6,0.9l0.6,0.8l0.7,0.8l0.8,0.7
				l0.8,0.7l0.8,0.6l0.9,0.6l1,0.5l1,0.5l1.1,0.4l1.1,0.4l1.2,0.3l1.3,0.2l1.3,0.2l1.4,0.1l1.4,0.1l1.5,0.1l1.5-0.1l1.5-0.1l1.4-0.1
				l1.3-0.2l1.3-0.2l1.2-0.3l1.1-0.4l1.1-0.4l1-0.5l1-0.5l0.9-0.6l0.9-0.6l0.8-0.7l0.7-0.7l0.7-0.8l0.7-0.8l0.6-0.9l0.6-0.9l0.5-1
				l0.5-1l0.4-1.1l0.4-1.1l0.4-1.2l0.3-1.3l0.3-1.3l0.2-1.3l0.2-1.4l0.2-1.4l0.1-1.5l0.1-1.5l0.1-1.6l0.1-1.6L163.1,106.9z
				 M152.4,110.6l-0.1,1.9l-0.2,1.8l-0.2,1.7l-0.2,0.8l-0.2,0.7l-0.2,0.7l-0.2,0.7l-0.3,0.7l-0.2,0.6l-0.3,0.6l-0.3,0.5l-0.3,0.5
				l-0.4,0.5l-0.4,0.5l-0.4,0.4l-0.4,0.4l-0.5,0.3l-0.5,0.3l-0.5,0.3l-0.6,0.3l-0.6,0.2l-0.6,0.2l-0.7,0.2l-0.7,0.1l-0.7,0.1
				l-0.8,0.1h-0.8h-0.8l-0.8-0.1l-0.7-0.1l-0.7-0.1l-0.7-0.2l-0.6-0.2l-0.6-0.2l-0.5-0.3l-0.5-0.3l-0.5-0.3l-0.5-0.3l-0.4-0.4
				l-0.4-0.4L134,122l-0.4-0.5l-0.3-0.5l-0.3-0.5l-0.3-0.6l-0.3-0.6l-0.3-0.7l-0.2-0.7l-0.2-0.7l-0.2-0.7l-0.1-0.8l-0.3-1.7
				l-0.2-1.8l-0.1-1.9l-0.1-2.1l0.1-2l0.1-2l0.2-1.8l0.3-1.7l0.1-0.8l0.2-0.8l0.2-0.8l0.2-0.7l0.3-0.7l0.3-0.7l0.3-0.6l0.3-0.6
				l0.3-0.5l0.4-0.5l0.4-0.5l0.4-0.4l0.4-0.4l0.5-0.4l0.5-0.4l0.5-0.3l0.5-0.3l0.6-0.2l0.6-0.2l0.7-0.2l0.7-0.2l0.7-0.1l0.8-0.1
				l0.8-0.1l0.8,0.1l0.8,0.1l0.7,0.1l0.7,0.2l0.7,0.2l0.6,0.2l0.6,0.2l0.6,0.3l0.5,0.3L148,93l0.5,0.4l0.4,0.4l0.4,0.4l0.4,0.5
				l0.4,0.5l0.3,0.5l0.3,0.6l0.3,0.6l0.2,0.7l0.3,0.7l0.2,0.7l0.2,0.8l0.2,0.8l0.2,0.8l0.2,1.7l0.2,1.8l0.1,2l0.1,2L152.4,110.6z"/>
			<polygon class="st1" points="201.5,116.1 201.4,115.4 201.3,114.7 201.1,114.1 201,113.5 200.8,112.9 200.6,112.3 200.3,111.7 
				200,111.2 199.7,110.7 199.4,110.2 199,109.8 198.6,109.3 198.1,108.9 197.7,108.5 197.2,108.1 196.6,107.7 196.1,107.3 
				195.4,107 194.8,106.6 194.1,106.3 192.6,105.5 191,104.9 189.1,104.2 187.1,103.5 185.6,103.1 184.2,102.6 182.9,102.2 
				181.8,101.7 180.9,101.4 180,101 179.2,100.5 178.5,100.1 178,99.7 177.6,99.3 177.2,98.9 176.9,98.5 176.7,98 176.6,97.5 
				176.5,97 176.5,96.4 176.5,95.8 176.6,95.2 176.7,94.7 177,94.1 177.2,93.7 177.6,93.3 178,92.9 178.5,92.6 179.1,92.3 179.7,92 
				180.3,91.8 181.1,91.6 181.9,91.5 182.7,91.4 183.7,91.3 184.7,91.3 185.3,91.3 185.9,91.3 186.6,91.4 187.3,91.4 188.1,91.4 
				188.9,91.5 189.8,91.6 190.6,91.6 191.4,91.7 192.2,91.8 193.1,91.8 193.9,91.9 194.7,92 195.5,92.1 196.2,92.1 196.8,92.2 
				197.5,92.3 198,92.3 198.5,92.4 198.9,92.4 199.6,92.5 199.8,92.5 200.6,83.2 200.3,83.2 199.5,83 198.9,82.9 198.3,82.8 
				197.5,82.6 196.7,82.5 195.8,82.3 194.9,82.2 193.8,82 192.8,81.9 191.8,81.7 190.7,81.6 189.7,81.5 188.6,81.4 187.6,81.3 
				186.6,81.2 185.6,81.2 184.7,81.2 183.3,81.2 181.9,81.3 180.6,81.4 179.4,81.6 178.1,81.9 177,82.2 175.9,82.5 174.8,82.9 
				173.8,83.4 172.8,83.9 171.9,84.5 171.1,85.1 170.3,85.8 169.6,86.5 169,87.3 168.4,88.1 167.8,89 167.4,89.9 167,90.9 
				166.7,91.9 166.4,93 166.3,94.1 166.1,95.3 166.1,96.5 166.1,97.3 166.2,98.1 166.2,98.9 166.3,99.6 166.4,100.3 166.6,101.1 
				166.8,101.7 167,102.3 167.2,103 167.5,103.5 167.8,104.1 168.1,104.7 168.4,105.2 168.9,105.7 169.3,106.2 169.8,106.7 
				170.3,107.2 170.8,107.6 171.3,108.1 171.9,108.5 172.6,108.9 173.2,109.3 174,109.6 174.7,110 176.3,110.7 178,111.4 180,112.1 
				182.1,112.7 183.4,113.1 184.6,113.5 185.7,113.8 186.6,114.2 187.5,114.6 188.2,114.9 188.9,115.3 189.5,115.7 190,116.1 
				190.4,116.5 190.7,116.9 190.9,117.4 191.1,117.9 191.2,118.4 191.3,118.9 191.3,119.5 191.3,120.2 191.2,120.9 191,121.5 
				190.8,122 190.6,122.5 190.3,123 189.9,123.4 189.4,123.8 188.9,124.1 188.3,124.3 187.6,124.5 186.9,124.7 186.1,124.9 
				185.2,125 184.3,125 183.3,125 182.4,125 181.6,125 180.7,124.9 179.7,124.9 178.7,124.8 177.7,124.7 176.7,124.7 175.8,124.6 
				174.8,124.5 173.9,124.4 173,124.3 172.2,124.2 171.4,124.1 170.7,124 170.1,124 169.6,123.9 168.8,123.8 168.5,123.8 167.5,133 
				167.7,133.1 168.5,133.2 169.2,133.3 169.8,133.5 170.6,133.6 171.4,133.8 172.3,133.9 173.2,134.1 174.3,134.2 175.3,134.4 
				176.3,134.5 177.4,134.7 178.4,134.8 179.5,134.9 180.5,135 181.5,135.1 182.4,135.1 183.3,135.2 184.4,135.1 185.3,135.1 
				186.3,135 187.2,134.9 188.1,134.7 189,134.6 189.9,134.4 190.7,134.1 191.5,133.9 192.3,133.6 193.1,133.3 193.8,132.9 
				194.6,132.5 195.2,132.1 195.9,131.7 196.5,131.2 197.1,130.7 197.7,130.2 198.2,129.6 198.7,128.9 199.1,128.3 199.6,127.7 
				200,127 200.3,126.2 200.6,125.5 200.9,124.7 201.1,123.9 201.3,123 201.5,122.1 201.6,121.2 201.6,120.3 201.7,119.3 
				201.6,117.7 			"/>
			<polygon class="st1" points="378.9,89.8 376.6,81.3 372.8,81.3 372.8,93.8 375.3,93.8 375.3,83.9 377.7,93.8 380.1,93.8 
				382.7,83.9 382.7,93.8 385,93.8 385,81.3 381.2,81.3 			"/>
			<polygon class="st1" points="84.9,103.4 95.2,103.4 95.2,92.1 118,92.1 118,82.1 84.9,82.1 			"/>
			<polygon class="st1" points="95.2,113.4 84.9,113.4 84.9,134.2 118,134.2 118,124.3 95.2,124.3 			"/>
			<rect x="95.2" y="103.4" class="st1" width="18.2" height="10"/>
			<polygon class="st1" points="312.8,115.4 312.7,114.7 312.6,114.1 312.4,113.5 312.2,112.9 312,112.3 311.7,111.7 311.4,111.2 
				311.1,110.7 310.7,110.2 310.4,109.8 310,109.3 309.6,108.9 309.1,108.5 308.6,108.1 308.1,107.7 307.5,107.3 306.9,107 
				306.2,106.6 305.5,106.3 304,105.5 302.4,104.9 300.5,104.2 298.6,103.5 297,103.1 295.6,102.6 294.4,102.2 293.3,101.7 
				292.3,101.4 291.4,101 290.6,100.5 290,100.1 289.4,99.7 289,99.3 288.6,98.9 288.3,98.5 288.1,98 288,97.5 287.9,97 287.9,96.4 
				287.9,95.8 288,95.2 288.2,94.7 288.4,94.1 288.7,93.7 289,93.3 289.4,92.9 289.9,92.6 290.4,92.3 291,92 291.8,91.8 292.5,91.6 
				293.3,91.5 294.2,91.4 295.1,91.3 296.1,91.3 296.7,91.3 297.4,91.3 298,91.4 298.8,91.4 299.5,91.4 300.3,91.5 301.1,91.6 
				302,91.6 302.8,91.7 303.7,91.8 304.5,91.8 305.3,91.9 306.1,92 306.9,92.1 307.6,92.1 308.3,92.2 308.9,92.3 309.5,92.3 
				309.9,92.4 310.4,92.4 311,92.5 311.2,92.5 312,83.2 311.8,83.2 310.9,83 310.3,82.9 309.7,82.8 308.9,82.6 308.1,82.5 
				307.2,82.3 306.2,82.2 305.3,82 304.2,81.9 303.2,81.7 302.2,81.6 301.1,81.5 300,81.4 299,81.3 298,81.2 297.1,81.2 296.1,81.2 
				294.7,81.2 293.4,81.3 292,81.4 290.7,81.6 289.5,81.9 288.4,82.2 287.3,82.5 286.2,82.9 285.2,83.4 284.2,83.9 283.4,84.5 
				282.5,85.1 281.8,85.8 281.1,86.5 280.4,87.3 279.8,88.1 279.3,89 278.8,89.9 278.4,90.9 278.1,91.9 277.9,93 277.7,94.1 
				277.6,95.3 277.5,96.5 277.5,97.3 277.6,98.1 277.6,98.9 277.7,99.6 277.9,100.3 278,101.1 278.2,101.7 278.4,102.3 278.6,103 
				278.9,103.5 279.2,104.1 279.5,104.7 279.9,105.2 280.3,105.7 280.7,106.2 281.2,106.7 281.7,107.2 282.2,107.6 282.8,108.1 
				283.4,108.5 284,108.9 284.6,109.3 285.3,109.6 286.1,110 287.7,110.7 289.5,111.4 291.4,112.1 293.5,112.7 294.8,113.1 
				296,113.5 297.1,113.8 298.1,114.2 298.9,114.6 299.7,114.9 300.3,115.3 300.9,115.7 301.4,116.1 301.8,116.5 302.1,116.9 
				302.3,117.4 302.5,117.9 302.6,118.4 302.7,118.9 302.7,119.5 302.7,120.2 302.6,120.9 302.5,121.5 302.3,122 302,122.5 
				301.7,123 301.3,123.4 300.8,123.8 300.3,124.1 299.7,124.3 299,124.5 298.3,124.7 297.5,124.9 296.7,125 295.7,125 294.7,125 
				293.9,125 293,125 292.1,124.9 291.1,124.9 290.1,124.8 289.1,124.7 288.2,124.7 287.2,124.6 286.2,124.5 285.3,124.4 
				284.4,124.3 283.6,124.2 282.8,124.1 282.1,124 281.5,123.9 281,123.9 280.2,123.8 279.9,123.7 278.9,133 279.2,133.1 280,133.2 
				280.5,133.3 281.3,133.5 282,133.6 282.8,133.8 283.7,133.9 284.7,134.1 285.6,134.2 286.7,134.4 287.8,134.5 288.8,134.7 
				289.9,134.8 290.9,134.9 292,135 292.9,135.1 293.9,135.1 294.8,135.2 295.7,135.1 296.8,135.1 297.7,135 298.6,134.9 
				299.5,134.7 300.4,134.6 301.3,134.4 302.2,134.1 303,133.9 303.8,133.6 304.5,133.3 305.2,132.9 305.9,132.5 306.7,132.1 
				307.3,131.7 307.9,131.2 308.5,130.7 309.1,130.2 309.6,129.6 310.1,128.9 310.5,128.3 311,127.7 311.3,127 311.7,126.2 
				312.1,125.5 312.3,124.7 312.6,123.9 312.7,123 312.9,122.1 313,121.2 313.1,120.3 313.1,119.3 313.1,117.7 312.9,116.1 			"/>
			<polygon class="st1" points="355.2,82.1 343.2,82.1 334.7,103.7 327.9,104.4 327.9,82.1 317.5,82.1 317.5,134.2 327.9,134.2 
				327.9,114.5 334.9,113.8 343.5,134.2 355.5,134.2 344.1,108 			"/>
			<rect x="262.7" y="82.1" class="st1" width="10.5" height="52.2"/>
			<path class="st1" d="M257.5,97.9l-0.1-1.4l-0.2-1.4l-0.2-1.3l-0.3-1.2l-0.3-1.2l-0.4-1.1l-0.5-1l-0.6-0.9l-0.6-0.9l-0.7-0.8
				l-0.7-0.7l-0.8-0.7l-0.9-0.6l-0.9-0.6l-1-0.5l-1.1-0.5l-1.1-0.4l-1.2-0.3l-1.2-0.3l-1.3-0.2l-1.4-0.2l-1.5-0.1h-1.5h-19.9v52.2
				h10.4v-16.8h10l6.1,16.8h11.4l-7.3-20l0.6-0.4l0.6-0.4l0.6-0.4l0.5-0.4l0.5-0.5l0.5-0.5l0.4-0.5l0.5-0.5l0.4-0.5l0.4-0.6l0.4-0.6
				l0.4-0.6l0.3-0.6l0.3-0.7l0.3-0.7l0.2-0.7l0.3-0.7l0.2-0.8l0.2-0.8l0.1-0.8l0.1-0.9l0.1-0.9v-0.9l0.1-1L257.5,97.9z M246.8,99.5
				v0.6v0.6l-0.1,0.5l-0.1,0.6l-0.1,0.5l-0.2,0.5l-0.2,0.5l-0.2,0.5l-0.2,0.5l-0.3,0.4l-0.3,0.4l-0.3,0.4l-0.4,0.4l-0.3,0.3
				l-0.4,0.3l-0.4,0.3l-0.5,0.3l-0.4,0.2l-0.5,0.2l-0.5,0.2l-0.6,0.1l-0.6,0.1l-0.6,0.1h-0.7h-9.7V92h9.5l0.9,0.1l0.9,0.1l0.8,0.2
				l0.7,0.2l0.7,0.3l0.7,0.3l0.6,0.4l0.5,0.5l0.4,0.5l0.4,0.6l0.3,0.6l0.3,0.7l0.2,0.7l0.2,0.8l0.1,0.9V99.5z"/>
			<rect x="64.7" y="103.4" class="st2" width="10.3" height="10"/>
		</g>
		<path class="st1" d="M178.1,193.4c-3.9-1.2-7.8-1.3-11.7-0.4c-7.3,1.8-12.4,7.7-12.9,15c-0.6,8,3.2,14.7,10.2,17.7
			c3.4,1.5,7,1.9,10.7,1.4c9.2-1.3,15.3-8,15.5-17.2C190,202.2,185.5,195.8,178.1,193.4z M171.6,218.2c-4.2,0-7.6-3.7-7.6-8.3
			c0-4.6,3.4-8.3,7.6-8.3s7.6,3.7,7.6,8.3C179.2,214.4,175.8,218.2,171.6,218.2z"/>
		<ellipse class="st0" cx="171.6" cy="209.8" rx="7.6" ry="8.3"/>
		<ellipse class="st0" cx="165.6" cy="270.6" rx="7.6" ry="8.3"/>
		<ellipse class="st0" cx="273.1" cy="331.4" rx="7.6" ry="8.3"/>
		<ellipse class="st0" cx="214.3" cy="209.8" rx="7.7" ry="8.3"/>
		<ellipse class="st0" cx="262" cy="270.6" rx="7.7" ry="8.3"/>
	</g>
	<path class="st2" d="M490.3,164.8c9-1.4,17.8-2.9,26.6-4.1c8.9-1.2,17.9-2.1,26.9-3.2c1.5-17.8,3.8-35.6,7.3-53.2
		c-0.9,0.1-1.6,0.2-2.2,0.3c-14.7,2.8-29.1,6.8-43.1,12.4c-1.3,0.5-2.2,1.3-2.7,2.7c-4.9,12.4-8.7,25.1-11.4,38.1
		C491.2,160,490.8,162.3,490.3,164.8z"/>
</g>
</svg>
