<svg xmlns="http://www.w3.org/2000/svg" xmlns:xlink="http://www.w3.org/1999/xlink" width="267.277" height="27.942" viewBox="0 0 267.277 27.942">
  <defs>
    <clipPath id="clip-path">
      <rect id="Rectangle_649" data-name="Rectangle 649" width="257.543" height="27.942" fill="#fff"/>
    </clipPath>
  </defs>
  <g id="Main_Logo" data-name="Main Logo" transform="translate(-104 -22.193)">
    <g id="Group_111" data-name="Group 111" transform="translate(113.734 22.193)">
      <g id="Group_115" data-name="Group 115" clip-path="url(#clip-path)">
        <path id="Path_278" data-name="Path 278" d="M154.741,27.658a9.444,9.444,0,0,1-4.295-.8,6.074,6.074,0,0,1-2.666-2.536,12.773,12.773,0,0,1-1.37-4.332A41.178,41.178,0,0,1,146,13.773a37.624,37.624,0,0,1,.426-6.035,12.13,12.13,0,0,1,1.463-4.314A6.485,6.485,0,0,1,150.724.851a10.488,10.488,0,0,1,4.5-.852q1.444,0,3,.111t3.036.333q1.481.222,2.74.518V3.183q-.741-.111-2.073-.241t-2.98-.2q-1.648-.074-3.277-.074a6.79,6.79,0,0,0-4.128,1.092A5.911,5.911,0,0,0,149.5,7.312a29.629,29.629,0,0,0-.574,6.5,38.312,38.312,0,0,0,.315,5.406,9.464,9.464,0,0,0,1.055,3.406,4.177,4.177,0,0,0,2.018,1.8,8.41,8.41,0,0,0,3.24.537,15.371,15.371,0,0,0,3.592-.444,23.071,23.071,0,0,0,3.147-.963V15.513H155.7V13.328q.7-.111,1.7-.185t2.129-.13q1.129-.056,2.277-.055.962,0,1.814.018a9.92,9.92,0,0,1,1.481.13V27.473h-2.148l-.444-1.925a27.986,27.986,0,0,1-3.388,1.37,14.161,14.161,0,0,1-4.388.74m14.706-.185V.221h10.738a10.666,10.666,0,0,1,2.592.315,5.409,5.409,0,0,1,3.888,3.592,11.953,11.953,0,0,1,.592,4.128,11.613,11.613,0,0,1-.481,3.647,6.149,6.149,0,0,1-1.259,2.259,5.019,5.019,0,0,1-1.685,1.222,7.9,7.9,0,0,1-1.759.537l5.591,11.552h-3l-5.295-11.145q-.593,0-1.481-.037T176,16.254q-1,0-1.944-.037t-1.648-.037V27.473Zm2.962-13.552h7.331a6.743,6.743,0,0,0,1.777-.222,3.3,3.3,0,0,0,1.444-.833,4.212,4.212,0,0,0,1-1.722,9.345,9.345,0,0,0,.37-2.888,8.52,8.52,0,0,0-.37-2.758,3.818,3.818,0,0,0-1.018-1.629,3.444,3.444,0,0,0-1.463-.777,7.174,7.174,0,0,0-1.74-.2h-7.331Zm28.7,13.774a18.955,18.955,0,0,1-4.61-.5,6.61,6.61,0,0,1-3.3-1.907,9.025,9.025,0,0,1-1.962-4.147,32.248,32.248,0,0,1-.648-7.183,31.654,31.654,0,0,1,.666-7.2,9.492,9.492,0,0,1,2-4.221,6.785,6.785,0,0,1,3.3-2A17.353,17.353,0,0,1,201.107,0a17.9,17.9,0,0,1,4.647.537,6.679,6.679,0,0,1,3.3,2,9.348,9.348,0,0,1,1.944,4.221,33.461,33.461,0,0,1,.629,7.2,32.288,32.288,0,0,1-.648,7.183,9.035,9.035,0,0,1-1.963,4.147,6.61,6.61,0,0,1-3.277,1.907,18.907,18.907,0,0,1-4.628.5m0-2.629a13.1,13.1,0,0,0,3.518-.407,4.422,4.422,0,0,0,2.351-1.574,7.763,7.763,0,0,0,1.315-3.351,32.794,32.794,0,0,0,.407-5.776,33.766,33.766,0,0,0-.426-6,7.854,7.854,0,0,0-1.333-3.406,4.268,4.268,0,0,0-2.333-1.518,14.157,14.157,0,0,0-3.5-.37,13.445,13.445,0,0,0-3.351.37,4.448,4.448,0,0,0-2.37,1.518,7.827,7.827,0,0,0-1.407,3.406,31.039,31.039,0,0,0-.463,6,34.31,34.31,0,0,0,.389,5.776,7.762,7.762,0,0,0,1.278,3.351,4.328,4.328,0,0,0,2.351,1.574,13.477,13.477,0,0,0,3.573.407m24.234,2.629a19.364,19.364,0,0,1-4.147-.407,8.132,8.132,0,0,1-3.166-1.388,6.233,6.233,0,0,1-2.018-2.666,10.947,10.947,0,0,1-.7-4.2V.221h2.962V19.031a6.692,6.692,0,0,0,.833,3.629,4.473,4.473,0,0,0,2.425,1.833,13.812,13.812,0,0,0,7.627,0,4.474,4.474,0,0,0,2.425-1.833,6.689,6.689,0,0,0,.833-3.629V.221h2.962V19.031a10.956,10.956,0,0,1-.7,4.2,6.241,6.241,0,0,1-2.018,2.666,8.141,8.141,0,0,1-3.166,1.388,19.373,19.373,0,0,1-4.147.407m14.245-.222V.221h10.849a9.862,9.862,0,0,1,2.425.315,5.772,5.772,0,0,1,2.314,1.222,6.229,6.229,0,0,1,1.722,2.629,13.142,13.142,0,0,1,.648,4.536,13.052,13.052,0,0,1-.685,4.647,6.713,6.713,0,0,1-1.777,2.7,5.885,5.885,0,0,1-2.351,1.278,9.535,9.535,0,0,1-2.444.333q-.555,0-1.629-.037t-2.277-.093q-1.2-.055-2.24-.13l-1.592-.111v9.96Zm2.962-12.219h7.368a5.082,5.082,0,0,0,2.37-.555,3.8,3.8,0,0,0,1.685-1.925,9.6,9.6,0,0,0,.611-3.814,9.065,9.065,0,0,0-.611-3.721,3.73,3.73,0,0,0-1.611-1.833,4.677,4.677,0,0,0-2.185-.518h-7.627ZM61.64,2.287h.7V4.282h.493V2.287h.726V1.9H61.64ZM40.185,12.626l-.026-.777-.052-.778-.078-.725-.1-.726-.1-.674-.129-.674-.156-.648L39.355,7l-.182-.571-.207-.57-.26-.544L38.447,4.8l-.285-.466-.285-.467-.337-.441-.363-.414-.364-.363L36.4,2.287l-.441-.338-.467-.284L35,1.38l-.52-.234L33.932.913l-.57-.181-.6-.156L32.117.447l-.649-.1-.7-.077L30.015.24,29.263.213,28.511.24l-.726.026-.7.077-.674.1-.649.129-.6.156-.57.181-.545.233-.519.234-.493.285-.467.284-.415.338-.414.362-.389.363-.364.414-.312.441-.311.467L20.08,4.8l-.259.519-.234.544-.234.57L19.171,7l-.181.622-.131.648-.129.674-.13.674-.078.726-.077.725-.078.778-.026.777-.027.8v1.659l.027.829.026.778.078.751.077.726.078.7.13.674.129.648.131.647.181.6.181.571.234.544.234.518.259.493.285.466.311.441.312.415.364.388.389.363.414.338.415.31.467.286.493.26.519.232.545.208.57.181.6.155.649.1.674.1.7.076.726.027.752.026.753-.026.752-.027.7-.076.649-.1.648-.1.6-.155.57-.181.545-.208.52-.232.492-.26.467-.286.441-.31.415-.338.364-.363.363-.388.337-.415.285-.441.285-.466.259-.493.26-.518.207-.544.182-.571.182-.6.156-.647.129-.648.1-.674.1-.7.078-.726.052-.751.026-.778.026-.829.026-.83-.026-.829Zm-5.5,2.7-.026.959-.078.907-.1.855-.077.388-.078.363-.077.363-.1.337-.13.337-.1.285-.13.311-.155.259-.155.259-.181.234-.182.233-.207.207-.208.182-.234.155-.233.155-.26.129-.284.13-.286.1-.311.1-.337.077-.338.052-.363.027-.389.026h-.777l-.39-.026-.362-.027-.337-.052-.338-.077-.312-.1-.285-.1-.259-.13-.26-.129-.259-.155-.234-.155-.208-.182-.207-.207-.181-.233-.182-.234-.155-.259-.13-.259-.13-.311-.13-.285-.13-.337-.078-.337-.1-.363-.078-.363-.052-.388-.131-.855-.077-.907-.026-.959-.026-1.063.026-1.036.026-1.011.077-.906.131-.856.052-.414.078-.389.1-.388.078-.337.13-.337.13-.337.13-.311.13-.285.155-.26.182-.258.181-.26.207-.207.208-.207.234-.181.259-.182.26-.155.259-.131.285-.1.312-.1.338-.077.337-.078.362-.026.39-.026.388-.026.389.026.389.026.363.026.338.078.337.077.311.1.286.1.284.131.26.155.233.182.234.181.208.207.207.207.182.26.181.258.155.26.155.285.13.311.1.337.13.337.1.337.077.388.078.389.077.414.1.856.078.906.026,1.011.026,1.036ZM59.9,18.171l-.052-.363-.052-.363-.077-.31-.078-.338-.1-.284-.1-.312-.129-.284-.155-.259-.155-.259-.182-.259-.181-.233-.208-.234-.233-.207-.234-.208-.259-.233-.285-.181-.286-.208-.337-.181-.311-.181-.364-.181-.753-.363-.856-.338-.935-.363-1.037-.336-.778-.234-.728-.234-.648-.233-.571-.234-.493-.181-.466-.207-.39-.208-.337-.207-.259-.207-.234-.207-.208-.208-.13-.233-.1-.233-.078-.259-.052-.284V7.7l.052-.312.078-.259.13-.259.13-.233.182-.208.207-.207L48.1,6.07l.285-.155.311-.13.338-.13.389-.077.415-.077.441-.052.493-.026h1.142l.363.026h.364l.415.027.389.026.441.051.416.027.44.026.415.052.442.027.415.052.415.026.389.052.364.027.337.026.337.052.286.026.26.026.208.026.311.027.1.026L59.46,1.25,59.3,1.224l-.416-.078L58.6,1.095l-.338-.052L57.878.965,57.437.888,57,.809,56.5.731,55.984.654,55.465.576,54.92.5,54.376.447,53.831.369,53.286.317l-.52-.052L52.248.24,51.756.213H50.563l-.7.052-.674.077-.649.1-.623.129-.6.155-.57.181-.571.208-.518.233-.467.259-.467.311-.415.311-.415.337-.364.388-.338.389-.285.414-.285.466L42.39,4.7l-.207.518-.156.518-.129.545-.079.6-.077.6V8.506l.027.414.026.389.052.388.052.363.077.363.1.337.1.311.13.337.129.286L42.6,12l.155.285.182.259.207.284.233.234.234.259.259.233.26.233.284.234.312.207.337.207.338.208.363.181.389.207.8.363.909.338.986.337,1.089.336.674.181.623.208.545.181.493.207.442.182.389.181.337.207.285.182.259.207.207.207.155.233.131.233.077.234.078.259.026.284.027.312-.027.363-.052.337-.078.311-.1.284-.129.259-.156.234-.207.207-.234.181-.259.155-.311.13-.338.1-.389.1-.389.077-.466.052-.468.027h-.96l-.441-.027-.466-.026-.494-.026-.518-.027-.493-.051-.519-.027L46.7,22.5l-.492-.052-.467-.052-.466-.052-.415-.051-.415-.027-.338-.052-.337-.026-.26-.052-.389-.052h-.131l-.545,4.768.131.026.414.078.312.052.337.077.389.078.442.077.467.078.467.078.518.077.52.078.544.077.545.077.545.053.546.052.519.052.518.052h.467l.467.026.518-.026H51.6l.493-.052.492-.052.467-.077.442-.078.441-.1.441-.131.415-.129.415-.155.389-.155.389-.181.363-.207.338-.207.338-.234.337-.234.311-.26.286-.284.259-.311.259-.311.234-.311.208-.337.207-.363.182-.389.155-.388.155-.388.1-.441.1-.441.078-.441.052-.492.026-.466.026-.519-.026-.828ZM65.012,3.53,64.571,1.9h-.726V4.282h.466V2.39l.467,1.892h.467l.492-1.892V4.282h.441V1.9h-.726ZM0,11.641H5.292V5.811H17.018V.68H0Zm5.292,5.132H0v10.7H17.018V22.343H5.292Zm0,0h9.365V11.641H5.292ZM117.1,17.808l-.052-.363-.077-.31-.1-.338-.1-.284-.1-.312-.129-.284-.155-.259-.156-.259-.182-.259-.181-.233-.208-.234-.207-.207-.26-.208-.26-.233-.259-.181-.312-.208-.311-.181-.337-.207-.338-.155-.778-.363-.856-.338-.935-.363-1.01-.336-.8-.234-.7-.234-.649-.233-.57-.234-.519-.181-.441-.207-.39-.208-.337-.207-.285-.207-.233-.207-.182-.208-.155-.233-.1-.233-.078-.259-.025-.284-.027-.312.027-.31.051-.312.078-.259.1-.259.156-.233.181-.208.207-.207.233-.155.286-.155.311-.13.364-.13.363-.077.441-.077.441-.052.494-.026h1.141l.337.026h.389l.389.027.415.026.415.051.442.027.414.026.442.052.415.027.441.052.389.026.389.052.363.027.363.026.312.052.311.026.234.026.234.026.311.027.1.026.416-4.794-.13-.026-.415-.078-.311-.052-.338-.052-.389-.078-.415-.077-.466-.078-.494-.078-.492-.077-.545-.078L112.15.5l-.519-.052-.545-.078-.545-.052L110,.265,109.5.24l-.492-.027h-1.193l-.7.052-.7.077-.649.1-.623.129-.6.155-.571.181-.544.208-.519.233-.493.259-.441.311-.441.311-.389.337-.364.362-.338.415-.311.414-.259.466-.234.467-.207.518-.156.518-.129.545-.1.6-.052.6-.027.622v.415L99,8.92l.026.389.052.388.078.363.078.363.077.337.1.311.13.337.129.286.156.31.182.285.181.259.207.284.208.234.233.259.259.233.26.233.311.234.312.207.311.207.337.208.364.181.389.207.83.363.909.338.985.337,1.064.336.674.181.622.208.57.181.493.207.442.182.389.181.337.207.285.182.234.207.207.207.155.233.131.233.1.234.052.259.052.284v.674l-.052.337-.078.311-.1.284-.129.259-.181.234-.208.207-.234.181-.259.155-.311.13-.338.1-.364.1-.415.077-.441.052-.493.027h-.934l-.467-.027-.466-.026-.493-.026-.492-.027-.519-.051-.493-.027-.518-.052-.493-.052-.466-.052-.442-.052-.441-.051-.389-.027-.363-.052-.311-.052-.285-.026-.389-.052-.13-.026-.546,4.794.156.026.415.078.285.052.363.077.363.078.442.077.467.078.492.078.493.077.545.078.545.077.545.077.544.053.52.052.545.052.492.052h.493l.467.026.492-.026h.519l.493-.052.467-.052.466-.077.467-.078.44-.1.442-.131.415-.129.415-.155.389-.155.364-.181.363-.207.363-.207.338-.234.311-.234.312-.26.285-.284.285-.311.233-.311.234-.311.234-.337.181-.363.182-.389.181-.388.13-.388.13-.441.077-.441.078-.441.053-.492.051-.466V18.949l-.078-.778ZM138.9.68h-6.174l-4.358,11.09-3.5.389V.68h-5.345V27.475h5.345V17.342l3.58-.388,4.436,10.521h6.174L133.164,14ZM91.344,27.474h5.371V.679H91.344ZM88.62,8.065l-.078-.7-.1-.649L88.283,6.1l-.155-.6-.208-.544-.234-.519L87.4,3.971l-.286-.441-.337-.415-.363-.363L86,2.416l-.442-.31-.466-.286L84.6,1.587l-.545-.234-.571-.181-.6-.156L82.264.887,81.589.809l-.7-.077L80.136.68H69.11V27.475h5.345V18.819h5.136L82.7,27.475h5.863L84.806,17.212l.286-.181.284-.207.286-.207.259-.208.259-.233.26-.234.208-.233.233-.26.208-.258.207-.285.182-.285.182-.311L87.816,14l.155-.337.129-.337.1-.363.129-.362.078-.389.1-.388.052-.415.053-.441.051-.441V10.06l.026-.491-.026-.778ZM83.2,9.645v.6l-.026.259-.052.285-.052.259-.078.259-.077.234-.078.233-.1.234-.131.207-.129.181-.13.181-.181.181L82,12.911l-.182.155-.207.13-.233.13-.208.1-.259.078-.259.078-.285.052-.285.052-.311.026H74.456V5.759h4.9l.467.026.441.052.415.077.363.1.338.13.337.155L82,6.51l.259.234L82.472,7l.207.284.155.311.131.363.1.363.078.414.052.441Z" transform="translate(0 0.001)" fill="#fff"/>
      </g>
      <rect id="Rectangle_8" data-name="Rectangle 8" width="4.973" height="4.966" transform="translate(-9.734 11.805)" fill="#d7001a"/>
    </g>
  </g>
</svg>
