<svg xmlns="http://www.w3.org/2000/svg" xmlns:xlink="http://www.w3.org/1999/xlink" width="88.205" height="88.891" viewBox="0 0 88.205 88.891">
  <defs>
    <clipPath id="clip-path">
      <rect id="Rectangle_3292" data-name="Rectangle 3292" width="88.205" height="88.891" fill="none"/>
    </clipPath>
  </defs>
  <g id="Global_Operations_Coverag" data-name="Global Operations Coverag" transform="translate(0 0)">
    <g id="Group_5399" data-name="Group 5399" transform="translate(0 0)" clip-path="url(#clip-path)">
      <path id="Path_9366" data-name="Path 9366" d="M78.177,17.571c-.344.949-.753,1.936-1.239,2.966a41.206,41.206,0,0,1,7.8,22.827H68.5a78.7,78.7,0,0,0-.657-8.843l-2.729.229a77.108,77.108,0,0,1,.648,8.614H48.272a12.932,12.932,0,0,1,5.005,2.8H65.764A72.1,72.1,0,0,1,63.2,64.368a51.333,51.333,0,0,0-6.79-1.921c-.312.843-.677,1.716-1.1,2.622a48.756,48.756,0,0,1,7.065,1.959c-3.53,10.516-9.479,17.7-16.307,18.554v-6.3l-2.739.007v6.289C36.5,84.727,30.55,77.543,27.019,67.027a48.636,48.636,0,0,1,7.069-1.96q-.635-1.357-1.105-2.62a51.546,51.546,0,0,0-6.79,1.92A72.083,72.083,0,0,1,23.629,46.16h12.48a12.938,12.938,0,0,1,5.009-2.8H23.629a72.081,72.081,0,0,1,2.565-18.206,54.541,54.541,0,0,0,17.133,3.131V42.917a12.98,12.98,0,0,1,1.367-.074,12.716,12.716,0,0,1,1.372.076V28.288a55.725,55.725,0,0,0,13.052-1.853q-.809-1.279-1.506-2.5a53.291,53.291,0,0,1-11.546,1.553V3.943a14.013,14.013,0,0,1,7.769,3.981A13.455,13.455,0,0,1,54.871,5.26c-.038-.032-.073-.073-.111-.1.048.013.093.029.141.042a13.352,13.352,0,0,1,1.65-2.419A41.761,41.761,0,0,0,44.7,1.052,42.255,42.255,0,0,0,14.09,14.244a12.782,12.782,0,0,1,2.846,1.084,39.819,39.819,0,0,1,17.7-10.172c-4.159,3.572-7.663,9.282-10.1,16.357q-1.2-.52-2.335-1.1a13.385,13.385,0,0,1,1.476,3.757l.011,0,0,.018a13.586,13.586,0,0,1,.334,2.842c0,.046.005.094.005.141a12.775,12.775,0,0,1-.129,1.73,26.139,26.139,0,0,1-2.6,7.772c-.223,2.18-.367,4.411-.407,6.69H17.418c-.159.242-.3.474-.468.719-.5.744-.985,1.43-1.45,2.078h5.39a73.441,73.441,0,0,0,2.8,19.2,38.353,38.353,0,0,0-9.593,5.783A41.211,41.211,0,0,1,4.656,46.16h1.8c-.381-.529-.771-1.081-1.179-1.675-1.168-1.71-2.19-3.34-3.081-4.9a44.842,44.842,0,0,0-.311,5.176A44.047,44.047,0,0,0,12.848,73.936c.026.036.036.08.066.115s.059.038.085.063a42.165,42.165,0,0,0,63.4,0c.025-.024.058-.034.082-.06s.04-.078.067-.116a44.285,44.285,0,0,0,1.631-56.363M43.327,3.943V25.492A51.791,51.791,0,0,1,27.019,22.5C30.55,11.981,36.5,4.8,43.327,3.943M15.935,73.21a35.532,35.532,0,0,1,8.6-5.2c2.434,7.075,5.938,12.785,10.1,16.357a39.917,39.917,0,0,1-18.7-11.159M54.76,84.369c4.159-3.571,7.663-9.282,10.1-16.357a35.6,35.6,0,0,1,8.6,5.2,39.906,39.906,0,0,1-18.7,11.159M75.3,71.138A38.353,38.353,0,0,0,65.7,65.355a73.44,73.44,0,0,0,2.8-19.2H84.736A41.211,41.211,0,0,1,75.3,71.138" transform="translate(0.696 0.419)" fill="#d7001a"/>
      <path id="Path_9367" data-name="Path 9367" d="M51.763,3.8a7.653,7.653,0,0,1,7.563,7.722c0,.052,0,.1,0,.154a7.348,7.348,0,0,1-.075.822c-.408,3.087-2.549,7.624-6.028,12.775-.5.745-1,1.447-1.461,2.093-.389-.537-.8-1.113-1.211-1.72-5.53-8.09-6.354-12.321-6.354-14.124A7.653,7.653,0,0,1,51.763,3.8m0-2.8a10.424,10.424,0,0,0-10.3,10.518c0,3.733,2.368,9.171,6.847,15.725,1.353,1.976,2.616,3.634,3.455,4.7.9-1.133,2.269-2.939,3.718-5.088,3.774-5.584,6.016-10.421,6.487-13.987a9.721,9.721,0,0,0,.1-1.235c0-.038,0-.076,0-.115A10.424,10.424,0,0,0,51.763,1" transform="translate(15.318 0.398)" fill="#2a3b46"/>
      <path id="Path_9368" data-name="Path 9368" d="M35.923,35.738a7.652,7.652,0,0,1,7.563,7.722c0,.049,0,.1,0,.145a7.266,7.266,0,0,1-.074.831c-.408,3.087-2.549,7.623-6.03,12.775-.5.744-1,1.446-1.461,2.093-.388-.535-.793-1.112-1.209-1.718-5.53-8.093-6.356-12.323-6.356-14.126a7.653,7.653,0,0,1,7.563-7.722m0-2.8a10.424,10.424,0,0,0-10.3,10.518c0,3.732,2.368,9.169,6.849,15.725,1.354,1.978,2.616,3.635,3.454,4.7.9-1.134,2.269-2.939,3.718-5.088,3.774-5.584,6.017-10.419,6.488-13.987a9.931,9.931,0,0,0,.1-1.24q0-.055,0-.109a10.424,10.424,0,0,0-10.3-10.518" transform="translate(9.466 13.116)" fill="#2a3b46"/>
      <path id="Path_9369" data-name="Path 9369" d="M11.3,15a7.652,7.652,0,0,1,7.563,7.722c0,.049,0,.1,0,.143a7.243,7.243,0,0,1-.075.835c-.407,3.086-2.547,7.621-6.028,12.774-.5.745-1,1.447-1.461,2.093-.388-.537-.794-1.113-1.209-1.718-5.53-8.091-6.356-12.323-6.356-14.126A7.653,7.653,0,0,1,11.3,15m0-2.8A10.424,10.424,0,0,0,1,22.719c0,3.733,2.368,9.171,6.849,15.725,1.352,1.976,2.614,3.634,3.454,4.7.9-1.133,2.269-2.939,3.718-5.088,3.774-5.584,6.017-10.421,6.487-13.986a9.625,9.625,0,0,0,.1-1.243c0-.035,0-.071,0-.108A10.424,10.424,0,0,0,11.3,12.2" transform="translate(0.369 4.858)" fill="#2a3b46"/>
      <path id="Path_9370" data-name="Path 9370" d="M49.783,6.347a2.907,2.907,0,0,0-2.079.872,3.031,3.031,0,0,0-.876,2.128,2.992,2.992,0,0,0,2.939,3.035h.011a2.9,2.9,0,0,0,2.094-.874,3.016,3.016,0,0,0,.868-2.122v0A2.991,2.991,0,0,0,49.8,6.347Z" transform="translate(17.301 2.527)" fill="#2a3b46"/>
      <path id="Path_9371" data-name="Path 9371" d="M33.941,38.289a2.907,2.907,0,0,0-2.079.872,3.031,3.031,0,0,0-.876,2.128,2.992,2.992,0,0,0,2.939,3.035h.011a2.9,2.9,0,0,0,2.094-.874,3.016,3.016,0,0,0,.868-2.122v0a2.991,2.991,0,0,0-2.939-3.035Z" transform="translate(11.448 15.245)" fill="#2a3b46"/>
      <path id="Path_9372" data-name="Path 9372" d="M9.32,17.548a2.907,2.907,0,0,0-2.079.872,3.031,3.031,0,0,0-.876,2.128A2.992,2.992,0,0,0,9.3,23.584h.011a2.9,2.9,0,0,0,2.094-.874,3.016,3.016,0,0,0,.868-2.122v0a2.991,2.991,0,0,0-2.939-3.035Z" transform="translate(2.352 6.987)" fill="#2a3b46"/>
    </g>
  </g>
</svg>
