<svg id="Speed" xmlns="http://www.w3.org/2000/svg" width="44.285" height="60.972" viewBox="0 0 44.285 60.972">
  <path id="Path_1460" data-name="Path 1460" d="M455.973,580.416c-2.47-8.858-6.881-12.135-12.545-12.742-.843-5.119-2.957-3.98-6.6-6.922-1.426-1.152,2.231-2.43,3.978-3.049a18.437,18.437,0,0,1-.833-4.826,30.135,30.135,0,0,0,1.134,4.657,19.516,19.516,0,0,0,1.646-1.055,18.557,18.557,0,0,1-2.271-4.956,29.394,29.394,0,0,0,2.554,4.75,17,17,0,0,0,1.582-1.33,18.626,18.626,0,0,1-3.6-4.345,29.086,29.086,0,0,0,3.853,4.1,15.6,15.6,0,0,0,1.43-1.634,18.684,18.684,0,0,1-5.064-3.785,28.123,28.123,0,0,0,5.284,3.487,15.253,15.253,0,0,0,1.249-2.053,18.764,18.764,0,0,1-6.385-2.259,27.409,27.409,0,0,0,6.558,1.91,16.9,16.9,0,0,0,.914-2.378,18.764,18.764,0,0,1-7.312-.63,26.632,26.632,0,0,0,7.425.24,20.068,20.068,0,0,0,.5-2.341,18.8,18.8,0,0,1-7.939.515,25.836,25.836,0,0,0,8-.927,25.047,25.047,0,0,0,.208-2.7,18.763,18.763,0,0,1-8.244,2.444,24.96,24.96,0,0,0,8.251-2.888q.012-1.331-.1-2.727a18.651,18.651,0,0,1-8.592,4.173,23.732,23.732,0,0,0,8.553-4.65q-.115-1.292-.323-2.636a18.547,18.547,0,0,1-8.538,5.875,22.694,22.694,0,0,0,8.455-6.4q-.231-1.39-.55-2.831a17.949,17.949,0,0,1-6.774,7.227,17.7,17.7,0,0,1-1.769.943c3.4-2.14,6.783-5.04,8.4-8.807q-.444-1.906-1.029-3.89c-1.935,11.5-14.7,9.824-10.594,18.225,1.614,3.3,1.736,7.684.547,9.757-.469.815-5.055,3.488-4.156-2.193.434-2.742,2.528-7.363.13-11.607-1.683-2.978-4.826-4.579-10.046-3.212a6.305,6.305,0,0,0-2.617-.987,3.136,3.136,0,0,1,1.159,1.673c-1.131.761-2.517,3.061-1.972,3.86a17.044,17.044,0,0,0-1.565,3.794c-.849,1.331.66,2.07,1.48,2.252.151-1.247.948-1.156.858-.086.926.093,1.249-.775,1.007-1.929a1.09,1.09,0,0,1,1.222-1.179,3.173,3.173,0,0,0,3.817-1.78c1.215,4.86-5.46,8.177-5.06,12.566a19.438,19.438,0,0,1-6.932-.859.727.727,0,0,0-.995.35c-1.876,4.243-3.862,10.339.808,13.073q.536-1.48,1.073-2.959c-2.792-1.8-2.12-3.579-.324-6.355a.709.709,0,0,1,.913-.347c2.376.953,5.243,2.557,7.6,1.6,2,4.284,4.894,7.295,8.834,8.834.741,6.25,2.9,8.559,8.791,9.777.825,1.542,1.432,4.906.6,6.561a5.182,5.182,0,0,0-1.2,2.144h3.389a2.65,2.65,0,0,1,1.415-2.787,17.24,17.24,0,0,0-1.972-7.2c-2.637-2.47-2.922-5.028-2.223-6.734,1.01-2.472,3.47-2.684,5-.441,1.14,1.674,1.892,4.821,1.515,9.794l1.784-.258a23.56,23.56,0,0,0-1.533-8.521,23.543,23.543,0,0,1,1.786,8.484l1.584-.228a25.2,25.2,0,0,0-3-9.685A25.851,25.851,0,0,1,451.915,581l1.395-.2a21.882,21.882,0,0,0-4.595-10.394,22.121,22.121,0,0,1,5.011,10.334Z" transform="translate(-411.688 -527.973)" fill="#bd9b5b" fill-rule="evenodd"/>
</svg>
