<?xml version="1.0" encoding="utf-8"?>
<!-- Generator: Adobe Illustrator 28.0.0, SVG Export Plug-In . SVG Version: 6.00 Build 0)  -->
<svg version="1.1" id="Group_217" xmlns="http://www.w3.org/2000/svg" xmlns:xlink="http://www.w3.org/1999/xlink" x="0px" y="0px"
	 viewBox="0 0 30.4 40.6" style="enable-background:new 0 0 30.4 40.6;" xml:space="preserve">
<style type="text/css">
	.st0{fill:#2A3B46;}
	.st1{clip-path:url(#SVGID_00000026126445603299323430000013978187627008611243_);}
	.st2{fill:#B2B8BC;}
</style>
<circle class="st0" cx="15.2" cy="15.4" r="8"/>
<g>
	<defs>
		<rect id="SVGID_1_" y="0" width="30.4" height="40.6"/>
	</defs>
	<clipPath id="SVGID_00000030473918578060169270000016236607189013210003_">
		<use xlink:href="#SVGID_1_"  style="overflow:visible;"/>
	</clipPath>
	<g id="Group_207" style="clip-path:url(#SVGID_00000030473918578060169270000016236607189013210003_);">
		<path id="Path_363" class="st2" d="M15.2,0C6.8,0.1,0,6.9,0,15.3c0,2.9,0.9,5.7,2.4,8.1L14,39.7c0.2,0.5,0.7,0.8,1.2,0.9
			c0.5-0.1,1-0.4,1.2-0.9L28,23.4c1.5-2.4,2.4-5.2,2.4-8.1C30.4,6.9,23.6,0.1,15.2,0 M15.2,21.3c-3.4,0-6.1-2.7-6.1-6.1
			s2.7-6.1,6.1-6.1c3.4,0,6.1,2.7,6.1,6.1C21.3,18.6,18.6,21.3,15.2,21.3"/>
	</g>
</g>
</svg>
