<svg xmlns="http://www.w3.org/2000/svg" width="27" height="27" viewBox="0 0 27 27">
  <path id="Path_260" data-name="Path 260" d="M41,38.75a1.125,1.125,0,1,1-1.125-1.125A1.125,1.125,0,0,1,41,38.75Zm-1.125,3.938a.563.563,0,0,0-.562.563v9a.563.563,0,0,0,1.125,0v-9a.563.563,0,0,0-.562-.562Zm8.438,0a4.49,4.49,0,0,0-3.375,1.528V43.25a.563.563,0,0,0-1.125,0v9a.563.563,0,0,0,1.125,0V47.188a3.375,3.375,0,0,1,6.75,0V52.25a.563.563,0,0,0,1.125,0V47.188A4.505,4.505,0,0,0,48.313,42.688Zm10.688-9V57.313A1.69,1.69,0,0,1,57.313,59H33.688A1.69,1.69,0,0,1,32,57.313V33.688A1.689,1.689,0,0,1,33.688,32H57.313A1.689,1.689,0,0,1,59,33.688Zm-1.125,0a.563.563,0,0,0-.562-.562H33.688a.563.563,0,0,0-.562.563V57.313a.563.563,0,0,0,.563.563H57.313a.563.563,0,0,0,.563-.562Z" transform="translate(-32 -32)" fill="#fff"/>
</svg>
