<svg xmlns="http://www.w3.org/2000/svg" width="120.025" height="109.947" viewBox="0 0 120.025 109.947">
  <g id="Group_336" data-name="Group 336" transform="translate(-661 -3354.849)">
    <path id="Path_1" data-name="Path 1" d="M310.558,673.649h-.44v-4.637h.44Z" transform="translate(363.988 2791.028)" fill="#2d2d2d"/>
    <path id="Path_2" data-name="Path 2" d="M323.6,673.649h-.434l-2.726-4.007v4.007h-.427v-4.637h.427l2.766,3.967-.04-3.967h.434Z" transform="translate(359.679 2791.028)" fill="#2d2d2d"/>
    <path id="Path_3" data-name="Path 3" d="M336.123,673.649h-.44V669.4h-1.458v-.387h3.363v.387h-1.465Z" transform="translate(353.491 2791.028)" fill="#2d2d2d"/>
    <path id="Path_4" data-name="Path 4" d="M351.233,673.649H348.04v-4.637h3.028v.406H348.48v1.65h2.345v.407H348.48v1.767h2.752Z" transform="translate(347.475 2791.028)" fill="#2d2d2d"/>
    <path id="Path_5" data-name="Path 5" d="M365.844,673.645h-.552l-1.464-2.056h-1.091v2.056h-.44V669h1.3a3.9,3.9,0,0,1,1.3.105,1.244,1.244,0,0,1,.815,1.228,1.2,1.2,0,0,1-.348.893,1.593,1.593,0,0,1-1.025.361Zm-3.107-2.437h1.091a4.489,4.489,0,0,0,.781-.046.8.8,0,0,0,.671-.847.823.823,0,0,0-.677-.887,4.024,4.024,0,0,0-.775-.033h-1.091Z" transform="translate(341.267 2791.032)" fill="#2d2d2d"/>
    <path id="Path_6" data-name="Path 6" d="M380.629,673.649H380.2l-2.726-4.007v4.007h-.427v-4.637h.427l2.766,3.967-.039-3.967h.434Z" transform="translate(334.847 2791.028)" fill="#2d2d2d"/>
    <path id="Path_7" data-name="Path 7" d="M395.3,673.649h-.479l-.532-1.4h-2.076l-.526,1.4H391.2l1.892-4.637h.368Zm-1.143-1.754-.893-2.364-.906,2.364Z" transform="translate(328.684 2791.028)" fill="#2d2d2d"/>
    <path id="Path_8" data-name="Path 8" d="M406.215,673.649h-.44V669.4h-1.458v-.387h3.363v.387h-1.464Z" transform="translate(322.971 2791.028)" fill="#2d2d2d"/>
    <path id="Path_9" data-name="Path 9" d="M418.571,673.649h-.44v-4.637h.44Z" transform="translate(316.955 2791.028)" fill="#2d2d2d"/>
    <path id="Path_10" data-name="Path 10" d="M430.826,673.071a1.917,1.917,0,0,1-2.818-.026,2.742,2.742,0,0,1-.585-1.812c0-1.281.631-2.432,2.01-2.432,1.537,0,1.991,1.354,1.984,2.4A3.029,3.029,0,0,1,430.826,673.071Zm-1.393-3.888c-1.182,0-1.544,1.169-1.544,2.056,0,.86.342,2.043,1.524,2.043,1.432,0,1.531-1.695,1.531-2.07C430.95,670.371,430.609,669.183,429.433,669.183Z" transform="translate(312.909 2791.12)" fill="#2d2d2d"/>
    <path id="Path_11" data-name="Path 11" d="M446.593,673.649h-.434l-2.726-4.007v4.007h-.427v-4.637h.427l2.765,3.967-.04-3.967h.434Z" transform="translate(306.124 2791.028)" fill="#2d2d2d"/>
    <path id="Path_12" data-name="Path 12" d="M461.264,673.649h-.479l-.532-1.4h-2.076l-.526,1.4h-.492l1.891-4.637h.368Zm-1.143-1.754-.893-2.364-.906,2.364Z" transform="translate(299.961 2791.028)" fill="#2d2d2d"/>
    <path id="Path_13" data-name="Path 13" d="M475.251,673.645h-3.009V669h.447v4.236h2.562Z" transform="translate(293.393 2791.032)" fill="#2d2d2d"/>
    <path id="Path_14" data-name="Path 14" d="M298.4,630.575c.725,1.481,1.418,2.931,2.175,4.317h.063c.851-1.481,1.639-3.119,2.428-4.727l2.962-6.021c1.45-2.868,2.333-4.6,2.4-6.052,1.072.094,1.734.094,2.364.094.788,0,1.828-.031,2.805-.094a.664.664,0,0,1,.032.788l-.662.064c-1.986.22-2.238.787-2.207,2.994.064,3.341.095,9.171.347,13.711.094,1.575.063,2.394,1.544,2.552l1.009.095a.581.581,0,0,1-.063.788c-1.292-.063-2.585-.094-3.719-.094-1.1,0-2.521.031-3.814.094a.585.585,0,0,1-.063-.788l.915-.095c1.544-.158,1.544-.662,1.544-2.679l-.094-13.143h-.063c-.221.346-1.418,2.869-2.049,4.1l-2.8,5.515c-1.419,2.774-2.837,5.737-3.4,7.186a.364.364,0,0,1-.315.126.381.381,0,0,1-.283-.126c-.536-1.67-2.049-4.759-2.774-6.3l-2.836-6.083c-.662-1.45-1.324-3.088-2.017-4.538h-.063c-.126,1.953-.22,3.781-.315,5.61-.095,1.923-.221,4.728-.221,7.407,0,2.333.189,2.836,1.418,2.931l1.2.095c.22.19.189.694-.032.788-1.072-.063-2.3-.094-3.5-.094-1.009,0-2.143.031-3.215.094a.624.624,0,0,1-.063-.788l.693-.095c1.324-.158,1.765-.377,1.954-2.584.189-2.081.346-3.814.536-6.935.158-2.616.283-5.294.346-7.028.063-1.985-.189-2.4-2.111-2.71l-.5-.064a.59.59,0,0,1,.126-.788c.946.063,1.7.094,2.49.094.725,0,1.576,0,2.616-.094-.126,1.229.662,3.183,1.639,5.2Z" transform="translate(374.096 2813.2)" fill="#2d2d2d"/>
    <path id="Path_15" data-name="Path 15" d="M339.018,628.494a10.9,10.9,0,0,1,11.221-11.126c7.281,0,10.937,5.263,10.937,10.811a10.761,10.761,0,0,1-10.937,11C343.242,639.178,339.018,634.167,339.018,628.494Zm19.006.662c0-5.2-2.3-10.811-8.321-10.811-3.278,0-7.533,2.238-7.533,9.14,0,4.665,2.269,10.717,8.479,10.717C354.431,638.2,358.024,635.365,358.024,629.156Z" transform="translate(351.404 2813.515)" fill="#2d2d2d"/>
    <path id="Path_16" data-name="Path 16" d="M385.87,622.285c0-2.333-.126-2.9-1.544-3.058l-1.009-.094a.5.5,0,0,1,.032-.788c1.7-.158,3.845-.252,6.776-.252a11.989,11.989,0,0,1,5.3.883,4.138,4.138,0,0,1,2.4,3.94c0,2.269-1.324,3.435-3.215,4.317,0,.315.252.41.6.473a5.216,5.216,0,0,1,4.224,5.263c0,3.657-2.71,6.115-8.384,6.115-.915,0-2.459-.094-3.783-.094-1.387,0-2.459.063-3.624.094a.612.612,0,0,1-.064-.788l.567-.095c1.671-.252,1.734-.63,1.734-3.94Zm2.585,4.192c0,.882.032.946,1.639.882,3.215-.126,4.948-1.071,4.948-4.034,0-3.089-2.3-4.255-4.7-4.255a3.9,3.9,0,0,0-1.45.189c-.315.1-.441.253-.441.82Zm0,7.313c0,1.134.063,2.742.662,3.435a3.06,3.06,0,0,0,2.49.882c2.805,0,4.948-1.261,4.948-4.413,0-2.489-1.261-5.389-6.272-5.389-1.7,0-1.828.189-1.828.819Z" transform="translate(332.19 2813.2)" fill="#2d2d2d"/>
    <path id="Path_17" data-name="Path 17" d="M419.565,622.979c0-3.342-.063-3.877-1.923-4.034l-.788-.064c-.19-.126-.126-.694.063-.788,1.576.063,2.648.094,3.972.094,1.261,0,2.332-.031,3.908-.094.189.094.252.662.063.788l-.788.064c-1.859.157-1.922.693-1.922,4.034V634.2c0,3.341.063,3.782,1.922,4l.788.095c.189.126.126.694-.063.788-1.576-.063-2.648-.094-3.908-.094-1.324,0-2.4.031-3.972.094a.612.612,0,0,1-.063-.788l.788-.095c1.86-.221,1.923-.662,1.923-4Z" transform="translate(317.561 2813.2)" fill="#2d2d2d"/>
    <path id="Path_18" data-name="Path 18" d="M453.3,626.1c0-1.954-.063-5.578-.6-6.524a1.954,1.954,0,0,0-1.576-.662l-.788-.063a.571.571,0,0,1,.063-.757c1.2.063,2.364.094,3.593.094,1.324,0,2.175-.031,3.309-.094a.544.544,0,0,1,.063.757l-.756.063c-.788.063-1.418.346-1.576.757-.473,1.039-.441,4.664-.441,6.429v3.562c0,2.742-.441,5.642-2.206,7.534a8.3,8.3,0,0,1-6.02,2.3,8.956,8.956,0,0,1-5.894-1.733c-1.671-1.387-2.459-3.688-2.459-7.438v-7.439c0-3.277-.063-3.814-1.891-3.971l-.789-.063c-.189-.126-.126-.662.064-.757,1.576.063,2.647.094,3.908.094,1.292,0,2.333-.031,3.877-.094.189.094.252.631.063.757l-.756.063c-1.829.158-1.891.694-1.891,3.971v6.809c0,5.074,1.576,8.415,6.4,8.415,4.571,0,6.3-3.592,6.3-8.384Z" transform="translate(309.516 2813.2)" fill="#2d2d2d"/>
    <path id="Path_19" data-name="Path 19" d="M483.162,639.178a9.844,9.844,0,0,1-4.917-1.165,14.569,14.569,0,0,1-.851-4.413c.158-.221.631-.283.757-.094.473,1.607,1.765,4.7,5.421,4.7a3.58,3.58,0,0,0,3.939-3.625c0-1.387-.283-2.931-2.584-4.412l-2.994-1.955c-1.576-1.041-3.4-2.836-3.4-5.421,0-2.995,2.332-5.421,6.43-5.421a10.805,10.805,0,0,1,2.931.409,6.22,6.22,0,0,0,1.1.189,13.8,13.8,0,0,1,.567,3.845c-.126.189-.63.284-.788.095-.409-1.514-1.261-3.562-4.286-3.562-3.089,0-3.751,2.048-3.751,3.5,0,1.829,1.513,3.121,2.679,3.877l2.522,1.577c1.986,1.229,3.94,3.057,3.94,6.052C489.875,636.815,487.26,639.178,483.162,639.178Z" transform="translate(291.15 2813.515)" fill="#2d2d2d"/>
    <g id="Group_7" data-name="Group 7" transform="translate(667.081 3354.849)">
      <path id="Path_20" data-name="Path 20" d="M366.647,503.23a.915.915,0,0,0,.954-.378A.693.693,0,0,0,366.647,503.23Z" transform="translate(-327.708 -491.434)" fill="#d6aa50"/>
      <path id="Path_21" data-name="Path 21" d="M364.48,510.711a4.716,4.716,0,0,0,.5-.287l-.231-.25-.458.36C364.358,510.6,364.45,510.724,364.48,510.711Z" transform="translate(-326.684 -494.657)" fill="#d6aa50"/>
      <path id="Path_22" data-name="Path 22" d="M370.985,502.207c-.042.011-.065.1-.1.152.06.036.137.114.178.1a2.062,2.062,0,0,0,.344-.208.523.523,0,0,0,.19.055c.042,0,.082-.072.123-.112-.04-.037-.084-.109-.119-.1A5.124,5.124,0,0,0,370.985,502.207Z" transform="translate(-329.555 -491.137)" fill="#d6aa50"/>
      <path id="Path_23" data-name="Path 23" d="M368.541,503.727c0,.047.05.1.109.2.182-.167.326-.292.458-.43a.2.2,0,0,0-.078-.142C368.879,503.3,368.542,503.559,368.541,503.727Z" transform="translate(-328.533 -491.684)" fill="#d6aa50"/>
      <path id="Path_24" data-name="Path 24" d="M376.177,485.638l.97-.345A.746.746,0,0,0,376.177,485.638Z" transform="translate(-331.858 -483.797)" fill="#d6aa50"/>
      <path id="Path_25" data-name="Path 25" d="M380.105,486.287a.537.537,0,0,0,.639-.035C380.506,486.025,380.291,486.038,380.105,486.287Z" transform="translate(-333.568 -484.17)" fill="#d6aa50"/>
      <path id="Path_26" data-name="Path 26" d="M411.985,492.507c.006,0,.009-.013.03-.045-.1-.153-.213-.282-.43-.242-.026,0-.067.1-.055.113A.382.382,0,0,0,411.985,492.507Z" transform="translate(-347.251 -486.836)" fill="#d6aa50"/>
      <path id="Path_27" data-name="Path 27" d="M378.88,504.7c.054.041.117.124.159.113a1.107,1.107,0,0,0,.275-.176c-.108-.079-.188-.16-.207-.147A1.614,1.614,0,0,0,378.88,504.7Z" transform="translate(-333.035 -492.183)" fill="#d6aa50"/>
      <path id="Path_28" data-name="Path 28" d="M378.625,484.792l-.551.089,0,.11A.5.5,0,0,0,378.625,484.792Z" transform="translate(-332.684 -483.605)" fill="#d6aa50"/>
      <path id="Path_29" data-name="Path 29" d="M377.9,485.628l-.535.352.061.09.519-.376Z" transform="translate(-332.375 -483.969)" fill="#d6aa50"/>
      <path id="Path_30" data-name="Path 30" d="M429.078,563.632c.237-.249.477-.5.689-.767a31.41,31.41,0,0,0,2.494-3.709c-1.736-.97-2.579-2.523-2.949-5.14a10.5,10.5,0,0,1-5.1-5.036,3.445,3.445,0,0,1-.6.051,8.543,8.543,0,0,1-3.22-.911c-.168-.072-.334-.143-.5-.211a4.128,4.128,0,0,0-.752,1.677c-.007.165-.024.552.83,1.1l.46.3-.186.514-.651,1.8-.015.042a1.628,1.628,0,0,1,.089.285.94.94,0,0,0,.337.671,14.2,14.2,0,0,1,1.169.837,1.183,1.183,0,0,0,1.363.194,1.978,1.978,0,0,1,1.363-.129,1.914,1.914,0,0,0,1.3-.129,8.784,8.784,0,0,1,1.277-.4c.386-.094.535.028.615.42.007.034.012.068.019.1.057.283.156.368.443.344.171-.014.338-.062.509-.08a1.106,1.106,0,0,1,.255.041l.033.209a1.222,1.222,0,0,1-.046.424,6.817,6.817,0,0,1-.6,1.079,1.4,1.4,0,0,0-.15,1.456,2.031,2.031,0,0,1,.1.652,7.512,7.512,0,0,1-.721,2.229.737.737,0,0,1-.272.334,6.834,6.834,0,0,0-1.285,1.4,2.524,2.524,0,0,0-.523.906,4.472,4.472,0,0,1-.534,1.349q1.682-.195,3.358-.409C428.16,564.647,428.607,564.126,429.078,563.632Z" transform="translate(-350.564 -511.088)" fill="#d6aa50"/>
      <path id="Path_31" data-name="Path 31" d="M343,548.772c-.005-.12,0-.243,0-.366a3.432,3.432,0,0,0-.007-.382,2.571,2.571,0,0,0-.15-.549l-.026-.073c-.043.028-.085.055-.123.081a1.654,1.654,0,0,0-.5.581.865.865,0,0,1-.646.555,9.241,9.241,0,0,0,1.2.856,1.07,1.07,0,0,0,.306.124c-.007-.1-.008-.2-.017-.3C343.025,549.122,343.011,548.947,343,548.772Z" transform="translate(-316.782 -510.868)" fill="#d6aa50"/>
      <path id="Path_32" data-name="Path 32" d="M338.3,537.732a7.8,7.8,0,0,0,.39.716c.047,0,.1,0,.143.01a5.025,5.025,0,0,1,.238-.483,4.615,4.615,0,0,1,.54-.771,2.476,2.476,0,0,1,.389-2.237l.014-.017.015-.016a3.544,3.544,0,0,1,1.253-.855,3.183,3.183,0,0,0,.3-.168c.116-.071.234-.141.354-.2a2.37,2.37,0,0,1,.517-.178.9.9,0,0,1-.272-.527.871.871,0,0,1-.422-.441,3.7,3.7,0,0,1-.2-.558,4.235,4.235,0,0,1-.128-.727l-3.3,5.617c.034.112.07.224.1.338A3.731,3.731,0,0,0,338.3,537.732Z" transform="translate(-315.289 -503.846)" fill="#d6aa50"/>
      <path id="Path_33" data-name="Path 33" d="M337.813,543l.18-.018h0c-.09-.434-.183-.867-.275-1.3l-.184.313c.041.143.08.287.12.431Z" transform="translate(-315.031 -508.375)" fill="#d6aa50"/>
      <path id="Path_34" data-name="Path 34" d="M374.19,517.922a.25.25,0,0,0-.195.077c-.019.019.018.126.056.169a1.253,1.253,0,0,0,.974.41c.032-.021.143-.057.177-.13.02-.042-.068-.18-.135-.209C374.781,518.119,374.487,518.015,374.19,517.922Z" transform="translate(-330.905 -498.03)" fill="#d6aa50"/>
      <g id="Group_1" data-name="Group 1" transform="translate(18.479 62.483)">
        <path id="Path_35" data-name="Path 35" d="M443.434,593.933l-.1.015a11.159,11.159,0,0,0-.168,1.385,7.891,7.891,0,0,1,2.979-1.091c.565-.112,1.1-.186,1.624-.257a6.643,6.643,0,0,0,2.287-.54,7.3,7.3,0,0,0-1.178-.08A40.015,40.015,0,0,0,443.434,593.933Z" transform="translate(-379.508 -593.364)" fill="#d6aa50"/>
        <path id="Path_36" data-name="Path 36" d="M331.573,593.364a7.344,7.344,0,0,0-1.166.076,18.159,18.159,0,0,0,3.945,1.007c.331.058.651.114.951.171a9.721,9.721,0,0,1,2.455.754c-.038-.461-.127-.923-.189-1.356l-.551-.083A40.019,40.019,0,0,0,331.573,593.364Z" transform="translate(-330.407 -593.364)" fill="#d6aa50"/>
      </g>
      <path id="Path_37" data-name="Path 37" d="M308.957,586.783c-2.117.493-4.419.812-6.616,1.122-1.567.22-3.154.39-4.666.73,4.14.779,8.1,1.882,12.335,2.488a54.306,54.306,0,0,0,9.659.908,16.475,16.475,0,0,0,3.363-.259c1.743-.41-1.585-1.318-2.244-1.443-2.414-.459-6.15-.858-6.857-2.837a.778.778,0,0,1,0-.615.129.129,0,0,1,0-.015c.109-.875.478-.991.568-1.881.046-.463.049-1.494.121-1.959a61.169,61.169,0,0,1-8.242-1.124c-1.438-.248-2.875-.5-4.29-.805-.653-.139-2.625-.711-2.721-.74,1.357.934,3.19,2.109,4.615,3,1.642,1.03,3.573,1.879,5.151,2.944a.211.211,0,0,1,.067.337A.369.369,0,0,1,308.957,586.783Z" transform="translate(-297.675 -525.215)" fill="#d6aa50"/>
      <path id="Path_38" data-name="Path 38" d="M446.827,589.546c-.657.13-3.97,1.062-2.219,1.459a16.487,16.487,0,0,0,3.367.234,47.569,47.569,0,0,0,9.031-.966c4.226-.637,8.166-1.769,12.292-2.578-1.517-.33-3.107-.487-4.677-.7-2.2-.293-4.51-.6-6.635-1.073a.37.37,0,0,1-.247-.147.21.21,0,0,1,.06-.337c1.559-1.076,3.475-1.939,5.1-2.981,1.409-.9,3.223-2.091,4.563-3.036-.095.029-2.057.616-2.708.76-1.409.312-2.841.578-4.275.836a66.793,66.793,0,0,1-8.592,1.443c-.312.481-.055.739,0,1.2.145,1.223.16,1.06.262,1.778,0,.006.073.883.073.889a1.873,1.873,0,0,1,0,.961C451.549,589.278,449.232,589.069,446.827,589.546Z" transform="translate(-361.435 -524.812)" fill="#d6aa50"/>
      <path id="Path_39" data-name="Path 39" d="M379.555,519.165a7.052,7.052,0,0,0-.256-.865,1.028,1.028,0,0,1-.058-.412c-.015-.011-.026-.025-.04-.037a6.168,6.168,0,0,1-.563.558c-.241.2-.544.329-.648.665-.028.091-.065.179-.1.269a1.214,1.214,0,0,0,.279.089c.395.024.791.026,1.185.057a.354.354,0,0,1,.259.155c.119.27.155.3.443.176A1.017,1.017,0,0,1,379.555,519.165Z" transform="translate(-332.604 -498.001)" fill="#d6aa50"/>
      <path id="Path_40" data-name="Path 40" d="M357.955,499.818a1.025,1.025,0,0,1,.16-.245c-.017-.023-.032-.036-.051-.064a.62.62,0,0,1-.1-.47,3.093,3.093,0,0,1,.4-.763c.177-.26.176-.33-.142-.379a.611.611,0,0,1-.512-.4,2.077,2.077,0,0,0-.336-.483c-.12-.142-.257-.217-.443-.061a.409.409,0,0,1-.293.038,4.464,4.464,0,0,0-.55-.128c-.186-.006-.456,0-.546.11a4.747,4.747,0,0,0-.722,1.166,1.588,1.588,0,0,1-.5.776c-.173.127-.346.257-.507.4a.273.273,0,0,0-.061.388,1.231,1.231,0,0,1-.362,1.5c-.425.24-.884.417-1.323.631-.119.058-.282.128-.32.231a7.838,7.838,0,0,0-.339,1.158,1.092,1.092,0,0,1-.66.767.194.194,0,0,1-.184-.048c-.116-.233-.213-.474-.337-.761a1,1,0,0,0,.336.024,1.109,1.109,0,0,0,.263-.185,1.734,1.734,0,0,0-.267-.145c-.053-.019-.123.012-.21.024.172-.325.323-.621.484-.911s.146-.36-.19-.365a1.384,1.384,0,0,1-1.222-.69,1.156,1.156,0,0,0-1.193-.674l.287-.747c.049-.129.08-.257-.09-.32-.147-.055-.122-.145-.058-.243a6.128,6.128,0,0,1,.357-.536,7.143,7.143,0,0,1,1.873-1.475c.209-.132.431-.243.646-.364.137-.077.272-.158.41-.232.29-.156.575-.321.872-.458.165-.076.372-.072.525-.162.365-.216.709-.466,1.062-.7a4.932,4.932,0,0,1-.8.808c-.23.177-.137.334-.053.51.1.2.254.1.374.039.239-.116.469-.252.7-.384.1-.056.178-.1.253.039a.515.515,0,0,0,.851.019.154.154,0,0,0,.024-.118,3.479,3.479,0,0,0-.352-.7c-.172-.219-.261-.394-.041-.618.007-.007,0-.032-.01-.064-.213-.02-.2-.14-.119-.3.23.028.218.211.263.361.019.061.082.108.126.161l.145-.142c.066-.065.12-.154.2-.192.379-.185.775-.336,1.141-.54.15-.084.335-.267.341-.411.012-.32.186-.434.431-.531a.613.613,0,0,0,.449-.763c.167.023.3.043.432.059a1.249,1.249,0,0,0,.39.03,6.427,6.427,0,0,0,.657-.208l.028.06-1.1.607c.48.125.7-.314,1.094-.393-.04.08-.049.127-.077.148-.187.14-.125.265.007.4a.888.888,0,0,1,.109.183.789.789,0,0,1-.229.053,1.06,1.06,0,0,0-.9.518c-.118.145-.032.279.155.252a3.266,3.266,0,0,0,.487-.15c.169-.053.339-.1.508-.155.1-.033.2-.073.3-.109l-.232-.191a.169.169,0,0,1-.023-.039l.019-.069c.124.041.283.049.362.133a.356.356,0,0,1,.035.339,1.731,1.731,0,0,1-.415.433c-.387.292-.941.363-1.164.877-.014.033-.067.054-.106.069a1.159,1.159,0,0,1-.878.055.506.506,0,0,0-.335.019,1.077,1.077,0,0,0-.37.229,1.523,1.523,0,0,0-.2.342,1.409,1.409,0,0,0,.4.167c.211.019.429-.046.641-.03.56.043.61.1.72.663.072.366.126.415.533.5a.982.982,0,0,1,.16.079c.314.135.624.284.947.392a.38.38,0,0,0,.342-.086.413.413,0,0,0-.017-.348,2.814,2.814,0,0,0-.3-.423l.054-.063c.245.186.5.364.733.561.089.075.147.194.264.062a5.636,5.636,0,0,0,.422-.529.66.66,0,0,0,.079-.286c.009-.075-.035-.16-.015-.229a.423.423,0,0,0-.241-.554.3.3,0,0,1-.121-.2c-.02-.2.191-.511.338-.488.216.036.3.2.313.413,0,.043-.005.1.019.125a1.022,1.022,0,0,0,.34.274c.08.024.208-.091.308-.155.062-.041.1-.117.166-.152.322-.179.652-.346.974-.524.2-.112.212-.209.063-.382-.227-.262-.613-.374-.712-.758-.007-.03-.069-.044-.1-.069a4.029,4.029,0,0,1-.371-.272c-.224-.2-.189-.343.1-.444.072-.025.155-.023.226-.048.05-.018.119-.054.132-.1a.969.969,0,0,0-.366-1.042.4.4,0,0,1-.15-.227c-.021-.21-.139-.28-.322-.343a.683.683,0,0,1-.3-.27,1.75,1.75,0,0,1-.138-.408.44.44,0,0,1,.037-.069c.245-.369.172-.553-.243-.674a2.132,2.132,0,0,0-1.244-.009c-.157.047-.323.065-.537.106l.456-.272-.033-.125a2.978,2.978,0,0,0-.487,0,4.8,4.8,0,0,0-1.75.846,2.855,2.855,0,0,0-1.12,1.107.345.345,0,0,0,.023.409.377.377,0,0,0,.423.159c-.194.2-.334.451-.538.626-.4.341-1.009.348-1.332.823,0,.006-.031,0-.066-.006.005-.048-.007-.108.017-.141a2.679,2.679,0,0,1,.324-.387c.167-.152.305-.3.186-.592l-.486.264-.077-.083.411-.225-.069-.076-.3-.133a2.447,2.447,0,0,0,.55-.36c.251-.291.449-.627.677-.938a.91.91,0,0,1,.276-.289c.29-.146.526-.43.9-.373.058.009.129-.042.189-.076.345-.193.689-.387,1.03-.586a1.224,1.224,0,0,0,.182-.163c-.817-.38-1.394.081-1.979.514l-.03-.063.649-.591-.05-.059c-.591.057-1.2.055-1.568.706-.1-.277-.238-.189-.379-.123-.522.244-.366.813-.615,1.187l.047.063.789-.3a5.386,5.386,0,0,0-1.509,1.308c-.021.029-.121.005-.184,0-.082-.01-.181-.066-.244-.038-.259.113-.509.246-.756.384-.066.037-.163.142-.148.176.089.21-.078.225-.192.286a1.9,1.9,0,0,1-.4.222,6.874,6.874,0,0,1-.813.129c-.027,0-.066-.047-.092-.079-.063-.078-.123-.16-.194-.253.1-.195.194-.395.483-.349a.959.959,0,0,0,1-.4.566.566,0,0,1,.107-.085l.074.168c.122-.085.226-.161.333-.231a.48.48,0,0,0,.274-.449.778.778,0,0,1,.2-.556,5.884,5.884,0,0,1,1.987-1.437,1.309,1.309,0,0,0,.317-.207l-.054-.1a4.832,4.832,0,0,0-1.773.727l.237-.249-.034-.054-.415.2c.019-.1.039-.208.071-.377l.762-.65c-.11-.076-.2-.188-.275-.18a1.65,1.65,0,0,0-.563.151c-.7.352-1.4.711-2.088,1.092a6.206,6.206,0,0,0-.7.522l.031.056.824-.258.033.053c-.191.146-.385.287-.57.44-.107.089-.2.2-.332.334a2.914,2.914,0,0,1,.335.069,1.054,1.054,0,0,1,.188.11c-.077.034-.171.116-.23.1-.556-.19-.872.169-1.188.513-.056.061-.039.192-.055.291l.056.015-.388.444c.654.139,1.13-.3,1.694-.287-.136.063-.287.077-.423.129-.18.069-.449.131-.5.265-.1.27-.361.281-.522.437-.013.012-.048,0-.074,0l-.046-.2c-.279.042-.538.223-.9.028.153-.085.255-.129.344-.193a5.358,5.358,0,0,0,.491-.388.2.2,0,0,0-.014-.189c-.2-.119-.139-.274-.076-.429.036-.089.089-.171.16-.3l-.333.067.166-.221-.26.126-.038-.05.413-.4-.007-.015-.242.154.067-.085c-.045,0-.1-.026-.133-.011a9.247,9.247,0,0,0-.928.395,4.37,4.37,0,0,0-.622.459,32.082,32.082,0,0,0-9.443,12.13,15.049,15.049,0,0,0-.6,1.483c-.209.639-.348,1.3-.553,1.939-.188.585-.456,1.145-.633,1.733a17.015,17.015,0,0,0-.744,5.205.463.463,0,0,0,.027.225,1.6,1.6,0,0,1,.186.994c-.008.216-.008.431,0,.645l6.581-11.241-.322.093.833-1.463a4.173,4.173,0,0,1,1.533-1.505l.912-.478.091,1.026a3.236,3.236,0,0,1-.455,1.938c-.024.045-.046.085-.065.122l-.638,1.276-.159-.344-.923,1.569a2.788,2.788,0,0,1,.521-.049c.05,0,.1,0,.15,0a3.719,3.719,0,0,1,2.254.911l.094.081a2.716,2.716,0,0,1,.531.558.819.819,0,0,1-.126,1.1l-.321.337-.172.18-.793.831a3.217,3.217,0,0,1,.406,2.045,1.1,1.1,0,0,1-.123.416,2.151,2.151,0,0,1-.082,1.355,2.307,2.307,0,0,1,.9.48,1.546,1.546,0,0,0,.382-.243,5.331,5.331,0,0,1,1.475-.983.808.808,0,0,0,.513-.792,1.239,1.239,0,0,1,.383-.87,3.774,3.774,0,0,0,.348-.559,2.311,2.311,0,0,1,.171-.216c.183-.221.36-.448.553-.661a1.1,1.1,0,0,1,.379-.323c.472-.169.959-.3,1.437-.445a.918.918,0,0,0,.245-.138c.143-.1.177-.2.033-.354a.377.377,0,0,1-.068-.338,1.184,1.184,0,0,1,.373-.5,3.246,3.246,0,0,1,1.379-.472,3.337,3.337,0,0,0,.74-.255c.055-.02.108-.046.161-.069l.039.054a.953.953,0,0,0-.176.237c-.039.114-.089.285-.034.354a.572.572,0,0,0,.37.164.532.532,0,0,0,.306-.12,4.44,4.44,0,0,1,1.455-.568,13.872,13.872,0,0,0,1.407-.5c.185-.071.333-.18.152-.4a.24.24,0,0,1-.026-.1c-.055-.27-.179-.323-.407-.162-.148.1-.279.231-.431.327a.312.312,0,0,1-.252.038c-.357-.169-.705-.355-1.053-.543-.042-.023-.1-.093-.089-.128.053-.221.067-.458.286-.61s.222-.313-.01-.454a.859.859,0,0,0-.435-.125,3.854,3.854,0,0,0-.687.1c-.269.053-.535.122-.8.184l-.018-.062a2.78,2.78,0,0,0,.277-.116,8.649,8.649,0,0,0,.869-.49.969.969,0,0,1,.644-.2c.721.042,1.444.082,2.166.106a2.244,2.244,0,0,0,1.538-.457,21.147,21.147,0,0,0-2.664-3.724A1.031,1.031,0,0,1,357.955,499.818Zm1.488-9.905.053.054-.783.7-.051-.058Zm-5.279,2.4a1.236,1.236,0,0,1,.382-.177c-.313.189-.388.637-.791.712a2.061,2.061,0,0,1-.365,0C353.677,492.653,353.918,492.48,354.164,492.315Z" transform="translate(-314.504 -485.222)" fill="#d6aa50"/>
      <path id="Path_41" data-name="Path 41" d="M378.2,506.5a1.64,1.64,0,0,0-.164-.352,3.087,3.087,0,0,0-.363.2,1.464,1.464,0,0,0-.293.289,1.763,1.763,0,0,1-.338.33,4.409,4.409,0,0,1,1.372.684Q378.316,507.075,378.2,506.5Z" transform="translate(-332.235 -492.903)" fill="#d6aa50"/>
      <g id="Group_3" data-name="Group 3" transform="translate(47.491 28.791)">
        <path id="Path_42" data-name="Path 42" d="M388.043,540.938l-3.343-7.251h-2.87v.27a1.915,1.915,0,0,1,1.13.28,1.476,1.476,0,0,1,.249,1.026v5.909a2.67,2.67,0,0,1-.256,1.467,1.744,1.744,0,0,1-1.158.408v.27h3.419v-.27a1.775,1.775,0,0,1-1.017-.32,2.38,2.38,0,0,1-.348-1.555v-5.8l3.665,7.948h.2l2.325-5.17v-1.644Z" transform="translate(-381.794 -533.687)" fill="#d6aa50"/>
        <g id="Group_2" data-name="Group 2" transform="translate(8.575)">
          <path id="Path_43" data-name="Path 43" d="M396.982,533.958a2.064,2.064,0,0,1,1.152.274,1.419,1.419,0,0,1,.263,1.034v6.476q0,.841-.263,1.043a2.429,2.429,0,0,1-1.152.265v.27h4.308v-.27a2.424,2.424,0,0,1-1.151-.265q-.263-.2-.263-1.043v-6.476a1.416,1.416,0,0,1,.263-1.034,2.06,2.06,0,0,1,1.151-.274v-.27h-4.308Z" transform="translate(-396.982 -533.687)" fill="#d6aa50"/>
        </g>
      </g>
      <path id="Path_44" data-name="Path 44" d="M405.511,565.509c.49-.546.92-1.073,1.292-1.563s.687-.942.947-1.339a15.472,15.472,0,0,0,.955-1.634,23.435,23.435,0,0,0,2.193-6.082,4.029,4.029,0,0,1-.719-1.588,24.533,24.533,0,0,1-2.373,7.167l-.017.03-.015.031a21.194,21.194,0,0,1-3.436,4.721l.729.732C405.217,565.826,405.37,565.666,405.511,565.509Z" transform="translate(-344.119 -513.437)" fill="#d6aa50"/>
      <path id="Path_45" data-name="Path 45" d="M441.364,538.007c-.06-.169-.42-.3-.658-.322a.745.745,0,0,1-.3-.1c-.021.087-.043.181-.064.265-.106.423-.206.823-.258,1.147-.161,1.018.039,1.288.062,1.315s.034.04.139.04a1.937,1.937,0,0,0,1.061-.492,3.609,3.609,0,0,0,.347-1.379A1.053,1.053,0,0,1,441.364,538.007Z" transform="translate(-359.66 -506.592)" fill="#d6aa50"/>
      <path id="Path_46" data-name="Path 46" d="M449.163,544.208c.027.7.048,1.4.073,2.1,0,.015.03.029.052.049.143-.877.248-1.753.319-2.629l-.453.337C449.156,544.113,449.161,544.16,449.163,544.208Z" transform="translate(-363.634 -509.268)" fill="#d6aa50"/>
      <path id="Path_47" data-name="Path 47" d="M446.536,544.7l-.555.2-.5.286-.032-.094a8.741,8.741,0,0,0-1.525.681,9.919,9.919,0,0,0,1.514.914,6.019,6.019,0,0,1,1.279.819c0-.033.007-.066.01-.1a13.392,13.392,0,0,0,.045-1.387c-.01-.519-.035-1.039-.058-1.558-.071.045-.141.091-.214.135Z" transform="translate(-361.358 -509.588)" fill="#d6aa50"/>
      <path id="Path_48" data-name="Path 48" d="M425.407,535.029c.257-.346.508-.685.731-1.024a.52.52,0,0,1-.1-.028c-.205-.094-.233-.291-.036-.393a1.427,1.427,0,0,1,.48-.16,4.343,4.343,0,0,0,.231-.506,2.544,2.544,0,0,1-.959.177,3.482,3.482,0,0,1-.628-.06,2.678,2.678,0,0,1,.029.321.712.712,0,0,1,.234.644,1.208,1.208,0,0,1-.731.9,1.892,1.892,0,0,0-.488.287,1.142,1.142,0,0,0-.245.288,1.822,1.822,0,0,0-.17.339,1.193,1.193,0,0,0-.157.5.891.891,0,0,1-.421.879,7.225,7.225,0,0,1-.8.456,1.5,1.5,0,0,0-.281.124c-.11.1-.215.2-.324.3a13.89,13.89,0,0,0,1.976.145A7.3,7.3,0,0,1,425.407,535.029Z" transform="translate(-351.713 -504.561)" fill="#d6aa50"/>
      <path id="Path_49" data-name="Path 49" d="M434.816,514.594a.972.972,0,0,1,.02-.172l.619.667c.353-1.263,1.518-2.091,2.663-2.9.286-.2.578-.41.868-.628a31.769,31.769,0,0,0-4.4-8.6c-.094-.132-.2-.256-.294-.384l-.072.07.173.293c-.073.02-.107.012-.123-.01-.242-.33-.458-.684-.729-.987a12.306,12.306,0,0,0-1.036-.994,1.72,1.72,0,0,0-.628-.419c-.283-.075-.37-.255-.466-.474a.259.259,0,0,0-.116-.1c-.272-.152-.537-.318-.82-.446-.314-.142-.462-.038-.458.3h-.388c.075.264.067.484-.213.6.022.229.044.46.07.724.282-.2.349.025.421.217a2.662,2.662,0,0,1,.073.325,2.137,2.137,0,0,0,.178.692,1.74,1.74,0,0,1,.177.967.539.539,0,0,1-.026.172,1.338,1.338,0,0,0-.313.178c-.17.189-.307.409-.485.591a.32.32,0,0,0-.1.387c.138.347.257.7.408,1.043.128.289.289.563.436.843a1.048,1.048,0,0,0,.933.587c.13.006.277-.128.4-.224a2.647,2.647,0,0,0,.3-.337c.086.135.142.22.195.305.213.343.414.694.639,1.029.237.354.246.348-.029.774-.021-.116-.03-.195-.05-.27a2.747,2.747,0,0,0-.094-.29,3.915,3.915,0,0,1-.184-.455c-.058-.231-.2-.3-.377-.15-.3.246-.331.312-.2.678a4.729,4.729,0,0,0,.291.568c.1.189.2.375.282.571.048.116.016.2-.143.236-.26.05-.514.128-.77.2a.5.5,0,0,0-.39.513.848.848,0,0,1-.352.658.75.75,0,0,0-.217.325.754.754,0,0,1-.78.418c-.208-.078-.3-.046-.254.194.032.183-.02.244-.228.194a1.708,1.708,0,0,0-.585-.015c-.1.012-.284.109-.28.155a.625.625,0,0,0,.137.3,8.818,8.818,0,0,1,1.926-.235A4.968,4.968,0,0,1,434.816,514.594Zm-.042-10.857-.154-.1.156.274-.038.03-1-1.176C434.147,503.014,434.592,503.212,434.773,503.736Zm-1.709,5.467c.137.073.237.063.222-.132-.012-.145.045-.177.195-.222.22-.066.356-.308.585-.4a.907.907,0,0,0-.078-.369c-.089-.2-.219-.386-.305-.589a.63.63,0,0,1,0-.6c.071-.132-.049-.387-.122-.571a.754.754,0,0,0-.25-.29,1.967,1.967,0,0,1-.617-.99.873.873,0,0,1,.037-.748.678.678,0,0,0-.057-.773c-.11-.165-.2-.343-.308-.534a.4.4,0,0,1,.538.178,3.777,3.777,0,0,1,.3.762c.027.094-.056.217-.075.329a.344.344,0,0,0,.02.191,14.508,14.508,0,0,0,.7,1.4,3.071,3.071,0,0,0,.667.635c.034.029.135-.016.2-.033a1.233,1.233,0,0,1,.388-.09c.221.026.31.24.225.51-.062-.027-.11-.045-.156-.067-.241-.117-.469,0-.456.265a3.345,3.345,0,0,0,.17.649l.193-.226.335.612-.086.068-.241-.389-.1.064a1.322,1.322,0,0,0,.17.834c.234.388.23.456,0,.757-.017,0-.038,0-.05-.005-.4-.282-.443-.28-.816.041-.325.278-.33.281-.526-.082-.08-.147-.163-.174-.309-.091-.265.152-.541.05-.7-.282C432.883,509.091,432.97,509.154,433.065,509.2Z" transform="translate(-354.582 -489.987)" fill="#d6aa50"/>
      <path id="Path_50" data-name="Path 50" d="M402.464,544c-1.5-5.383-4.182-7.375-7.624-7.744-.513-3.111-1.8-2.419-4.012-4.207-.867-.7,1.356-1.476,2.417-1.853a11.217,11.217,0,0,1-.506-2.933,18.387,18.387,0,0,0,.689,2.831q.529-.3,1-.641a11.3,11.3,0,0,1-1.38-3.013,17.917,17.917,0,0,0,1.553,2.887,10.376,10.376,0,0,0,.961-.809,11.31,11.31,0,0,1-2.186-2.641,17.644,17.644,0,0,0,2.342,2.49,9.491,9.491,0,0,0,.869-.993,11.361,11.361,0,0,1-3.077-2.3,17.044,17.044,0,0,0,3.211,2.119,9.215,9.215,0,0,0,.759-1.248,11.4,11.4,0,0,1-3.881-1.373,16.694,16.694,0,0,0,3.985,1.161,10.253,10.253,0,0,0,.556-1.445,11.419,11.419,0,0,1-4.444-.383,16.184,16.184,0,0,0,4.513.146,12.153,12.153,0,0,0,.3-1.423,11.409,11.409,0,0,1-4.825.313,15.712,15.712,0,0,0,4.861-.563,15.1,15.1,0,0,0,.126-1.641,11.413,11.413,0,0,1-5.01,1.485,15.175,15.175,0,0,0,5.014-1.756q.007-.808-.059-1.657a11.341,11.341,0,0,1-5.222,2.536,14.421,14.421,0,0,0,5.2-2.826q-.07-.785-.2-1.6a11.268,11.268,0,0,1-5.189,3.57,13.793,13.793,0,0,0,5.139-3.888q-.14-.844-.335-1.72a10.913,10.913,0,0,1-4.117,4.392,10.571,10.571,0,0,1-1.075.573,12.7,12.7,0,0,0,5.1-5.353q-.27-1.158-.625-2.364c-1.176,6.989-8.935,5.971-6.438,11.076.98,2,1.055,4.67.332,5.93-.285.5-3.072,2.12-2.526-1.332.264-1.667,1.537-4.475.079-7.054-1.023-1.81-2.933-2.783-6.106-1.952a3.825,3.825,0,0,0-1.59-.6,1.905,1.905,0,0,1,.7,1.016c-.688.462-1.53,1.86-1.2,2.346a10.376,10.376,0,0,0-.951,2.307c-.515.809.4,1.257.9,1.368.093-.758.576-.7.521-.052.563.056.76-.471.613-1.173a.663.663,0,0,1,.743-.717,1.928,1.928,0,0,0,2.32-1.082c.738,2.954-3.319,4.969-3.076,7.637a11.8,11.8,0,0,1-4.213-.522.442.442,0,0,0-.6.213c-1.14,2.579-2.347,6.284.491,7.946q.325-.9.651-1.8c-1.7-1.1-1.288-2.175-.2-3.862a.432.432,0,0,1,.556-.211c1.444.579,3.186,1.554,4.62.972a9.9,9.9,0,0,0,5.369,5.369c.451,3.8,1.764,5.2,5.343,5.943a5.482,5.482,0,0,1,.365,3.988,2.378,2.378,0,0,0-.464.646c-1.026.094-2.043.273-3.048.417-4.441.634-8.926,1.188-13.43,1.6-1.509.138-3.178.257-4.957.356a8.415,8.415,0,0,1,.519,1.381l.311,1.148-1.151-.3a7.362,7.362,0,0,1-3.261-1.747l-.318-.309c-.6.019-1.224.032-1.844.045.369-.264.724-.534,1.063-.806l-.746-.728a21.976,21.976,0,0,1-3.829,2.464,21.938,21.938,0,0,1-3.827-2.466l-.748.729,1.077.816c-.623-.011-1.244-.021-1.873-.039l-.3.291a7.363,7.363,0,0,1-3.265,1.751l-1.15.3.311-1.148a8.464,8.464,0,0,1,.508-1.356c-1.417-.076-2.835-.177-4.249-.295a.22.22,0,0,0,.021-.009.621.621,0,0,0,.229-.811,2.212,2.212,0,0,1-.311-.564c-.038-.361-.19-.589-.723-1.293s-.951-2.739-1.332-3.956a4.018,4.018,0,0,0-1-1.549,4.369,4.369,0,0,0-.744-.633c-.118-.076-.257-.114-.374-.189a.8.8,0,0,1-.26-.521,8.688,8.688,0,0,0-.263-.837,9.987,9.987,0,0,0-1.133-2.174,10.72,10.72,0,0,0-1.209-1.473c-.284-.288-.656-.476-.8-.872-.151-.414-.309-.826-.427-1.252a4.407,4.407,0,0,1-.185-1.227c0-.471-.222-.885-.073-1.372.016-.053.032-.112.049-.174a17.188,17.188,0,0,0,1.178,1.882c2.229,3.107,5.006,4.93,6.2,4.072s.357-4.072-1.872-7.179c-1.678-2.338-3.666-3.948-5.056-4.238-.353-.489-1.16-.549-1.623-.659a1.764,1.764,0,0,0,.438-1.75c-.081-.237.118-.351.133-.545.126-1.623-.672-1.991-.672-1.991a1.347,1.347,0,0,0,.121-.128l1.125-1.178c.165-.173.33-.347.5-.519.09-.093.131-.122.048-.247a2.724,2.724,0,0,0-.507-.5,3.024,3.024,0,0,0-1.836-.74,2.647,2.647,0,0,0-2.192,1.154,5.733,5.733,0,0,0-1.008,2.666,4.235,4.235,0,0,0,.077,1.666,2.932,2.932,0,0,0,.163.453c.035.077.075.107.117.108.076,0,.163-.083.246-.152.049-.041.318-.224.31-.3.025.24-.2.659-.2.925.063.431.342-.063.469-.216-.026.031.037.441.03.514a2.481,2.481,0,0,1-.115.545c-.049.145-.088.291-.223.36-.242.123-.523.129-.769.254-.229.116-.443.273-.671.38a2.935,2.935,0,0,0-1.029.687,1.79,1.79,0,0,0-.089,2.016c-.09-.111-.746.84-.785.909a3.941,3.941,0,0,0-.307.685c-.041.12-.033.2-.177.223a1.482,1.482,0,0,1-.423-.077,1.75,1.75,0,0,0-.452-.01c-.178.016-.355.041-.533.051s-.718.064-.74-.247c-.013-.178-.253-.2-.412-.178a.528.528,0,0,0-.232-.279l9.3-15.812.027-.06a2.768,2.768,0,0,0,.093.282,2.754,2.754,0,0,0,.451-1.693,3.549,3.549,0,0,0-1.256,1.236,1.628,1.628,0,0,1,.327-.059l-9.335,15.945c-.13.012-.488.049-.667.084-.222.045-.247.159-.228.247-.431.273-.355.412-.3.514-.254.254-.165.317.063.456a.25.25,0,0,0,.076.431l.037.016-.028.046-.206.352-.376.642-.506.864-.6,1.019-.648,1.106-.659,1.126-.632,1.079-.564.964-.457.781-.311.531-.088.151a.458.458,0,0,0-.025.043.211.211,0,0,0,.112.269c.173.058.242-.089.312-.208l.132-.224.392-.667.53-.9.623-1.06.675-1.147.683-1.161.649-1.1.572-.973.452-.769.29-.493a1.235,1.235,0,0,1,.087-.148c.207.049.412.078.452.039.076-.076-.114-.229-.114-.229a.225.225,0,0,1,.114-.051,1.389,1.389,0,0,0,.71.152,2.222,2.222,0,0,1,.76.3,8.367,8.367,0,0,0,.968.487,2.482,2.482,0,0,0,.812.1c.171-.006.333-.043.5-.062s.389.089.471-.13a2.286,2.286,0,0,1,.749-.905c.271-.187.72-.42.849-.743q.126.436.267.868a4.407,4.407,0,0,1,.256.91c.027.258,0,.53.011.79.018.4.075.808.075,1.21a2.314,2.314,0,0,1-.474,1.269,3.192,3.192,0,0,1-.37.536,5.9,5.9,0,0,1-.444.393A15.222,15.222,0,0,0,332.578,539a4.528,4.528,0,0,0-.679,1.011c-.18.434-.167.912-.357,1.344a1.672,1.672,0,0,0-.042,1.02c.075.369.173.718.236,1.092.013.077.04.151.057.228a1.3,1.3,0,0,1,.043.275c-.064.006-.1,0-.1.073a.68.68,0,0,0,.06.212q.074.218.148.437c.117.347.233.694.335,1.046.04.137.075.276.109.414.092.367.175.735.254,1.1.031.145.061.289.089.434a.392.392,0,0,1,.021.161c-.013.039-.069.081-.091.119a1.32,1.32,0,0,0-.06.12,3.075,3.075,0,0,1-.11.3.544.544,0,0,1-.18.154c-.017.012-.032.028-.049.041-.521-.06-1.043-.108-1.569-.116-2.123-.034-3.338.609-3.551,2.017a19.706,19.706,0,0,0,.049,3.325,13.576,13.576,0,0,1-.283,2.927c2.293-.513,7.317.492,8.623.626,8.922.912,17.708,2.209,26.795,2.149h.69c9.087.059,17.872-1.237,26.795-2.149,1.305-.133,6.331-1.139,8.623-.626a13.539,13.539,0,0,1-.283-2.927,19.763,19.763,0,0,0,.049-3.325c-.185-1.231-1.138-1.876-2.792-2a1.4,1.4,0,0,1,.79-.994,10.468,10.468,0,0,0-1.2-4.378c-1.6-1.5-1.775-3.056-1.351-4.093.614-1.5,2.109-1.631,3.038-.268.693,1.017,1.15,2.929.921,5.952l1.084-.156a14.321,14.321,0,0,0-.931-5.179,14.321,14.321,0,0,1,1.086,5.157l.962-.139a15.958,15.958,0,0,0-1.458-5.2A16.337,16.337,0,0,1,400,544.36l.848-.123a13.305,13.305,0,0,0-2.792-6.317A13.444,13.444,0,0,1,401.1,544.2Zm-67.623,4.943-.151-.023a3.24,3.24,0,0,0-.273-1.117,3.675,3.675,0,0,1-.216-.545c0-.811-.089-2.422-.063-2.79s-.013-.393-.114-.367c-.089-.9-.241-1.091-.508-1.382-.142-.156-.067-.394.006-.563a1.053,1.053,0,0,1,.538-.666c.269-.188.537-.378.805-.569.357-.254.722-.5,1.073-.763.286-.214.567-.435.838-.667a6.147,6.147,0,0,0,1.153-1.21,1.813,1.813,0,0,0,.156-.278.557.557,0,0,1,.027-.065c.073-.116.238.041.332.079a1.035,1.035,0,0,0,.759-.031c.077-.044.172-.146.272-.116s.132.19.171.266q.178.345.368.685c.212.38.436.753.679,1.115a8.72,8.72,0,0,0,1.117,1.388,4.735,4.735,0,0,0,.766.616,3.482,3.482,0,0,1,.324.208c.33.267.723.52.824.951a5.051,5.051,0,0,0,1.065,1.94,9.568,9.568,0,0,1,1.877,2.485,1.719,1.719,0,0,0,.361.624c.061.071.126.139.187.209a.485.485,0,0,1,.142.222,1.05,1.05,0,0,0,.116.244c.045.078.1.149.147.228a.472.472,0,0,1,.024.294,1.681,1.681,0,0,0-.006.238,3.07,3.07,0,0,1,0,.449.98.98,0,0,0,0,.428c0,.006.005.012.007.018C343.354,550.078,339.078,549.552,334.841,548.947Z" transform="translate(-308.919 -495.509)" fill="#d6aa50" fill-rule="evenodd"/>
      <path id="Path_51" data-name="Path 51" d="M393.8,506.519c.009,0-.835-.592-1.312.036-.459.624.131.76.128.762s.02-.676.489-.5c.428.163-.832,1.378-1.372.292-.014-.008-.861.463-1.092-.138-.259-.626.895-.754.517-.053,0-.006.749-.064.777-.63.018-.582-.7-.5-.917-.28s.145-.475.521-.745-.217-.78.349-2.153c-.01,0-.826,1.173-1.142,1.526s-.173.649-.281,1.265c.019.011-.495-1.06-1.175-.305-.629.763.143,1.039.194,1.074,0,0-.2-.524.125-.584s.709.37.263.851c-.422.486-.971-.1-1.007-.241a.737.737,0,0,1-1.163-.036.9.9,0,0,1-1.464-.12.821.821,0,0,0,1.187-.7c.189-1.166.75-.478.364-.069-.358.413.169.814.684.67,0,0-.607.029-.083-.724a.9.9,0,0,0-.53-1.482.973.973,0,0,0-.907,1.074c.1.582-.08.713-.272.709s-.145-.267.058-.542a3.934,3.934,0,0,0-.158-2.346,20.4,20.4,0,0,1-.734-3.223,20.458,20.458,0,0,1-.719,3.223,3.935,3.935,0,0,0-.145,2.347c.2.274.255.535.062.54s-.374-.123-.277-.707a.971.971,0,0,0-.913-1.069.9.9,0,0,0-.522,1.485c.529.75-.084.722-.079.725.516.14,1.041-.263.681-.675-.388-.406.169-1.1.365.067a.821.821,0,0,0,1.191.7.9.9,0,0,1-1.464.128.736.736,0,0,1-1.163.043c-.034.145-.58.731-1.006.247-.448-.479-.075-.906.259-.853s.127.585.13.584c.051-.036.822-.317.187-1.076-.684-.751-1.192.323-1.174.312-.111-.616.041-.91-.289-1.264s-1.14-1.517-1.15-1.52c.573,1.371-.026,1.882.361,2.151s.75.956.526.743-.938-.3-.915.286c.03.565.784.619.78.625-.382-.7.772-.578.517.051-.228.6-1.077.135-1.092.145-.533,1.089-1.8-.119-1.374-.285.468-.181.492.5.493.493s.585-.141.122-.763c-.48-.624-1.321-.026-1.313-.028.135-.833-1.609-1.391-1.629-1.348a21.144,21.144,0,0,1,2.86,4.044,32.4,32.4,0,0,1,6.711-.723v0a32.465,32.465,0,0,1,6.717.684,21.021,21.021,0,0,1,2.835-4.06C395.4,505.118,393.66,505.688,393.8,506.519ZM380.252,508.6a.483.483,0,0,1-.5-.245.276.276,0,0,1,.229-.393.459.459,0,0,1,.513.249A.285.285,0,0,1,380.252,508.6Zm2.823-.393a.414.414,0,0,1-.431-.314.323.323,0,0,1,.3-.393.4.4,0,0,1,.435.321A.329.329,0,0,1,383.075,508.205Zm2.8-.135a.367.367,0,0,1-.364-.359.363.363,0,1,1,.726,0A.367.367,0,0,1,385.87,508.07Zm2.8.119a.329.329,0,0,1-.3-.384.4.4,0,0,1,.433-.323.323.323,0,0,1,.3.391A.412.412,0,0,1,388.666,508.189Zm2.825.377a.284.284,0,0,1-.239-.388.46.46,0,0,1,.512-.252.277.277,0,0,1,.231.392A.484.484,0,0,1,391.491,508.565Z" transform="translate(-331.911 -490.188)" fill="#d6aa50"/>
      <path id="Path_52" data-name="Path 52" d="M394.416,518.514a35.885,35.885,0,0,0-12.024.034,8.226,8.226,0,0,0-.293-.99,34.573,34.573,0,0,1,12.6-.037A8.38,8.38,0,0,0,394.416,518.514Z" transform="translate(-334.436 -497.612)" fill="#d6aa50"/>
      <g id="Group_4" data-name="Group 4" transform="translate(34.555 41.003)">
        <path id="Path_53" data-name="Path 53" d="M384.485,579.751l-.8.776c.629.018,1.251.028,1.873.04Z" transform="translate(-369.683 -565.957)" fill="#d6aa50"/>
        <path id="Path_54" data-name="Path 54" d="M368.99,569.732a6.494,6.494,0,0,1,1.262-1.875l.992-1a22.083,22.083,0,0,1-3.64-5.01,24.1,24.1,0,0,1-2.288-6.5c-.114-.008-.229-.012-.343-.024a.941.941,0,0,0-.17,0,2.173,2.173,0,0,1-.817,1.724,1.885,1.885,0,0,1-1.123.34,6.32,6.32,0,0,1-3.785-2,.658.658,0,0,0-.154.313.582.582,0,0,1-.044.1c.187.233.369.471.54.72a10.678,10.678,0,0,1,1.21,2.324c.11.3.2.6.283.9l.016.065c.006.025.014.056.021.083l.021.01a1.921,1.921,0,0,1,.282.146,4.935,4.935,0,0,1,.863.731,4.61,4.61,0,0,1,1.162,1.823c.11.352.22.758.336,1.187a10.9,10.9,0,0,0,.888,2.559,3.315,3.315,0,0,1,.85,1.57,1.888,1.888,0,0,0,.1.16,2.071,2.071,0,0,1,.147.235,1.409,1.409,0,0,1,.115.832c.075.13.147.261.219.393,1.017.075,2.035.143,3.051.2Z" transform="translate(-358.881 -555.317)" fill="#d6aa50"/>
      </g>
      <path id="Path_55" data-name="Path 55" d="M390.493,579.19l.157.081.157-.081a20.8,20.8,0,0,0,3.151-2l-.5-.488a20.089,20.089,0,0,1-2.807,1.8,20.136,20.136,0,0,1-2.809-1.8l-.5.488A20.828,20.828,0,0,0,390.493,579.19Z" transform="translate(-336.718 -523.625)" fill="#d6aa50"/>
      <path id="Path_56" data-name="Path 56" d="M375.057,548.209l-.046-.089c-2.738-4.9-3.045-13.442-3.067-16.318a11.768,11.768,0,0,0,5.568-4.509h12.269a11.768,11.768,0,0,0,5.568,4.509c-.022,2.876-.329,11.421-3.072,16.328l-.045.087a19.791,19.791,0,0,1-3.271,4.436l.485.487a20.387,20.387,0,0,0,3.4-4.615l.036-.069c2.9-5.185,3.148-14.239,3.155-16.89v-.242l-.227-.082a11.068,11.068,0,0,1-5.552-4.475l-.1-.16H377.134l-.1.16a11.063,11.063,0,0,1-5.551,4.475l-.227.082v.242c.007,2.651.256,11.705,3.15,16.88l.036.069a20.048,20.048,0,0,0,3.4,4.631l.486-.488A19.482,19.482,0,0,1,375.057,548.209Z" transform="translate(-329.714 -501.812)" fill="#d6aa50"/>
      <g id="Group_5" data-name="Group 5" transform="translate(44.82 38.93)">
        <rect id="Rectangle_1" data-name="Rectangle 1" width="0.608" height="0.601" transform="translate(13.408 4.161)" fill="#d6aa50"/>
        <path id="Path_57" data-name="Path 57" d="M401.589,558.134a.082.082,0,0,0-.113-.011.079.079,0,0,0,.011.112l.3.3.3.3a.082.082,0,0,0,.113.011.08.08,0,0,0-.012-.112Z" transform="translate(-387.685 -554.458)" fill="#d6aa50"/>
        <path id="Path_58" data-name="Path 58" d="M379.846,574.182a3.663,3.663,0,0,0-.918,1.917,3.738,3.738,0,0,0,1.938-.908c1.459-1.423,3.474-3.395,5.444-5.323l-.084-.082c-1.88,1.767-3.772,3.545-4.965,4.711a3.165,3.165,0,0,1-1.48.759,3.105,3.105,0,0,1,.768-1.463c1.178-1.178,2.972-3.046,4.756-4.9l-.084-.082C383.274,570.753,381.283,572.741,379.846,574.182Z" transform="translate(-377.875 -559.118)" fill="#d6aa50"/>
        <path id="Path_59" data-name="Path 59" d="M402.337,557.394a.082.082,0,0,0-.113-.011.08.08,0,0,0,.011.112l.6.6a.082.082,0,0,0,.113.011.08.08,0,0,0-.012-.112Z" transform="translate(-388.011 -554.136)" fill="#d6aa50"/>
        <path id="Path_60" data-name="Path 60" d="M396.466,560.8l-2.072,2.074.037.037c.781-.808,1.5-1.544,2.077-2.125Z" transform="translate(-384.61 -555.628)" fill="#d6aa50"/>
        <path id="Path_61" data-name="Path 61" d="M398.432,562.726c-.589.574-1.337,1.286-2.157,2.061l.037.037c.77-.753,1.489-1.455,2.106-2.057C398.422,562.754,398.427,562.74,398.432,562.726Z" transform="translate(-385.429 -556.47)" fill="#d6aa50"/>
        <path id="Path_62" data-name="Path 62" d="M405.185,555.771l-.6-.6a.082.082,0,0,0-.113-.011.079.079,0,0,0,.011.112l.6.6a.082.082,0,0,0,.113.011A.08.08,0,0,0,405.185,555.771Z" transform="translate(-388.989 -553.169)" fill="#d6aa50"/>
        <path id="Path_63" data-name="Path 63" d="M403.085,556.654a.082.082,0,0,0-.113-.011.08.08,0,0,0,.012.112l.6.6a.082.082,0,0,0,.113.011.08.08,0,0,0-.011-.112Z" transform="translate(-388.337 -553.814)" fill="#d6aa50"/>
        <path id="Path_64" data-name="Path 64" d="M403.833,555.914a.082.082,0,0,0-.113-.011.08.08,0,0,0,.012.112l.6.6a.082.082,0,0,0,.113.011.08.08,0,0,0-.012-.112Z" transform="translate(-388.663 -553.491)" fill="#d6aa50"/>
        <path id="Path_65" data-name="Path 65" d="M396.321,560.119l.042-.014c-.578.581-1.3,1.317-2.077,2.125l1.025,1.029c.82-.775,1.567-1.487,2.157-2.061-.005.014-.01.028-.014.042l-2.106,2.057.188.188,2.135-2.08a2.915,2.915,0,0,1,.695-1.068l-.706-.421-.426-.7a2.946,2.946,0,0,1-1.08.688l-2.093,2.1.187.188Z" transform="translate(-384.465 -554.942)" fill="#d6aa50"/>
        <path id="Path_66" data-name="Path 66" d="M380.438,575.319a3.166,3.166,0,0,0,1.48-.759c1.192-1.166,3.085-2.944,4.965-4.711l-.921-.9c-1.785,1.857-3.579,3.726-4.756,4.9A3.106,3.106,0,0,0,380.438,575.319Z" transform="translate(-378.533 -559.181)" fill="#d6aa50"/>
        <path id="Path_67" data-name="Path 67" d="M402.135,554.8v-.841l-2.424,2.4-1.28-.992a.333.333,0,0,0-.071-.373.342.342,0,0,0-.48,0,.333.333,0,0,0,0,.475.341.341,0,0,0,.34.084l1.188,1.948,1.969,1.175a.333.333,0,0,0,.085.337.342.342,0,0,0,.48,0,.333.333,0,0,0,0-.475.342.342,0,0,0-.377-.07l-1-1.267,2.424-2.4Zm-2.035,2.613h-.608v-.6h.608Zm.5-.378a.082.082,0,0,1-.113-.011l-.3-.3-.3-.3a.079.079,0,0,1-.011-.112.082.082,0,0,1,.113.011l.6.6A.08.08,0,0,1,400.6,557.039Zm.422-.418a.082.082,0,0,1-.113-.011l-.6-.6a.08.08,0,0,1-.011-.112.082.082,0,0,1,.113.011l.6.6A.08.08,0,0,1,401.025,556.621Zm.422-.418a.082.082,0,0,1-.113-.011l-.6-.6a.08.08,0,0,1-.012-.112.082.082,0,0,1,.113.011l.6.6A.08.08,0,0,1,401.447,556.2Zm.423-.418a.082.082,0,0,1-.113-.011l-.6-.6a.08.08,0,0,1-.012-.112.082.082,0,0,1,.113.011l.6.6A.08.08,0,0,1,401.87,555.786Zm.309-.429-.6-.6a.079.079,0,0,1-.011-.112.083.083,0,0,1,.113.011l.6.6a.08.08,0,0,1,.012.112A.082.082,0,0,1,402.179,555.357Z" transform="translate(-386.083 -552.654)" fill="#d6aa50"/>
        <path id="Path_68" data-name="Path 68" d="M380.054,575.052a3.738,3.738,0,0,1-1.938.908,3.665,3.665,0,0,1,.918-1.917c1.437-1.441,3.428-3.429,5.375-5.375l-.185-.18-5.568,5.588A6.581,6.581,0,0,0,377.063,577a6.688,6.688,0,0,0,2.958-1.575l5.662-5.516-.185-.18C383.528,571.658,381.513,573.63,380.054,575.052Z" transform="translate(-377.063 -558.979)" fill="#d6aa50"/>
        <path id="Path_69" data-name="Path 69" d="M407.594,551.851a.717.717,0,0,0-1.005,0,.707.707,0,0,0-.145.205c-.093.2-.639-.065-.639.2v1.364h1.379c.269,0,0-.541.2-.632a.7.7,0,0,0,.207-1.138Z" transform="translate(-389.578 -551.646)" fill="#d6aa50"/>
      </g>
      <path id="Path_70" data-name="Path 70" d="M382.517,555.92a2.955,2.955,0,0,0,1.08.688l10.1,10.134a6.576,6.576,0,0,1,1.593,2.925,6.693,6.693,0,0,1-2.958-1.575l-10.249-9.985a2.915,2.915,0,0,0-.695-1.068l.706-.421.426-.7ZM379.91,558a.342.342,0,0,1-.48,0,.334.334,0,0,1,0-.475.343.343,0,0,1,.377-.069l1-1.266-2.424-2.4h.851v-.842l2.424,2.4,1.281-.992a.331.331,0,0,1,.071-.373.342.342,0,0,1,.48,0,.333.333,0,0,1,0,.475.341.341,0,0,1-.34.083l-1.188,1.948-1.969,1.175a.331.331,0,0,1-.085.336Zm1.969-2.2v.6h-.608v-.6Zm-.816-.8-.6.6a.082.082,0,0,1-.113.011h0a.08.08,0,0,1,.012-.112l.6-.6a.082.082,0,0,1,.113-.011h0a.08.08,0,0,1-.011.112Zm.422.418-.3.3-.3.3a.082.082,0,0,1-.113.011h0a.08.08,0,0,1,.012-.112l.6-.6a.082.082,0,0,1,.113-.011h0a.08.08,0,0,1-.012.112Zm-1.69-1.671-.6.6a.082.082,0,0,1-.113.011h0a.08.08,0,0,1,.012-.112l.6-.6a.082.082,0,0,1,.113-.011h0a.08.08,0,0,1-.012.112Zm.422.418-.6.6a.083.083,0,0,1-.113.011h0a.08.08,0,0,1,.012-.112l.6-.6a.081.081,0,0,1,.113-.012h0a.08.08,0,0,1-.012.112Zm.422.418-.6.6a.082.082,0,0,1-.113.011h0a.08.08,0,0,1,.011-.112l.6-.6a.082.082,0,0,1,.113-.011h0a.08.08,0,0,1-.012.112Zm-1.58-2.329v1.364h-1.379c-.268,0,0-.541-.2-.632a.708.708,0,0,1-.207-.143.7.7,0,0,1,0-.994.716.716,0,0,1,1.005,0,.694.694,0,0,1,.144.2c.093.2.639-.065.639.2Zm14.321,15.526a3.105,3.105,0,0,0-.768-1.463c-2.279-2.28-6.871-7.147-9.225-9.511l.042.014c2.661,2.669,7.224,7.219,9.885,9.887a3.657,3.657,0,0,1,.918,1.917,3.741,3.741,0,0,1-1.938-.908c-2.7-2.631-7.3-7.144-10-9.775,0-.014-.008-.028-.014-.042,2.39,2.328,7.312,6.868,9.617,9.122a3.161,3.161,0,0,0,1.48.759Z" transform="translate(-332.243 -512.716)" fill="#d6aa50" fill-rule="evenodd"/>
      <path id="Path_71" data-name="Path 71" d="M396.42,528.563a10.516,10.516,0,0,1-6.615-5.235H374.83a10.516,10.516,0,0,1-6.615,5.235s-.386,12.5,3.449,19.358a22.084,22.084,0,0,0,3.64,5.01l.732-.735a21.4,21.4,0,0,1-3.441-4.717l-.015-.031-.017-.03c-3.128-5.594-3.335-15.339-3.328-18.085a11.625,11.625,0,0,0,6.2-4.974h13.754a11.624,11.624,0,0,0,6.2,4.974c0,1.117-.029,3.39-.279,6.071.2-.515.388-.952.527-1.266a1.084,1.084,0,0,1,.656-.6C396.484,530.626,396.42,528.563,396.42,528.563Z" transform="translate(-328.386 -500.385)" fill="#d6aa50"/>
      <path id="Path_72" data-name="Path 72" d="M414.839,502.6a.86.86,0,0,1-.215-.253c-.16-.314-.454-.307-.732-.31a4.141,4.141,0,0,0-.828.06c-.261.05-.586-.134-.757.177a5.782,5.782,0,0,0-.755-.427c-.247-.1-.517.122-.662.517l.7.123.006.055-.386.123-.027.084.67.318c-.162.3-.116.395.2.454.051.01.1.007.153.02.187.052.37.121.558.163a1.691,1.691,0,0,0,1.078.071c.285-.118.581-.21.869-.323A.468.468,0,0,0,414.839,502.6Z" transform="translate(-346.972 -491.021)" fill="#d6aa50"/>
      <path id="Path_73" data-name="Path 73" d="M372.078,487.123c.117-.02.241,0,.358-.016.079-.014.22-.081.216-.1-.04-.2.151-.176.235-.248s.159-.118.259-.191l-.231-.09.553-.43c-.6.047-.939.52-1.459.636a1.2,1.2,0,0,1,.259-.263,2.083,2.083,0,0,0,.212-.283c.038-.052.06-.133.111-.158.317-.158.639-.3.96-.455a7.805,7.805,0,0,0-2.349.662l.224.169-.391.209.2.023c-.152.187-.544.108-.517.505l-.346.238c.079.062.13.079.176.071C371.059,487.308,371.568,487.21,372.078,487.123Z" transform="translate(-329.33 -483.923)" fill="#d6aa50"/>
      <path id="Path_74" data-name="Path 74" d="M419.408,490.1c.432.273.85.569,1.274.855a.5.5,0,0,0,.079.033l.056-.075-1.1-.977.011-.017,1.2.716.058-.1c-.625-.471-1.359-.762-2.021-1.181l.5.147c-.33-.451-.513-.65-1.71-.913l.156.217h-.458l-.049.111c.428.268.852.543,1.286.8C418.92,489.865,419.18,489.96,419.408,490.1Z" transform="translate(-349.808 -485.261)" fill="#d6aa50"/>
      <path id="Path_75" data-name="Path 75" d="M376.1,486.867a1.58,1.58,0,0,1-.308.141l-.021-.054.111-.2-.059-.058-.881.679.175.1-.342.271.046.1.919-.225c-.1.087-.155.122-.2.167s-.112.111-.1.146a.236.236,0,0,0,.146.122.7.7,0,0,0,.74-.513l-.344-.048-.01-.069.72-.461C376.449,486.695,376.34,486.688,376.1,486.867Z" transform="translate(-331.246 -484.434)" fill="#d6aa50"/>
      <path id="Path_76" data-name="Path 76" d="M379.552,485.34l.862-.458.051.062-.431.327a.827.827,0,0,0,.828-.126.4.4,0,0,0,.077-.279c-.009-.052-.138-.082-.2-.117.007-.067.046-.192.015-.213a.334.334,0,0,0-.261-.05c-.3.113-.6.251-.9.382-.014.006-.021.023-.032.036l.212.166-.286.174Z" transform="translate(-333.298 -483.467)" fill="#d6aa50"/>
      <path id="Path_77" data-name="Path 77" d="M396.04,490.784a2.7,2.7,0,0,0,.545.243c.092.028.294-.013.3-.045a.569.569,0,0,0-.047-.383,8.565,8.565,0,0,0-.576-.664c.21-.168.206-.217-.1-.6l.474-.159-.171-.325a.577.577,0,0,0,.132-.042c.074-.048.143-.1.214-.158l-.181-.185c-.051-.053-.146-.1-.146-.157a1.027,1.027,0,0,0-.513-.86c-.086-.061-.121-.195-.2-.327.462-.025.426.528.8.558a1.391,1.391,0,0,1-.074-.274.671.671,0,0,0-.41-.6,1.732,1.732,0,0,1-.685-1,.885.885,0,0,1,.121-.9c.028-.032-.019-.18-.072-.224-.356-.294-.814-.273-1.258-.426.1.212-.055.334-.308.337.014-.094.063-.268.038-.279-.145-.064-.351-.17-.454-.114-.185.1-.239.04-.327-.1l.479-.022a.284.284,0,0,0-.157-.164c-.648-.2-1.3-.382-1.944-.595a5.111,5.111,0,0,0-1.673-.043.933.933,0,0,0-.231.066l.174.13-.359-.051.379.328-.9-.36-.046.077c.031.068.063.135.1.217a3.446,3.446,0,0,0-.707-.278,3.784,3.784,0,0,0-.777.032c.013-.081.045-.163.025-.179a1.2,1.2,0,0,0-.356-.238,6.163,6.163,0,0,0-1.058-.274,2.552,2.552,0,0,0-1.554.121c-.035.019-.109.036-.115.025-.1-.181-.225-.035-.335-.018a1.427,1.427,0,0,1-.264.058,1.088,1.088,0,0,0-1.1.519l.426.179a.767.767,0,0,1-.676-.209l.228-.253-.05-.084c-.191.061-.387.113-.574.186q-.615.239-1.221.5c-.059.026-.1.106-.143.16-.026.064-.119.062-.168.108-.14.128-.262.276-.391.416.142.052.284.1.427.156.032.011.08,0,.1.024.064.076.256.134.06.27a.218.218,0,0,0-.4-.056,1.128,1.128,0,0,1-.763.358c-.248.05-.5.066-.754.1l.034-.117c-.1-.071-.189-.2-.288-.2-.368-.017-.551.133-.575.435l.285.161-1,.688c.008.038.017.075.026.112a6.792,6.792,0,0,0,.749.2,10.082,10.082,0,0,0,1.052.093,1.671,1.671,0,0,0,1.212-.334c.148-.123.13-.234-.036-.316a.551.551,0,0,0-.243-.063c-.316,0-.632.022-.948.033a.559.559,0,0,1-.526-.194.757.757,0,0,1,.71-.148,2.656,2.656,0,0,0,.622.062c.259.028.545-.093.765.173.05.061.2.266.316.076.1-.167.251-.138.383-.193.16-.066.431-.032.356-.347,0-.015.026-.048.047-.056a4.26,4.26,0,0,1,.856-.325,2.609,2.609,0,0,0,1.247-.667.583.583,0,0,1,.318-.167,1.957,1.957,0,0,0,.627-.1,5.317,5.317,0,0,1,1.6-.426l.025-.011.013,0,.584-.22c.082.23-.04.282-.172.283a2.377,2.377,0,0,1-.413-.063l-.009,0-.029.005a1.082,1.082,0,0,1-.3.11.522.522,0,0,0-.431.292l.39.177a2.953,2.953,0,0,1-.623.3c-.3.059-.611.037-.915.075a5.628,5.628,0,0,0-.907.169c-.224.067-.235.212-.076.389.065.072.126.147.2.232l-.583.181c.076.119.153.185.159.257.02.259.134.4.4.408a2.723,2.723,0,0,0,.762-.011,1.788,1.788,0,0,1,1.177.269c.047.019.08.127.08.194,0,.232-.017.464-.021.7a4.725,4.725,0,0,0,0,.871c.037.218-.216.159-.22.331a.892.892,0,0,1-.16.4c-.111.184-.075.311.114.394.211.094.427.178.641.266a.94.94,0,0,1-.373,0,.457.457,0,0,0-.578.329.464.464,0,0,0,.081.548c.211.212.439.181.8.055.077-.027.1-.208.15-.327.152.056.176.2.133.365-.059.225-.28.41-.459.366a.509.509,0,0,0-.576.234c-.093.123-.2.238-.292.36a1.751,1.751,0,0,0-.3,1.628c.036.131.048.268.075.4a5.649,5.649,0,0,0,.129.667c.125-.584.269-1.366.381-2.054a1.03,1.03,0,0,1,1.015-.867h0a1.031,1.031,0,0,1,1.016.862,25.983,25.983,0,0,0,.595,2.85,2.406,2.406,0,0,1,.246.624c.054-.005.107-.008.16-.008a1.455,1.455,0,0,1,.287.032c.148-.207.314-.4.452-.615a4.532,4.532,0,0,1,.484-.489.83.83,0,0,0,.213-.347.949.949,0,0,1,.816-.756,5.475,5.475,0,0,0,.941-.134,2.134,2.134,0,0,0,1.288-.744,1.136,1.136,0,0,1,.827-.432c.384-.043.769-.09,1.155-.113a4.2,4.2,0,0,0,1.792-.681,1.536,1.536,0,0,1,.221-.084l-.08-.138c-.21-.059-.42-.12-.63-.177-.234-.064-.383-.18-.285-.485A1.658,1.658,0,0,0,396.04,490.784Z" transform="translate(-332.336 -482.69)" fill="#d6aa50"/>
      <path id="Path_78" data-name="Path 78" d="M423.517,514.316a.417.417,0,0,1-.025.589.315.315,0,0,0,.071.509.627.627,0,0,0,.653.111c.152-.061.3-.123.46-.17.517-.155.6-.3.514-.846a2.269,2.269,0,0,1,.06-.457,1.077,1.077,0,0,0-.03-.338,1.157,1.157,0,0,0-.165-.254.992.992,0,0,1,.187.054,4.879,4.879,0,0,0,.507.318.829.829,0,0,1,.437.512c.058.158-.014.222-.174.224-.329,0-.4.116-.215.393.105.161.082.252-.069.361-.194.14-.177.247.043.351.125.059.257.1.381.151-.178.208-.338.386-.488.572-.1.127-.047.232.1.225a5.535,5.535,0,0,0,.71-.1c.18-.032.356-.1.538-.115.29-.029.585-.015.874-.046s.384-.194.316-.473a.889.889,0,0,1-.007-.3c.045-.373-.01-.47-.331-.673a1.6,1.6,0,0,1-.353-.33c-.371-.446-.714-.916-1.106-1.342a.718.718,0,0,1-.269-.644c.028-.175.015-.413-.2-.448a.452.452,0,0,1-.436-.585c0-.031-.007-.083-.028-.095-.066-.036-.163-.1-.206-.076-.255.139-.5.3-.762.465-.019-.029-.046-.126-.1-.148-.087-.033-.231-.058-.285-.01a.415.415,0,0,0,.152.649.559.559,0,0,1,.274.232c.123.247.209.512.318.788-.179-.023-.338-.046-.5-.062a.336.336,0,0,0-.4.24.313.313,0,0,1-.189.165C423.4,513.81,423.3,514.01,423.517,514.316Z" transform="translate(-352.417 -495.184)" fill="#d6aa50"/>
      <path id="Path_79" data-name="Path 79" d="M438.839,514.426c-.023-.141-.039-.284-.075-.422-.011-.043-.076-.072-.116-.108-.039.049-.119.11-.109.143a4.118,4.118,0,0,0,.176.427Z" transform="translate(-359.012 -496.278)" fill="#d6aa50"/>
      <g id="Group_6" data-name="Group 6" transform="translate(20.522 55.695)">
        <path id="Path_80" data-name="Path 80" d="M335.47,581.584l.272-.232-.011.9-.033-.013a1.069,1.069,0,0,0-.293-.608.761.761,0,0,0-.55-.251.683.683,0,0,0-.372.094.386.386,0,0,0-.2.347.424.424,0,0,0,.205.365,1.8,1.8,0,0,0,.565.216,2.22,2.22,0,0,1,.66.243.711.711,0,0,1,.247.619.778.778,0,0,1-.272.627.807.807,0,0,1-.542.183,1.137,1.137,0,0,1-.434-.084.8.8,0,0,1-.329-.264c-.167.215-.255.327-.264.335l.014-1.137.033,0a2.773,2.773,0,0,0,.17.571,1.083,1.083,0,0,0,.19.3.822.822,0,0,0,.632.242.555.555,0,0,0,.356-.123.456.456,0,0,0,.19-.369.484.484,0,0,0-.245-.431,2.557,2.557,0,0,0-.6-.231,1.957,1.957,0,0,1-.6-.247.637.637,0,0,1-.24-.544.723.723,0,0,1,.232-.536.736.736,0,0,1,.537-.214,1.039,1.039,0,0,1,.433.084A2.379,2.379,0,0,1,335.47,581.584Z" transform="translate(-334.026 -581.341)" fill="#fff"/>
        <path id="Path_81" data-name="Path 81" d="M339.037,582.853l-.119,1.1a.484.484,0,0,0,0,.145c.006.02.03.04.072.06a.531.531,0,0,0,.149.043c.057.009.159.021.305.037a.886.886,0,0,0,.736-.2,1.615,1.615,0,0,0,.4-.858l.054.006-.132,1.218-2.663-.29,0-.041a1.667,1.667,0,0,0,.488.007.11.11,0,0,0,.06-.037.408.408,0,0,0,.029-.141l.228-2.1a.407.407,0,0,0,0-.15c0-.012-.021-.025-.05-.039a1.038,1.038,0,0,0-.181-.053,2.626,2.626,0,0,0-.3-.049l0-.037,2.529.274-.112,1.024-.053-.006a1.236,1.236,0,0,0-.094-.622.663.663,0,0,0-.559-.448l-.313-.032a1.008,1.008,0,0,0-.283.009.1.1,0,0,0-.056.038.4.4,0,0,0-.03.144l-.1.961a.981.981,0,0,0,.535-.029,1.188,1.188,0,0,0,.292-.681l.049.005-.175,1.614-.049-.005a1.2,1.2,0,0,0-.137-.715A.964.964,0,0,0,339.037,582.853Z" transform="translate(-335.683 -581.396)" fill="#fff"/>
        <path id="Path_82" data-name="Path 82" d="M345.32,584.07a1.341,1.341,0,0,1-.363.823.814.814,0,0,1-.7.164,1.21,1.21,0,0,1-.771-.424,1.281,1.281,0,0,1-.238-1.069,1.44,1.44,0,0,1,.571-.981,1.049,1.049,0,0,1,.8-.231.767.767,0,0,1,.323.122.949.949,0,0,1,.288.347l.261-.351.021,0-.189,1.181-.029-.027a1.209,1.209,0,0,0-.156-.885.7.7,0,0,0-.464-.344.532.532,0,0,0-.562.246,2.423,2.423,0,0,0-.313.961,2.272,2.272,0,0,0,.011,1,.55.55,0,0,0,.458.413.777.777,0,0,0,.632-.133,1.261,1.261,0,0,0,.387-.823Z" transform="translate(-338.032 -581.776)" fill="#fff"/>
        <path id="Path_83" data-name="Path 83" d="M349.685,584.924a.767.767,0,0,1-.423.617.822.822,0,0,1-.492.084,1.454,1.454,0,0,1-.741-.309.666.666,0,0,1-.254-.639l.246-1.621a.417.417,0,0,0,.006-.149c0-.012-.019-.025-.044-.04a1.42,1.42,0,0,0-.441-.117l.006-.037,1.568.238-.005.037a3.072,3.072,0,0,0-.305-.033.7.7,0,0,0-.174.006.123.123,0,0,0-.067.028.367.367,0,0,0-.043.143l-.233,1.537a1.065,1.065,0,0,0,.034.6.606.606,0,0,0,.5.292.684.684,0,0,0,.435-.088.719.719,0,0,0,.373-.561l.161-1.063a.966.966,0,0,0-.042-.6.525.525,0,0,0-.4-.226l.006-.036,1.1.165-.006.037a.441.441,0,0,0-.433.109.86.86,0,0,0-.135.4Z" transform="translate(-339.911 -581.938)" fill="#fff"/>
        <path id="Path_84" data-name="Path 84" d="M354.921,585.936l-.019.134a.859.859,0,0,1-.093.329.293.293,0,0,1-.313.114.367.367,0,0,1-.343-.265,1.928,1.928,0,0,1,.019-.664l.012-.086c0-.027.009-.055.016-.085a.348.348,0,0,0-.06-.305.483.483,0,0,0-.282-.117l-.479-.068-.156,1.1a.505.505,0,0,0-.007.158.1.1,0,0,0,.054.059.661.661,0,0,0,.189.05c.1.017.2.032.3.048l0,.036-1.661-.236.006-.041a2.226,2.226,0,0,0,.519.041.11.11,0,0,0,.064-.039.417.417,0,0,0,.037-.148l.3-2.1a.37.37,0,0,0,0-.146c0-.012-.02-.025-.048-.04a1.821,1.821,0,0,0-.512-.119l.006-.037,1.669.238a1.012,1.012,0,0,1,.668.336.541.541,0,0,1,.153.418.511.511,0,0,1-.22.365,1.094,1.094,0,0,1-.656.145.718.718,0,0,1,.506.566,1.96,1.96,0,0,1-.016.613.524.524,0,0,0,0,.174c.009.037.04.06.092.067s.1-.032.139-.12a1.678,1.678,0,0,0,.086-.372Zm-1.536-1.059.378.054a.712.712,0,0,0,.454-.049.528.528,0,0,0,.234-.419.69.69,0,0,0-.071-.507.642.642,0,0,0-.445-.208l-.2-.028a.456.456,0,0,0-.128-.005.069.069,0,0,0-.058.044.762.762,0,0,0-.033.156Z" transform="translate(-341.894 -582.282)" fill="#fff"/>
        <path id="Path_85" data-name="Path 85" d="M358.858,586.246l-.788-.1-.173.345a.714.714,0,0,0-.079.227.232.232,0,0,0,.086.233.659.659,0,0,0,.314.108l-.005.041-1.039-.135.006-.041a.514.514,0,0,0,.465-.155,2.32,2.32,0,0,0,.285-.463l.942-1.834.082.011.57,2.514a.364.364,0,0,0,.1.214,1.24,1.24,0,0,0,.364.079l-.006.041-1.509-.2.006-.041a2.688,2.688,0,0,0,.424.032c.078-.006.12-.031.126-.077l0-.042Zm-.015-.047-.238-1.09-.509.992Z" transform="translate(-344.105 -582.703)" fill="#fff"/>
        <path id="Path_86" data-name="Path 86" d="M365.7,587.856a.953.953,0,0,0,.789-.219,1.379,1.379,0,0,0,.362-.886l.053.006-.139,1.266-2.679-.3,0-.041c.12.013.224.021.309.022a.8.8,0,0,0,.177-.012.111.111,0,0,0,.067-.038.425.425,0,0,0,.03-.14l.231-2.1a.394.394,0,0,0,0-.15c0-.011-.021-.025-.052-.039a1.054,1.054,0,0,0-.181-.054,2.634,2.634,0,0,0-.3-.05l0-.037,1.683.186,0,.037q-.229-.025-.36-.027a.764.764,0,0,0-.186.012.12.12,0,0,0-.066.031.358.358,0,0,0-.036.146l-.232,2.1a.435.435,0,0,0,0,.154c0,.011.019.024.045.038A1.956,1.956,0,0,0,365.7,587.856Z" transform="translate(-347.116 -582.971)" fill="#fff"/>
        <path id="Path_87" data-name="Path 87" d="M370.417,585.987l-.2,2.116a.41.41,0,0,0,0,.154c0,.011.02.024.046.037a1.657,1.657,0,0,0,.484.092l0,.041-1.617-.155,0-.041c.117.011.22.016.307.016a.753.753,0,0,0,.18-.014.115.115,0,0,0,.065-.038.412.412,0,0,0,.028-.141l.2-2.116a.376.376,0,0,0,0-.146c0-.011-.021-.024-.05-.037a1.628,1.628,0,0,0-.484-.093l0-.037,1.621.156,0,.037c-.118-.011-.22-.016-.307-.016a.761.761,0,0,0-.186.015l-.042.012C370.44,585.844,370.426,585.9,370.417,585.987Z" transform="translate(-349.309 -583.206)" fill="#fff"/>
        <path id="Path_88" data-name="Path 88" d="M374.121,588.724l-1.915-.153,0-.041a2.21,2.21,0,0,0,.521.008.107.107,0,0,0,.061-.043.394.394,0,0,0,.029-.149l.169-2.115a.412.412,0,0,0,0-.149c-.005-.012-.021-.024-.051-.037a1.846,1.846,0,0,0-.518-.087l0-.037,1.68.134a1.013,1.013,0,0,1,.688.3.531.531,0,0,1,.178.406.491.491,0,0,1-.156.36,1.162,1.162,0,0,1-.654.188,1.24,1.24,0,0,1,.7.341.618.618,0,0,1,.151.48.592.592,0,0,1-.248.414A.861.861,0,0,1,374.121,588.724Zm-.22-1.419-.487-.039-.09,1.12a.5.5,0,0,0,0,.159.1.1,0,0,0,.058.056.388.388,0,0,0,.121.033q.076.011.357.033a.532.532,0,0,0,.451-.142.69.69,0,0,0,.168-.439.812.812,0,0,0-.111-.54A.591.591,0,0,0,373.9,587.305Zm-.484-.077.381.031a.714.714,0,0,0,.451-.077.523.523,0,0,0,.208-.429.687.687,0,0,0-.1-.5.651.651,0,0,0-.459-.178l-.2-.016a.447.447,0,0,0-.128,0,.07.07,0,0,0-.055.05.848.848,0,0,0-.023.16Z" transform="translate(-350.651 -583.335)" fill="#fff"/>
        <path id="Path_89" data-name="Path 89" d="M378.607,587.669l-.064,1.1a.482.482,0,0,0,0,.145c.007.019.032.038.075.056a.576.576,0,0,0,.15.036q.086.008.308.021a.885.885,0,0,0,.724-.238,1.617,1.617,0,0,0,.353-.877l.054,0-.071,1.222-2.675-.155,0-.041a1.657,1.657,0,0,0,.488-.018.1.1,0,0,0,.058-.04.385.385,0,0,0,.023-.142l.122-2.114a.385.385,0,0,0-.008-.15c0-.011-.022-.023-.052-.036a.964.964,0,0,0-.183-.044,2.579,2.579,0,0,0-.3-.034l0-.037,2.539.147-.06,1.029-.054,0a1.239,1.239,0,0,0-.125-.617.663.663,0,0,0-.581-.419c-.1-.006-.208-.012-.314-.016a1.013,1.013,0,0,0-.283.024.1.1,0,0,0-.054.04.435.435,0,0,0-.023.146l-.056.965a.976.976,0,0,0,.534-.056,1.184,1.184,0,0,0,.257-.695l.049,0-.093,1.621-.05,0a1.185,1.185,0,0,0-.172-.707A.961.961,0,0,0,378.607,587.669Z" transform="translate(-352.941 -583.514)" fill="#fff"/>
        <path id="Path_90" data-name="Path 90" d="M385.361,588.775l0,.136a.877.877,0,0,1-.056.336.3.3,0,0,1-.3.147.369.369,0,0,1-.37-.227,1.934,1.934,0,0,1-.053-.662l0-.086q0-.041.007-.086a.349.349,0,0,0-.093-.3.49.49,0,0,0-.292-.086l-.484-.016-.037,1.108a.509.509,0,0,0,.01.158.1.1,0,0,0,.059.054.74.74,0,0,0,.194.029c.1.006.2.011.307.015l0,.037-1.676-.056v-.041a2.176,2.176,0,0,0,.52-.016.106.106,0,0,0,.06-.045.422.422,0,0,0,.021-.151l.071-2.124a.4.4,0,0,0-.011-.145c-.006-.012-.023-.023-.052-.035a1.853,1.853,0,0,0-.522-.063l0-.037,1.685.057a1.012,1.012,0,0,1,.7.262.537.537,0,0,1,.2.4.51.51,0,0,1-.178.387,1.1,1.1,0,0,1-.636.214.718.718,0,0,1,.563.509,1.94,1.94,0,0,1,.05.611.515.515,0,0,0,.015.173c.013.036.045.055.1.057s.1-.043.125-.134a1.7,1.7,0,0,0,.046-.379Zm-1.64-.888.382.012a.719.719,0,0,0,.447-.1.533.533,0,0,0,.187-.442.69.69,0,0,0-.125-.5.644.644,0,0,0-.465-.159l-.2-.007a.435.435,0,0,0-.128.009.069.069,0,0,0-.053.05.781.781,0,0,0-.015.159Z" transform="translate(-355.165 -583.639)" fill="#fff"/>
        <path id="Path_91" data-name="Path 91" d="M390.174,586.8l-.01,1.175h-.058a1.964,1.964,0,0,0-.293-.929.6.6,0,0,0-.5-.215.224.224,0,0,0-.091.007c-.011.008-.016.043-.018.107l-.019,2.232a.428.428,0,0,0,.015.153.107.107,0,0,0,.057.036.8.8,0,0,0,.19.032c.094.01.22.014.379.016v.041l-1.793-.015V589.4c.156,0,.282,0,.375-.01a.837.837,0,0,0,.19-.029.112.112,0,0,0,.064-.045.387.387,0,0,0,.016-.142l.019-2.228c0-.072-.007-.111-.024-.116a.464.464,0,0,0-.086-.005.6.6,0,0,0-.492.2,2.031,2.031,0,0,0-.317.92h-.058l.01-1.167Z" transform="translate(-357.408 -583.709)" fill="#fff"/>
        <path id="Path_92" data-name="Path 92" d="M393.8,588.506l-.794,0-.128.364a.7.7,0,0,0-.05.235.233.233,0,0,0,.115.22.661.661,0,0,0,.325.067v.041l-1.046,0v-.041a.514.514,0,0,0,.441-.213,2.3,2.3,0,0,0,.224-.5l.7-1.939h.082l.884,2.421c.041.113.082.18.124.2a1.188,1.188,0,0,0,.371.032v.042l-1.522,0v-.041a2.524,2.524,0,0,0,.424-.022c.077-.015.116-.046.116-.093l-.008-.042Zm-.021-.046-.374-1.051-.379,1.048Z" transform="translate(-359.367 -583.692)" fill="#fff"/>
        <path id="Path_93" data-name="Path 93" d="M399.691,586.738l.021,1.174-.058,0a1.977,1.977,0,0,0-.317-.921.6.6,0,0,0-.5-.2.245.245,0,0,0-.091.01c-.011.008-.015.045-.014.108l.04,2.233a.431.431,0,0,0,.019.153c.006.011.025.022.058.033a.814.814,0,0,0,.19.028q.14.009.379.006v.041l-1.793.032v-.041c.157,0,.282-.01.375-.02a.841.841,0,0,0,.189-.034.113.113,0,0,0,.063-.047.373.373,0,0,0,.011-.142l-.039-2.229c0-.072-.01-.11-.027-.115a.478.478,0,0,0-.087,0,.6.6,0,0,0-.486.215,2.038,2.038,0,0,0-.293.928h-.058l-.021-1.166Z" transform="translate(-361.556 -583.691)" fill="#fff"/>
        <path id="Path_94" data-name="Path 94" d="M402.745,587.883l.047,1.1a.506.506,0,0,0,.018.145.127.127,0,0,0,.08.048.524.524,0,0,0,.153.02c.058,0,.16,0,.308-.008a.885.885,0,0,0,.7-.309,1.61,1.61,0,0,0,.264-.907l.054,0,.053,1.223-2.677.114,0-.042a1.657,1.657,0,0,0,.484-.065.105.105,0,0,0,.054-.046.407.407,0,0,0,.008-.144l-.09-2.115a.39.39,0,0,0-.023-.148.1.1,0,0,0-.055-.031.978.978,0,0,0-.186-.025,2.5,2.5,0,0,0-.3,0l0-.038,2.541-.107.043,1.029-.054,0a1.237,1.237,0,0,0-.186-.6.663.663,0,0,0-.62-.359c-.1,0-.208.01-.314.015a1.008,1.008,0,0,0-.28.051.1.1,0,0,0-.05.046.418.418,0,0,0-.008.148l.041.966a.97.97,0,0,0,.525-.109,1.19,1.19,0,0,0,.187-.718l.05,0,.068,1.622-.049,0a1.188,1.188,0,0,0-.243-.686A.957.957,0,0,0,402.745,587.883Z" transform="translate(-363.462 -583.607)" fill="#fff"/>
        <path id="Path_95" data-name="Path 95" d="M409.723,587.678l.069.928a.427.427,0,0,0,.028.152c.006.011.026.021.06.031a.881.881,0,0,0,.2.016c.1,0,.229,0,.4-.016l0,.041-1.776.132,0-.041c.139-.011.255-.024.346-.038a.824.824,0,0,0,.185-.045.114.114,0,0,0,.055-.039.432.432,0,0,0,.005-.154l-.157-2.119a.409.409,0,0,0-.027-.143.1.1,0,0,0-.052-.029,1.979,1.979,0,0,0-.546-.006l0-.037,1.595-.118a1.21,1.21,0,0,1,.789.169.684.684,0,0,1,.309.539.581.581,0,0,1-.174.443.972.972,0,0,1-.673.29Zm0-.037.417-.031a.574.574,0,0,0,.466-.213,1.044,1.044,0,0,0-.113-1.016.583.583,0,0,0-.484-.147l-.2.015a.448.448,0,0,0-.127.022.07.07,0,0,0-.047.055.7.7,0,0,0,0,.16Z" transform="translate(-366.455 -583.451)" fill="#fff"/>
        <path id="Path_96" data-name="Path 96" d="M414.383,587.041l.1,1.1a.5.5,0,0,0,.026.143.127.127,0,0,0,.082.043.553.553,0,0,0,.155.013c.057,0,.16-.011.307-.025a.888.888,0,0,0,.68-.345,1.608,1.608,0,0,0,.216-.92l.054-.006.115,1.219-2.668.252,0-.041a1.637,1.637,0,0,0,.48-.09.1.1,0,0,0,.051-.049.417.417,0,0,0,0-.143l-.2-2.108a.386.386,0,0,0-.03-.147.1.1,0,0,0-.056-.027.985.985,0,0,0-.187-.016,2.508,2.508,0,0,0-.3.012l0-.037,2.532-.239.1,1.026-.053.006a1.24,1.24,0,0,0-.217-.591.662.662,0,0,0-.637-.326l-.313.032a.969.969,0,0,0-.277.066.1.1,0,0,0-.047.047.437.437,0,0,0,0,.148l.091.963a.984.984,0,0,0,.518-.135,1.191,1.191,0,0,0,.15-.727l.049-.005.153,1.617-.05,0a1.182,1.182,0,0,0-.278-.674A.981.981,0,0,0,414.383,587.041Z" transform="translate(-368.503 -583.209)" fill="#fff"/>
        <path id="Path_97" data-name="Path 97" d="M421.209,587.167l.015.135a.864.864,0,0,1-.007.341.292.292,0,0,1-.275.189.367.367,0,0,1-.4-.171,1.936,1.936,0,0,1-.148-.646l-.01-.086a.841.841,0,0,1-.005-.087.354.354,0,0,0-.135-.282.493.493,0,0,0-.3-.042l-.481.054.124,1.1a.487.487,0,0,0,.032.154.1.1,0,0,0,.067.044.689.689,0,0,0,.2,0c.1-.008.2-.019.305-.031l0,.037-1.667.187,0-.041a2.215,2.215,0,0,0,.513-.091.108.108,0,0,0,.052-.054.4.4,0,0,0,0-.152l-.237-2.111a.37.37,0,0,0-.033-.142.1.1,0,0,0-.057-.027,1.868,1.868,0,0,0-.525.014l0-.037,1.675-.189a1.014,1.014,0,0,1,.731.159.537.537,0,0,1,.253.366.507.507,0,0,1-.121.409,1.093,1.093,0,0,1-.6.3.717.717,0,0,1,.632.422,1.94,1.94,0,0,1,.138.6.544.544,0,0,0,.041.169.094.094,0,0,0,.1.042c.058-.006.093-.057.106-.151a1.738,1.738,0,0,0-.01-.382Zm-1.752-.641.379-.042a.719.719,0,0,0,.428-.161.532.532,0,0,0,.121-.465.687.687,0,0,0-.2-.473.648.648,0,0,0-.483-.09l-.2.023a.461.461,0,0,0-.125.026.071.071,0,0,0-.045.057.782.782,0,0,0,.008.16Z" transform="translate(-370.69 -583.033)" fill="#fff"/>
        <path id="Path_98" data-name="Path 98" d="M426.166,584.281l.944,1.811.318-1.981,1.132-.152,0,.037a1.558,1.558,0,0,0-.483.115c-.026.015-.041.028-.045.039a.343.343,0,0,0,0,.15l.282,2.1a.415.415,0,0,0,.037.15.114.114,0,0,0,.064.027.814.814,0,0,0,.182.006,2.961,2.961,0,0,0,.308-.029l.005.041-1.576.212-.006-.041a2.712,2.712,0,0,0,.27-.049.724.724,0,0,0,.168-.053c.029-.016.046-.03.05-.042a.428.428,0,0,0,0-.154l-.3-2.225c-.006-.046-.015-.069-.025-.067s-.02.023-.028.065l-.41,2.6-.09.011-1.217-2.385-.041-.057c-.008,0-.01.025,0,.071l.229,1.712a1.027,1.027,0,0,0,.2.583.576.576,0,0,0,.475.083l.006.041-1.156.155-.006-.041a.494.494,0,0,0,.385-.2.82.82,0,0,0,.051-.516l-.17-1.266a.857.857,0,0,0-.177-.487.507.507,0,0,0-.433-.086l-.005-.041Z" transform="translate(-373.682 -582.481)" fill="#fff"/>
        <path id="Path_99" data-name="Path 99" d="M434.138,584.714a1.352,1.352,0,0,1-.258,1.054,1.166,1.166,0,0,1-1.653.258,1.35,1.35,0,0,1-.552-.953,1.334,1.334,0,0,1,.26-1.05,1.171,1.171,0,0,1,.775-.475,1.184,1.184,0,0,1,.878.217A1.336,1.336,0,0,1,434.138,584.714Zm-.542.081a2.205,2.205,0,0,0-.316-.952.572.572,0,0,0-1.033.151,2.21,2.21,0,0,0-.03,1,2.239,2.239,0,0,0,.316.95.556.556,0,0,0,.564.265.562.562,0,0,0,.465-.415A2.181,2.181,0,0,0,433.6,584.795Z" transform="translate(-376.538 -582.296)" fill="#fff"/>
        <path id="Path_100" data-name="Path 100" d="M438.387,582.6l.178,1.161-.057.008a1.974,1.974,0,0,0-.438-.87.6.6,0,0,0-.524-.133.23.23,0,0,0-.089.022c-.01.01-.01.046,0,.108l.338,2.207a.427.427,0,0,0,.04.149.112.112,0,0,0,.062.026.877.877,0,0,0,.192,0c.094-.005.22-.02.377-.045l.006.041-1.773.272-.006-.041q.232-.036.369-.069a.848.848,0,0,0,.182-.059.114.114,0,0,0,.056-.055.385.385,0,0,0-.007-.143l-.338-2.2c-.011-.071-.024-.108-.042-.111a.523.523,0,0,0-.086.009.6.6,0,0,0-.454.279,2.028,2.028,0,0,0-.165.959l-.057.008-.177-1.153Z" transform="translate(-378.418 -581.889)" fill="#fff"/>
        <path id="Path_101" data-name="Path 101" d="M443.182,583.855a.767.767,0,0,1-.254.7.818.818,0,0,1-.455.206,1.46,1.46,0,0,1-.8-.112.667.667,0,0,1-.405-.555l-.17-1.63a.417.417,0,0,0-.032-.146.1.1,0,0,0-.053-.028,1.458,1.458,0,0,0-.456,0l0-.037,1.578-.164,0,.037c-.125.013-.227.028-.3.045a.733.733,0,0,0-.167.05c-.034.017-.053.032-.058.043a.345.345,0,0,0,0,.15l.16,1.546a1.069,1.069,0,0,0,.184.573.606.606,0,0,0,.555.158.681.681,0,0,0,.4-.2.716.716,0,0,0,.219-.636l-.111-1.07a.962.962,0,0,0-.192-.57.526.526,0,0,0-.447-.117l0-.037,1.1-.115,0,.037a.44.44,0,0,0-.392.216.855.855,0,0,0-.03.422Z" transform="translate(-380.414 -581.606)" fill="#fff"/>
        <path id="Path_102" data-name="Path 102" d="M447.189,581.839l.729,1.908.545-1.931,1.142-.02v.037a1.524,1.524,0,0,0-.493.059.094.094,0,0,0-.049.033.363.363,0,0,0-.018.15l.038,2.116a.411.411,0,0,0,.019.153c.006.011.025.022.06.033a.8.8,0,0,0,.18.028c.085.007.189.009.309.007v.041l-1.59.029v-.041c.1,0,.19-.008.274-.017a.812.812,0,0,0,.172-.034c.032-.013.05-.025.055-.036a.409.409,0,0,0,.014-.153l-.044-2.246c0-.047-.007-.07-.017-.07s-.023.021-.036.062l-.707,2.54-.09,0-.933-2.511-.034-.061c-.008,0-.011.023-.011.07l.031,1.727a1.025,1.025,0,0,0,.132.6.578.578,0,0,0,.462.138v.041l-1.166.021v-.041a.5.5,0,0,0,.4-.156.816.816,0,0,0,.111-.506l-.023-1.278a.85.85,0,0,0-.12-.5.5.5,0,0,0-.418-.135v-.042Z" transform="translate(-382.833 -581.539)" fill="#fff"/>
      </g>
    </g>
  </g>
</svg>
