<?xml version="1.0" encoding="utf-8"?>
<!-- Generator: Adobe Illustrator 26.3.1, SVG Export Plug-In . SVG Version: 6.00 Build 0)  -->
<svg version="1.1" xmlns="http://www.w3.org/2000/svg" xmlns:xlink="http://www.w3.org/1999/xlink" x="0px" y="0px"
	 viewBox="0 0 214 195.8" style="enable-background:new 0 0 214 195.8;" xml:space="preserve">
<style type="text/css">
	.st0{fill:#D6AA51;}
	.st1{fill-rule:evenodd;clip-rule:evenodd;fill:#D6AA51;}
	.st2{fill:#FFFFFF;}
</style>
<g id="background">
</g>
<g id="texture">
	<path id="Path_1792" class="st0" d="M24.1,195.8h-0.8v-8.3h0.8V195.8z"/>
	<path id="Path_1793" class="st0" d="M39.7,195.8h-0.8l-4.9-7.1v7.1h-0.8v-8.3h0.8l4.9,7.1l-0.1-7.1h0.8V195.8z"/>
	<path id="Path_1794" class="st0" d="M51,195.8h-0.8v-7.6h-2.6v-0.7h6v0.7H51L51,195.8z"/>
	<path id="Path_1795" class="st0" d="M67.2,195.8h-5.7v-8.3h5.4v0.7h-4.6v2.9h4.2v0.7h-4.2v3.2h4.9L67.2,195.8z"/>
	<path id="Path_1796" class="st0" d="M82.2,195.8h-1l-2.6-3.7h-1.9v3.7h-0.8v-8.3h2.3c0.8-0.1,1.6,0,2.3,0.2
		c0.9,0.3,1.5,1.2,1.5,2.2c0,0.6-0.2,1.2-0.6,1.6c-0.5,0.4-1.2,0.7-1.8,0.6L82.2,195.8z M76.7,191.5h1.9c0.5,0,0.9,0,1.4-0.1
		c0.7-0.1,1.3-0.8,1.2-1.5c0.1-0.8-0.5-1.4-1.2-1.6c-0.5-0.1-0.9-0.1-1.4-0.1h-1.9L76.7,191.5z"/>
	<path id="Path_1797" class="st0" d="M97.1,195.8h-0.8l-4.9-7.1v7.1h-0.8v-8.3h0.8l4.9,7.1l-0.1-7.1h0.8V195.8z"/>
	<path id="Path_1798" class="st0" d="M112.3,195.8h-0.9l-0.9-2.5h-3.7l-0.9,2.5H105l3.4-8.3h0.7L112.3,195.8z M110.3,192.7l-1.6-4.2
		l-1.6,4.2H110.3z"/>
	<path id="Path_1799" class="st0" d="M121.6,195.8h-0.8v-7.6h-2.6v-0.7h6v0.7h-2.6V195.8z"/>
	<path id="Path_1800" class="st0" d="M132.9,195.8h-0.8v-8.3h0.8V195.8z"/>
	<path id="Path_1801" class="st0" d="M147.5,195c-1.3,1.4-3.5,1.4-4.8,0.2c-0.1-0.1-0.1-0.1-0.2-0.2c-0.7-0.9-1.1-2.1-1-3.2
		c0-2.3,1.1-4.3,3.6-4.3c2.7,0,3.5,2.4,3.5,4.3C148.6,192.8,148.2,194,147.5,195z M145,188c-2.1,0-2.8,2.1-2.8,3.7
		c0,1.5,0.6,3.6,2.7,3.6c2.6,0,2.7-3,2.7-3.7C147.7,190.1,147.1,188,145,188L145,188z"/>
	<path id="Path_1802" class="st0" d="M163.5,195.8h-0.8l-4.9-7.1v7.1h-0.8v-8.3h0.8l4.9,7.1l-0.1-7.1h0.8V195.8z"/>
	<path id="Path_1803" class="st0" d="M178.7,195.8h-0.9l-0.9-2.5h-3.7l-0.9,2.5h-0.9l3.4-8.3h0.7L178.7,195.8z M176.7,192.7
		l-1.6-4.2l-1.6,4.2H176.7z"/>
	<path id="Path_1804" class="st0" d="M191.9,195.8h-5.4v-8.3h0.8v7.6h4.6L191.9,195.8z"/>
	<path id="Path_1805" class="st0" d="M20.5,158.6c1.3,2.6,2.5,5.2,3.9,7.7h0.1c1.5-2.6,2.9-5.6,4.3-8.4l5.3-10.7
		c2.6-5.1,4.2-8.2,4.3-10.8c1.9,0.2,3.1,0.2,4.2,0.2c1.4,0,3.3-0.1,5-0.2c0.3,0.4,0.3,1,0.1,1.4l-1.2,0.1c-3.5,0.4-4,1.4-3.9,5.3
		c0.1,6,0.2,16.4,0.6,24.4c0.2,2.8,0.1,4.3,2.8,4.5l1.8,0.2c0.3,0.4,0.3,1-0.1,1.4c-2.3-0.1-4.6-0.2-6.6-0.2c-2,0-4.5,0.1-6.8,0.2
		c-0.4-0.4-0.4-1-0.1-1.4l1.6-0.2c2.8-0.3,2.8-1.2,2.8-4.8L38.2,144h-0.1c-0.4,0.6-2.5,5.1-3.7,7.3l-5,9.8
		c-2.5,4.9-5.1,10.2-6.1,12.8c-0.1,0.2-0.3,0.2-0.6,0.2c-0.2,0-0.4-0.1-0.5-0.2c-1-3-3.7-8.5-4.9-11.2l-5.1-10.9
		c-1.2-2.6-2.4-5.5-3.6-8.1H8.6c-0.2,3.5-0.4,6.7-0.6,10c-0.2,3.4-0.4,8.4-0.4,13.2c0,4.2,0.3,5.1,2.5,5.2l2.1,0.2
		c0.4,0.3,0.3,1.2-0.1,1.4c-1.9-0.1-4.1-0.2-6.2-0.2c-1.8,0-3.8,0.1-5.7,0.2c-0.4-0.4-0.4-1-0.1-1.4l1.2-0.2
		c2.4-0.3,3.1-0.7,3.5-4.6c0.3-3.7,0.6-6.8,1-12.4c0.3-4.7,0.5-9.4,0.6-12.5c0.1-3.5-0.3-4.3-3.8-4.8l-0.9-0.1
		c-0.3-0.5-0.2-1.1,0.2-1.4c1.7,0.1,3,0.2,4.4,0.2c1.3,0,2.8,0,4.7-0.2c-0.2,2.2,1.2,5.7,2.9,9.3L20.5,158.6z"/>
	<path id="Path_1806" class="st0" d="M52.5,155.4c0-11.2,8.4-19.8,20-19.8c13,0,19.5,9.4,19.5,19.3c0.2,10.6-8.2,19.4-18.8,19.6
		c-0.2,0-0.5,0-0.7,0C60,174.5,52.5,165.5,52.5,155.4z M86.3,156.6c0-9.3-4.1-19.3-14.8-19.3c-5.8,0-13.4,4-13.4,16.3
		c0,8.3,4,19.1,15.1,19.1C79.9,172.7,86.3,167.7,86.3,156.6L86.3,156.6z"/>
	<path id="Path_1807" class="st0" d="M101.7,143.8c0-4.2-0.2-5.2-2.8-5.5l-1.8-0.2c-0.4-0.3-0.4-0.9-0.1-1.3c0-0.1,0.1-0.1,0.1-0.1
		c3-0.3,6.9-0.5,12.1-0.5c3.5,0,6.9,0.3,9.4,1.6c2.7,1.3,4.4,4,4.3,7c0,4-2.4,6.1-5.7,7.7c0,0.6,0.5,0.7,1.1,0.8
		c4.5,0.9,7.7,4.8,7.5,9.4c0,6.5-4.8,10.9-14.9,10.9c-1.6,0-4.4-0.2-6.7-0.2c-2.5,0-4.4,0.1-6.5,0.2c-0.4-0.4-0.4-1-0.1-1.4l1-0.2
		c3-0.4,3.1-1.1,3.1-7L101.7,143.8z M106.3,151.3c0,1.6,0.1,1.7,2.9,1.6c5.7-0.2,8.8-1.9,8.8-7.2c0-5.5-4.1-7.6-8.4-7.6
		c-0.9-0.1-1.8,0.1-2.6,0.3c-0.6,0.2-0.8,0.5-0.8,1.5V151.3z M106.3,164.3c0,2,0.1,4.9,1.2,6.1c1.1,1.3,2.8,1.6,4.4,1.6
		c5,0,8.8-2.2,8.8-7.9c0-4.4-2.2-9.6-11.2-9.6c-3,0-3.3,0.3-3.3,1.5L106.3,164.3z"/>
	<path id="Path_1808" class="st0" d="M135.7,145c0-6-0.1-6.9-3.4-7.2l-1.4-0.1c-0.3-0.2-0.2-1.2,0.1-1.4c2.8,0.1,4.7,0.2,7.1,0.2
		c2.2,0,4.2-0.1,7-0.2c0.3,0.2,0.4,1.2,0.1,1.4l-1.4,0.1c-3.3,0.3-3.4,1.2-3.4,7.2v20c0,6,0.1,6.7,3.4,7.1l1.4,0.2
		c0.3,0.2,0.2,1.2-0.1,1.4c-2.8-0.1-4.7-0.2-7-0.2c-2.4,0-4.3,0.1-7.1,0.2c-0.4-0.4-0.4-1-0.1-1.4l1.4-0.2c3.3-0.4,3.4-1.2,3.4-7.1
		V145z"/>
	<path id="Path_1809" class="st0" d="M181.5,150.6c0-3.5-0.1-9.9-1.1-11.6c-0.4-0.7-1.4-1.1-2.8-1.2l-1.4-0.1
		c-0.3-0.4-0.3-1,0.1-1.3c2.1,0.1,4.2,0.2,6.4,0.2c2.4,0,3.9-0.1,5.9-0.2c0.4,0.3,0.4,0.9,0.1,1.3l-1.3,0.1
		c-1.4,0.1-2.5,0.6-2.8,1.3c-0.8,1.9-0.8,8.3-0.8,11.5v6.4c0,4.9-0.8,10.1-3.9,13.4c-2.4,2.6-6.6,4.1-10.7,4.1
		c-3.9,0-7.8-0.7-10.5-3.1c-3-2.5-4.4-6.6-4.4-13.3v-13.3c0-5.8-0.1-6.8-3.4-7.1l-1.4-0.1c-0.3-0.2-0.2-1.2,0.1-1.3
		c2.8,0.1,4.7,0.2,7,0.2c2.3,0,4.2-0.1,6.9-0.2c0.3,0.2,0.5,1.1,0.1,1.3l-1.3,0.1c-3.3,0.3-3.4,1.2-3.4,7.1V157c0,9,2.8,15,11.4,15
		c8.1,0,11.2-6.4,11.2-14.9L181.5,150.6z"/>
	<path id="Path_1810" class="st0" d="M202,174.5c-3.1,0.1-6.1-0.6-8.8-2.1c-0.7-1.2-1.4-5.2-1.5-7.9c0.3-0.4,1.1-0.5,1.3-0.2
		c0.8,2.9,3.1,8.4,9.7,8.4c4.7,0,7-3.1,7-6.5c0-2.5-0.5-5.2-4.6-7.9l-5.3-3.5c-2.8-1.9-6.1-5.1-6.1-9.7c0-5.3,4.2-9.7,11.5-9.7
		c1.8,0,3.5,0.2,5.2,0.7c0.6,0.2,1.3,0.3,2,0.3c0.7,2.2,1,4.5,1,6.9c-0.2,0.3-1.1,0.5-1.4,0.2c-0.7-2.7-2.2-6.4-7.6-6.4
		c-5.5,0-6.7,3.7-6.7,6.2c0,3.3,2.7,5.6,4.8,6.9l4.5,2.8c3.5,2.2,7,5.5,7,10.8C214,170.3,209.3,174.5,202,174.5z"/>
	<g id="Group_138" transform="translate(10.842)">
		<path id="Path_1811" class="st0" d="M69.4,21c0.7,0.1,1.3-0.1,1.7-0.7c-0.6-0.3-1.4,0-1.7,0.6C69.5,21,69.4,21,69.4,21z"/>
		<path id="Path_1812" class="st0" d="M67.4,28.6c0.3-0.2,0.6-0.3,0.9-0.5l-0.4-0.4l-0.8,0.6C67.2,28.4,67.3,28.7,67.4,28.6z"/>
		<path id="Path_1813" class="st0" d="M73.9,19.8c-0.1,0-0.1,0.2-0.2,0.3c0.1,0.1,0.2,0.2,0.3,0.2c0.2-0.1,0.4-0.2,0.6-0.4
			c0.1,0.1,0.2,0.1,0.3,0.1c0.1,0,0.1-0.1,0.2-0.2c-0.1-0.1-0.1-0.2-0.2-0.2C74.6,19.6,74.2,19.7,73.9,19.8z"/>
		<path id="Path_1814" class="st0" d="M71.3,21.5c0,0.1,0.1,0.2,0.2,0.4c0.3-0.3,0.6-0.5,0.8-0.8c0-0.1-0.1-0.2-0.1-0.3
			C71.9,20.7,71.3,21.2,71.3,21.5z"/>
		<path id="Path_1815" class="st0" d="M79,3.3l1.7-0.6C80.1,2.4,79.3,2.7,79,3.3z"/>
		<path id="Path_1816" class="st0" d="M83,3.8C83.3,4,83.8,4,84.1,3.7C83.7,3.3,83.3,3.3,83,3.8z"/>
		<path id="Path_1817" class="st0" d="M115.4,10.1C115.4,10.1,115.4,10.1,115.4,10.1c-0.1-0.4-0.3-0.6-0.7-0.5c0,0-0.1,0.2-0.1,0.2
			C114.8,10.1,115.1,10.2,115.4,10.1z"/>
		<path id="Path_1818" class="st0" d="M81.7,22.3c0.1,0.1,0.2,0.2,0.3,0.2c0.2-0.1,0.3-0.2,0.5-0.3c-0.2-0.1-0.3-0.3-0.4-0.3
			C82,22.1,81.9,22.2,81.7,22.3z"/>
		<path id="Path_1819" class="st0" d="M81.9,2.1l-1,0.2l0,0.2C81.3,2.6,81.7,2.4,81.9,2.1z"/>
		<path id="Path_1820" class="st0" d="M81.2,3l-1,0.6l0.1,0.2l0.9-0.7L81.2,3z"/>
		<path id="Path_1821" class="st0" d="M140,93.7c0.4-0.4,0.9-0.9,1.2-1.4c1.6-2.1,3.1-4.3,4.4-6.6c-3.1-1.7-4.6-4.5-5.3-9.2
			c-4-1.8-7.2-5-9.1-9c-0.4,0.1-0.7,0.1-1.1,0.1c-2-0.2-4-0.7-5.7-1.6c-0.3-0.1-0.6-0.3-0.9-0.4c-0.7,0.9-1.1,1.9-1.3,3
			c0,0.3,0,1,1.5,2l0.8,0.5l-0.3,0.9l-1.2,3.2l0,0.1c0.1,0.2,0.1,0.3,0.2,0.5c0,0.5,0.2,0.9,0.6,1.2c0.7,0.5,1.4,1,2.1,1.5
			c0.7,0.6,1.6,0.8,2.4,0.3c0.8-0.4,1.6-0.4,2.4-0.2c0.8,0.2,1.6,0.1,2.3-0.2c0.7-0.3,1.5-0.5,2.3-0.7c0.7-0.2,1,0,1.1,0.7
			c0,0.1,0,0.1,0,0.2c0.1,0.5,0.3,0.7,0.8,0.6c0.3,0,0.6-0.1,0.9-0.1c0.2,0,0.3,0,0.5,0.1l0.1,0.4c0,0.3,0,0.5-0.1,0.8
			c-0.3,0.7-0.7,1.3-1.1,1.9c-0.6,0.7-0.7,1.8-0.3,2.6c0.1,0.4,0.2,0.8,0.2,1.2c0,1.5-0.9,2.6-1.3,4c-0.1,0.2-0.3,0.5-0.5,0.6
			c-0.9,0.7-1.6,1.6-2.3,2.5c-0.4,0.5-0.7,1-0.9,1.6c-0.2,0.8-0.5,1.7-1,2.4c2-0.2,4-0.5,6-0.7C138.3,95.5,139.1,94.6,140,93.7z"/>
		<path id="Path_1822" class="st0" d="M46.8,67.6c0-0.2,0-0.4,0-0.7c0-0.2,0-0.5,0-0.7c-0.1-0.3-0.1-0.7-0.3-1l0-0.1
			c-0.1,0-0.2,0.1-0.2,0.1c-0.4,0.3-0.7,0.6-0.9,1c-0.2,0.5-0.6,0.9-1.2,1c0.7,0.6,1.4,1.1,2.1,1.5c0.2,0.1,0.4,0.2,0.5,0.2
			c0-0.2,0-0.3,0-0.5C46.8,68.2,46.8,67.9,46.8,67.6z"/>
		<path id="Path_1823" class="st0" d="M41,60.4c0.2,0.4,0.4,0.9,0.7,1.3c0.1,0,0.2,0,0.3,0c0.1-0.3,0.3-0.6,0.4-0.9
			c0.3-0.5,0.6-1,1-1.4c-0.4-1.4-0.2-2.9,0.7-4l0,0l0,0c0.6-0.7,1.4-1.2,2.2-1.5c0.2-0.1,0.4-0.2,0.5-0.3c0.2-0.1,0.4-0.3,0.6-0.4
			c0.3-0.1,0.6-0.2,0.9-0.3c-0.3-0.2-0.4-0.6-0.5-0.9c-0.3-0.2-0.6-0.4-0.8-0.8c-0.1-0.3-0.3-0.7-0.4-1c-0.1-0.4-0.2-0.9-0.2-1.3
			l-5.9,10c0.1,0.2,0.1,0.4,0.2,0.6C40.9,59.8,41,60.1,41,60.4z"/>
		<path id="Path_1824" class="st0" d="M40.6,61.7c0.1,0,0.2,0,0.3,0l0,0c-0.2-0.8-0.3-1.5-0.5-2.3l-0.3,0.6c0.1,0.3,0.1,0.5,0.2,0.8
			C40.4,61.1,40.5,61.4,40.6,61.7z"/>
		<path id="Path_1825" class="st0" d="M77.2,35.5c-0.1,0-0.3,0-0.3,0.1c0,0,0,0.2,0.1,0.3c0.4,0.5,1.1,0.8,1.7,0.7
			c0.1,0,0.3-0.1,0.3-0.2c0-0.1-0.1-0.3-0.2-0.4C78.2,35.8,77.7,35.6,77.2,35.5z"/>
		<g id="Group_132" transform="translate(32.948 111.404)">
			<path id="Path_1826" class="st0" d="M114,1l-0.2,0c-0.2,0.8-0.3,1.6-0.3,2.5c1.6-1,3.4-1.7,5.3-1.9c1-0.2,2-0.3,2.9-0.5
				c1.4-0.1,2.8-0.4,4.1-1c-0.7-0.1-1.4-0.2-2.1-0.1C120.4,0.1,117.2,0.5,114,1z"/>
			<path id="Path_1827" class="st0" d="M2.1,0C1.4,0,0.7,0,0,0.1C2.3,1,4.6,1.6,7,1.9C7.6,2,8.2,2.1,8.7,2.2c1.5,0.3,3,0.7,4.4,1.3
				c-0.1-0.8-0.2-1.6-0.3-2.4l-1-0.1C8.6,0.5,5.3,0.1,2.1,0z"/>
		</g>
		<path id="Path_1828" class="st0" d="M20.1,109.8c-3.8,0.9-7.9,1.4-11.8,2c-2.8,0.4-5.6,0.7-8.3,1.3c7.4,1.4,14.4,3.4,22,4.4
			c6.4,0.9,10.7,1.7,17.2,1.6c2,0.1,4-0.1,6-0.5c3.1-0.7-2.8-2.3-4-2.6c-4.3-0.8-11-1.5-12.2-5.1c-0.2-0.4-0.2-0.7,0-1.1
			c0,0,0,0,0,0c0.2-1.6,0.9-1.8,1-3.4c0.1-0.8,0.1-2.7,0.2-3.5c-4.9-0.3-9.8-1-14.7-2c-2.6-0.4-5.1-0.9-7.6-1.4
			c-1.2-0.2-4.7-1.3-4.9-1.3c2.4,1.7,5.7,3.8,8.2,5.4c2.9,1.8,6.4,3.4,9.2,5.2c0.2,0.1,0.3,0.3,0.2,0.5c0,0,0,0.1-0.1,0.1
			C20.4,109.7,20.3,109.8,20.1,109.8z"/>
		<path id="Path_1829" class="st0" d="M152.2,115.4c-1.2,0.2-7.1,1.9-4,2.6c2,0.3,4,0.5,6,0.4c6.6,0.1,9.7-0.8,16.1-1.7
			c7.5-1.1,14.6-3.2,21.9-4.6c-2.7-0.6-5.5-0.9-8.3-1.2c-3.9-0.5-8-1.1-11.8-1.9c-0.2,0-0.3-0.1-0.4-0.3c-0.1-0.1-0.1-0.4,0-0.5
			c0,0,0.1-0.1,0.1-0.1c2.8-1.9,6.2-3.5,9.1-5.3c2.5-1.6,5.7-3.7,8.1-5.4c-0.2,0.1-3.7,1.1-4.8,1.4c-2.5,0.6-5.1,1-7.6,1.5
			c-5.3,1-9.8,2.3-15.3,2.6c-0.6,0.9-0.1,1.3,0,2.1c0.3,2.2,0.3,1.9,0.5,3.2c0,0,0.1,1.6,0.1,1.6c0.1,0.6,0.1,1.2,0,1.7
			C160.7,115,156.5,114.6,152.2,115.4z"/>
		<path id="Path_1830" class="st0" d="M83.7,37.7c-0.1-0.5-0.3-1-0.5-1.5c-0.1-0.2-0.1-0.5-0.1-0.7c0,0,0,0-0.1-0.1
			c-0.3,0.4-0.6,0.7-1,1c-0.4,0.4-1,0.6-1.2,1.2c0,0.2-0.1,0.3-0.2,0.5c0.2,0.1,0.3,0.1,0.5,0.2c0.7,0,1.4,0,2.1,0.1
			c0.2,0,0.4,0.1,0.5,0.3c0.2,0.5,0.3,0.5,0.8,0.3C84.2,38.7,83.8,38.2,83.7,37.7z"/>
		<path id="Path_1831" class="st0" d="M77.5,26c0.1-0.2,0.2-0.3,0.3-0.4c0,0-0.1-0.1-0.1-0.1c-0.2-0.2-0.2-0.5-0.2-0.8
			c0.2-0.5,0.4-0.9,0.7-1.4c0.3-0.5,0.3-0.6-0.3-0.7c-0.4,0-0.8-0.3-0.9-0.7c-0.2-0.3-0.4-0.6-0.6-0.9c-0.2-0.3-0.5-0.4-0.8-0.1
			C75.5,21,75.3,21,75.1,21c-0.3-0.1-0.6-0.2-1-0.2c-0.3,0-0.8,0-1,0.2c-0.5,0.6-1,1.3-1.3,2.1c-0.2,0.5-0.5,1-0.9,1.4
			c-0.3,0.2-0.6,0.5-0.9,0.7c-0.2,0.2-0.3,0.5-0.1,0.7c0,0,0,0,0,0c0.4,0.9,0.2,2.1-0.6,2.7c-0.8,0.4-1.6,0.7-2.4,1.1
			c-0.2,0.1-0.5,0.2-0.6,0.4c-0.3,0.7-0.5,1.4-0.6,2.1c-0.1,0.6-0.6,1.1-1.2,1.4c-0.1,0-0.2,0-0.3-0.1c-0.2-0.4-0.4-0.8-0.6-1.4
			c0.2,0,0.4,0.1,0.6,0c0.2-0.1,0.3-0.2,0.5-0.3c-0.2-0.1-0.3-0.2-0.5-0.3c-0.1,0-0.2,0-0.4,0c0.3-0.6,0.6-1.1,0.9-1.6
			s0.3-0.6-0.3-0.6c-0.9,0-1.7-0.5-2.2-1.2c-0.4-0.8-1.2-1.3-2.1-1.2l0.5-1.3c0.1-0.2,0.1-0.5-0.2-0.6c-0.3-0.1-0.2-0.3-0.1-0.4
			c0.2-0.3,0.4-0.6,0.6-1c1-1.1,2.1-1.9,3.3-2.6c0.4-0.2,0.8-0.4,1.2-0.6c0.2-0.1,0.5-0.3,0.7-0.4c0.5-0.3,1-0.6,1.6-0.8
			c0.3-0.1,0.7-0.1,0.9-0.3c0.6-0.4,1.3-0.8,1.9-1.3c-0.4,0.5-0.9,1-1.4,1.4c-0.4,0.3-0.2,0.6-0.1,0.9c0.2,0.4,0.5,0.2,0.7,0.1
			c0.4-0.2,0.8-0.4,1.2-0.7c0.2-0.1,0.3-0.2,0.5,0.1c0.3,0.4,0.8,0.5,1.3,0.3c0.1-0.1,0.2-0.1,0.2-0.2c0-0.1,0.1-0.1,0-0.2
			c-0.2-0.4-0.4-0.9-0.6-1.2c-0.3-0.4-0.5-0.7-0.1-1.1c0,0,0-0.1,0-0.1c-0.4,0-0.4-0.2-0.2-0.5c0.4,0,0.4,0.4,0.5,0.6
			c0,0.1,0.1,0.2,0.2,0.3l0.3-0.3c0.1-0.1,0.2-0.3,0.4-0.3c0.7-0.3,1.4-0.6,2-1c0.3-0.1,0.6-0.5,0.6-0.7c0-0.6,0.3-0.8,0.8-0.9
			c0.6-0.1,1-0.7,0.8-1.3c0,0,0,0,0,0c0.3,0,0.5,0.1,0.8,0.1c0.2,0.1,0.5,0.1,0.7,0.1c0.4-0.1,0.8-0.2,1.2-0.4l0,0.1l-2,1.1
			c0.9,0.2,1.2-0.6,2-0.7c-0.1,0.1-0.1,0.2-0.1,0.3c-0.3,0.2-0.2,0.5,0,0.7c0.1,0.1,0.1,0.2,0.2,0.3c-0.1,0.1-0.3,0.1-0.4,0.1
			c-0.7,0-1.3,0.4-1.6,0.9c-0.2,0.3-0.1,0.5,0.3,0.5c0.3-0.1,0.6-0.2,0.9-0.3c0.3-0.1,0.6-0.2,0.9-0.3c0.2-0.1,0.4-0.1,0.5-0.2
			c-0.1-0.1-0.3-0.2-0.4-0.3c0,0,0,0,0-0.1l0-0.1c0.2,0.1,0.5,0.1,0.6,0.2c0.1,0.2,0.1,0.4,0.1,0.6c-0.2,0.3-0.5,0.6-0.7,0.8
			c-0.7,0.5-1.7,0.6-2.1,1.6c0,0.1-0.1,0.1-0.2,0.1c-0.5,0.2-1.1,0.3-1.6,0.1c-0.2-0.1-0.4,0-0.6,0c-0.2,0.1-0.5,0.2-0.7,0.4
			c-0.1,0.2-0.3,0.4-0.4,0.6c0.2,0.1,0.5,0.2,0.7,0.3c0.4,0,0.8-0.1,1.1-0.1c1,0.1,1.1,0.2,1.3,1.2c0.1,0.7,0.2,0.7,1,0.9
			c0.1,0,0.2,0.1,0.3,0.1c0.6,0.2,1.1,0.5,1.7,0.7c0.2,0.1,0.4,0,0.6-0.2c0.1-0.2,0.1-0.4,0-0.6c-0.2-0.3-0.3-0.5-0.5-0.8l0.1-0.1
			c0.4,0.3,0.9,0.6,1.3,1c0.2,0.1,0.3,0.3,0.5,0.1c0.3-0.3,0.5-0.6,0.8-0.9c0.1-0.2,0.1-0.3,0.1-0.5c0-0.1-0.1-0.3,0-0.4
			c0.2-0.4,0-0.8-0.4-1c0,0,0,0,0,0c-0.1-0.1-0.2-0.2-0.2-0.4c0-0.4,0.3-0.9,0.6-0.9c0.4,0.1,0.5,0.4,0.6,0.7c0,0.1,0,0.2,0,0.2
			c0.2,0.2,0.4,0.4,0.6,0.5c0.1,0,0.4-0.2,0.5-0.3c0.1-0.1,0.2-0.2,0.3-0.3c0.6-0.3,1.2-0.6,1.7-0.9c0.4-0.2,0.4-0.4,0.1-0.7
			c-0.4-0.5-1.1-0.7-1.3-1.4c0-0.1-0.1-0.1-0.2-0.1c-0.2-0.1-0.5-0.3-0.7-0.5c-0.4-0.4-0.3-0.6,0.2-0.8c0.1,0,0.3,0,0.4-0.1
			c0.1,0,0.2-0.1,0.2-0.2c0.2-0.7-0.1-1.4-0.7-1.9c-0.1-0.1-0.2-0.2-0.3-0.4c0-0.4-0.2-0.5-0.6-0.6c-0.2-0.1-0.4-0.3-0.5-0.5
			c-0.1-0.2-0.2-0.5-0.2-0.7c0,0,0-0.1,0.1-0.1c0.4-0.7,0.3-1-0.4-1.2c-0.7-0.2-1.5-0.2-2.2,0c-0.3,0.1-0.6,0.1-1,0.2l0.8-0.5
			l-0.1-0.2c-0.3,0-0.6,0-0.9,0c-1.1,0.3-2.2,0.8-3.1,1.5c-0.8,0.5-1.5,1.1-2,2c-0.1,0.2-0.1,0.5,0,0.7c0.2,0.3,0.5,0.4,0.8,0.3
			c-0.3,0.4-0.6,0.8-1,1.1c-0.7,0.6-1.8,0.6-2.4,1.5c0,0-0.1,0-0.1,0c0-0.1,0-0.2,0-0.3c0.2-0.2,0.4-0.5,0.6-0.7
			c0.3-0.3,0.5-0.5,0.3-1.1l-0.9,0.5L72.7,13l0.7-0.4l-0.1-0.1l-0.5-0.2c0.4-0.2,0.7-0.4,1-0.6c0.4-0.5,0.8-1.1,1.2-1.7
			c0.1-0.2,0.3-0.4,0.5-0.5c0.5-0.3,0.9-0.8,1.6-0.7c0.1,0,0.2-0.1,0.3-0.1c0.6-0.3,1.2-0.7,1.8-1c0.1-0.1,0.2-0.2,0.3-0.3
			C78.1,6.5,77,7.4,76,8.1L75.9,8L77.1,7L77,6.9C76,7,74.9,7,74.2,8.1c-0.2-0.5-0.4-0.3-0.7-0.2c-0.9,0.4-0.7,1.5-1.1,2.1l0.1,0.1
			l1.4-0.5c-1,0.6-1.9,1.4-2.7,2.3c0,0.1-0.2,0-0.3,0c-0.1,0-0.3-0.1-0.4-0.1c-0.5,0.2-0.9,0.4-1.3,0.7c-0.1,0.1-0.3,0.3-0.3,0.3
			c0.2,0.4-0.1,0.4-0.3,0.5c-0.2,0.2-0.5,0.3-0.7,0.4c-0.5,0.1-1,0.2-1.4,0.2c0,0-0.1-0.1-0.2-0.1c-0.1-0.1-0.2-0.3-0.3-0.5
			c0.2-0.3,0.3-0.7,0.9-0.6c0.7,0.2,1.4-0.1,1.8-0.7c0.1-0.1,0.1-0.1,0.2-0.2l0.1,0.3c0.2-0.2,0.4-0.3,0.6-0.4
			c0.3-0.1,0.5-0.5,0.5-0.8c0-0.4,0.1-0.7,0.4-1c1.1-0.9,2.1-2.1,3.5-2.6c0.2-0.1,0.4-0.2,0.6-0.4l-0.1-0.2
			c-1.1,0.2-2.2,0.7-3.2,1.3l0.4-0.4l-0.1-0.1L70.7,8c0-0.2,0.1-0.4,0.1-0.7l1.4-1.2c-0.2-0.1-0.4-0.3-0.5-0.3c-0.3,0-0.7,0.1-1,0.3
			c-1.3,0.6-2.5,1.3-3.7,1.9c-0.4,0.3-0.9,0.6-1.2,0.9l0.1,0.1l1.5-0.5l0.1,0.1c-0.3,0.3-0.7,0.5-1,0.8c-0.2,0.2-0.4,0.4-0.6,0.6
			c0.2,0,0.4,0.1,0.6,0.1c0.1,0.1,0.2,0.1,0.3,0.2c-0.1,0.1-0.3,0.2-0.4,0.2c-1-0.3-1.6,0.3-2.1,0.9C64,11.7,64,11.9,64,12.1l0.1,0
			l-0.7,0.8c1.2,0.2,2-0.5,3-0.5c-0.2,0.1-0.5,0.1-0.8,0.2c-0.3,0.1-0.8,0.2-0.9,0.5c-0.2,0.5-0.6,0.5-0.9,0.8c0,0-0.1,0-0.1,0
			c0-0.1-0.1-0.2-0.1-0.4c-0.5,0.1-1,0.4-1.6,0c0.3-0.2,0.5-0.2,0.6-0.3c0.3-0.2,0.6-0.4,0.9-0.7c0-0.1,0-0.2,0-0.3
			c-0.4-0.2-0.2-0.5-0.1-0.8c0.1-0.2,0.2-0.3,0.3-0.5L63.1,11c0.1-0.1,0.2-0.2,0.3-0.4l-0.5,0.2l-0.1-0.1l0.7-0.7l0,0l-0.4,0.3
			l0.1-0.2c-0.1,0-0.2,0-0.2,0c-0.6,0.2-1.1,0.4-1.7,0.7c-0.4,0.2-0.8,0.5-1.1,0.8C53,17.4,47.2,24.8,43.4,33.3
			c-0.4,0.9-0.8,1.7-1.1,2.6c-0.4,1.1-0.6,2.3-1,3.5c-0.3,1-0.8,2-1.1,3.1c-0.9,3-1.4,6.1-1.3,9.3c0,0.1,0,0.3,0,0.4
			c0.3,0.5,0.4,1.2,0.3,1.8c0,0.4,0,0.8,0,1.2L51,35l-0.6,0.2l1.5-2.6c0.7-1.1,1.6-2,2.7-2.7l1.6-0.9l0.2,1.8
			c0.1,1.2-0.2,2.4-0.8,3.5c0,0.1-0.1,0.2-0.1,0.2l-1.1,2.3l-0.3-0.6L52.5,39c0.3-0.1,0.6-0.1,0.9-0.1c0.1,0,0.2,0,0.3,0
			c1.5,0.1,2.9,0.6,4,1.6l0.2,0.1c0.4,0.3,0.7,0.6,0.9,1c0.4,0.6,0.4,1.5-0.2,2L58,44.3l-0.3,0.3l-1.4,1.5c0.6,1.1,0.9,2.4,0.7,3.6
			c0,0.3-0.1,0.5-0.2,0.7c0.2,0.8,0.2,1.6-0.1,2.4c0.6,0.2,1.1,0.5,1.6,0.9c0.2-0.1,0.5-0.3,0.7-0.4c0.8-0.7,1.7-1.3,2.6-1.8
			c0.6-0.2,0.9-0.8,0.9-1.4c0-0.6,0.3-1.1,0.7-1.6c0.2-0.3,0.4-0.6,0.6-1c0.1-0.1,0.2-0.3,0.3-0.4c0.3-0.4,0.6-0.8,1-1.2
			c0.2-0.2,0.4-0.4,0.7-0.6c0.8-0.3,1.7-0.5,2.6-0.8c0.2-0.1,0.3-0.1,0.4-0.2c0.3-0.2,0.3-0.4,0.1-0.6c-0.1-0.2-0.2-0.4-0.1-0.6
			c0.1-0.4,0.4-0.7,0.7-0.9c0.7-0.5,1.6-0.8,2.5-0.8c0.5-0.1,0.9-0.3,1.3-0.5c0.1,0,0.2-0.1,0.3-0.1l0.1,0.1
			c-0.1,0.1-0.2,0.3-0.3,0.4c-0.1,0.2-0.2,0.5-0.1,0.6c0.2,0.2,0.4,0.3,0.7,0.3c0.2,0,0.4-0.1,0.5-0.2c0.8-0.5,1.7-0.8,2.6-1
			c0.9-0.3,1.7-0.6,2.5-0.9c0.3-0.1,0.6-0.3,0.3-0.7c0-0.1,0-0.1,0-0.2c-0.1-0.5-0.3-0.6-0.7-0.3c-0.3,0.2-0.5,0.4-0.8,0.6
			c-0.1,0.1-0.3,0.1-0.4,0.1c-0.6-0.3-1.3-0.6-1.9-1c-0.1,0-0.2-0.2-0.2-0.2c0.1-0.4,0.1-0.8,0.5-1.1s0.4-0.6,0-0.8
			c-0.2-0.1-0.5-0.2-0.8-0.2c-0.4,0-0.8,0.1-1.2,0.2c-0.5,0.1-1,0.2-1.4,0.3l0-0.1c0.2-0.1,0.3-0.1,0.5-0.2c0.5-0.3,1.1-0.6,1.5-0.9
			c0.3-0.3,0.7-0.4,1.1-0.4c1.3,0.1,2.6,0.1,3.9,0.2c1,0.1,2-0.2,2.7-0.8c-1.3-2.4-2.9-4.6-4.7-6.6C77.3,27.5,77.2,26.7,77.5,26z
			 M80.1,8.4l0.1,0.1c-0.5,0.4-0.9,0.8-1.4,1.2l-0.1-0.1L80.1,8.4z M70.7,12.7c0.2-0.1,0.4-0.3,0.7-0.3c-0.6,0.3-0.7,1.1-1.4,1.3
			c-0.2,0-0.4,0-0.6,0C69.8,13.3,70.3,13,70.7,12.7L70.7,12.7z"/>
		<path id="Path_1832" class="st0" d="M82,24.3c-0.1-0.2-0.2-0.4-0.3-0.6c-0.2,0.1-0.4,0.2-0.6,0.4c-0.2,0.1-0.4,0.3-0.5,0.5
			c-0.2,0.2-0.4,0.4-0.6,0.6c0.9,0.3,1.7,0.7,2.4,1.2C82.2,25.6,82.1,24.9,82,24.3z"/>
		<g id="Group_134" transform="translate(84.674 51.334)">
			<path id="Path_1833" class="st0" d="M11.1,12.9L5.2,0H0.1v0.5c0.7,0,1.4,0.1,2,0.5c0.4,0.5,0.5,1.2,0.4,1.8v10.5
				c0.1,0.9-0.1,1.8-0.5,2.6c-0.6,0.5-1.3,0.7-2.1,0.7v0.5h6.1v-0.5c-0.6,0-1.3-0.2-1.8-0.6c-0.5-0.8-0.7-1.8-0.6-2.8V3l6.5,14.2
				h0.4L14.7,8V5L11.1,12.9z"/>
			<g id="Group_133" transform="translate(15.288)">
				<path id="Path_1834" class="st0" d="M0,0.5c0.7,0,1.4,0.1,2.1,0.5c0.4,0.5,0.6,1.2,0.5,1.8v11.5c0,1-0.2,1.6-0.5,1.9
					c-0.6,0.3-1.3,0.5-2.1,0.5v0.5h7.7v-0.5c-0.7,0-1.4-0.1-2.1-0.5c-0.3-0.2-0.5-0.9-0.5-1.9V2.8C5.1,2.2,5.2,1.5,5.6,1
					C6.2,0.6,7,0.5,7.7,0.5V0H0V0.5z"/>
			</g>
		</g>
		<path id="Path_1835" class="st0" d="M109.5,92.9c0.9-1,1.6-1.9,2.3-2.8s1.2-1.7,1.7-2.4c0.6-0.9,1.2-1.9,1.7-2.9
			c1.8-3.4,3.1-7.1,3.9-10.8c-0.6-0.8-1.1-1.8-1.3-2.8c-0.7,4.5-2.2,8.8-4.2,12.8l0,0.1l0,0.1c-1.6,3.1-3.7,5.9-6.1,8.4l1.3,1.3
			C108.9,93.4,109.2,93.1,109.5,92.9z"/>
		<path id="Path_1836" class="st0" d="M145.7,56c-0.1-0.3-0.7-0.5-1.2-0.6c-0.2,0-0.4-0.1-0.5-0.2c0,0.2-0.1,0.3-0.1,0.5
			c-0.2,0.8-0.4,1.5-0.5,2c-0.3,1.8,0.1,2.3,0.1,2.3c0,0,0.1,0.1,0.2,0.1c0.7-0.1,1.4-0.4,1.9-0.9c0.4-0.8,0.6-1.6,0.6-2.5
			C146,56.6,145.8,56.4,145.7,56z"/>
		<path id="Path_1837" class="st0" d="M152.5,62.3c0,1.2,0.1,2.5,0.1,3.7c0,0,0.1,0.1,0.1,0.1c0.3-1.6,0.4-3.1,0.6-4.7l-0.8,0.6
			C152.5,62.1,152.5,62.2,152.5,62.3z"/>
		<path id="Path_1838" class="st0" d="M151.9,62.6l-1,0.4l-0.9,0.5l-0.1-0.2c-0.9,0.3-1.9,0.7-2.7,1.2c0.8,0.6,1.8,1.2,2.7,1.6
			c0.8,0.4,1.6,0.9,2.3,1.5c0-0.1,0-0.1,0-0.2c0.1-0.8,0.1-1.6,0.1-2.5c0-0.9-0.1-1.9-0.1-2.8c-0.1,0.1-0.3,0.2-0.4,0.2L151.9,62.6z
			"/>
		<path id="Path_1839" class="st0" d="M131.4,54.3c0.5-0.6,0.9-1.2,1.3-1.8c-0.1,0-0.1,0-0.2,0c-0.4-0.2-0.4-0.5-0.1-0.7
			c0.3-0.1,0.6-0.2,0.9-0.3c0.2-0.3,0.3-0.6,0.4-0.9c-0.5,0.2-1.1,0.3-1.7,0.3c-0.4,0-0.8,0-1.1-0.1c0,0.2,0,0.4,0.1,0.6
			c0.3,0.3,0.5,0.7,0.4,1.1c-0.1,0.7-0.6,1.3-1.3,1.6c-0.3,0.1-0.6,0.3-0.9,0.5c-0.2,0.1-0.3,0.3-0.4,0.5c-0.1,0.2-0.2,0.4-0.3,0.6
			c-0.2,0.3-0.3,0.6-0.3,0.9c0.1,0.6-0.2,1.2-0.7,1.6c-0.5,0.3-0.9,0.6-1.4,0.8c-0.2,0.1-0.3,0.1-0.5,0.2c-0.2,0.2-0.4,0.4-0.6,0.5
			c1.2,0.2,2.3,0.3,3.5,0.3C128.7,57.9,130.1,56.1,131.4,54.3z"/>
		<path id="Path_1840" class="st0" d="M143.1,43.9c0-0.1,0-0.2,0-0.3l1.1,1.2c0.6-2.3,2.7-3.7,4.7-5.2c0.5-0.4,1-0.7,1.5-1.1
			c-1.8-5.5-4.5-10.7-7.8-15.3c-0.2-0.2-0.3-0.5-0.5-0.7l-0.1,0.1c0.1,0.2,0.2,0.3,0.3,0.5c-0.1,0-0.2,0-0.2,0
			c-0.4-0.6-0.8-1.2-1.3-1.8c-0.6-0.6-1.2-1.2-1.8-1.8c-0.3-0.3-0.7-0.6-1.1-0.7c-0.5-0.1-0.7-0.5-0.8-0.8c0-0.1-0.1-0.1-0.2-0.2
			c-0.5-0.3-1-0.6-1.5-0.8c-0.6-0.3-0.8-0.1-0.8,0.5h-0.7c0.1,0.5,0.1,0.9-0.4,1.1c0,0.4,0.1,0.8,0.1,1.3c0.5-0.3,0.6,0,0.8,0.4
			c0.1,0.2,0.1,0.4,0.1,0.6c0,0.4,0.1,0.8,0.3,1.2c0.3,0.5,0.4,1.1,0.3,1.7c0,0.1,0,0.2,0,0.3c-0.2,0.1-0.4,0.2-0.6,0.3
			c-0.3,0.3-0.5,0.7-0.9,1.1c-0.2,0.2-0.3,0.4-0.2,0.7c0.2,0.6,0.5,1.3,0.7,1.9c0.2,0.5,0.5,1,0.8,1.5c0.3,0.6,1,1,1.7,1
			c0.2,0,0.5-0.2,0.7-0.4c0.2-0.2,0.4-0.4,0.5-0.6c0.2,0.2,0.3,0.4,0.3,0.5c0.4,0.6,0.7,1.2,1.1,1.8c0.4,0.6,0.4,0.6-0.1,1.4
			c0-0.2-0.1-0.3-0.1-0.5c0-0.2-0.1-0.3-0.2-0.5c-0.1-0.3-0.2-0.5-0.3-0.8c-0.1-0.4-0.4-0.5-0.7-0.3c-0.5,0.4-0.6,0.6-0.4,1.2
			c0.1,0.3,0.3,0.7,0.5,1c0.2,0.3,0.4,0.7,0.5,1c0.1,0.2,0,0.4-0.3,0.4c-0.5,0.1-0.9,0.2-1.4,0.4c-0.4,0.1-0.7,0.5-0.7,0.9
			c0,0.5-0.2,0.9-0.6,1.2c-0.2,0.2-0.3,0.4-0.4,0.6c-0.3,0.5-0.8,0.8-1.4,0.7c-0.4-0.1-0.5-0.1-0.5,0.3c0.1,0.3,0,0.4-0.4,0.3
			c-0.3-0.1-0.7-0.1-1,0c-0.2,0-0.5,0.2-0.5,0.3c0,0.2,0.1,0.4,0.2,0.5c1.1-0.3,2.3-0.4,3.4-0.4C138.4,39.6,141.4,41.2,143.1,43.9z
			 M143,24.5l-0.3-0.2l0.3,0.5l-0.1,0.1c-0.6-0.7-1.2-1.4-1.8-2.1C141.9,23.2,142.7,23.6,143,24.5z M139.9,34.3
			c0.2,0.1,0.4,0.1,0.4-0.2c0-0.3,0.1-0.3,0.3-0.4c0.4-0.1,0.6-0.5,1-0.7c0-0.2,0-0.5-0.1-0.7c-0.2-0.4-0.4-0.7-0.5-1.1
			c-0.2-0.3-0.2-0.7,0-1.1c0.1-0.2-0.1-0.7-0.2-1c-0.1-0.2-0.3-0.4-0.4-0.5c-0.5-0.5-0.9-1.1-1.1-1.8c-0.2-0.4-0.2-0.9,0.1-1.3
			c0.3-0.4,0.2-1-0.1-1.4c-0.2-0.3-0.4-0.6-0.5-1c0.4-0.2,0.8,0,1,0.3c0.2,0.4,0.4,0.9,0.5,1.4c0,0.2-0.1,0.4-0.1,0.6
			c0,0.1,0,0.2,0,0.3c0.4,0.9,0.8,1.7,1.2,2.5c0.3,0.4,0.7,0.8,1.2,1.1c0.1,0.1,0.2,0,0.4-0.1c0.2-0.1,0.5-0.1,0.7-0.2
			c0.4,0,0.6,0.4,0.4,0.9c-0.1,0-0.2-0.1-0.3-0.1c-0.4-0.2-0.8,0-0.8,0.5c0.1,0.4,0.2,0.8,0.3,1.2l0.3-0.4c0.2,0.4,0.4,0.7,0.6,1.1
			l-0.2,0.1c-0.1-0.2-0.3-0.5-0.4-0.7l-0.2,0.1c-0.1,0.5,0,1,0.3,1.5c0.4,0.7,0.4,0.8,0,1.3c0,0-0.1,0-0.1,0
			c-0.7-0.5-0.8-0.5-1.5,0.1c-0.6,0.5-0.6,0.5-0.9-0.1c-0.1-0.3-0.3-0.3-0.6-0.2c-0.5,0.3-1,0.1-1.3-0.5
			C139.6,34.1,139.8,34.2,139.9,34.3z"/>
		<path id="Path_1841" class="st1" d="M166.8,86.5c-2.7-9.6-7.5-13.1-13.6-13.8c-0.9-5.5-3.2-4.3-7.2-7.5c-1.5-1.2,2.4-2.6,4.3-3.3
			c-0.5-1.7-0.8-3.5-0.9-5.2c0.3,1.7,0.7,3.4,1.2,5c0.6-0.4,1.2-0.7,1.8-1.1c-1.1-1.7-1.9-3.5-2.5-5.4c0.8,1.8,1.7,3.5,2.8,5.1
			c0.6-0.4,1.2-0.9,1.7-1.4c-1.5-1.4-2.8-3-3.9-4.7c1.2,1.6,2.6,3.1,4.2,4.4c0.6-0.6,1.1-1.1,1.5-1.8c-2-1-3.9-2.4-5.5-4.1
			c1.8,1.5,3.7,2.7,5.7,3.8c0.5-0.7,1-1.4,1.4-2.2c-2.4-0.4-4.8-1.2-6.9-2.4c2.3,1,4.7,1.7,7.1,2.1c0.4-0.8,0.7-1.7,1-2.6
			c-2.7,0.3-5.4,0.1-7.9-0.7c2.7,0.5,5.4,0.5,8,0.3c0.2-0.8,0.4-1.7,0.5-2.5c-2.8,0.8-5.7,1-8.6,0.6c2.9,0.1,5.8-0.2,8.7-1
			c0.1-1,0.2-1.9,0.2-2.9c-2.7,1.6-5.8,2.5-8.9,2.6c3.1-0.5,6.2-1.6,8.9-3.1c0-1,0-1.9-0.1-3c-2.7,2.3-5.9,3.8-9.3,4.5
			c3.4-1,6.6-2.7,9.3-5c-0.1-0.9-0.2-1.9-0.4-2.9c-2.4,3-5.6,5.2-9.3,6.4c3.6-1.6,6.7-3.9,9.2-6.9c-0.2-1-0.4-2-0.6-3.1
			c-1.7,3.2-4.2,6-7.3,7.8c-0.6,0.4-1.3,0.7-1.9,1c3.7-2.3,7.4-5.5,9.1-9.5c-0.3-1.4-0.7-2.8-1.1-4.2c-2.1,12.5-15.9,10.6-11.5,19.7
			c1.7,3.6,1.9,8.3,0.6,10.6c-0.5,0.9-5.5,3.8-4.5-2.4c0.5-3,2.7-8,0.1-12.6c-1.8-3.2-5.2-5-10.9-3.5c-0.9-0.6-1.8-0.9-2.8-1.1
			c0.6,0.4,1,1.1,1.3,1.8c-1.2,0.8-2.7,3.3-2.1,4.2c-0.7,1.3-1.3,2.7-1.7,4.1c-0.9,1.4,0.7,2.2,1.6,2.4c0.2-1.4,1-1.3,0.9-0.1
			c1,0.1,1.4-0.8,1.1-2.1c-0.1-0.7,0.4-1.2,1.1-1.3c0.1,0,0.2,0,0.3,0c1.7,0.5,3.4-0.3,4.1-1.9c1.3,5.3-5.9,8.9-5.5,13.6
			c-2.5,0.1-5.1-0.2-7.5-0.9c-0.4-0.2-0.9,0-1.1,0.3c0,0,0,0,0,0c-2,4.6-4.2,11.2,0.9,14.2c0.4-1.1,0.8-2.1,1.2-3.2
			c-3-2-2.3-3.9-0.4-6.9c0.2-0.4,0.6-0.5,1-0.4c2.6,1,5.7,2.8,8.2,1.7c2.2,4.6,5.3,7.9,9.6,9.6c0.8,6.8,3.1,9.3,9.5,10.6
			c0.9,1.7,1.6,5.3,0.6,7.1c-0.3,0.3-0.6,0.7-0.8,1.2c-1.8,0.2-3.6,0.5-5.4,0.7c-7.9,1.1-15.9,2.1-23.9,2.8
			c-2.7,0.2-5.7,0.5-8.8,0.6c0.4,0.8,0.7,1.6,0.9,2.5l0.6,2l-2.1-0.5c-2.2-0.5-4.2-1.6-5.8-3.1l-0.6-0.6c-1.1,0-2.2,0.1-3.3,0.1
			c0.7-0.5,1.3-1,1.9-1.4l-1.3-1.3c-2.1,1.7-4.4,3.2-6.8,4.4c-2.4-1.2-4.7-2.7-6.8-4.4L88,97.7l1.9,1.5c-1.1,0-2.2,0-3.3-0.1
			L86,99.6c-1.6,1.5-3.6,2.6-5.8,3.1l-2,0.5l0.6-2c0.2-0.8,0.5-1.6,0.9-2.4c-2.5-0.1-5.1-0.3-7.6-0.5c0,0,0,0,0,0
			c0.5-0.3,0.7-0.9,0.4-1.4c-0.2-0.3-0.4-0.6-0.6-1c-0.1-0.6-0.3-1.1-1.3-2.3s-1.7-4.9-2.4-7.1c-0.4-1-1-2-1.8-2.8
			c-0.4-0.4-0.8-0.8-1.3-1.1c-0.2-0.1-0.5-0.2-0.7-0.3c-0.3-0.2-0.4-0.6-0.5-0.9c-0.1-0.5-0.3-1-0.5-1.5c-0.5-1.4-1.2-2.7-2-3.9
			c-0.6-0.9-1.4-1.8-2.2-2.6c-0.5-0.5-1.2-0.8-1.4-1.6c-0.3-0.7-0.6-1.5-0.8-2.2c-0.2-0.7-0.3-1.4-0.3-2.2c0-0.8-0.4-1.6-0.1-2.4
			c0-0.1,0.1-0.2,0.1-0.3c0.6,1.2,1.3,2.3,2.1,3.4c4,5.5,8.9,8.8,11.1,7.3s0.6-7.3-3.3-12.8c-3-4.2-6.5-7-9-7.6
			c-0.6-0.9-2.1-1-2.9-1.2c1.2-1.5,1-2.5,0.8-3.1c-0.1-0.4,0.2-0.6,0.2-1c0.2-2.9-1.2-3.5-1.2-3.5c0.1-0.1,0.1-0.1,0.2-0.2l2-2.1
			c0.3-0.3,0.6-0.6,0.9-0.9c0.2-0.2,0.2-0.2,0.1-0.4c-0.3-0.3-0.6-0.6-0.9-0.9c-0.9-0.8-2.1-1.3-3.3-1.3c-1.6,0-3,0.8-3.9,2.1
			c-1,1.4-1.6,3-1.8,4.8c-0.2,1-0.1,2,0.1,3c0.1,0.3,0.2,0.5,0.3,0.8c0.1,0.1,0.1,0.2,0.2,0.2c0.1,0,0.3-0.1,0.4-0.3
			c0.1-0.1,0.6-0.4,0.6-0.5c0,0.4-0.4,1.2-0.4,1.7c0.1,0.8,0.6-0.1,0.8-0.4c0,0.1,0.1,0.8,0.1,0.9c0,0.3-0.1,0.7-0.2,1
			c-0.1,0.3-0.2,0.5-0.4,0.6c-0.4,0.2-0.9,0.2-1.4,0.5c-0.4,0.2-0.8,0.5-1.2,0.7c-0.7,0.3-1.3,0.7-1.8,1.2c-0.8,1.1-0.8,2.5-0.2,3.6
			c-0.2-0.2-1.3,1.5-1.4,1.6c-0.2,0.4-0.4,0.8-0.5,1.2c-0.1,0.2-0.1,0.4-0.3,0.4c-0.3,0-0.5-0.1-0.8-0.1c-0.3,0-0.5,0-0.8,0
			c-0.3,0-0.6,0.1-1,0.1c-0.3,0-1.3,0.1-1.3-0.4c0-0.3-0.5-0.4-0.7-0.3c-0.1-0.2-0.2-0.4-0.4-0.5l16.6-28.2l0-0.1
			c0,0.2,0.1,0.3,0.2,0.5c0.6-0.9,0.9-2,0.8-3c-0.9,0.5-1.7,1.3-2.2,2.2c0.2-0.1,0.4-0.1,0.6-0.1L36.9,61.5c-0.2,0-0.9,0.1-1.2,0.2
			c-0.4,0.1-0.4,0.3-0.4,0.4c-0.8,0.5-0.6,0.7-0.5,0.9c-0.5,0.5-0.3,0.6,0.1,0.8c-0.2,0.2-0.2,0.4-0.1,0.6c0.1,0.1,0.1,0.1,0.2,0.1
			c0,0,0,0,0.1,0l0,0.1c-0.1,0.2-0.2,0.4-0.4,0.6L34,66.5L33.1,68L32,69.8l-1.2,2l-1.2,2l-1.1,1.9l-1,1.7l-0.8,1.4l-0.6,0.9L26.1,80
			c0,0,0,0,0,0.1c-0.1,0.2,0,0.4,0.2,0.5c0.3,0.1,0.4-0.2,0.6-0.4l0.2-0.4c0.2-0.4,0.5-0.8,0.7-1.2l0.9-1.6c0.4-0.6,0.7-1.3,1.1-1.9
			l1.2-2l1.2-2.1c0.4-0.7,0.8-1.3,1.2-2l1-1.7l0.8-1.4l0.5-0.9c0-0.1,0.1-0.2,0.2-0.3c0.4,0.1,0.7,0.1,0.8,0.1
			c0.1-0.1-0.2-0.4-0.2-0.4c0.1,0,0.1-0.1,0.2-0.1c0.4,0.2,0.8,0.3,1.3,0.3c0.5,0.1,0.9,0.3,1.4,0.5c0.6,0.3,1.1,0.6,1.7,0.9
			c0.5,0.1,1,0.2,1.4,0.2c0.3,0,0.6-0.1,0.9-0.1c0.3,0,0.7,0.2,0.8-0.2c0.3-0.6,0.8-1.2,1.3-1.6C46,64,46.8,63.5,47,63
			c0.2,0.5,0.3,1,0.5,1.5c0.2,0.5,0.4,1.1,0.5,1.6c0,0.5,0,0.9,0,1.4c0,0.7,0.1,1.4,0.1,2.2c0,0.8-0.3,1.6-0.8,2.3
			c-0.2,0.3-0.4,0.7-0.7,1c-0.3,0.2-0.5,0.5-0.8,0.7c-1.3,1.2-2.6,2.5-3.6,3.9c-0.5,0.5-0.9,1.1-1.2,1.8c-0.3,0.8-0.3,1.6-0.6,2.4
			c-0.2,0.6-0.2,1.2-0.1,1.8c0.1,0.7,0.3,1.3,0.4,1.9c0,0.1,0.1,0.3,0.1,0.4c0,0.2,0.1,0.3,0.1,0.5c-0.1,0-0.2,0-0.2,0.1
			c0,0.1,0.1,0.3,0.1,0.4c0.1,0.3,0.2,0.5,0.3,0.8c0.2,0.6,0.4,1.2,0.6,1.9c0.1,0.2,0.1,0.5,0.2,0.7c0.2,0.7,0.3,1.3,0.5,2
			c0.1,0.3,0.1,0.5,0.2,0.8c0,0.1,0,0.2,0,0.3c0,0.1-0.1,0.1-0.2,0.2c0,0.1-0.1,0.1-0.1,0.2c-0.1,0.2-0.1,0.4-0.2,0.5
			c-0.1,0.1-0.2,0.2-0.3,0.3c0,0-0.1,0-0.1,0.1c-0.9-0.1-1.9-0.2-2.8-0.2c-3.8-0.1-6,1.1-6.3,3.6c-0.1,2-0.1,4,0.1,5.9
			c0,1.8-0.1,3.5-0.5,5.2c4.1-0.9,13,0.9,15.4,1.1c15.9,1.6,31.6,3.9,47.8,3.8c0.3,0,1,0,1.2,0c16.2,0.1,31.9-2.2,47.8-3.8
			c2.3-0.2,11.3-2,15.4-1.1c-0.4-1.7-0.5-3.5-0.5-5.2c0.2-2,0.2-4,0.1-5.9c-0.3-2.2-2-3.3-5-3.6c0.2-0.8,0.7-1.4,1.4-1.8
			c-0.1-2.1-0.9-5.9-2.1-7.8c-2.9-2.7-3.2-5.4-2.4-7.3c1.1-2.7,3.8-2.9,5.4-0.5c1.2,1.8,2,5.2,1.6,10.6l1.9-0.3
			c0-3.2-0.5-6.3-1.7-9.2c1.2,2.9,1.9,6,1.9,9.2l1.7-0.2c-0.3-3.2-1.2-6.4-2.6-9.3c1.5,2.9,2.5,6,2.9,9.2l1.5-0.2
			c-0.9-4.4-2.4-8.3-5-11.3c2.6,2.8,4.4,6.7,5.4,11.2L166.8,86.5z M46.2,95.3c-0.1,0-0.2,0-0.3,0c0-0.7-0.2-1.4-0.5-2
			c-0.2-0.3-0.3-0.6-0.4-1c0-1.4-0.2-4.3-0.1-5s0-0.7-0.2-0.7c-0.2-1.6-0.4-1.9-0.9-2.5c-0.3-0.3-0.1-0.7,0-1c0.1-0.5,0.5-0.9,1-1.2
			c0.5-0.3,1-0.7,1.4-1c0.6-0.5,1.3-0.9,1.9-1.4c0.5-0.4,1-0.8,1.5-1.2c0.8-0.6,1.5-1.3,2.1-2.2c0.1-0.2,0.2-0.3,0.3-0.5
			c0,0,0-0.1,0-0.1c0.1-0.2,0.4,0.1,0.6,0.1c0.4,0.2,0.9,0.1,1.4-0.1c0.1-0.1,0.3-0.3,0.5-0.2c0.2,0,0.2,0.3,0.3,0.5
			c0.2,0.4,0.4,0.8,0.7,1.2c0.4,0.7,0.8,1.3,1.2,2c0.6,0.9,1.2,1.7,2,2.5c0.4,0.4,0.9,0.8,1.4,1.1c0.2,0.1,0.4,0.2,0.6,0.4
			c0.6,0.5,1.3,0.9,1.5,1.7c0.4,1.3,1,2.5,1.9,3.5c1.3,1.3,2.5,2.8,3.3,4.4c0.1,0.4,0.4,0.8,0.6,1.1c0.1,0.1,0.2,0.2,0.3,0.4
			c0.1,0.1,0.2,0.2,0.3,0.4c0,0.2,0.1,0.3,0.2,0.4c0.1,0.1,0.2,0.3,0.3,0.4c0.1,0.2,0.1,0.3,0,0.5c0,0.1,0,0.3,0,0.4
			c0,0.3,0,0.5,0,0.8C69,97.5,69,97.8,69,98c0,0,0,0,0,0C61.4,97.3,53.8,96.4,46.2,95.3L46.2,95.3z"/>
		<path id="Path_1842" class="st0" d="M110.3,29.1c0,0-1.5-1.1-2.3,0.1c-0.8,1.1,0.2,1.4,0.2,1.4s0-1.2,0.9-0.9
			c0.8,0.3-1.5,2.5-2.4,0.5c0,0-1.5,0.8-1.9-0.2c-0.5-1.1,1.6-1.3,0.9-0.1c0,0,1.3-0.1,1.4-1.1c0-1-1.2-0.9-1.6-0.5s0.3-0.8,0.9-1.3
			s-0.4-1.4,0.6-3.8c0,0-1.5,2.1-2,2.7c-0.6,0.6-0.3,1.2-0.5,2.3c0,0-0.9-1.9-2.1-0.5c-1.1,1.4,0.3,1.9,0.3,1.9c0,0-0.4-0.9,0.2-1
			c0.6-0.1,1.3,0.7,0.5,1.5c-0.8,0.9-1.7-0.2-1.8-0.4c-0.5,0.6-1.3,0.6-1.9,0.2c-0.1-0.1-0.2-0.1-0.2-0.2c-0.6,0.7-1.6,0.8-2.3,0.2
			c-0.1-0.1-0.3-0.3-0.4-0.4c0.7,0.4,1.6,0.1,2-0.7c0.1-0.2,0.1-0.4,0.2-0.6c0.3-2.1,1.3-0.9,0.6-0.1c-0.6,0.7,0.3,1.5,1.2,1.2
			c0,0-1.1,0.1-0.1-1.3c0.6-0.7,0.5-1.7-0.1-2.3c-0.2-0.2-0.5-0.3-0.8-0.4c-1,0.1-1.7,0.9-1.6,1.8c0,0,0,0.1,0,0.1
			c0.2,1-0.1,1.3-0.5,1.3s-0.3-0.5,0.1-1c0.3-1.4,0.2-2.8-0.3-4.2c-0.4-0.5-1.3-5.7-1.3-5.7s-0.8,5.2-1.3,5.7
			c-0.5,1.3-0.6,2.8-0.3,4.2c0.4,0.5,0.5,1,0.1,1S94.1,28,94.2,27c0.1-1-0.6-1.8-1.5-1.9c0,0-0.1,0-0.1,0c-0.9,0.1-1.5,1-1.3,1.8
			c0,0.3,0.2,0.6,0.4,0.8c0.9,1.3-0.1,1.3-0.1,1.3c0.9,0.2,1.9-0.5,1.2-1.2c-0.7-0.7,0.3-2,0.6,0.1c0,0.8,0.7,1.4,1.5,1.4
			c0.2,0,0.4-0.1,0.6-0.2c-0.4,0.8-1.4,1-2.2,0.6c-0.2-0.1-0.3-0.2-0.4-0.4c-0.4,0.6-1.2,0.7-1.8,0.3c-0.1-0.1-0.2-0.1-0.2-0.2
			c-0.1,0.3-1,1.3-1.8,0.4c-0.8-0.9-0.1-1.6,0.5-1.5c0.6,0.1,0.2,1,0.2,1c0.1-0.1,1.5-0.6,0.3-1.9c-1.2-1.3-2.1,0.6-2.1,0.6
			c-0.2-1.1,0.1-1.6-0.5-2.3c-0.6-0.6-2-2.7-2-2.7c1,2.4,0,3.4,0.6,3.8s1.3,1.7,0.9,1.3s-1.7-0.5-1.6,0.5c0.1,1,1.4,1.1,1.4,1.1
			c-0.7-1.2,1.4-1,0.9,0.1c-0.4,1.1-1.9,0.2-1.9,0.3c-1,1.9-3.2-0.2-2.4-0.5c0.8-0.3,0.9,0.9,0.9,0.9s1-0.3,0.2-1.4
			c-0.9-1.1-2.4,0-2.3,0c0.2-1.5-2.9-2.5-2.9-2.4c2,2.2,3.7,4.6,5.1,7.2c3.9-0.8,7.9-1.3,12-1.3v0c4,0,8,0.4,12,1.2
			c1.4-2.6,3.1-5,5.1-7.2C113.2,26.6,110.1,27.6,110.3,29.1z M86.2,32.8c-0.4,0.1-0.7-0.1-0.9-0.4c-0.1-0.2,0-0.5,0.2-0.7
			c0.1,0,0.1,0,0.2,0c0.4-0.1,0.7,0.1,0.9,0.4c0.1,0.3,0,0.6-0.3,0.7C86.3,32.8,86.2,32.8,86.2,32.8z M91.2,32.1
			c-0.4,0-0.7-0.2-0.8-0.6c-0.1-0.3,0.1-0.6,0.4-0.7c0,0,0.1,0,0.1,0c0.4,0,0.7,0.2,0.8,0.6C91.8,31.8,91.6,32.1,91.2,32.1
			C91.3,32.1,91.2,32.1,91.2,32.1z M96.2,31.9c-0.4,0-0.6-0.3-0.6-0.6c0-0.4,0.3-0.6,0.6-0.6s0.6,0.3,0.6,0.6
			C96.8,31.6,96.6,31.9,96.2,31.9L96.2,31.9z M101.2,32.1c-0.3,0-0.6-0.3-0.5-0.6c0,0,0,0,0-0.1c0.1-0.4,0.4-0.6,0.8-0.6
			c0.3,0,0.6,0.3,0.5,0.6c0,0,0,0.1,0,0.1C101.9,31.9,101.5,32.1,101.2,32.1L101.2,32.1z M106.2,32.8c-0.3,0-0.5-0.3-0.5-0.5
			c0,0,0-0.1,0-0.1c0.2-0.3,0.5-0.5,0.9-0.4c0.3,0,0.5,0.3,0.5,0.5c0,0.1,0,0.1,0,0.2C107,32.7,106.6,32.8,106.2,32.8L106.2,32.8z"
			/>
		<path id="Path_1843" class="st0" d="M106.9,37.3c-7.1-1.2-14.3-1.2-21.4,0.1c-0.1-0.6-0.3-1.2-0.5-1.8c7.4-1.4,15-1.4,22.5-0.1
			C107.2,36.1,107.1,36.7,106.9,37.3z"/>
		<g id="Group_135" transform="translate(61.61 73.107)">
			<path id="Path_1844" class="st0" d="M26.4,24.6L25,26c1.1,0,2.2,0.1,3.3,0.1L26.4,24.6z"/>
			<path id="Path_1845" class="st0" d="M18,25.7c0.5-1.2,1.3-2.4,2.2-3.3l1.8-1.8c-2.6-2.7-4.8-5.7-6.5-8.9
				C13.6,8,12.3,4.1,11.5,0.1c-0.2,0-0.4,0-0.6,0c-0.1,0-0.2,0-0.3,0c0,1.2-0.5,2.3-1.5,3.1c-0.6,0.4-1.3,0.6-2,0.6
				c-1.9,0-4.3-1.3-6.7-3.6C0.2,0.3,0.1,0.5,0.1,0.7c0,0.1,0,0.1-0.1,0.2c0.3,0.4,0.7,0.8,1,1.3c0.9,1.3,1.6,2.7,2.2,4.1
				c0.2,0.5,0.4,1.1,0.5,1.6l0,0.1c0,0,0,0.1,0,0.1l0,0c0.2,0.1,0.3,0.2,0.5,0.3c0.6,0.4,1.1,0.8,1.5,1.3c0.9,0.9,1.6,2,2.1,3.2
				c0.2,0.6,0.4,1.4,0.6,2.1c0.3,1.6,0.9,3.1,1.6,4.6c0.8,0.8,1.3,1.7,1.5,2.8c0.1,0.1,0.1,0.2,0.2,0.3c0.1,0.1,0.2,0.3,0.3,0.4
				c0.2,0.5,0.3,1,0.2,1.5c0.1,0.2,0.3,0.5,0.4,0.7C14.4,25.5,16.2,25.6,18,25.7L18,25.7z"/>
		</g>
		<path id="Path_1846" class="st0" d="M95.9,99.1l0.3,0.1l0.3-0.1c2-1,3.9-2.2,5.6-3.6l-0.9-0.9c-1.6,1.2-3.2,2.3-5,3.2
			c-1.8-0.9-3.4-2-5-3.2l-0.9,0.9C92,96.9,93.9,98.1,95.9,99.1z"/>
		<path id="Path_1847" class="st0" d="M80.8,82.7l-0.1-0.2c-4.9-8.7-5.4-24-5.5-29.1c4.1-1.6,7.5-4.4,9.9-8h21.9
			c2.4,3.6,5.9,6.5,9.9,8c0,5.1-0.6,20.4-5.5,29.1l-0.1,0.2c-1.6,2.9-3.5,5.6-5.8,7.9l0.9,0.9c2.4-2.4,4.4-5.2,6.1-8.2l0.1-0.1
			c5.2-9.2,5.6-25.4,5.6-30.1v-0.4l-0.4-0.1c-4.1-1.5-7.6-4.3-9.9-8l-0.2-0.3H84.5l-0.2,0.3c-2.3,3.7-5.8,6.5-9.9,8l-0.4,0.1v0.4
			c0,4.7,0.5,20.9,5.6,30.1l0.1,0.1c1.6,3,3.7,5.8,6.1,8.3l0.9-0.9C84.4,88.3,82.4,85.6,80.8,82.7z"/>
		<g id="Group_136" transform="translate(79.911 69.411)">
			<rect id="Rectangle_36" x="23.9" y="7.4" class="st0" width="1.1" height="1.1"/>
			<path id="Path_1848" class="st0" d="M24.8,6.6c-0.1-0.1-0.1-0.1-0.2,0c0,0.1,0,0.2,0,0.2c0,0,0,0,0,0l0.5,0.5l0.5,0.5
				c0.1,0.1,0.1,0.1,0.2,0c0-0.1,0-0.2,0-0.2L24.8,6.6z"/>
			<path id="Path_1849" class="st0" d="M3.5,26.9c-0.9,1-1.4,2.1-1.6,3.4c1.3-0.2,2.5-0.8,3.5-1.6c2.6-2.5,6.2-6.1,9.7-9.5L14.9,19
				c-3.4,3.2-6.7,6.3-8.9,8.4c-0.7,0.7-1.7,1.1-2.6,1.4c0.2-1,0.7-1.9,1.4-2.6c2.1-2.1,5.3-5.4,8.5-8.7l-0.1-0.1
				C9.6,20.8,6.1,24.3,3.5,26.9z"/>
			<path id="Path_1850" class="st0" d="M25.5,5.8c-0.1-0.1-0.1-0.1-0.2,0c0,0.1,0,0.2,0,0.2c0,0,0,0,0,0l1.1,1.1
				c0.1,0.1,0.1,0.1,0.2,0c0-0.1,0-0.2,0-0.2L25.5,5.8z"/>
			<path id="Path_1851" class="st0" d="M21.1,9.2c-1.1,1.1-2.3,2.3-3.7,3.7l0.1,0.1C18.9,11.6,20.2,10.3,21.1,9.2L21.1,9.2z"/>
			<path id="Path_1852" class="st0" d="M23.2,11.2c-1.1,1-2.4,2.3-3.8,3.7l0.1,0.1C20.8,13.6,22.1,12.3,23.2,11.2
				C23.2,11.2,23.2,11.2,23.2,11.2z"/>
			<path id="Path_1853" class="st0" d="M28.9,4.7l-1.1-1.1c-0.1-0.1-0.1-0.1-0.2,0c0,0.1,0,0.2,0,0.2c0,0,0,0,0,0l1.1,1.1
				c0.1,0.1,0.1,0.1,0.2,0C28.9,4.8,28.9,4.7,28.9,4.7z"/>
			<path id="Path_1854" class="st0" d="M26.3,5.1c-0.1-0.1-0.1-0.1-0.2,0c0,0.1,0,0.2,0,0.2l1.1,1.1c0.1,0.1,0.1,0.1,0.2,0
				c0-0.1,0-0.2,0-0.2C27,5.8,26.7,5.4,26.3,5.1z"/>
			<path id="Path_1855" class="st0" d="M27,4.3c-0.1-0.1-0.1-0.1-0.2,0c0,0.1,0,0.2,0,0.2c0.4,0.4,0.7,0.7,1.1,1.1
				c0.1,0.1,0.1,0.1,0.2,0c0-0.1,0-0.2,0-0.2C27.8,5,27.4,4.7,27,4.3z"/>
			<path id="Path_1856" class="st0" d="M21.1,9.2L21.1,9.2c-1,1-2.2,2.3-3.6,3.8l1.8,1.8c1.5-1.4,2.8-2.7,3.8-3.7c0,0,0,0,0,0.1
				c-1.1,1.1-2.4,2.3-3.8,3.7l0.3,0.3l3.8-3.7c0.3-0.7,0.7-1.4,1.2-1.9l-1.3-0.8l-0.8-1.2c-0.5,0.5-1.2,1-1.9,1.2l-3.7,3.7l0.3,0.3
				C18.8,11.6,20.1,10.3,21.1,9.2z"/>
			<path id="Path_1857" class="st0" d="M3.4,28.8c1-0.2,1.9-0.7,2.6-1.4c2.1-2.1,5.5-5.2,8.9-8.4l-1.6-1.6c-3.2,3.3-6.4,6.6-8.5,8.7
				C4.1,26.9,3.6,27.8,3.4,28.8z"/>
			<path id="Path_1858" class="st0" d="M28.6,3.8V2.3l-4.3,4.3L22,4.8c0.1-0.2,0-0.5-0.1-0.7C21.6,4,21.3,4,21,4.2
				c-0.2,0.2-0.2,0.6,0,0.8c0,0,0,0,0,0c0.2,0.2,0.4,0.2,0.6,0.1l2.1,3.5l3.5,2.1c-0.1,0.2,0,0.4,0.2,0.6c0.2,0.2,0.6,0.2,0.9,0
				c0.2-0.2,0.2-0.6,0-0.8c0,0,0,0,0,0c-0.2-0.2-0.4-0.2-0.7-0.1l-1.8-2.3l4.3-4.3H28.6z M25,8.5h-1.1V7.4H25V8.5z M25.9,7.8
				c-0.1,0-0.1,0-0.2,0l-0.5-0.5l-0.5-0.5c-0.1,0-0.1-0.1,0-0.2c0,0,0,0,0,0c0.1,0,0.1,0,0.2,0l1.1,1.1C25.9,7.7,25.9,7.8,25.9,7.8
				L25.9,7.8z M26.6,7.1c-0.1,0-0.1,0-0.2,0L25.4,6c-0.1,0-0.1-0.1,0-0.2c0,0,0,0,0,0c0.1,0,0.1,0,0.2,0l1.1,1.1
				C26.7,6.9,26.7,7,26.6,7.1L26.6,7.1z M27.4,6.3c-0.1,0-0.1,0-0.2,0l-1.1-1.1c-0.1,0-0.1-0.1,0-0.2c0.1,0,0.1,0,0.2,0
				c0.4,0.4,0.7,0.7,1.1,1.1C27.4,6.2,27.4,6.3,27.4,6.3L27.4,6.3z M28.1,5.6c-0.1,0-0.1,0-0.2,0l-1.1-1.1c-0.1,0-0.1-0.1,0-0.2
				c0.1,0,0.1,0,0.2,0c0.4,0.4,0.7,0.7,1.1,1.1C28.2,5.4,28.2,5.5,28.1,5.6L28.1,5.6z M28.7,4.8l-1.1-1.1c-0.1,0-0.1-0.1,0-0.2
				c0,0,0,0,0,0c0.1,0,0.1,0,0.2,0l1.1,1.1c0.1,0,0.1,0.1,0,0.2C28.8,4.9,28.7,4.9,28.7,4.8L28.7,4.8z"/>
			<path id="Path_1859" class="st0" d="M5.3,28.7c-1,0.9-2.2,1.4-3.5,1.6c0.2-1.3,0.8-2.5,1.6-3.4c2.6-2.6,6.1-6.1,9.6-9.6L12.8,17
				l-9.9,10c-1.4,1.5-2.4,3.3-2.8,5.2c2-0.5,3.8-1.4,5.3-2.8l10.1-9.8L15,19.2C11.5,22.6,7.9,26.1,5.3,28.7z"/>
			<path id="Path_1860" class="st0" d="M32.1,0.4c-0.5-0.5-1.3-0.5-1.8,0c-0.1,0.1-0.2,0.2-0.3,0.4c-0.2,0.4-1.1-0.1-1.1,0.4v2.4
				h2.5c0.5,0,0-1,0.4-1.1c0.6-0.3,0.9-1,0.6-1.7C32.3,0.6,32.2,0.5,32.1,0.4z"/>
		</g>
		<path id="Path_1861" class="st1" d="M89.6,77c0.5,0.5,1.2,1,1.9,1.2l18,18.1c1.4,1.5,2.4,3.3,2.8,5.2c-2-0.5-3.8-1.4-5.3-2.8
			L88.9,80.9c-0.3-0.7-0.7-1.4-1.2-1.9l1.3-0.8L89.6,77L89.6,77z M85,80.8c-0.2,0.2-0.6,0.2-0.9,0c-0.2-0.2-0.2-0.6,0-0.8
			c0.2-0.2,0.4-0.2,0.7-0.1l1.8-2.3l-4.3-4.3h1.5v-1.5l4.3,4.3l2.3-1.8c-0.1-0.2-0.1-0.5,0.1-0.7c0.2-0.2,0.6-0.2,0.9,0
			c0.2,0.2,0.2,0.6,0,0.8c0,0,0,0,0,0c-0.2,0.2-0.4,0.2-0.6,0.1l-2.1,3.5l-3.5,2.1C85.2,80.4,85.1,80.6,85,80.8L85,80.8z M88.5,76.8
			v1.1h-1.1v-1.1H88.5z M87,75.4c-0.4,0.4-0.7,0.7-1.1,1.1c-0.1,0.1-0.1,0.1-0.2,0l0,0c0-0.1,0-0.2,0-0.2l1.1-1.1
			c0.1-0.1,0.1-0.1,0.2,0l0,0C87.1,75.3,87.1,75.4,87,75.4z M87.8,76.2l-0.5,0.5l-0.5,0.5c-0.1,0.1-0.1,0.1-0.2,0l0,0
			c0-0.1,0-0.2,0-0.2l1.1-1.1c0.1-0.1,0.1-0.1,0.2,0l0,0C87.9,76,87.9,76.1,87.8,76.2z M84.8,73.2l-1.1,1.1c-0.1,0.1-0.1,0.1-0.2,0
			l0,0c0-0.1,0-0.2,0-0.2l1.1-1.1c0.1-0.1,0.1-0.1,0.2,0l0,0C84.9,73,84.8,73.1,84.8,73.2z M85.5,73.9L84.5,75
			c-0.1,0.1-0.1,0.1-0.2,0l0,0c0-0.1,0-0.2,0-0.2l1.1-1.1c0.1-0.1,0.1-0.1,0.2,0l0,0C85.6,73.8,85.6,73.9,85.5,73.9L85.5,73.9z
			 M86.3,74.7l-1.1,1.1c-0.1,0.1-0.1,0.1-0.2,0l0,0c0-0.1,0-0.2,0-0.2l1.1-1.1c0.1-0.1,0.1-0.1,0.2,0l0,0
			C86.4,74.5,86.3,74.6,86.3,74.7z M83.5,70.5v2.4H81c-0.5,0,0-1-0.4-1.1c-0.1-0.1-0.3-0.1-0.4-0.3c-0.5-0.5-0.5-1.3,0-1.8
			c0,0,0,0,0,0c0.5-0.5,1.3-0.5,1.8,0c0.1,0.1,0.2,0.2,0.3,0.4C82.5,70.5,83.5,70,83.5,70.5L83.5,70.5z M109,98.2
			c-0.2-1-0.7-1.9-1.4-2.6c-4.1-4.1-12.2-12.7-16.4-17l0.1,0c4.7,4.8,12.9,12.9,17.6,17.6c0.9,1,1.4,2.1,1.6,3.4
			c-1.3-0.2-2.5-0.8-3.5-1.6c-4.8-4.7-13-12.7-17.8-17.4c0,0,0,0,0-0.1c4.3,4.2,13,12.2,17.1,16.3C107.1,97.5,108,98,109,98.2
			L109,98.2z"/>
		<path id="Path_1862" class="st0" d="M121.3,50.3c-5.1-1.3-9.3-4.7-11.8-9.3H82.8c-2.5,4.6-6.7,8-11.8,9.3c0,0-0.7,22.3,6.1,34.5
			c1.7,3.3,3.9,6.3,6.5,8.9l1.3-1.3c-2.4-2.5-4.5-5.3-6.1-8.4l0-0.1l0-0.1c-5.6-10-5.9-27.3-5.9-32.2c4.6-1.6,8.5-4.7,11.1-8.9h24.5
			c2.5,4.2,6.4,7.3,11.1,8.9c0,2-0.1,6-0.5,10.8c0.3-0.9,0.7-1.7,0.9-2.3c0.2-0.5,0.6-0.9,1.2-1.1C121.4,53.9,121.3,50.3,121.3,50.3
			z"/>
		<path id="Path_1863" class="st0" d="M121,20.7c-0.2-0.1-0.3-0.3-0.4-0.5c-0.3-0.6-0.8-0.5-1.3-0.6c-0.5,0-1,0-1.5,0.1
			c-0.5,0.1-1-0.2-1.3,0.3c-0.4-0.3-0.9-0.5-1.3-0.8c-0.4-0.2-0.9,0.2-1.2,0.9l1.2,0.2l0,0.1l-0.7,0.2l0,0.1
			c0.4,0.2,0.8,0.4,1.2,0.6c-0.3,0.5-0.2,0.7,0.4,0.8c0.1,0,0.2,0,0.3,0c0.3,0.1,0.7,0.2,1,0.3c0.6,0.3,1.3,0.3,1.9,0.1
			c0.5-0.2,1-0.4,1.5-0.6c0.4-0.1,0.7-0.6,0.6-1C121.3,21,121.2,20.8,121,20.7z"/>
		<path id="Path_1864" class="st0" d="M76.2,5.7c0.2,0,0.4,0,0.6,0c0.1,0,0.4-0.1,0.4-0.2c-0.1-0.4,0.3-0.3,0.4-0.4
			c0.1-0.1,0.3-0.2,0.5-0.3l-0.4-0.2l1-0.8c-1.1,0.1-1.7,0.9-2.6,1.1c0.1-0.2,0.3-0.3,0.5-0.5c0.1-0.2,0.3-0.3,0.4-0.5
			C77,3.9,77,3.7,77.1,3.7c0.6-0.3,1.1-0.5,1.7-0.8C77.4,3,76,3.4,74.7,4l0.4,0.3c-0.2,0.1-0.4,0.2-0.7,0.4l0.4,0
			c-0.3,0.3-1,0.2-0.9,0.9l-0.6,0.4c0.1,0.1,0.2,0.1,0.3,0.1C74.4,6,75.3,5.9,76.2,5.7z"/>
		<path id="Path_1865" class="st0" d="M124.1,8.6c0.8,0.5,1.5,1,2.3,1.5c0,0,0.1,0,0.1,0.1l0.1-0.1l-2-1.7l0,0l2.1,1.3l0.1-0.2
			c-1.1-0.8-2.4-1.4-3.6-2.1l0.9,0.3c-0.6-0.8-0.9-1.2-3-1.6c0.1,0.1,0.2,0.2,0.3,0.4h-0.8l-0.1,0.2c0.8,0.5,1.5,1,2.3,1.4
			C123.2,8.2,123.7,8.4,124.1,8.6z"/>
		<path id="Path_1866" class="st0" d="M80,4.3c-0.2,0.1-0.4,0.2-0.5,0.3l0-0.1c0.1-0.1,0.1-0.2,0.2-0.4L79.5,4l-1.6,1.2l0.3,0.2
			l-0.6,0.5l0.1,0.2l1.6-0.4C79.1,5.9,79.1,5.9,79,6s-0.2,0.2-0.2,0.3c0.1,0.1,0.1,0.2,0.3,0.2c0.6,0.1,1.2-0.3,1.3-0.9l-0.6-0.1
			l0-0.1L81,4.5C80.6,4,80.4,4,80,4.3z"/>
		<path id="Path_1867" class="st0" d="M82.5,3.4L84,2.5l0.1,0.1l-0.8,0.6c0.5,0.2,1.1,0.1,1.5-0.2c0.1-0.1,0.2-0.3,0.1-0.5
			c0-0.1-0.2-0.1-0.4-0.2c0-0.1,0.1-0.3,0-0.4c-0.1-0.1-0.3-0.1-0.5-0.1c-0.5,0.2-1.1,0.4-1.6,0.7c0,0,0,0-0.1,0.1l0.4,0.3l-0.5,0.3
			L82.5,3.4z"/>
		<path id="Path_1868" class="st0" d="M113.6,14.4c0.3,0.2,0.6,0.3,1,0.4c0.2,0,0.5,0,0.5-0.1c0.1-0.2,0-0.5-0.1-0.7
			c-0.3-0.4-0.7-0.8-1-1.2c0.4-0.3,0.4-0.4-0.2-1.1l0.8-0.3c-0.1-0.2-0.2-0.4-0.3-0.6c0.1,0,0.2,0,0.2-0.1c0.1-0.1,0.3-0.2,0.4-0.3
			l-0.3-0.3c-0.1-0.1-0.3-0.2-0.3-0.3c0-0.6-0.4-1.2-0.9-1.5c-0.2-0.1-0.2-0.3-0.4-0.6c0.8,0,0.8,0.9,1.4,1
			c-0.1-0.2-0.1-0.3-0.1-0.5c0-0.5-0.3-0.9-0.7-1.1c-0.6-0.4-1-1.1-1.2-1.8c-0.2-0.5-0.1-1.1,0.2-1.6c0-0.1,0-0.3-0.1-0.4
			c-0.6-0.5-1.5-0.5-2.2-0.8c0.2,0.4-0.1,0.6-0.5,0.6c0-0.2,0.1-0.5,0.1-0.5c-0.3-0.1-0.6-0.3-0.8-0.2c-0.3,0.2-0.4,0.1-0.6-0.2
			l0.9,0c0-0.1-0.2-0.2-0.3-0.3c-1.2-0.4-2.3-0.7-3.5-1.1c-1-0.2-2-0.2-3-0.1c-0.1,0-0.3,0.1-0.4,0.1l0.3,0.2l-0.6-0.1l0.7,0.6
			l-1.6-0.6l-0.1,0.1c0.1,0.1,0.1,0.2,0.2,0.4c-0.4-0.2-0.8-0.4-1.3-0.5c-0.5,0-0.9,0-1.4,0.1c0-0.1,0.1-0.3,0-0.3
			c-0.2-0.2-0.4-0.3-0.6-0.4c-0.6-0.2-1.2-0.4-1.9-0.5C94.9-0.1,94,0,93.1,0.3c-0.1,0-0.2,0.1-0.2,0c-0.2-0.3-0.4-0.1-0.6,0
			c-0.2,0-0.3,0.1-0.5,0.1c-0.8-0.1-1.6,0.2-2,0.9l0.8,0.3c-0.4,0.1-0.9-0.1-1.2-0.4l0.4-0.5c0-0.1-0.1-0.1-0.1-0.1
			c-0.3,0.1-0.7,0.2-1,0.3c-0.7,0.3-1.5,0.6-2.2,0.9c-0.1,0-0.2,0.2-0.3,0.3c0,0.1-0.2,0.1-0.3,0.2c-0.2,0.2-0.5,0.5-0.7,0.7
			c0.3,0.1,0.5,0.2,0.8,0.3c0.1,0,0.1,0,0.2,0c0.1,0.1,0.5,0.2,0.1,0.5c-0.1-0.2-0.3-0.3-0.5-0.3c-0.1,0-0.2,0.1-0.2,0.2
			c-0.4,0.4-0.8,0.6-1.4,0.6c-0.4,0.1-0.9,0.1-1.3,0.2c0-0.1,0-0.1,0.1-0.2c-0.2-0.1-0.3-0.4-0.5-0.4c-0.7,0-1,0.2-1,0.8l0.5,0.3
			l-1.8,1.2c0,0.1,0,0.1,0,0.2c0.4,0.1,0.9,0.3,1.3,0.4c0.6,0.1,1.2,0.1,1.9,0.2c0.8,0.1,1.5-0.1,2.2-0.6c0.3-0.2,0.2-0.4-0.1-0.6
			c-0.1-0.1-0.3-0.1-0.4-0.1c-0.6,0-1.1,0-1.7,0.1C83,6,82.6,5.8,82.4,5.5c0.3-0.3,0.8-0.4,1.3-0.3c0.4,0.1,0.7,0.1,1.1,0.1
			c0.5,0,1-0.2,1.4,0.3c0.1,0.1,0.4,0.5,0.6,0.1c0.2-0.3,0.4-0.2,0.7-0.3c0.3-0.1,0.8-0.1,0.6-0.6c0,0,0-0.1,0.1-0.1
			c0.5-0.2,1-0.4,1.5-0.6C90.5,4,91.2,3.6,91.9,3c0.2-0.2,0.4-0.3,0.6-0.3c0.4,0,0.8-0.1,1.1-0.2c0.9-0.4,1.9-0.7,2.9-0.8
			c0,0,0,0,0,0h0l1-0.4c0.1,0.4-0.1,0.5-0.3,0.5c-0.2,0-0.5-0.1-0.7-0.1l0,0l-0.1,0c-0.2,0.1-0.3,0.2-0.5,0.2
			c-0.3,0-0.6,0.2-0.8,0.5l0.7,0.3c-0.3,0.2-0.7,0.4-1.1,0.5c-0.5,0.1-1.1,0.1-1.6,0.1c-0.5,0.1-1.1,0.2-1.6,0.3
			C91,3.9,91,4.1,91.3,4.5c0.1,0.1,0.2,0.3,0.4,0.4l-1,0.3c0.1,0.2,0.3,0.3,0.3,0.5c0,0.5,0.2,0.7,0.7,0.7c0.5,0.1,0.9,0.1,1.4,0
			c0.7-0.1,1.5,0.1,2.1,0.5c0.1,0,0.1,0.2,0.1,0.3c0,0.4,0,0.8,0,1.2c0,0.5,0,1,0,1.6c0.1,0.4-0.4,0.3-0.4,0.6
			c0,0.3-0.1,0.5-0.3,0.7c-0.2,0.3-0.1,0.6,0.2,0.7c0.4,0.2,0.8,0.3,1.1,0.5c-0.2,0-0.4,0-0.7,0c-0.4-0.1-0.9,0.1-1,0.5c0,0,0,0,0,0
			c-0.2,0.3-0.1,0.7,0.1,1c0.4,0.4,0.8,0.3,1.4,0.1c0.1,0,0.2-0.4,0.3-0.6c0.3,0.1,0.3,0.4,0.2,0.6c-0.1,0.4-0.5,0.7-0.8,0.7
			c-0.4-0.1-0.8,0.1-1,0.4c-0.2,0.2-0.4,0.4-0.5,0.6c-0.7,0.8-0.9,1.9-0.5,2.9c0.1,0.2,0.1,0.5,0.1,0.7c0.1,0.4,0.1,0.8,0.2,1.2
			c0.2-1,0.5-2.4,0.7-3.7c0.1-0.9,0.9-1.5,1.8-1.5h0c0.9,0,1.7,0.7,1.8,1.5c0.3,1.7,0.6,3.4,1.1,5.1c0.2,0.3,0.3,0.7,0.4,1.1
			c0.1,0,0.2,0,0.3,0c0.2,0,0.3,0,0.5,0.1c0.3-0.4,0.6-0.7,0.8-1.1c0.3-0.3,0.6-0.6,0.9-0.9c0.2-0.2,0.3-0.4,0.4-0.6
			c0.1-0.7,0.7-1.3,1.5-1.3c0.6,0,1.1-0.1,1.7-0.2c0.9-0.2,1.7-0.6,2.3-1.3c0.4-0.5,0.9-0.7,1.5-0.8c0.7-0.1,1.4-0.2,2.1-0.2
			c1.1-0.2,2.2-0.6,3.2-1.2c0.1-0.1,0.3-0.1,0.4-0.1l-0.1-0.2c-0.4-0.1-0.7-0.2-1.1-0.3c-0.4-0.1-0.7-0.3-0.5-0.9
			C113.2,14.2,113.4,14.3,113.6,14.4z"/>
		<path id="Path_1869" class="st0" d="M126.8,34.1c0.3,0.3,0.3,0.8,0,1.1c-0.2,0.2-0.2,0.6,0,0.8c0,0,0.1,0.1,0.2,0.1
			c0.3,0.3,0.8,0.4,1.2,0.2c0.3-0.1,0.5-0.2,0.8-0.3c0.9-0.3,1.1-0.5,0.9-1.5c0-0.3,0-0.5,0.1-0.8c0-0.2,0-0.4-0.1-0.6
			c-0.1-0.2-0.2-0.3-0.3-0.5c0.1,0,0.2,0.1,0.3,0.1c0.3,0.2,0.6,0.4,0.9,0.6c0.4,0.2,0.7,0.5,0.8,0.9c0.1,0.3,0,0.4-0.3,0.4
			c-0.6,0-0.7,0.2-0.4,0.7c0.2,0.3,0.1,0.4-0.1,0.6c-0.3,0.2-0.3,0.4,0.1,0.6c0.2,0.1,0.5,0.2,0.7,0.3c-0.3,0.4-0.6,0.7-0.9,1
			c-0.2,0.2-0.1,0.4,0.2,0.4c0.4,0,0.8-0.1,1.3-0.2c0.3-0.1,0.6-0.2,1-0.2c0.5-0.1,1,0,1.6-0.1s0.7-0.3,0.6-0.8c0-0.2,0-0.4,0-0.5
			c0.1-0.7,0-0.8-0.6-1.2c-0.2-0.2-0.5-0.4-0.6-0.6c-0.7-0.8-1.3-1.6-2-2.4c-0.3-0.3-0.5-0.7-0.5-1.1c0-0.3,0-0.7-0.4-0.8
			c-0.4,0-0.8-0.4-0.8-0.8c0-0.1,0-0.2,0-0.2c0-0.1,0-0.1,0-0.2c-0.1-0.1-0.3-0.2-0.4-0.1c-0.5,0.2-0.9,0.5-1.4,0.8
			c0-0.1-0.1-0.2-0.2-0.3c-0.2-0.1-0.4-0.1-0.5,0c-0.3,0.3-0.2,0.8,0.1,1c0.1,0,0.1,0.1,0.2,0.1c0.2,0.1,0.4,0.2,0.5,0.4
			c0.2,0.4,0.4,0.9,0.6,1.4c-0.3,0-0.6-0.1-0.9-0.1c-0.3-0.1-0.6,0.1-0.7,0.4c-0.1,0.1-0.2,0.2-0.3,0.3
			C126.6,33.2,126.4,33.6,126.8,34.1z"/>
		<path id="Path_1870" class="st0" d="M142.3,32.4c0-0.3-0.1-0.5-0.1-0.8c0-0.1-0.1-0.1-0.2-0.2c-0.1,0.1-0.2,0.2-0.2,0.3
			c0.1,0.3,0.2,0.5,0.3,0.8L142.3,32.4z"/>
		<g id="Group_137" transform="translate(36.591 99.302)">
			<path id="Path_1871" class="st2" d="M2.6,0.4C2.9,0.2,3,0.1,3.1,0l0,1.6L3,1.6C2.9,1.2,2.7,0.8,2.5,0.5c-0.3-0.3-0.6-0.4-1-0.4
				c-0.2,0-0.5,0-0.7,0.2C0.6,0.4,0.5,0.6,0.5,0.9c0,0.3,0.1,0.5,0.4,0.7c0.3,0.2,0.7,0.3,1,0.4C2.2,2,2.6,2.1,3,2.3
				C3.3,2.6,3.5,3,3.5,3.4c0,0.4-0.2,0.8-0.5,1.1C2.7,4.8,2.4,4.9,2,4.9c-0.3,0-0.5,0-0.8-0.1C1,4.6,0.8,4.5,0.6,4.3
				C0.3,4.6,0.2,4.8,0.2,4.9l0-2l0.1,0c0.1,0.3,0.2,0.7,0.3,1C0.6,4,0.8,4.2,0.9,4.4C1.2,4.7,1.6,4.8,2,4.8c0.2,0,0.5-0.1,0.6-0.2
				C2.9,4.4,3,4.2,3,3.9c0-0.3-0.2-0.6-0.4-0.8C2.2,3,1.9,2.9,1.5,2.8C1.1,2.7,0.7,2.5,0.4,2.3C0.1,2.1,0,1.7,0,1.3
				c0-0.4,0.1-0.7,0.4-1C0.7,0.1,1,0,1.4,0c0.3,0,0.5,0,0.8,0.1C2.3,0.2,2.4,0.3,2.6,0.4z"/>
			<path id="Path_1872" class="st2" d="M6,2.6l-0.2,2c0,0.1,0,0.2,0,0.3c0,0,0.1,0.1,0.1,0.1C6,5,6.1,5,6.2,5c0.1,0,0.3,0,0.5,0.1
				c0.5,0.1,1,0,1.3-0.4c0.4-0.4,0.6-1,0.7-1.5l0.1,0L8.6,5.4L3.8,4.9l0-0.1c0.3,0,0.6,0.1,0.9,0c0,0,0.1,0,0.1-0.1
				c0-0.1,0-0.2,0.1-0.3l0.4-3.8c0-0.1,0-0.2,0-0.3c0,0,0,0-0.1-0.1C5.1,0.3,5,0.3,4.9,0.3c-0.2,0-0.4-0.1-0.5-0.1l0-0.1l4.5,0.5
				L8.7,2.5l-0.1,0c0-0.4,0-0.8-0.2-1.1c-0.1-0.4-0.5-0.8-1-0.8c-0.2,0-0.4,0-0.6-0.1c-0.2,0-0.3,0-0.5,0c0,0-0.1,0-0.1,0.1
				c0,0.1-0.1,0.2-0.1,0.3L6,2.6c0.3,0,0.7,0,1-0.1c0.3-0.3,0.5-0.8,0.5-1.2l0.1,0L7.2,4.2l-0.1,0c0.1-0.4,0-0.9-0.2-1.3
				C6.6,2.7,6.3,2.6,6,2.6z"/>
			<path id="Path_1873" class="st2" d="M13,4.1c0,0.5-0.3,1.1-0.6,1.5C12,5.9,11.5,6,11.1,5.9c-0.5-0.1-1-0.3-1.4-0.8
				C9.3,4.6,9.2,3.9,9.3,3.2c0.1-0.7,0.5-1.3,1-1.8C10.7,1.1,11.2,1,11.7,1c0.2,0,0.4,0.1,0.6,0.2c0.2,0.2,0.4,0.4,0.5,0.6l0.5-0.6
				l0,0L13,3.4l-0.1,0c0.1-0.5,0-1.1-0.3-1.6c-0.2-0.3-0.5-0.5-0.8-0.6c-0.4-0.1-0.8,0.1-1,0.4c-0.3,0.5-0.5,1.1-0.6,1.7
				c-0.1,0.6-0.1,1.2,0,1.8c0.1,0.4,0.4,0.7,0.8,0.7c0.4,0.1,0.8,0,1.1-0.2C12.7,5.2,12.9,4.7,13,4.1L13,4.1z"/>
			<path id="Path_1874" class="st2" d="M17.4,5.3c0,0.5-0.3,0.9-0.8,1.1c-0.3,0.1-0.6,0.2-0.9,0.1c-0.5-0.1-0.9-0.2-1.3-0.6
				c-0.4-0.3-0.5-0.7-0.5-1.1L14.5,2c0-0.1,0-0.2,0-0.3c0,0,0-0.1-0.1-0.1c-0.2-0.1-0.5-0.2-0.8-0.2l0-0.1l2.8,0.4l0,0.1
				c-0.2,0-0.4,0-0.5-0.1c-0.1,0-0.2,0-0.3,0c0,0-0.1,0-0.1,0c0,0.1-0.1,0.2-0.1,0.3l-0.4,2.7C14.9,5.2,14.9,5.6,15,6
				c0.2,0.3,0.5,0.5,0.9,0.5c0.3,0,0.5,0,0.8-0.2C17,6.1,17.3,5.7,17.4,5.3l0.2-1.9c0.1-0.4,0.1-0.7-0.1-1.1
				c-0.2-0.2-0.4-0.4-0.7-0.4l0-0.1l2,0.3l0,0.1c-0.3-0.1-0.6,0-0.8,0.2c-0.1,0.2-0.2,0.5-0.2,0.7L17.4,5.3z"/>
			<path id="Path_1875" class="st2" d="M23.2,6.5l0,0.2c0,0.2-0.1,0.4-0.2,0.6c-0.1,0.2-0.3,0.3-0.6,0.2c-0.3,0-0.5-0.2-0.6-0.5
				c-0.1-0.4,0-0.8,0-1.2l0-0.2c0,0,0-0.1,0-0.2C22,5.4,22,5.2,21.8,5c-0.1-0.1-0.3-0.2-0.5-0.2l-0.9-0.1l-0.3,2c0,0.1,0,0.2,0,0.3
				c0,0,0.1,0.1,0.1,0.1c0.1,0,0.2,0.1,0.3,0.1c0.2,0,0.4,0.1,0.5,0.1l0,0.1l-3-0.4l0-0.1c0.3,0.1,0.6,0.1,0.9,0.1
				c0,0,0.1,0,0.1-0.1c0-0.1,0.1-0.2,0.1-0.3l0.5-3.7c0-0.1,0-0.2,0-0.3c0,0,0,0-0.1-0.1c-0.3-0.1-0.6-0.2-0.9-0.2l0-0.1l3,0.4
				c0.5,0,0.9,0.3,1.2,0.6c0.2,0.2,0.3,0.5,0.3,0.7c0,0.3-0.2,0.5-0.4,0.7c-0.4,0.2-0.8,0.3-1.2,0.3c0.5,0.1,0.8,0.5,0.9,1
				c0,0.4,0,0.7,0,1.1c0,0.1,0,0.2,0,0.3c0,0.1,0.1,0.1,0.2,0.1S23,7.3,23,7.2C23.1,7,23.1,6.7,23.2,6.5L23.2,6.5z M20.5,4.6
				l0.7,0.1c0.3,0.1,0.6,0,0.8-0.1c0.3-0.2,0.4-0.4,0.4-0.7c0.1-0.3,0-0.6-0.1-0.9c-0.2-0.2-0.5-0.4-0.8-0.4l-0.3,0
				c-0.1,0-0.2,0-0.2,0c0,0-0.1,0-0.1,0.1c0,0.1,0,0.2-0.1,0.3L20.5,4.6z"/>
			<path id="Path_1876" class="st2" d="M26.3,6.3l-1.4-0.2l-0.3,0.6c-0.1,0.1-0.1,0.3-0.1,0.4c0,0.2,0,0.3,0.2,0.4
				c0.2,0.1,0.4,0.2,0.6,0.2l0,0.1l-1.9-0.2l0-0.1c0.3,0.1,0.6-0.1,0.8-0.3c0.2-0.3,0.4-0.5,0.5-0.8l1.7-3.3l0.1,0l1,4.5
				c0,0.1,0.1,0.3,0.2,0.4c0.2,0.1,0.4,0.1,0.6,0.1l0,0.1l-2.7-0.3l0-0.1c0.3,0,0.5,0.1,0.8,0.1c0.1,0,0.2-0.1,0.2-0.1l0-0.1
				L26.3,6.3z M26.3,6.2l-0.4-1.9l-0.9,1.8L26.3,6.2z"/>
			<path id="Path_1877" class="st2" d="M33.1,8.7c0.5,0.1,1-0.1,1.4-0.4c0.4-0.4,0.6-1,0.6-1.6l0.1,0L35,9l-4.8-0.5l0-0.1
				c0.2,0,0.4,0,0.6,0c0.1,0,0.2,0,0.3,0c0,0,0.1,0,0.1-0.1c0-0.1,0.1-0.2,0.1-0.2l0.4-3.8c0-0.1,0-0.2,0-0.3c0,0,0,0-0.1-0.1
				c-0.1,0-0.2-0.1-0.3-0.1c-0.2,0-0.4-0.1-0.5-0.1l0-0.1l3,0.3l0,0.1c-0.3,0-0.5,0-0.6,0c-0.1,0-0.2,0-0.3,0c0,0-0.1,0-0.1,0.1
				c0,0.1-0.1,0.2-0.1,0.3l-0.4,3.7c0,0.1,0,0.2,0,0.3c0,0,0,0,0.1,0.1C32.6,8.6,32.8,8.7,33.1,8.7z"/>
			<path id="Path_1878" class="st2" d="M37.6,5l-0.4,3.8c0,0.1,0,0.2,0,0.3c0,0,0,0,0.1,0.1c0.3,0.1,0.6,0.2,0.9,0.2l0,0.1L35.3,9
				l0-0.1c0.2,0,0.4,0,0.5,0c0.1,0,0.2,0,0.3,0c0,0,0.1,0,0.1-0.1c0-0.1,0-0.2,0-0.3l0.4-3.8c0-0.1,0-0.2,0-0.3c0,0,0,0-0.1-0.1
				c-0.3-0.1-0.6-0.2-0.9-0.2l0-0.1l2.9,0.3l0,0.1c-0.2,0-0.4,0-0.5,0c-0.1,0-0.2,0-0.3,0l-0.1,0C37.7,4.7,37.6,4.8,37.6,5z"/>
			<path id="Path_1879" class="st2" d="M41.8,9.6l-3.4-0.3l0-0.1c0.3,0,0.6,0,0.9,0c0,0,0.1,0,0.1-0.1c0-0.1,0.1-0.2,0.1-0.3
				l0.3-3.8c0-0.1,0-0.2,0-0.3c0,0,0,0-0.1-0.1c-0.3-0.1-0.6-0.1-0.9-0.2l0-0.1l3,0.2c0.5,0,0.9,0.2,1.2,0.5
				c0.2,0.2,0.3,0.4,0.3,0.7c0,0.2-0.1,0.5-0.3,0.6c-0.3,0.2-0.8,0.3-1.2,0.3c0.5,0.1,0.9,0.3,1.2,0.6c0.2,0.2,0.3,0.5,0.3,0.9
				c0,0.3-0.2,0.6-0.4,0.7C42.7,9.5,42.3,9.7,41.8,9.6z M41.5,7.1L40.6,7l-0.2,2c0,0.1,0,0.2,0,0.3c0,0,0.1,0.1,0.1,0.1
				c0.1,0,0.1,0.1,0.2,0.1c0.1,0,0.3,0,0.6,0.1c0.3,0,0.6,0,0.8-0.3c0.2-0.2,0.3-0.5,0.3-0.8c0-0.3,0-0.7-0.2-1
				C42.1,7.3,41.8,7.1,41.5,7.1z M40.6,7L41.3,7c0.3,0,0.6,0,0.8-0.1c0.2-0.2,0.4-0.5,0.4-0.8c0.1-0.3,0-0.6-0.2-0.9
				C42,5,41.7,4.9,41.4,4.9l-0.4,0c-0.1,0-0.2,0-0.2,0c0,0-0.1,0-0.1,0.1c0,0.1,0,0.2,0,0.3L40.6,7z"/>
			<path id="Path_1880" class="st2" d="M45.8,7.4l-0.1,2c0,0.1,0,0.2,0,0.3c0,0,0.1,0.1,0.1,0.1c0.1,0,0.2,0.1,0.3,0.1
				c0.1,0,0.3,0,0.5,0c0.5,0.1,0.9-0.1,1.3-0.4c0.4-0.4,0.6-1,0.6-1.6l0.1,0L48.5,10l-4.8-0.3l0-0.1c0.3,0,0.6,0,0.9,0
				c0,0,0.1,0,0.1-0.1c0-0.1,0-0.2,0-0.3L45,5.6c0-0.1,0-0.2,0-0.3c0,0,0,0-0.1-0.1c-0.1,0-0.2-0.1-0.3-0.1c-0.2,0-0.4-0.1-0.5-0.1
				V5l4.5,0.3l-0.1,1.8l-0.1,0c0-0.4-0.1-0.8-0.2-1.1c-0.2-0.4-0.6-0.7-1-0.7c-0.2,0-0.4,0-0.6,0c-0.2,0-0.3,0-0.5,0
				c0,0-0.1,0-0.1,0.1c0,0.1,0,0.2,0,0.3L45.8,7.4c0.3,0,0.6-0.1,0.9-0.2C47,6.9,47.1,6.5,47.2,6l0.1,0l-0.2,2.9l-0.1,0
				c0-0.4-0.1-0.9-0.3-1.3C46.4,7.5,46.1,7.4,45.8,7.4z"/>
			<path id="Path_1881" class="st2" d="M53.8,9.2l0,0.2c0,0.2,0,0.4-0.1,0.6c-0.1,0.2-0.3,0.3-0.5,0.3c-0.3,0-0.5-0.1-0.7-0.4
				c-0.1-0.4-0.1-0.8-0.1-1.2l0-0.2c0,0,0-0.1,0-0.2c0-0.2,0-0.4-0.2-0.5c-0.2-0.1-0.3-0.2-0.5-0.2l-0.9,0l-0.1,2c0,0.1,0,0.2,0,0.3
				c0,0,0.1,0.1,0.1,0.1c0.1,0,0.2,0.1,0.3,0.1c0.2,0,0.4,0,0.5,0v0.1l-3-0.1V10c0.3,0,0.6,0,0.9,0c0,0,0.1,0,0.1-0.1
				c0-0.1,0-0.2,0-0.3l0.1-3.8c0-0.1,0-0.2,0-0.3c0,0,0,0-0.1-0.1c-0.3-0.1-0.6-0.1-0.9-0.1V5.3l3,0.1c0.5,0,0.9,0.2,1.2,0.5
				c0.2,0.2,0.3,0.4,0.4,0.7c0,0.3-0.1,0.5-0.3,0.7c-0.3,0.2-0.7,0.4-1.1,0.4c0.5,0.1,0.9,0.4,1,0.9c0.1,0.4,0.1,0.7,0.1,1.1
				c0,0.1,0,0.2,0,0.3c0,0.1,0.1,0.1,0.2,0.1s0.2-0.1,0.2-0.2C53.7,9.6,53.8,9.4,53.8,9.2L53.8,9.2z M50.9,7.6l0.7,0
				c0.3,0,0.6,0,0.8-0.2c0.2-0.2,0.4-0.5,0.3-0.8c0-0.3,0-0.6-0.2-0.9c-0.2-0.2-0.5-0.3-0.8-0.3l-0.4,0c-0.1,0-0.2,0-0.2,0
				c0,0-0.1,0-0.1,0.1c0,0.1,0,0.2,0,0.3L50.9,7.6z"/>
			<path id="Path_1882" class="st2" d="M58.4,5.5l0,2.1h-0.1c0-0.6-0.2-1.2-0.5-1.7c-0.2-0.3-0.5-0.4-0.9-0.4c-0.1,0-0.1,0-0.2,0
				c0,0,0,0.1,0,0.2l0,4c0,0.1,0,0.2,0,0.3c0,0,0.1,0.1,0.1,0.1c0.1,0,0.2,0.1,0.3,0.1c0.2,0,0.4,0,0.7,0v0.1l-3.2,0v-0.1
				c0.3,0,0.5,0,0.7,0c0.1,0,0.2,0,0.3-0.1c0,0,0.1,0,0.1-0.1c0-0.1,0-0.2,0-0.3l0-4c0-0.1,0-0.2,0-0.2c-0.1,0-0.1,0-0.2,0
				c-0.3,0-0.7,0.1-0.9,0.4c-0.3,0.5-0.5,1.1-0.6,1.6h-0.1l0-2.1L58.4,5.5z"/>
			<path id="Path_1883" class="st2" d="M61.4,8.6H60l-0.2,0.6c-0.1,0.1-0.1,0.3-0.1,0.4c0,0.2,0.1,0.3,0.2,0.4
				c0.2,0.1,0.4,0.1,0.6,0.1v0.1h-1.9v-0.1c0.3,0,0.6-0.1,0.8-0.4c0.2-0.3,0.3-0.6,0.4-0.9L61,5.5h0.1l1.6,4.3
				c0.1,0.2,0.1,0.3,0.2,0.4c0.2,0.1,0.4,0.1,0.7,0.1v0.1l-2.7,0v-0.1c0.3,0,0.5,0,0.8,0c0.1,0,0.2-0.1,0.2-0.2l0-0.1L61.4,8.6z
				 M61.4,8.5l-0.7-1.9L60,8.5L61.4,8.5z"/>
			<path id="Path_1884" class="st2" d="M68,5.4l0,2.1h-0.1c0-0.6-0.2-1.2-0.6-1.6c-0.2-0.3-0.6-0.4-0.9-0.4c-0.1,0-0.1,0-0.2,0
				c0,0,0,0.1,0,0.2l0.1,4c0,0.1,0,0.2,0,0.3c0,0,0,0,0.1,0.1c0.1,0,0.2,0,0.3,0c0.2,0,0.4,0,0.7,0v0.1l-3.2,0.1v-0.1
				c0.3,0,0.5,0,0.7,0c0.1,0,0.2,0,0.3-0.1c0,0,0.1,0,0.1-0.1c0-0.1,0-0.2,0-0.3l-0.1-4c0-0.1,0-0.2,0-0.2c-0.1,0-0.1,0-0.2,0
				c-0.3,0-0.7,0.1-0.9,0.4C64,6.4,63.8,7,63.8,7.6h-0.1l0-2.1L68,5.4z"/>
			<path id="Path_1885" class="st2" d="M70,7.6l0.1,2c0,0.1,0,0.2,0,0.3c0,0,0.1,0.1,0.1,0.1c0.1,0,0.2,0,0.3,0c0.1,0,0.3,0,0.5,0
				c0.5,0,0.9-0.2,1.2-0.6c0.3-0.5,0.5-1,0.5-1.6h0.1L73,10l-4.8,0.2v-0.1c0.3,0,0.6,0,0.9-0.1c0,0,0.1,0,0.1-0.1c0-0.1,0-0.2,0-0.3
				l-0.2-3.8c0-0.1,0-0.2,0-0.3c0,0-0.1,0-0.1-0.1c-0.1,0-0.2,0-0.3,0c-0.2,0-0.4,0-0.5,0V5.4l4.5-0.2l0.1,1.8l-0.1,0
				c0-0.4-0.1-0.7-0.3-1.1c-0.2-0.4-0.6-0.7-1.1-0.6c-0.2,0-0.4,0-0.6,0c-0.2,0-0.3,0-0.5,0.1c0,0-0.1,0-0.1,0.1c0,0.1,0,0.2,0,0.3
				L70,7.6c0.3,0,0.7-0.1,0.9-0.3c0.2-0.4,0.4-0.8,0.3-1.3h0.1L71.5,9h-0.1c0-0.4-0.2-0.9-0.4-1.2C70.7,7.6,70.4,7.6,70,7.6z"/>
			<path id="Path_1886" class="st2" d="M77.1,7.5l0.1,1.7c0,0.1,0,0.2,0,0.3c0,0,0,0,0.1,0.1c0.1,0,0.2,0,0.3,0c0.2,0,0.4,0,0.7,0
				v0.1l-3.2,0.2l0-0.1c0.2,0,0.5,0,0.6-0.1c0.1,0,0.2,0,0.3-0.1c0.1,0,0.1,0,0.1-0.1c0-0.1,0-0.2,0-0.3l-0.3-3.8c0-0.1,0-0.2,0-0.3
				c0,0-0.1,0-0.1-0.1c-0.3,0-0.6-0.1-1,0l0-0.1l2.8-0.2c0.5-0.1,1,0,1.4,0.3c0.3,0.2,0.5,0.6,0.5,1c0,0.3-0.1,0.6-0.3,0.8
				c-0.3,0.3-0.7,0.5-1.2,0.5L77.1,7.5z M77.1,7.5l0.7-0.1c0.3,0,0.6-0.1,0.8-0.4c0.3-0.6,0.2-1.3-0.2-1.8C78.3,5,78,4.9,77.6,5
				l-0.4,0c-0.1,0-0.2,0-0.2,0c0,0-0.1,0.1-0.1,0.1c0,0.1,0,0.2,0,0.3L77.1,7.5z"/>
			<path id="Path_1887" class="st2" d="M81.8,6.8l0.2,2c0,0.1,0,0.2,0,0.3c0,0,0.1,0.1,0.1,0.1c0.1,0,0.2,0,0.3,0c0.1,0,0.3,0,0.5,0
				c0.5,0,0.9-0.2,1.2-0.6c0.3-0.5,0.4-1.1,0.4-1.6l0.1,0L84.9,9l-4.8,0.4l0-0.1c0.3,0,0.6-0.1,0.9-0.2c0,0,0.1,0,0.1-0.1
				c0-0.1,0-0.2,0-0.3l-0.4-3.8c0-0.1,0-0.2-0.1-0.3c0,0-0.1,0-0.1,0c-0.1,0-0.2,0-0.3,0c-0.2,0-0.4,0-0.5,0l0-0.1l4.5-0.4l0.2,1.8
				l-0.1,0c0-0.4-0.2-0.7-0.4-1.1c-0.2-0.4-0.7-0.6-1.1-0.6c-0.2,0-0.4,0-0.6,0.1c-0.2,0-0.3,0.1-0.5,0.1c0,0-0.1,0-0.1,0.1
				c0,0.1,0,0.2,0,0.3L81.8,6.8c0.3-0.1,0.6-0.1,0.9-0.3C82.9,6.1,83,5.7,83,5.2l0.1,0l0.3,2.9l-0.1,0c0-0.4-0.2-0.9-0.5-1.2
				C82.4,6.8,82.1,6.8,81.8,6.8z"/>
			<path id="Path_1888" class="st2" d="M90.1,7.4l0,0.2c0,0.2,0,0.4,0,0.6c-0.1,0.2-0.3,0.3-0.5,0.3c-0.3,0.1-0.6-0.1-0.7-0.3
				c-0.2-0.4-0.2-0.8-0.3-1.2l0-0.2c0-0.1,0-0.1,0-0.2c0-0.2-0.1-0.4-0.2-0.5c-0.2-0.1-0.4-0.1-0.5-0.1L87,6.3l0.2,2
				c0,0.1,0,0.2,0.1,0.3c0,0,0.1,0.1,0.1,0.1c0.1,0,0.2,0,0.3,0c0.2,0,0.4,0,0.5-0.1l0,0.1l-3,0.3l0-0.1c0.3,0,0.6-0.1,0.9-0.2
				c0,0,0.1-0.1,0.1-0.1c0-0.1,0-0.2,0-0.3l-0.4-3.8c0-0.1,0-0.2-0.1-0.3c0,0-0.1,0-0.1,0c-0.3,0-0.6,0-0.9,0l0-0.1l3-0.3
				c0.5-0.1,0.9,0,1.3,0.3c0.2,0.1,0.4,0.4,0.5,0.7c0,0.3,0,0.5-0.2,0.7c-0.3,0.3-0.7,0.5-1.1,0.5c0.5,0,0.9,0.3,1.1,0.8
				c0.1,0.3,0.2,0.7,0.2,1.1c0,0.1,0,0.2,0.1,0.3c0,0.1,0.1,0.1,0.2,0.1c0.1,0,0.2-0.1,0.2-0.3C90.1,7.8,90,7.6,90.1,7.4L90.1,7.4z
				 M86.9,6.2l0.7-0.1c0.3,0,0.5-0.1,0.8-0.3c0.2-0.2,0.3-0.5,0.2-0.8c0-0.3-0.1-0.6-0.3-0.8C88,4,87.7,4,87.4,4l-0.3,0
				c-0.1,0-0.2,0-0.2,0c0,0-0.1,0.1-0.1,0.1c0,0.1,0,0.2,0,0.3L86.9,6.2z"/>
			<path id="Path_1889" class="st2" d="M93.6,3.2l1.7,3.2l0.6-3.5l2-0.3l0,0.1c-0.3,0-0.6,0.1-0.9,0.2c0,0-0.1,0-0.1,0.1
				c0,0.1,0,0.2,0,0.3L97.4,7c0,0.1,0,0.2,0.1,0.3c0,0,0.1,0,0.1,0c0.1,0,0.2,0,0.3,0c0.2,0,0.4,0,0.5-0.1l0,0.1l-2.8,0.4l0-0.1
				c0.2,0,0.3-0.1,0.5-0.1c0.1,0,0.2-0.1,0.3-0.1c0.1,0,0.1-0.1,0.1-0.1c0-0.1,0-0.2,0-0.3l-0.5-4c0-0.1,0-0.1,0-0.1s0,0,0,0.1
				l-0.7,4.6l-0.2,0l-2.2-4.3l-0.1-0.1c0,0,0,0,0,0.1l0.4,3.1c0,0.4,0.1,0.7,0.4,1c0.2,0.2,0.6,0.2,0.8,0.1l0,0.1l-2.1,0.3l0-0.1
				c0.3,0,0.5-0.1,0.7-0.4c0.1-0.3,0.2-0.6,0.1-0.9l-0.3-2.3c0-0.3-0.1-0.6-0.3-0.9c-0.2-0.2-0.5-0.2-0.8-0.2l0-0.1L93.6,3.2z"/>
			<path id="Path_1890" class="st2" d="M102.7,4.3c0.1,0.7-0.1,1.3-0.5,1.9c-0.7,0.9-2,1.2-2.9,0.5c0,0,0,0-0.1,0
				c-0.6-0.4-0.9-1-1-1.7c-0.1-0.7,0.1-1.3,0.5-1.9c0.3-0.5,0.8-0.8,1.4-0.8c0.6-0.1,1.1,0.1,1.6,0.4C102.3,3,102.6,3.6,102.7,4.3z
				 M101.7,4.5c-0.1-0.6-0.2-1.2-0.6-1.7c-0.3-0.5-0.9-0.6-1.4-0.3c-0.2,0.1-0.4,0.3-0.4,0.6c-0.2,0.6-0.2,1.2-0.1,1.8
				c0.1,0.6,0.2,1.2,0.6,1.7c0.2,0.3,0.6,0.5,1,0.5c0.4-0.1,0.7-0.3,0.8-0.7C101.8,5.7,101.8,5.1,101.7,4.5L101.7,4.5z"/>
			<path id="Path_1891" class="st2" d="M106.9,1.3l0.3,2.1l-0.1,0c-0.1-0.6-0.4-1.1-0.8-1.6c-0.3-0.2-0.6-0.3-0.9-0.2
				c-0.1,0-0.1,0-0.2,0c0,0,0,0.1,0,0.2l0.6,3.9c0,0.1,0,0.2,0.1,0.3c0,0,0.1,0,0.1,0c0.1,0,0.2,0,0.3,0c0.2,0,0.4,0,0.7-0.1l0,0.1
				l-3.2,0.5l0-0.1c0.3,0,0.5-0.1,0.7-0.1c0.1,0,0.2-0.1,0.3-0.1c0,0,0.1-0.1,0.1-0.1c0-0.1,0-0.2,0-0.3l-0.6-3.9
				c0-0.1,0-0.2-0.1-0.2c-0.1,0-0.1,0-0.2,0c-0.3,0-0.6,0.2-0.8,0.5C103.1,2.8,103,3.4,103,4l-0.1,0l-0.3-2.1L106.9,1.3z"/>
			<path id="Path_1892" class="st2" d="M111.9,4c0.1,0.5-0.1,0.9-0.5,1.3c-0.2,0.2-0.5,0.3-0.8,0.4c-0.5,0.1-1,0-1.4-0.2
				c-0.4-0.2-0.7-0.6-0.7-1l-0.3-2.9c0-0.1,0-0.2-0.1-0.3c0,0-0.1,0-0.1,0c-0.3,0-0.5,0-0.8,0l0-0.1l2.8-0.3l0,0.1
				c-0.2,0-0.4,0-0.5,0.1c-0.1,0-0.2,0-0.3,0.1c-0.1,0-0.1,0.1-0.1,0.1c0,0.1,0,0.2,0,0.3l0.3,2.8c0,0.4,0.1,0.7,0.3,1
				c0.3,0.3,0.6,0.4,1,0.3c0.3,0,0.5-0.2,0.7-0.3C111.7,4.9,111.9,4.5,111.9,4l-0.3-1.9c0-0.4-0.1-0.7-0.3-1
				c-0.2-0.2-0.5-0.3-0.8-0.2l0-0.1l2-0.2l0,0.1c-0.3,0-0.6,0.1-0.7,0.4c-0.1,0.2-0.1,0.5-0.1,0.8L111.9,4z"/>
			<path id="Path_1893" class="st2" d="M114.7,0.5l1.3,3.4l1-3.4l2,0v0.1c-0.3,0-0.6,0-0.9,0.1c0,0-0.1,0-0.1,0.1c0,0.1,0,0.2,0,0.3
				l0.1,3.8c0,0.1,0,0.2,0,0.3c0,0,0,0,0.1,0.1c0.1,0,0.2,0,0.3,0.1c0.2,0,0.3,0,0.6,0v0.1l-2.8,0.1V5.2c0.2,0,0.3,0,0.5,0
				c0.1,0,0.2,0,0.3-0.1c0.1,0,0.1,0,0.1-0.1c0-0.1,0-0.2,0-0.3l-0.1-4c0-0.1,0-0.1,0-0.1s0,0-0.1,0.1l-1.3,4.5h-0.2L114,0.8
				l-0.1-0.1c0,0,0,0,0,0.1l0.1,3.1c0,0.4,0,0.7,0.2,1.1c0.2,0.2,0.5,0.3,0.8,0.2v0.1l-2.1,0V5.2c0.3,0,0.5-0.1,0.7-0.3
				c0.2-0.3,0.2-0.6,0.2-0.9l0-2.3c0-0.3-0.1-0.6-0.2-0.9c-0.2-0.2-0.5-0.3-0.7-0.2V0.6L114.7,0.5z"/>
		</g>
	</g>
</g>
</svg>
