<?xml version="1.0" encoding="utf-8"?>
<!-- Generator: Adobe Illustrator 26.3.1, SVG Export Plug-In . SVG Version: 6.00 Build 0)  -->
<svg version="1.1" id="Layer_1" xmlns="http://www.w3.org/2000/svg" xmlns:xlink="http://www.w3.org/1999/xlink" x="0px" y="0px"
	 viewBox="0 0 214 61" style="enable-background:new 0 0 214 61;" xml:space="preserve">
<style type="text/css">
	.st0{fill:#D6AA51;}
</style>
<path id="Path_1792" class="st0" d="M24.1,60.6h-0.8v-8.3h0.8V60.6z"/>
<path id="Path_1793" class="st0" d="M39.7,60.6h-0.8l-4.9-7.2v7.2h-0.8v-8.3h0.8l4.9,7.1l-0.1-7.1h0.8V60.6z"/>
<path id="Path_1794" class="st0" d="M51,60.6h-0.8V53h-2.6v-0.7h6V53H51L51,60.6z"/>
<path id="Path_1795" class="st0" d="M67.2,60.6h-5.7v-8.3h5.4V53h-4.6V56h4.2v0.7h-4.2v3.2h4.9L67.2,60.6z"/>
<path id="Path_1796" class="st0" d="M82.2,60.6h-1l-2.6-3.7h-1.9v3.7h-0.8v-8.3h2.3c0.8-0.1,1.6,0,2.3,0.2c0.9,0.3,1.5,1.2,1.5,2.2
	c0,0.6-0.2,1.2-0.6,1.6c-0.5,0.4-1.2,0.7-1.8,0.6L82.2,60.6z M76.7,56.2h1.9c0.5,0,0.9,0,1.4-0.1c0.7-0.1,1.3-0.8,1.2-1.5
	c0.1-0.8-0.5-1.5-1.2-1.6C79.5,53,79.1,53,78.6,53h-1.9L76.7,56.2z"/>
<path id="Path_1797" class="st0" d="M97.1,60.6h-0.8l-4.9-7.2v7.2h-0.8v-8.3h0.8l4.9,7.1l-0.1-7.1h0.8V60.6z"/>
<path id="Path_1798" class="st0" d="M112.3,60.6h-0.9l-0.9-2.5h-3.7l-0.9,2.5H105l3.4-8.3h0.7L112.3,60.6z M110.3,57.4l-1.6-4.2
	l-1.6,4.2H110.3z"/>
<path id="Path_1799" class="st0" d="M121.6,60.6h-0.8V53h-2.6v-0.7h6V53h-2.6V60.6z"/>
<path id="Path_1800" class="st0" d="M132.9,60.6h-0.8v-8.3h0.8V60.6z"/>
<path id="Path_1801" class="st0" d="M147.5,59.7c-1.3,1.4-3.5,1.4-4.8,0.2c-0.1-0.1-0.1-0.1-0.2-0.2c-0.7-0.9-1.1-2.1-1-3.2
	c0-2.3,1.1-4.3,3.6-4.3c2.7,0,3.5,2.4,3.5,4.3C148.6,57.6,148.2,58.7,147.5,59.7z M145,52.8c-2.1,0-2.8,2.1-2.8,3.7
	c0,1.5,0.6,3.6,2.7,3.6c2.6,0,2.7-3,2.7-3.7C147.7,54.9,147.1,52.8,145,52.8L145,52.8z"/>
<path id="Path_1802" class="st0" d="M163.5,60.6h-0.8l-4.9-7.2v7.2h-0.8v-8.3h0.8l4.9,7.1l-0.1-7.1h0.8L163.5,60.6z"/>
<path id="Path_1803" class="st0" d="M178.7,60.6h-0.9l-0.9-2.5h-3.7l-0.9,2.5h-0.9l3.4-8.3h0.7L178.7,60.6z M176.7,57.4l-1.6-4.2
	l-1.6,4.2H176.7z"/>
<path id="Path_1804" class="st0" d="M191.9,60.6h-5.4v-8.3h0.8v7.6h4.6L191.9,60.6z"/>
<path id="Path_1805" class="st0" d="M20.5,23.2c1.3,2.6,2.5,5.2,3.9,7.7h0.1c1.5-2.6,2.9-5.6,4.3-8.4l5.3-10.8
	c2.6-5.1,4.2-8.2,4.3-10.8c1.9,0.2,3.1,0.2,4.2,0.2c1.4,0,3.3-0.1,5-0.2c0.3,0.4,0.3,1,0.1,1.4l-1.2,0.1c-3.5,0.4-4,1.4-3.9,5.3
	c0.1,6,0.2,16.4,0.6,24.5c0.2,2.8,0.1,4.3,2.8,4.6l1.8,0.2c0.3,0.4,0.3,1-0.1,1.4c-2.3-0.1-4.6-0.2-6.6-0.2c-2,0-4.5,0.1-6.8,0.2
	c-0.4-0.4-0.4-1-0.1-1.4l1.6-0.2c2.8-0.3,2.8-1.2,2.8-4.8L38.2,8.6h-0.1c-0.4,0.6-2.5,5.1-3.7,7.3l-5,9.8c-2.5,5-5.1,10.2-6.1,12.8
	c-0.1,0.2-0.3,0.2-0.6,0.2c-0.2,0-0.4-0.1-0.5-0.2c-1-3-3.7-8.5-4.9-11.3l-5.1-10.9C11.2,13.9,10,11,8.7,8.4H8.6
	c-0.2,3.5-0.4,6.8-0.6,10c-0.2,3.4-0.4,8.4-0.4,13.2c0,4.2,0.3,5.1,2.5,5.2l2.1,0.2c0.4,0.3,0.3,1.2-0.1,1.4
	c-1.9-0.1-4.1-0.2-6.2-0.2c-1.8,0-3.8,0.1-5.7,0.2c-0.4-0.4-0.4-1-0.1-1.4l1.2-0.2c2.4-0.3,3.1-0.7,3.5-4.6c0.3-3.7,0.6-6.8,1-12.4
	c0.3-4.7,0.5-9.5,0.6-12.5C6.6,3.8,6.2,3,2.7,2.5L1.8,2.4C1.5,1.9,1.6,1.3,2,1c1.7,0.1,3,0.2,4.4,0.2c1.3,0,2.8,0,4.7-0.2
	c-0.2,2.2,1.2,5.7,2.9,9.3L20.5,23.2z"/>
<path id="Path_1806" class="st0" d="M52.5,20.1c0-11.3,8.4-19.9,20-19.9c13,0,19.5,9.4,19.5,19.3c0.2,10.6-8.2,19.4-18.8,19.6
	c-0.2,0-0.5,0-0.7,0C60,39.2,52.5,30.2,52.5,20.1z M86.3,21.3C86.3,12,82.2,2,71.5,2c-5.8,0-13.4,4-13.4,16.3
	c0,8.3,4,19.1,15.1,19.1C79.9,37.4,86.3,32.4,86.3,21.3L86.3,21.3z"/>
<path id="Path_1807" class="st0" d="M101.7,8.4c0-4.2-0.2-5.2-2.8-5.5l-1.8-0.2c-0.4-0.3-0.4-0.9-0.1-1.3c0-0.1,0.1-0.1,0.1-0.1
	c3-0.3,6.9-0.5,12.1-0.5c3.5,0,6.9,0.3,9.4,1.6c2.7,1.3,4.4,4,4.3,7c0,4.1-2.4,6.1-5.7,7.7c0,0.6,0.5,0.7,1.1,0.8
	c4.5,0.9,7.7,4.8,7.5,9.4c0,6.5-4.8,10.9-14.9,10.9c-1.6,0-4.4-0.2-6.7-0.2c-2.5,0-4.4,0.1-6.5,0.2c-0.4-0.4-0.4-1-0.1-1.4l1-0.2
	c3-0.5,3.1-1.1,3.1-7L101.7,8.4z M106.3,15.9c0,1.6,0.1,1.7,2.9,1.6c5.7-0.2,8.8-1.9,8.8-7.2c0-5.5-4.1-7.6-8.4-7.6
	c-0.9-0.1-1.8,0.1-2.6,0.3c-0.6,0.2-0.8,0.5-0.8,1.5V15.9z M106.3,29c0,2,0.1,4.9,1.2,6.1c1.1,1.3,2.8,1.6,4.4,1.6
	c5,0,8.8-2.3,8.8-7.9c0-4.4-2.2-9.6-11.2-9.6c-3,0-3.3,0.3-3.3,1.5L106.3,29z"/>
<path id="Path_1808" class="st0" d="M135.7,9.7c0-6-0.1-6.9-3.4-7.2l-1.4-0.1c-0.3-0.2-0.2-1.2,0.1-1.4c2.8,0.1,4.7,0.2,7.1,0.2
	c2.2,0,4.2-0.1,7-0.2c0.3,0.2,0.4,1.2,0.1,1.4l-1.4,0.1c-3.3,0.3-3.4,1.2-3.4,7.2v20c0,6,0.1,6.8,3.4,7.1l1.4,0.2
	c0.3,0.2,0.2,1.2-0.1,1.4c-2.8-0.1-4.7-0.2-7-0.2c-2.4,0-4.3,0.1-7.1,0.2c-0.4-0.4-0.4-1-0.1-1.4l1.4-0.2c3.3-0.4,3.4-1.2,3.4-7.1
	V9.7z"/>
<path id="Path_1809" class="st0" d="M181.5,15.2c0-3.5-0.1-10-1.1-11.7c-0.4-0.7-1.4-1.1-2.8-1.2l-1.4-0.1c-0.3-0.4-0.3-1,0.1-1.4
	c2.1,0.1,4.2,0.2,6.4,0.2c2.4,0,3.9-0.1,5.9-0.2c0.4,0.3,0.4,0.9,0.1,1.4l-1.3,0.1c-1.4,0.1-2.5,0.6-2.8,1.4
	c-0.8,1.9-0.8,8.3-0.8,11.5v6.4c0,4.9-0.8,10.1-3.9,13.5c-2.4,2.6-6.6,4.1-10.7,4.1c-3.9,0-7.8-0.7-10.5-3.1
	c-3-2.5-4.4-6.6-4.4-13.3V9.5c0-5.9-0.1-6.8-3.4-7.1l-1.4-0.1c-0.3-0.2-0.2-1.2,0.1-1.4c2.8,0.1,4.7,0.2,7,0.2
	c2.3,0,4.2-0.1,6.9-0.2c0.3,0.2,0.5,1.1,0.1,1.4l-1.3,0.1c-3.3,0.3-3.4,1.2-3.4,7.1v12.2c0,9.1,2.8,15,11.4,15
	c8.1,0,11.2-6.4,11.2-15L181.5,15.2z"/>
<path id="Path_1810" class="st0" d="M202,39.2c-3.1,0.1-6.1-0.6-8.8-2.1c-0.7-1.2-1.4-5.2-1.5-7.9c0.3-0.4,1.1-0.5,1.3-0.2
	c0.8,2.9,3.1,8.4,9.7,8.4c4.7,0,7-3.1,7-6.5c0-2.5-0.5-5.2-4.6-7.9l-5.3-3.5c-2.8-1.9-6.1-5.1-6.1-9.7c0-5.3,4.2-9.7,11.5-9.7
	c1.8,0,3.5,0.2,5.2,0.7c0.6,0.2,1.3,0.3,2,0.3c0.7,2.2,1,4.5,1,6.9c-0.2,0.3-1.1,0.5-1.4,0.2c-0.7-2.7-2.2-6.4-7.6-6.4
	c-5.5,0-6.7,3.7-6.7,6.2c0,3.3,2.7,5.6,4.8,6.9L207,18c3.5,2.2,7,5.5,7,10.8C214,34.9,209.3,39.2,202,39.2z"/>
</svg>
