<svg id="Phone" xmlns="http://www.w3.org/2000/svg" width="28.242" height="30.653" viewBox="0 0 28.242 30.653">
  <path id="Path_1068" data-name="Path 1068" d="M76.691,64.136l1.832,1.8A12.584,12.584,0,0,1,77.5,67.177a12.926,12.926,0,0,1-2.333,1.962,4.185,4.185,0,0,1-1.535.62,4.27,4.27,0,0,1-1.208.054c-.134-.019-.266-.035-.395-.061a6.943,6.943,0,0,1-2.462-.988,34.224,34.224,0,0,1-9.116-8.616c-.218-.3-.437-.607-.649-.917s-.414-.624-.613-.939a33.578,33.578,0,0,1-4.62-11.567,6.72,6.72,0,0,1,.012-2.61c.025-.127.062-.255.1-.383a4.082,4.082,0,0,1,.509-1.074,4.167,4.167,0,0,1,1.17-1.156A13.124,13.124,0,0,1,59.1,40.14a12.542,12.542,0,0,1,1.563-.453l.99,2.347L62.858,44.9l.985,2.335a31.963,31.963,0,0,0-2.51,4.505l-.038.083a.5.5,0,0,0,0,.347l.04.088a27.59,27.59,0,0,0,5.62,8.259l.068.067a.523.523,0,0,0,.325.134l.093,0a32.88,32.88,0,0,0,5.2-.556l1.821,1.791Zm3.233-18.106A16.28,16.28,0,0,0,69.513,39.2a.965.965,0,0,0-1.137.746.949.949,0,0,0,.759,1.117,14.364,14.364,0,0,1,9.181,6.023,13.868,13.868,0,0,1,2.154,10.63.963.963,0,0,0,.949,1.135.963.963,0,0,0,.947-.764A15.722,15.722,0,0,0,79.924,46.031Zm-11.89.47a8.709,8.709,0,0,1,5.587,3.664,8.436,8.436,0,0,1,1.313,6.471.963.963,0,0,0,.949,1.135.963.963,0,0,0,.947-.764,10.3,10.3,0,0,0-1.6-7.9,10.644,10.644,0,0,0-6.821-4.473.964.964,0,0,0-1.137.748A.952.952,0,0,0,68.034,46.5Z" transform="translate(-54.444 -39.181)" fill="#bd9b5b"/>
</svg>
