<svg id="Group_86" data-name="Group 86" xmlns="http://www.w3.org/2000/svg" width="44.567" height="64.604" viewBox="0 0 44.567 64.604">
  <path id="Path_1425" data-name="Path 1425" d="M380.372,592.008a3.842,3.842,0,0,1-.529-.962c-.064-.616-.324-1-1.232-2.2s-1.62-4.669-2.269-6.743a6.86,6.86,0,0,0-1.7-2.64,7.433,7.433,0,0,0-1.268-1.077c-.2-.131-.438-.194-.636-.323a1.363,1.363,0,0,1-.444-.886,14.512,14.512,0,0,0-.447-1.427,16.971,16.971,0,0,0-1.931-3.7,18.235,18.235,0,0,0-2.059-2.51c-.484-.491-1.118-.81-1.365-1.486-.259-.706-.527-1.408-.729-2.133a7.56,7.56,0,0,1-.315-2.091c-.006-.8-.378-1.508-.125-2.338.028-.09.055-.191.084-.3a29.245,29.245,0,0,0,2.007,3.206c3.8,5.3,8.532,8.4,10.569,6.94s.609-6.939-3.191-12.234c-2.859-3.985-6.246-6.729-8.616-7.222-.6-.834-1.975-.934-2.766-1.123,1.1-1.474.94-2.414.746-2.982-.138-.4.2-.6.227-.93.217-2.765-1.145-3.392-1.145-3.392a2.2,2.2,0,0,0,.207-.218l1.917-2.008c.281-.3.562-.591.844-.885.152-.158.222-.208.082-.421a4.687,4.687,0,0,0-.864-.858,5.156,5.156,0,0,0-3.129-1.261,4.51,4.51,0,0,0-3.736,1.967,9.771,9.771,0,0,0-1.719,4.542,7.2,7.2,0,0,0,.132,2.839,5.028,5.028,0,0,0,.277.773c.06.131.128.181.2.185.13.006.276-.143.418-.26.084-.07.542-.382.529-.506.043.411-.345,1.124-.345,1.577.108.735.583-.108.8-.368-.044.054.062.752.05.877a4.125,4.125,0,0,1-.2.928c-.082.247-.149.5-.379.613-.412.21-.891.22-1.31.433-.39.2-.755.465-1.145.647a5,5,0,0,0-1.753,1.17,3.054,3.054,0,0,0-.151,3.436c-.153-.19-1.273,1.431-1.338,1.548a6.784,6.784,0,0,0-.523,1.168c-.069.206-.057.349-.3.38a2.49,2.49,0,0,1-.722-.132,3.028,3.028,0,0,0-.77-.015c-.3.027-.605.07-.909.087-.325.019-1.222.109-1.261-.421-.021-.3-.432-.335-.7-.3a.9.9,0,0,0-.4-.477l15.846-26.947.047-.1a4.7,4.7,0,0,0,.159.481,4.7,4.7,0,0,0,.767-2.886,6.039,6.039,0,0,0-2.139,2.107,2.776,2.776,0,0,1,.557-.1l-15.909,27.175c-.221.021-.831.083-1.137.144-.378.075-.422.27-.39.421-.734.465-.6.7-.517.875-.433.432-.281.541.108.779a.426.426,0,0,0,.13.734.442.442,0,0,0,.062.028l-.047.08-.351.6q-.32.546-.64,1.095l-.863,1.473q-.508.869-1.016,1.737-.553.943-1.1,1.885l-1.124,1.92q-.539.918-1.077,1.838-.479.822-.961,1.642l-.779,1.331-.53.9-.15.256c-.014.025-.032.048-.043.074a.36.36,0,0,0,.191.459c.295.1.413-.151.533-.356l.225-.38q.334-.569.669-1.138l.9-1.533q.53-.9,1.062-1.806.574-.977,1.15-1.954l1.164-1.98q.553-.939,1.105-1.88.488-.827.975-1.657l.77-1.311c.165-.28.329-.56.494-.841a2.1,2.1,0,0,1,.149-.252c.354.083.7.135.77.067.13-.13-.194-.389-.194-.389A.368.368,0,0,1,346.1,561a2.363,2.363,0,0,0,1.211.259,3.816,3.816,0,0,1,1.295.512,14.2,14.2,0,0,0,1.65.83,4.291,4.291,0,0,0,1.384.176c.292-.011.568-.074.855-.107.307-.036.663.151.8-.222a3.888,3.888,0,0,1,1.276-1.542c.461-.318,1.227-.716,1.447-1.267q.214.743.455,1.479a7.539,7.539,0,0,1,.436,1.552c.046.439,0,.9.02,1.346.028.685.126,1.377.126,2.063a3.949,3.949,0,0,1-.808,2.164,5.435,5.435,0,0,1-.632.912,9.79,9.79,0,0,1-.756.671,25.866,25.866,0,0,0-3.468,3.769,7.692,7.692,0,0,0-1.157,1.722c-.308.739-.284,1.555-.609,2.29a2.851,2.851,0,0,0-.071,1.739c.128.629.295,1.222.4,1.86.022.132.069.259.1.389a2.128,2.128,0,0,1,.073.468c-.108.009-.171,0-.177.124a1.138,1.138,0,0,0,.1.361c.084.248.17.5.253.746.2.59.4,1.182.57,1.782.068.233.129.469.187.706.156.624.3,1.251.432,1.881.053.246.1.492.151.739a.665.665,0,0,1,.035.276c-.022.064-.117.138-.155.2a2.213,2.213,0,0,0-.1.2,5.074,5.074,0,0,1-.187.5.947.947,0,0,1-.307.261,2.041,2.041,0,0,0-.267.225c-.13.128-.242.274-.371.4a1.705,1.705,0,0,1-1.167.345c-.843,0-.713.822-.67,1.124a.241.241,0,0,0,.173.411c.734.043,2.637.281,3.695-.238a10.3,10.3,0,0,1,2.442-.713.3.3,0,0,0,.173-.475,4.307,4.307,0,0,0-.411-2.334,6.257,6.257,0,0,1-.368-.928c0-1.384-.151-4.128-.108-4.754s-.022-.67-.194-.626c-.151-1.535-.411-1.859-.865-2.357-.241-.265-.115-.671.01-.959a2.793,2.793,0,0,1,.4-.738,2.741,2.741,0,0,1,.519-.4c.459-.321.914-.645,1.371-.969.609-.433,1.23-.854,1.829-1.3.487-.364.966-.741,1.428-1.136a10.479,10.479,0,0,0,1.966-2.062,3.015,3.015,0,0,0,.267-.475.831.831,0,0,1,.046-.11c.126-.2.406.07.567.133a1.748,1.748,0,0,0,1.292-.051c.132-.075.293-.248.464-.2.151.046.224.324.292.454q.3.59.625,1.168c.362.647.745,1.283,1.157,1.9a14.986,14.986,0,0,0,1.9,2.365,7.968,7.968,0,0,0,1.305,1.049,5.929,5.929,0,0,1,.553.356c.562.453,1.232.886,1.4,1.62a8.623,8.623,0,0,0,1.816,3.306,16.329,16.329,0,0,1,3.2,4.236,2.936,2.936,0,0,0,.613,1.064c.1.122.215.237.321.357a.832.832,0,0,1,.241.378,1.756,1.756,0,0,0,.2.416c.076.133.176.253.249.389a.8.8,0,0,1,.042.5,2.934,2.934,0,0,0-.011.406,4.9,4.9,0,0,1,0,.764,1.7,1.7,0,0,0,0,.732c.062.186.2.411.414.44a5.193,5.193,0,0,0,2.507-.173A1.057,1.057,0,0,0,380.372,592.008Z" transform="translate(-335.917 -529.035)" fill="#bd9b5b"/>
</svg>
