<svg xmlns="http://www.w3.org/2000/svg" xmlns:xlink="http://www.w3.org/1999/xlink" width="103.158" height="87.963" viewBox="0 0 103.158 87.963">
  <defs>
    <clipPath id="clip-path">
      <rect id="Rectangle_3291" data-name="Rectangle 3291" width="103.158" height="87.963" fill="none"/>
    </clipPath>
  </defs>
  <g id="Year_Founded" data-name="Year Founded" transform="translate(0 0)">
    <g id="Group_5398" data-name="Group 5398" transform="translate(0 0)" clip-path="url(#clip-path)">
      <path id="Path_9359" data-name="Path 9359" d="M38.863,36.793a1.4,1.4,0,1,1-1.4,1.4,1.4,1.4,0,0,1,1.4-1.4" transform="translate(15.015 14.745)" fill="#2a3b46"/>
      <path id="Path_9360" data-name="Path 9360" d="M79.585,75.716a10.591,10.591,0,0,0-7.524-8.88,10.669,10.669,0,0,0-8.368,1.02l-.144.084-.084-.146L57.017,56.6l-.048-.084.048-.084L70.333,33.308l.2-.342-3.141-.146-.195.338L54.448,55.293a6.4,6.4,0,0,1-8.755,2.348c-.212-.123-1.234-.639-1.234-.639L30.507,81.208a8.049,8.049,0,0,1-6.993,3.953,7.775,7.775,0,0,1-4.164-1.188,8.139,8.139,0,0,1-2.809-10.486,7.928,7.928,0,0,1,7.04-4.272A8.019,8.019,0,0,1,27.6,70.287c.443.256,2.419,1.715,2.419,1.715s1.073-1.869,1.579-2.747L52.481,32.988l-3.411.319L46.486,37.8l-.147.254-.144-.254-3.677-6.385L31.1,11.584,25.2,1.342C24.991.978,24.421,0,24.421,0s-1.1.766-1.355.99a20.777,20.777,0,0,0-6.257,9.995c0,.006-.254,1-.622,3.07A20.7,20.7,0,0,0,18.774,27.1l.649,1.129L21.3,31.489,35.659,56.43l.049.084-.049.084L29.214,67.8l-.085.146-.146-.084a10.66,10.66,0,0,0-8.367-1.021,10.767,10.767,0,0,0,2.9,21.126A10.851,10.851,0,0,0,32.929,82.6l12.3-21.359.349-.639s1.385.49,1.754.555l.078.013.039.069s12.29,21.341,12.3,21.362a10.911,10.911,0,0,0,9.507,5.3,10.4,10.4,0,0,0,5.564-1.569,10.6,10.6,0,0,0,4.765-10.623M21.193,25.707A18.285,18.285,0,0,1,23.517,4.46l.154-.169.115.2,20.893,36.28.048.084-.048.084L37.468,53.46l-.146.254-.146-.254ZM73.329,83.973A7.963,7.963,0,0,1,62.17,81.208L50.726,61.331l-.115-.2.224-.049.1-.021c.116-.024.233-.049.349-.08a9.088,9.088,0,0,0,3.673-1.967l.154-.134.1.178L61.08,69.253c.382.667,1.618,2.7,1.618,2.7s1.925-1.406,2.391-1.678a7.942,7.942,0,0,1,3.97-1.076,8.042,8.042,0,0,1,2.226.318,7.923,7.923,0,0,1,4.849,3.967,8.138,8.138,0,0,1-2.806,10.485" transform="translate(5.193 0)" fill="#2a3b46"/>
      <path id="Path_9361" data-name="Path 9361" d="M54.987.992C54.732.768,53.688,0,53.688,0L49.451,7.25l3.211.025,1.6-2.785.115-.2.155.171A17.575,17.575,0,0,1,56.7,7.417l3.3.255A20.67,20.67,0,0,0,54.987.992" transform="translate(19.819 0)" fill="#2a3b46"/>
      <path id="Path_9362" data-name="Path 9362" d="M83.352,18.887l-.094-.109.094-.109,8.5-9.936s-2.561.069-3.1.069a137.519,137.519,0,0,1-16.032-.81c-.967-.1-1.939-.2-2.971-.289l-3.4-.261c-2.016-.127-4.142-.207-6.5-.247l-3.6-.029c-5.274,0-10.612.416-15.774.815-4.016.311-8.141.619-12.258.747l1.594,2.764c3.736-.141,7.48-.43,11.125-.717,5.054-.4,10.28-.812,15.453-.812,5.132,0,10.321.412,15.337.811,4.467.356,9.085.723,13.644.8l.357.006-.231.272-5.918,6.93,5.872,6.876.242.283-.374-.006c-5.841-.1-9.283-.445-12.613-.782a161.949,161.949,0,0,0-16.224-.815c-1.09,0-2.194.011-3.283.034-4.244.085-8.529.447-12.673.8-.9.076-1.806.153-2.719.227l1.525,2.643c1.143-.111,2.282-.227,3.4-.343l1.586-.164a35.8,35.8,0,0,1,3.809-.318c1.483-.074,3.192-.087,6.707-.088.608,0,1.221,0,1.825,0,1.95,0,4.555.018,5.9.1.008,0,1.579.031,3.519.167,2.461.153,4.438.352,6.35.545a139.854,139.854,0,0,0,16.315.825h3.031Z" transform="translate(11.311 2.872)" fill="#d7001a"/>
      <path id="Path_9363" data-name="Path 9363" d="M21.367,25.35c-.719-.069-1.4-.137-2.047-.2-3.408-.345-6.932-.7-12.943-.8l-.357-.006.233-.272,5.915-6.93L6.3,10.267l-.242-.283.373.006c5.6.094,8.987.417,12.187.74l.538-2.755A139.537,139.537,0,0,0,3.007,7.167H0l8.4,9.867.094.109-.094.109L0,27.156s2.464-.035,3.007-.035c5,0,10.041.408,14.915.8,1.694.137,3.423.27,5.158.394Z" transform="translate(0 2.872)" fill="#d7001a"/>
      <path id="Path_9364" data-name="Path 9364" d="M53.885,52.96a3.024,3.024,0,0,0-.018,6.047h.011a3.011,3.011,0,0,0,3.031-3v0A3.027,3.027,0,0,0,53.9,52.96Z" transform="translate(20.384 21.225)" fill="#2a3b46"/>
      <path id="Path_9365" data-name="Path 9365" d="M21.421,52.96a3.024,3.024,0,0,0-.017,6.047h.011a3.011,3.011,0,0,0,3.03-3v0a3.027,3.027,0,0,0-3.006-3.041Z" transform="translate(7.373 21.225)" fill="#2a3b46"/>
    </g>
  </g>
</svg>
